<svg xmlns="http://www.w3.org/2000/svg" viewBox="0 0 560.18 110.21"><defs><style>.cls-1{fill:#fff;}</style></defs><g id="Layer_2" data-name="Layer 2"><g id="Layer_7" data-name="Layer 7"><path class="cls-1" d="M548.15,41.69a4.27,4.27,0,0,0,3.12-1.35,3.93,3.93,0,0,0,1.23-2.88,3,3,0,0,0-3.39-3.39A4.28,4.28,0,0,0,546,35.42a4,4,0,0,0-1.23,2.88A3,3,0,0,0,548.15,41.69Z"/><path class="cls-1" d="M76.73,46.38l-.47-.14.12-.47c4.41-16.6,10.15-30.83,17.05-42.31A3.25,3.25,0,0,0,94,2.39c0-.45-.14-.58-.59-.58S92.21,2,89.9,3.42c-2.49,1.46-3,2.09-3.06,2.3-1.2,2.41-2.17,4.45-2.89,6.09S82.59,15,82,16.32a192.3,192.3,0,0,0-8.65,28.6l-.11.48-.48-.1c-1.91-.4-3.87-.76-5.83-1.08a48.53,48.53,0,0,0-5.9-.6l-1,0,.57-.76c.72-1,1.71-2.25,3-3.86s2.51-3.29,3.79-5.05,2.52-3.41,3.63-4.83S73,26.59,73.45,26L80.87,16c.17-.5.19-.62.2-.65,0-.53-.19-.91-1.07-.91-.08,0-.32,0-.73.46l-6.7,9c-1.28,1.76-2.44,3.29-3.45,4.53s-2,2.52-3.08,3.8S63.75,35,62.3,36.76,59,40.67,56.76,43.33l-.15.17H53.23c-7.41,0-14,.24-19.58.73a88.77,88.77,0,0,0-15.58,2.52,27.64,27.64,0,0,0-12.31,7.1C1.94,57.66,0,61.88,0,66.38a10.19,10.19,0,0,0,4.48,9c2.56,1.86,6,2.8,10.2,2.8,6.53,0,12.83-2.24,18.74-6.65q1.77-1.29,3.65-2.93c1.24-1.07,2.75-2.5,4.49-4.25s4-4.1,6.62-7c2.08-2.17,3.9-4.15,5.41-5.9s2.9-3.42,4.08-4.92l.16-.2h.25c2.77.08,5.34.18,7.66.3a60.91,60.91,0,0,1,6.62.67l.52.08-.11.52c-1,4.86-1.8,9.22-2.28,13a76.76,76.76,0,0,0-.72,9.46c0,4.77,1.34,7.09,4.08,7.09a7.37,7.37,0,0,0,3.71-1.37c1.35-.78,2.06-1.55,2.06-2.23S79.28,73,79,73a13.79,13.79,0,0,0-2,1.45A5.67,5.67,0,0,1,73.85,76c-1.51,0-1.7-2.46-1.7-4.6a65.06,65.06,0,0,1,.91-10c.6-3.83,1.48-8.2,2.59-13l.15-.62.57.29a4.8,4.8,0,0,0,.86.26A9.85,9.85,0,0,1,79,49a8.1,8.1,0,0,1,1.35.44,6.38,6.38,0,0,0,.71.27c.63,0,.77-.27.77-.71C81.79,48.75,81.42,47.73,76.73,46.38Zm-23.35.81c-1.52,1.76-2.91,3.29-4.11,4.54s-2.33,2.42-3.37,3.54c-2.82,3-5.49,5.61-7.93,7.81a69.1,69.1,0,0,1-6.49,5.28c-6,4.06-12.15,6.11-18.24,6.11a13.72,13.72,0,0,1-7.38-1.88,7.49,7.49,0,0,1-3.61-6.45c0-4,1.76-7.67,5.22-11a26.19,26.19,0,0,1,4.85-3.56,25.58,25.58,0,0,1,5.84-2.46A76.25,76.25,0,0,1,31.39,47c5.23-.44,11.37-.66,18.24-.66H54.1Z"/><path class="cls-1" d="M213.76,0c-5,0-10.23,5.58-15.58,16.59a110.51,110.51,0,0,0-4.68,11.16c-1.44,4-2.86,8.38-4.21,13l-.12.4-.41,0a11,11,0,0,0-7.26,2.15,34.43,34.43,0,0,0-7.72,7.66,38.86,38.86,0,0,0-6.64,11.77l-.08.16a17.13,17.13,0,0,1-1.27,1.5c-3.33,3.65-5.85,5.44-7.71,5.44-2.85,0-4.23-3-4.23-9.17,0-6.33,1-11.17,3-14.36a2.24,2.24,0,0,1,1.54-1.08,3.36,3.36,0,0,0,.38-.07,2.11,2.11,0,0,0-.21-.34c-1.22-1.9-3.13-2.81-5.87-2.81a7.59,7.59,0,0,0-1.81.22c-.64.16-1.32.36-2,.59-3.72,1.33-7.57,4.91-11.43,10.65a48.72,48.72,0,0,0-3.85,6.72l-.07.12c-7.68,9.09-14.74,11-20.68,5.86-2.16-1.87-3.72-4.82-4.62-8.77l-.14-.61h.63a17.47,17.47,0,0,0,5.91-1.17,28.62,28.62,0,0,0,6.1-3.08c4.17-2.93,6.29-5.88,6.29-8.74,0-3.66-1.51-4.08-2.64-4.08a11.12,11.12,0,0,0-5,1.86,41.1,41.1,0,0,0-7.79,6.43L97.5,61.73l.71-2c.55-1.6,1.18-3.23,1.87-4.85s1.44-3.27,2.24-5l.05-.11.1-.07c4.47-3.44,8.76-6.9,12.75-10.29s7.63-6.77,10.81-10c10-10.22,15.05-18.25,15.05-23.87,0-3-1.57-4.45-4.93-4.45-6,0-13.9,7.83-23.55,23.27-3.36,5.35-6.43,10.69-9.14,15.87s-5.35,10.7-7.82,16.36c-3.33,7.61-5,12.37-5,14.14,0,.64,1.5.7,2.15.7A6.57,6.57,0,0,0,95.08,71c0-.16.08-.38.16-.68a6.18,6.18,0,0,0,.17-.68,13.89,13.89,0,0,1,2.64-6.56,38.83,38.83,0,0,1,3.16-3.53c1.21-1.2,2.29-2.37,3.23-3.47l.88-1v1.35a15,15,0,0,0,.94,4.6,26.75,26.75,0,0,0,2.6,5.44,17,17,0,0,0,3.86,4.39,7.53,7.53,0,0,0,4.76,1.7,1.63,1.63,0,0,0,.36-.05,2.35,2.35,0,0,1,.6-.07,13.53,13.53,0,0,0,4.11-1.51,27.63,27.63,0,0,0,5.55-4.14c1.08-1,2.12-1.94,3.1-2.92l1.31-1.31L132,64.3a15.36,15.36,0,0,0-.57,3.89c0,2.45,1,3.6,3.24,3.6,3.88,0,8.56-4.75,13.9-14.09l1.25-2.18L149.54,58c-.08.63-.14,1.24-.17,1.83s-.06,1.17-.06,1.72c0,6.64,2.24,9.86,6.85,9.86a9.09,9.09,0,0,0,4.11-1,19.34,19.34,0,0,0,5.25-4.62l1-1.21-.18,1.59c-.06.6-.1,1.15-.1,1.68,0,2.45,1,3.59,3.24,3.59,4.05,0,9.21-5.55,15.35-16.49l1.46-2.61-.53,2.94a38.9,38.9,0,0,0-.72,6.9c0,6.07,1.89,9,5.77,9,4.61,0,9.42-4,14.28-11.93a3.14,3.14,0,0,0,.52-1.33,71.74,71.74,0,0,0-4.77,5.52c-3.35,4-5.88,6-7.74,6-2.93,0-4.36-3.16-4.36-9.66a47,47,0,0,1,.73-8l0-.13.09-.11c19-22.37,28.68-37.91,28.68-46.19C218.32,1.68,216.87,0,213.76,0ZM103.84,46a6.77,6.77,0,0,1,.45-1.83,29.91,29.91,0,0,1,1.53-3.68,136.51,136.51,0,0,1,9.91-17.78A62.28,62.28,0,0,1,126.79,9.84c4.56-3.81,7.82-5.66,10-5.66,1,0,2.54.4,2.54,3,0,4.6-4.38,11.34-13.39,20.6-3.84,3.91-7.66,7.57-11.36,10.87a82.94,82.94,0,0,1-9.94,7.76l-.77.49Zm3.33,8.58-.21-.33.27-.28C117,43.8,119.6,42.62,120.73,42.62c.77,0,2.07.38,2.07,2.91s-1.57,4.78-4.67,7-5.94,3.22-8.37,3.22A2.82,2.82,0,0,1,107.17,54.59Zm42.31.59A85.41,85.41,0,0,1,144,63.43a25.55,25.55,0,0,1-3.81,4.12,5.68,5.68,0,0,1-3.46,1.62c-1,0-2.18-.53-2.18-3,0-4,2.51-9,7.47-14.9,3.45-4.2,7-6.33,10.38-6.33a4,4,0,0,1,1.24.15l.5.16-.19.49A64.65,64.65,0,0,1,149.48,55.18ZM187,49.11a55.48,55.48,0,0,1-3,5.59c-1.2,2.09-2.23,3.84-3.07,5.25a23.67,23.67,0,0,1-2.16,3.14c-2.84,3.76-5.22,5.6-7.25,5.6-1.05,0-2.31-.55-2.31-3.15,0-3.47,1.94-7.79,5.77-12.84S182.56,45,185.92,45c.65,0,1.41.07,1.71.52.17.07.36.25.36.71A8.17,8.17,0,0,1,187,49.11Zm4.1-.51-1.41,1.92.52-2.33a195.1,195.1,0,0,1,7.85-25.85c5-13.43,9.56-20,13.85-20,1,0,2.67.41,2.67,3.16C214.62,13.1,206.94,27.19,191.14,48.6Z"/><path class="cls-1" d="M296.56,33.86V34a7.45,7.45,0,0,0,.86.67,2.19,2.19,0,0,1,1.19,1.87,3.45,3.45,0,0,1-1.23,2.28c-1.12,1.11-3,2.06-5.88,2.89a79.13,79.13,0,0,1-9.09,2.07C274.86,44.93,270,46.05,268,47.06a7.57,7.57,0,0,0-4.14,4.81,30.32,30.32,0,0,0-.88,7.76c0,.36.09.46.43.47,0,0,0-.1,0-.23a10,10,0,0,1,4.68-8.73c2.12-1.55,5.51-2.83,10.06-3.81,1.13-.24,2.59-.54,4.4-.9s3.73-.71,5.75-1l.41-.07.14.4a15.44,15.44,0,0,1,.87,5.1c0,6.85-4.55,12.55-13.53,17a51.37,51.37,0,0,1-22.52,5.36c-4.84,0-8.41-.91-10.62-2.71a8.48,8.48,0,0,1-3.38-6.83c0-3.06,1.21-6.44,3.58-10a40.26,40.26,0,0,1,9.64-9.94,44.09,44.09,0,0,1,13.65-6.89l7.11-2.17c1.53-.4,1.93-.81,1.93-1,0-.31-.39-.46-1.18-.46-.3,0-.93.06-1.87.18a31.12,31.12,0,0,0-3.44.65,34.06,34.06,0,0,1-6.14.74c-5.13,0-7.73-1.51-7.73-4.48A9.56,9.56,0,0,1,258,23.37a23.18,23.18,0,0,1,6.9-4.74,39.55,39.55,0,0,1,8.36-2.81,36.11,36.11,0,0,1,7.45-.91A24.08,24.08,0,0,1,288.38,16c3.27,1.2,4.92,3,4.92,5.29a7.79,7.79,0,0,1-.63,2.71,5.9,5.9,0,0,1-.46,1.11.57.57,0,0,0-.11.28.38.38,0,0,0,0,.15A2.75,2.75,0,0,0,294.76,24a3.39,3.39,0,0,0,.44-1.25,9.83,9.83,0,0,0,.12-1.55c0-2.53-1.56-4.43-4.76-5.81a21.65,21.65,0,0,0-8.48-1.64,52.89,52.89,0,0,0-10.62,1.13,48.53,48.53,0,0,0-10.2,3.28A21.22,21.22,0,0,0,254,23.21c-1.84,2.07-2.77,4.06-2.77,5.93A5.48,5.48,0,0,0,254,33.79c1.91,1.3,4.84,1.93,8.75,1.84l2.84-.05-2.65,1c-8,3.1-14.12,6.12-18.09,9-6.33,4.54-9.55,10-9.55,16.1a10.58,10.58,0,0,0,6,10,24.51,24.51,0,0,0,12.3,2.84,56.15,56.15,0,0,0,23.53-5.26c9.24-4.31,13.93-10,13.93-17a18.49,18.49,0,0,0-1.41-6.8l-.2-.51.52-.16c6.16-1.85,9.28-4.24,9.28-7.11a4.75,4.75,0,0,0-1-2.61A2.06,2.06,0,0,0,296.56,33.86Z"/><path class="cls-1" d="M385,70.13c-.27,0-.46.05-.46.59a7.33,7.33,0,0,0,.34,1.67c.09.45.15.85.19,1.22a8.51,8.51,0,0,1,.07,1.09c0,3-1.85,3.63-3.39,3.63-3.72,0-9.28-4.15-17-12.7-3-3.29-5.66-6.46-8-9.42a98.46,98.46,0,0,1-5.94-8.36l-.53-.86,1,.09a23.32,23.32,0,0,0,2.95.06c1.11,0,2.07-.1,2.86-.18a50.86,50.86,0,0,0,18.16-4.41,33.8,33.8,0,0,0,8.26-5.17,21.41,21.41,0,0,0,5.36-6.89,15.24,15.24,0,0,0,1.63-6.29c0-6.38-4.32-10.47-13.22-12.52a112.56,112.56,0,0,0-24-2.52c-11.63,0-21.95,1.45-30.7,4.31a7.51,7.51,0,0,0-3.17,2c-1.27,1.12-1.91,2.09-1.91,2.9,0,.14,0,.22.35.22a1.8,1.8,0,0,0,.44-.05c.19,0,.45-.09.76-.17a117,117,0,0,1,19.5-5.25,113.54,113.54,0,0,1,19.91-1.76,87.19,87.19,0,0,1,16.73,1.46c7.3,1.33,11,4.86,11,10.49a15.92,15.92,0,0,1-.12,1.87,9.38,9.38,0,0,1-.51,2,19.74,19.74,0,0,1-5.25,7.6,35.2,35.2,0,0,1-9.84,6.18,64.45,64.45,0,0,1-9.78,3.28A59.57,59.57,0,0,1,350.08,46l-.32,0-4.26-7.62.13-.25c1.84-3.36,3.85-6.72,6-10s4.38-6.51,6.7-9.72a1.69,1.69,0,0,0,.27-.57c0-.24-.61-.33-1.19-.33-2.64,0-4.61.79-5.87,2.35-1.7,2.87-3.26,5.56-4.6,7.94s-2.43,4.36-3.31,6l-.37.68-.47-.62a5.72,5.72,0,0,0-4.66-2.69,5.64,5.64,0,0,0-4.21,2,6.25,6.25,0,0,0-1.79,4.48c0,2.95,1.79,5.25,5.5,7l.44.22-.21.45c-7.4,15.6-11.16,26.35-11.16,32,0,2.75,1.08,2.75,1.43,2.75s.71,0,.71-1.19v-.76a3.46,3.46,0,0,1-.12-1c0-5,4-15.12,12.34-30.85l.18-.33.38.08,2.27.48a21.15,21.15,0,0,0,2.48.35l.25,0,.13.21c2.23,3.52,4.66,7,7.2,10.27s5.22,6.56,7.94,9.68c11,12.17,18.81,16.13,23,11.67a6.2,6.2,0,0,0,1.67-4.24C386.54,72.48,386.27,70.13,385,70.13ZM338.3,44.34l-.47-.32A5.89,5.89,0,0,1,335,39c0-3.31,1.71-4,3.15-4s2.44.86,3.34,2.56l.12.22Zm6.85,1.81-1.63-.24c-.53-.08-1-.17-1.41-.25l-.67-.13,2.08-3.78,2.65,4.54Z"/><path class="cls-1" d="M560.16,57.19l-2.83,3.48a37.89,37.89,0,0,1-3.34,4c-1.09,1.13-2.13,2.15-3.09,3a16.26,16.26,0,0,1-4.49,2.93,10.83,10.83,0,0,1-4,.94c-1.65,0-3.63-.84-3.63-4.84a20.51,20.51,0,0,1,1.73-7.6,49.88,49.88,0,0,1,4.38-8.34,2.85,2.85,0,0,0,.4-1.41,1.64,1.64,0,0,0-.46-1.22c-1-1-2-1.15-2.84,0s-1.57,2.49-2.33,3.88a37.29,37.29,0,0,0-2.2,5c-.24.66-.46,1.29-.67,1.9l0,.11-.08.08a18.89,18.89,0,0,1-10.57,5.47l-.57.09v-.59a26.42,26.42,0,0,0-.3-3.72A17.43,17.43,0,0,0,524,56.21l-3-7.85a7.12,7.12,0,0,1-.39-2.22A6,6,0,0,1,523,41.28a9.25,9.25,0,0,1,5.37-1.79c1.85,0,2.27-.34,2.27-.46a2.64,2.64,0,0,0-1.57-2.23,6.16,6.16,0,0,0-3.6-1A7.87,7.87,0,0,0,520.28,38a29,29,0,0,0-4.85,5.69c-1.52,2.28-2.94,4.52-4.21,6.67-1.5,2.63-2.8,4.75-3.84,6.3l-.11.12a1.17,1.17,0,0,0-.27.33c-.24.37-.47.7-.7,1l-.2.28a8.4,8.4,0,0,1-1,1.1l-.39.34-.32-.41c-.79-1-1.51-1.5-2.14-1.5-.36,0-1.43,0-1.43,3a11.22,11.22,0,0,0,.47,3.17l.08.28-.19.21a30.29,30.29,0,0,1-6.27,5.2,23.75,23.75,0,0,1-11.57,3.81l-1.81,0,1.53-1a24.32,24.32,0,0,0,6-5.61,46.51,46.51,0,0,0,4.77-7.34c3.24-6.24,4.89-11.72,4.89-16.28,0-5.16-2.53-5.16-3.36-5.16-2.72,0-6.11,2.53-10.09,7.52a67.93,67.93,0,0,0-4.49,6.41c-1.63,2.59-3,5-4.14,7l-1.35,2.51.41-2.82a58.48,58.48,0,0,0,.6-5.92c.08-1.84.12-3.35.12-4.62,0-3.26-.38-4.53-.7-5a2.81,2.81,0,0,0-2.12-1.23,5.47,5.47,0,0,0-2.58.09,1.5,1.5,0,0,0-.51.29l.52.61a3.76,3.76,0,0,1,.73,2.25,20.18,20.18,0,0,1-1.66,6.45,36.63,36.63,0,0,1-4.1,7.65c-1.05,1.33-2.19,2.71-3.4,4.12A28.7,28.7,0,0,1,457,68.72a12.06,12.06,0,0,1-6.91,2.14,5,5,0,0,1-4.65-2.54A10.4,10.4,0,0,1,444,63a12.64,12.64,0,0,1,.5-3.76l.07-.25.24-.08a19.72,19.72,0,0,0,4.4-2.35,37.7,37.7,0,0,0,4.7-3.81c3.66-3.42,5.51-6.34,5.51-8.67a2.86,2.86,0,0,0-.74-2.17,2.56,2.56,0,0,0-1.77-.71,10,10,0,0,0-5.86,2.08,24.51,24.51,0,0,0-5.37,5.43,29.91,29.91,0,0,0-3.85,7.05A21.72,21.72,0,0,0,440.68,60l0,.18-.13.11a18.69,18.69,0,0,1-9.42,4.4l-.58.09v-.59a26.42,26.42,0,0,0-.3-3.72A17,17,0,0,0,429,56.21l-3-7.85a7.12,7.12,0,0,1-.39-2.22,6,6,0,0,1,2.48-4.86,9.29,9.29,0,0,1,5.37-1.79c1.86,0,2.27-.34,2.27-.46a2.65,2.65,0,0,0-1.56-2.23,6.18,6.18,0,0,0-3.6-1A7.84,7.84,0,0,0,425.33,38a29.08,29.08,0,0,0-4.86,5.69c-1.52,2.28-2.93,4.52-4.2,6.67-2.95,5.15-4.95,8.15-6.13,9.16l-.4.34-.32-.41c-.78-1-1.5-1.5-2.14-1.5-.35,0-1.43,0-1.43,3a11.47,11.47,0,0,0,.46,3.14l.08.27-.19.21a28.64,28.64,0,0,1-4.78,4.14,12.08,12.08,0,0,1-6.91,2.14,5,5,0,0,1-4.65-2.54,10.4,10.4,0,0,1-1.4-5.31,12.62,12.62,0,0,1,.51-3.76L389,59l.24-.08a19.93,19.93,0,0,0,4.4-2.35,37.7,37.7,0,0,0,4.7-3.81c3.66-3.42,5.51-6.34,5.51-8.67a2.83,2.83,0,0,0-.75-2.17,2.51,2.51,0,0,0-1.76-.71,10,10,0,0,0-5.86,2.08,24.51,24.51,0,0,0-5.37,5.43,29.91,29.91,0,0,0-3.85,7.05,19.46,19.46,0,0,0-1.41,6.87c0,3.44.94,5.9,2.81,7.32a10.81,10.81,0,0,0,6.69,2.19,12.67,12.67,0,0,0,7.54-2.32A29.13,29.13,0,0,0,406.29,66l.48-.53.33.64a15.61,15.61,0,0,0,13.2,8.12,10.8,10.8,0,0,0,6.45-2.08,8.92,8.92,0,0,0,2.17-2.28,8.7,8.7,0,0,0,1.25-3.19l.06-.33.33-.07a22.62,22.62,0,0,0,9.09-3.68l.78-.57,0,1c.06,3.28,1,5.63,2.8,7a10.81,10.81,0,0,0,6.69,2.19,12.67,12.67,0,0,0,7.54-2.32,28.7,28.7,0,0,0,5.92-5.69c.6-.75,1.16-1.49,1.71-2.21l.14-.12a56.24,56.24,0,0,0,4-5.34c1-1.58,1.84-2.8,2.42-3.63l.8-1.15.11,1.4c.08,1.07.12,2.26.12,3.53v5l-.09.13c-2.6,3.57-5.24,7.15-7.84,10.61s-5.21,7.1-7.7,10.71a103.7,103.7,0,0,0-8.16,13.37c-1.72,3.58-2.6,6.36-2.6,8.28,0,3.55,1.43,4,2.51,4,3.66,0,8.46-4.87,14.28-14.46,2.22-3.58,4.16-7,5.76-10.32s3.05-6.59,4.32-9.85l.18-.45.46.16a28.35,28.35,0,0,0,3.61,1A22.3,22.3,0,0,0,488.71,74a25.52,25.52,0,0,0,7.56-4c1.42-1.1,2.64-2.13,3.64-3,.41-.38.81-.78,1.22-1.19l.49-.51.31.64a15.62,15.62,0,0,0,13.32,8.34,10.83,10.83,0,0,0,6.46-2.08,9.06,9.06,0,0,0,2.16-2.28,8.36,8.36,0,0,0,1.25-3.19l.07-.33.33-.07a22.42,22.42,0,0,0,9.28-3.81l1.11-.83L535.59,63a17.63,17.63,0,0,0-.56,3.91c0,4.45,2,6.61,6.13,6.61,5,0,11.1-4.84,18.28-14.38a2.48,2.48,0,0,0,.74-1.63A1.87,1.87,0,0,0,560.16,57.19Zm-114.8-.33a27.73,27.73,0,0,1,3.79-7.5c2.4-3.94,4.22-5.77,5.73-5.77a1.77,1.77,0,0,1,1.95,1.94c0,2.09-1.36,4.42-4.13,7.11a21.81,21.81,0,0,1-6.66,4.8l-.94.4Zm-55.55,0a27.73,27.73,0,0,1,3.79-7.5c2.4-3.94,4.22-5.77,5.73-5.77a1.76,1.76,0,0,1,1.94,1.94c0,2.09-1.35,4.42-4.12,7.11a21.81,21.81,0,0,1-6.66,4.8l-.94.4Zm20.91,3.54c.64-.86,1.25-1.7,1.82-2.5l.13-.3c1.07-1.39,2.17-2.93,3.3-4.58,2-3,4.1-6.18,6.19-9.56l1.26-2-.34,2.37a14.49,14.49,0,0,0,.42,3.63A62.67,62.67,0,0,0,425.11,54c.73,2.41,1.28,4.41,1.64,5.93a17.19,17.19,0,0,1,.55,3.73v1.74l-.53,0a43.59,43.59,0,0,1-8-1.34,43.26,43.26,0,0,1-7.82-2.82l-.55-.26Zm16.43,6.87a5.73,5.73,0,0,1-3.48,3.61,13.57,13.57,0,0,1-4.94.94c-4.7,0-8.23-2.61-10.48-7.76l-.12-.27,1.27-1.64.39.31a17.73,17.73,0,0,0,6.94,3.07,43.93,43.93,0,0,0,9.95,1.07h.71Zm44.43.93a4.54,4.54,0,0,0-.66,2.4v.6a.86.86,0,0,0,.07.38l.08.16,0,.18c-.89,3.7-1.78,6.92-2.66,9.56a44.59,44.59,0,0,1-2.56,6.34c-6.26,11.86-11.18,17.62-15,17.62-.37,0-1.22-.15-1.22-1.58,0-1.87,1.48-5.57,4.52-11.32,1.28-2.49,2.48-4.66,3.56-6.47s2-3.31,2.85-4.54l8.68-12.78c.69-1,1.22-1.42,1.74-1.42a.84.84,0,0,1,.59.26l.28.28Zm8.69,5.14-.5.23-.18-.52a6.1,6.1,0,0,0-2-2.61A4.37,4.37,0,0,0,475,69.17h-.67l.2-.64a60,60,0,0,1,2.91-7.66c1.2-2.64,2.42-5.12,3.63-7.38a48.05,48.05,0,0,1,4.69-7.37,13.49,13.49,0,0,1,4.71-4.06,4.63,4.63,0,0,1,1.41-.28c1.16,0,2.54.73,2.54,4.23,0,4.16-1.43,9.26-4.26,15.16a41.42,41.42,0,0,1-4.58,7.62A14.54,14.54,0,0,1,480.27,73.34Zm25.3-13,.72-1,.12-.2c1.4-1.72,2.91-3.77,4.51-6.13,2-3,4.11-6.18,6.2-9.56l1.26-2L518,43.8a14.49,14.49,0,0,0,.42,3.63A60.23,60.23,0,0,0,520.07,54c.72,2.41,1.27,4.41,1.63,5.93a16.71,16.71,0,0,1,.56,3.73v1.74l-.53,0A43.59,43.59,0,0,1,513.68,64a42.84,42.84,0,0,1-7.92-2.87l-.54-.26Zm16.54,6.91a5.72,5.72,0,0,1-3.49,3.61,13.49,13.49,0,0,1-4.94.94c-4.73,0-8.28-2.65-10.53-7.88l-.13-.28.2-.24.75-.93.31-.4.4.32a17.55,17.55,0,0,0,7,3.12,43.93,43.93,0,0,0,9.95,1.07h.7Z"/><path class="cls-1" d="M63.62,102.33a2.79,2.79,0,0,1-1.16,1.49,4.12,4.12,0,0,1-2.25.52H56.86V96.82h1.25a2.34,2.34,0,0,1,1.07.23,1.7,1.7,0,0,1,.74.69,2.3,2.3,0,0,1,.27,1.17h.41V94.4h-.41a2.14,2.14,0,0,1-.27,1.14,1.63,1.63,0,0,1-.74.66,2.62,2.62,0,0,1-1.07.21H56.86v-7h3.57a3.37,3.37,0,0,1,2,.51,2.86,2.86,0,0,1,1,1.38,6,6,0,0,1,.32,2h.41V89H53v.41h1.89v14.93H53v.41H64.38V100H64A6.87,6.87,0,0,1,63.62,102.33Z"/><path class="cls-1" d="M79.88,98a5.73,5.73,0,0,0-.21-1.62,2,2,0,0,0-.81-1.12A3.35,3.35,0,0,0,77,94.89a3.05,3.05,0,0,0-1.85.55A4,4,0,0,0,74,96.8a6.33,6.33,0,0,0-.53,1.43V95.09H70.27v.41h1.37v8.84H70.27v.41h4.56v-.41H73.48V100a6.19,6.19,0,0,1,.19-1.48,6,6,0,0,1,.6-1.52,3.54,3.54,0,0,1,1-1.18,2.36,2.36,0,0,1,1.47-.46,1,1,0,0,1,.85.37,2.2,2.2,0,0,1,.35,1A13.87,13.87,0,0,1,78,98.36v6H76.67v.41h4.59v-.41H79.88Z"/><path class="cls-1" d="M97.22,95.22a1.77,1.77,0,0,0-.9-.23,2.69,2.69,0,0,0-1,.21,2.88,2.88,0,0,0-1,.74s-.07.12-.11.18a3,3,0,0,0-.52-.49,3.78,3.78,0,0,0-1.18-.56,4.76,4.76,0,0,0-1.28-.18,5,5,0,0,0-1.31.18,4.22,4.22,0,0,0-1.22.56,2.86,2.86,0,0,0-.89,1,3.39,3.39,0,0,0,0,3,2.83,2.83,0,0,0,.89,1,4,4,0,0,0,1.19.55,4.39,4.39,0,0,0-1.09.4,2.68,2.68,0,0,0-.87.71,1.6,1.6,0,0,0-.32,1,1.35,1.35,0,0,0,.85,1.33,4.59,4.59,0,0,0,1.18.32,5.49,5.49,0,0,0-.61.1,3.91,3.91,0,0,0-1,.42,2.62,2.62,0,0,0-.8.79,2.14,2.14,0,0,0-.32,1.2,2.17,2.17,0,0,0,.37,1.28,2.72,2.72,0,0,0,1,.88,5.33,5.33,0,0,0,1.49.51,9.39,9.39,0,0,0,1.79.16,7.37,7.37,0,0,0,1.76-.21,5.26,5.26,0,0,0,1.55-.66A3.46,3.46,0,0,0,96,108.18a3.42,3.42,0,0,0,.4-1.7,3.87,3.87,0,0,0-.31-1.71,2.38,2.38,0,0,0-.83-1,3,3,0,0,0-1.13-.43,7.14,7.14,0,0,0-1.2-.11H91.1a7.15,7.15,0,0,1-1.43-.11.61.61,0,0,1-.58-.65.77.77,0,0,1,.24-.55,2,2,0,0,1,.61-.41,4.17,4.17,0,0,1,.78-.25l.2,0,.33,0a4.76,4.76,0,0,0,1.28-.18,3.57,3.57,0,0,0,1.18-.56,2.75,2.75,0,0,0,.86-1,3.48,3.48,0,0,0,0-3,1.13,1.13,0,0,0-.12-.18c0-.07.08-.16.13-.22a2.4,2.4,0,0,1,.91-.66,2.5,2.5,0,0,1,.86-.18,1.24,1.24,0,0,1,.93.35,1.19,1.19,0,0,0-.32,0,1.28,1.28,0,0,0-.72.23.82.82,0,0,0-.34.75,1,1,0,0,0,.33.79,1.12,1.12,0,0,0,.73.27,1.33,1.33,0,0,0,.75-.24,1,1,0,0,0,.36-.92,1.35,1.35,0,0,0-.23-.76A1.68,1.68,0,0,0,97.22,95.22Zm-7.12,9.7c.21,0,.42,0,.65,0H93.2a3.3,3.3,0,0,1,1.24.23,2.17,2.17,0,0,1,.89.66,1.64,1.64,0,0,1,.34,1.06,2.52,2.52,0,0,1-.29,1.21,2.79,2.79,0,0,1-.8.91,4,4,0,0,1-1.19.56,5.38,5.38,0,0,1-1.47.19,3.42,3.42,0,0,1-1.68-.37,2.55,2.55,0,0,1-1-1,2.59,2.59,0,0,1-.34-1.26,2.89,2.89,0,0,1,.32-1.37A2.25,2.25,0,0,1,90.1,104.92Zm2.77-5.4a2.25,2.25,0,0,1-.6,1,1.4,1.4,0,0,1-1,.38,1.65,1.65,0,0,1-1.22-.38,1.82,1.82,0,0,1-.49-1,7.61,7.61,0,0,1-.11-1.41,4.76,4.76,0,0,1,.19-1.41,2.24,2.24,0,0,1,.6-1,1.57,1.57,0,0,1,2,0,2.24,2.24,0,0,1,.6,1,5.33,5.33,0,0,1,0,2.82Z"/><path class="cls-1" d="M113,104.13a1.08,1.08,0,0,1-.6.22.51.51,0,0,1-.51-.24,1.28,1.28,0,0,1-.12-.58V98.36a5.61,5.61,0,0,0-.24-1.64,2.43,2.43,0,0,0-1-1.29,3.76,3.76,0,0,0-2.17-.5,6.37,6.37,0,0,0-1.39.15,4.88,4.88,0,0,0-1.22.43,2.57,2.57,0,0,0-.86.67,1.39,1.39,0,0,0-.32.89,1.09,1.09,0,0,0,.33.86,1.2,1.2,0,0,0,.81.29,1.36,1.36,0,0,0,.82-.28A1.07,1.07,0,0,0,107,97a1,1,0,0,0-.37-.83,1.32,1.32,0,0,0-.74-.27,1.78,1.78,0,0,1,.27-.17,4,4,0,0,1,.94-.32,4.9,4.9,0,0,1,1-.11,1.6,1.6,0,0,1,1.25.45,2.25,2.25,0,0,1,.53,1.13,8.51,8.51,0,0,1,.12,1.45v1h-1.4a6.2,6.2,0,0,0-3.45.8,2.53,2.53,0,0,0-1.2,2.21,2.39,2.39,0,0,0,.81,1.9,3.26,3.26,0,0,0,2.18.69,3.08,3.08,0,0,0,1.8-.51,3.16,3.16,0,0,0,1.12-1.43,3.79,3.79,0,0,0,.14-.48v.59a2,2,0,0,0,.26,1.08,1.42,1.42,0,0,0,.66.58,2.27,2.27,0,0,0,.91.17,2.32,2.32,0,0,0,1.18-.29,2.38,2.38,0,0,0,.77-.74l-.2-.37A1.39,1.39,0,0,1,113,104.13Zm-3.07-3.22a4.49,4.49,0,0,1-.36,1.91,2.83,2.83,0,0,1-.91,1.15,2,2,0,0,1-1.14.37,1.3,1.3,0,0,1-.9-.31,1.72,1.72,0,0,1-.51-.79,3.21,3.21,0,0,1-.17-1,2.69,2.69,0,0,1,.27-1.15,2.27,2.27,0,0,1,.83-1,2.55,2.55,0,0,1,1.49-.39h1.4Z"/><path class="cls-1" d="M129.11,95.22a1.78,1.78,0,0,0-.91-.23,2.69,2.69,0,0,0-1,.21,2.77,2.77,0,0,0-1,.74,1.13,1.13,0,0,0-.12.18,3,3,0,0,0-.51-.49,3.88,3.88,0,0,0-1.18-.56,4.78,4.78,0,0,0-1.29-.18,5,5,0,0,0-1.3.18,4.1,4.1,0,0,0-1.22.56,3,3,0,0,0-.9,1,3.39,3.39,0,0,0,0,3,3,3,0,0,0,.9,1,3.91,3.91,0,0,0,1.19.55,4.39,4.39,0,0,0-1.09.4,2.49,2.49,0,0,0-.87.71,1.6,1.6,0,0,0-.32,1,1.34,1.34,0,0,0,.85,1.33,4.48,4.48,0,0,0,1.18.32,5.14,5.14,0,0,0-.61.1,3.75,3.75,0,0,0-1,.42,2.51,2.51,0,0,0-.8.79,2.07,2.07,0,0,0-.32,1.2,2.24,2.24,0,0,0,.36,1.28,2.84,2.84,0,0,0,1,.88,5.33,5.33,0,0,0,1.49.51,9.31,9.31,0,0,0,1.79.16,7.37,7.37,0,0,0,1.76-.21,5.2,5.2,0,0,0,1.54-.66,3.36,3.36,0,0,0,1.09-1.16,3.42,3.42,0,0,0,.41-1.7,3.86,3.86,0,0,0-.32-1.71,2.31,2.31,0,0,0-.83-1,3,3,0,0,0-1.12-.43,7.26,7.26,0,0,0-1.21-.11H123a7.22,7.22,0,0,1-1.43-.11.61.61,0,0,1-.57-.65.77.77,0,0,1,.24-.55,1.93,1.93,0,0,1,.6-.41,4,4,0,0,1,.79-.25l.2,0,.32,0a4.78,4.78,0,0,0,1.29-.18,3.66,3.66,0,0,0,1.18-.56,2.85,2.85,0,0,0,.86-1,3.48,3.48,0,0,0,0-3c0-.07-.08-.12-.12-.18a1.59,1.59,0,0,1,.13-.22,2.37,2.37,0,0,1,.9-.66,2.55,2.55,0,0,1,.86-.18,1.21,1.21,0,0,1,.93.35,1.13,1.13,0,0,0-.32,0,1.31,1.31,0,0,0-.72.23.85.85,0,0,0-.34.75,1,1,0,0,0,.33.79,1.14,1.14,0,0,0,.73.27,1.33,1.33,0,0,0,.75-.24,1,1,0,0,0,.37-.92,1.43,1.43,0,0,0-.23-.76A1.76,1.76,0,0,0,129.11,95.22Zm-7.12,9.7c.2,0,.42,0,.65,0h2.44a3.35,3.35,0,0,1,1.25.23,2.24,2.24,0,0,1,.89.66,1.7,1.7,0,0,1,.33,1.06,2.41,2.41,0,0,1-.29,1.21,2.76,2.76,0,0,1-.79.91,3.91,3.91,0,0,1-1.2.56,5.28,5.28,0,0,1-1.47.19,3.48,3.48,0,0,1-1.68-.37,2.58,2.58,0,0,1-1-1,2.49,2.49,0,0,1-.34-1.26,2.88,2.88,0,0,1,.31-1.37A2.35,2.35,0,0,1,122,104.92Zm2.76-5.4a2.33,2.33,0,0,1-.59,1,1.43,1.43,0,0,1-1,.38,1.63,1.63,0,0,1-1.21-.38,1.76,1.76,0,0,1-.49-1,7.61,7.61,0,0,1-.11-1.41,4.76,4.76,0,0,1,.19-1.41,2.24,2.24,0,0,1,.6-1,1.45,1.45,0,0,1,1-.38,1.47,1.47,0,0,1,1,.38,2.31,2.31,0,0,1,.59,1,5.07,5.07,0,0,1,0,2.82Z"/><path class="cls-1" d="M143.07,103.8a3.58,3.58,0,0,1-2.31.71,2.27,2.27,0,0,1-1.35-.37,2.55,2.55,0,0,1-.83-1,5.27,5.27,0,0,1-.42-1.47,12,12,0,0,1-.12-1.73c0-.24,0-.46.05-.7h6.58a5.57,5.57,0,0,0-.41-2.13A3.39,3.39,0,0,0,143,95.5a4.37,4.37,0,0,0-2.43-.61,4.78,4.78,0,0,0-2.4.61,4.28,4.28,0,0,0-1.64,1.73,5.6,5.6,0,0,0-.6,2.69,5.48,5.48,0,0,0,.63,2.71,4.47,4.47,0,0,0,1.72,1.73,4.91,4.91,0,0,0,2.42.6,4.21,4.21,0,0,0,2.74-.84,4.41,4.41,0,0,0,1.43-2.11h-.47A4,4,0,0,1,143.07,103.8Zm-4.92-5.61a6.15,6.15,0,0,1,.38-1.48,2.48,2.48,0,0,1,.75-1,2,2,0,0,1,1.24-.38,1.53,1.53,0,0,1,1,.35,2,2,0,0,1,.57.89,5.21,5.21,0,0,1,.24,1.15c0,.4.06.78.06,1.13h-4.33C138.13,98.61,138.13,98.39,138.15,98.19Z"/><path class="cls-1" d="M165.93,98a4.79,4.79,0,0,0-.25-1.62,2.18,2.18,0,0,0-.85-1.12,2.86,2.86,0,0,0-1.64-.41,2.74,2.74,0,0,0-1.73.53,3.62,3.62,0,0,0-1.07,1.34A7.07,7.07,0,0,0,160,98a5.31,5.31,0,0,0-.22-1.61,2.1,2.1,0,0,0-.8-1.12,3.21,3.21,0,0,0-3.34.12,3.77,3.77,0,0,0-1.09,1.34,6.64,6.64,0,0,0-.53,1.47V95.09h-3.21v.41h1.37v8.84h-1.37v.41h4.56v-.41H154V100a6.48,6.48,0,0,1,.18-1.42,6.72,6.72,0,0,1,.54-1.5,3.64,3.64,0,0,1,.92-1.18,1.91,1.91,0,0,1,1.3-.47.94.94,0,0,1,.81.35,2.11,2.11,0,0,1,.32,1c0,.44.07,1,.07,1.54v6h-1.36v.41h4.57v-.41H160V100a7.72,7.72,0,0,1,.15-1.42,6.61,6.61,0,0,1,.5-1.5,3.39,3.39,0,0,1,.87-1.18,1.9,1.9,0,0,1,1.31-.47,1,1,0,0,1,.83.35,2.1,2.1,0,0,1,.38,1,11.51,11.51,0,0,1,.09,1.54v6h-1.36v.41h4.57v-.41h-1.37Z"/><path class="cls-1" d="M180.53,103.8a3.58,3.58,0,0,1-2.31.71,2.26,2.26,0,0,1-1.34-.37,2.47,2.47,0,0,1-.83-1,5.27,5.27,0,0,1-.42-1.47,11.91,11.91,0,0,1-.13-1.73c0-.24,0-.46.05-.7h6.58a5.57,5.57,0,0,0-.4-2.13,3.41,3.41,0,0,0-1.32-1.59,4.32,4.32,0,0,0-2.43-.61,4.75,4.75,0,0,0-2.39.61,4.24,4.24,0,0,0-1.65,1.73,5.6,5.6,0,0,0-.6,2.69,5.38,5.38,0,0,0,.64,2.71,4.38,4.38,0,0,0,1.71,1.73,4.93,4.93,0,0,0,2.42.6,4.21,4.21,0,0,0,2.74-.84,4.36,4.36,0,0,0,1.44-2.11h-.47A3.92,3.92,0,0,1,180.53,103.8Zm-4.91-5.61a6.16,6.16,0,0,1,.37-1.48,2.48,2.48,0,0,1,.75-1,2,2,0,0,1,1.24-.38,1.53,1.53,0,0,1,1.05.35,2.12,2.12,0,0,1,.58.89,5.21,5.21,0,0,1,.24,1.15,11.29,11.29,0,0,1,.05,1.13h-4.32C175.59,98.61,175.59,98.39,175.62,98.19Z"/><path class="cls-1" d="M197.84,98a5.73,5.73,0,0,0-.21-1.62,2,2,0,0,0-.82-1.12,3.35,3.35,0,0,0-1.83-.41,3.05,3.05,0,0,0-1.85.55A3.82,3.82,0,0,0,192,96.8a6.88,6.88,0,0,0-.54,1.43V95.09h-3.21v.41h1.37v8.84h-1.37v.41h4.57v-.41h-1.36V100a6.23,6.23,0,0,1,.2-1.48,6,6,0,0,1,.59-1.52,3.78,3.78,0,0,1,1-1.18,2.36,2.36,0,0,1,1.47-.46,1,1,0,0,1,.85.37,2.2,2.2,0,0,1,.35,1,13.87,13.87,0,0,1,.08,1.55v6h-1.37v.41h4.59v-.41h-1.37Z"/><path class="cls-1" d="M209.78,103.78a1.37,1.37,0,0,1-.95.44.75.75,0,0,1-.64-.26,2,2,0,0,1-.19-1V95.5h2.25v-.41H208V92.36a3.27,3.27,0,0,1-.86.43,2.8,2.8,0,0,1-1,.2v2.1h-1.41v.41h1.41v6.91a4.48,4.48,0,0,0,.15,1.15,2,2,0,0,0,.59,1,1.94,1.94,0,0,0,1.3.38,2.52,2.52,0,0,0,1.64-.52,4.05,4.05,0,0,0,1.07-1.38l-.35-.22A3.76,3.76,0,0,1,209.78,103.78Z"/><path class="cls-1" d="M235,104.13a1.08,1.08,0,0,1-.6.22.51.51,0,0,1-.51-.24,1.28,1.28,0,0,1-.12-.58V98.36a5.62,5.62,0,0,0-.25-1.64,2.43,2.43,0,0,0-1-1.29,3.76,3.76,0,0,0-2.17-.5,6.5,6.5,0,0,0-1.39.15,4.8,4.8,0,0,0-1.21.43,2.57,2.57,0,0,0-.86.67,1.35,1.35,0,0,0-.33.89,1.1,1.1,0,0,0,.34.86,1.2,1.2,0,0,0,.81.29,1.31,1.31,0,0,0,.81-.28,1,1,0,0,0,.39-.91,1,1,0,0,0-.38-.83,1.27,1.27,0,0,0-.74-.27,2.46,2.46,0,0,1,.27-.17,4.08,4.08,0,0,1,.95-.32,4.75,4.75,0,0,1,1-.11,1.58,1.58,0,0,1,1.24.45,2.17,2.17,0,0,1,.53,1.13,7.59,7.59,0,0,1,.13,1.45v1h-1.41a6.14,6.14,0,0,0-3.44.8,2.51,2.51,0,0,0-1.21,2.21,2.39,2.39,0,0,0,.81,1.9,3.27,3.27,0,0,0,2.18.69,3.09,3.09,0,0,0,1.81-.51,3.23,3.23,0,0,0,1.12-1.43c.06-.15.09-.32.14-.48v.59a2,2,0,0,0,.25,1.08,1.45,1.45,0,0,0,.67.58,2.24,2.24,0,0,0,.91.17,2.2,2.2,0,0,0,1.95-1l-.2-.37A1.55,1.55,0,0,1,235,104.13Zm-3.07-3.22a4.49,4.49,0,0,1-.36,1.91,2.93,2.93,0,0,1-.92,1.15,2,2,0,0,1-1.14.37,1.27,1.27,0,0,1-.89-.31,1.74,1.74,0,0,1-.52-.79,3.2,3.2,0,0,1-.16-1,2.82,2.82,0,0,1,.26-1.15,2.34,2.34,0,0,1,.83-1,2.57,2.57,0,0,1,1.49-.39h1.41Z"/><path class="cls-1" d="M250.42,98a5.73,5.73,0,0,0-.21-1.62,1.94,1.94,0,0,0-.82-1.12,3.3,3.3,0,0,0-1.83-.41,3,3,0,0,0-1.84.55,4,4,0,0,0-1.17,1.36,6.33,6.33,0,0,0-.53,1.43V95.09H240.8v.41h1.38v8.84H240.8v.41h4.57v-.41H244V100a6.19,6.19,0,0,1,.19-1.48A6.39,6.39,0,0,1,244.8,97a3.78,3.78,0,0,1,1-1.18,2.36,2.36,0,0,1,1.47-.46,1,1,0,0,1,.85.37,2.2,2.2,0,0,1,.35,1,11.82,11.82,0,0,1,.08,1.55v6h-1.36v.41h4.59v-.41h-1.38Z"/><path class="cls-1" d="M267.4,89h-3.28v.41h1.38v8.75a4.81,4.81,0,0,0-1.21-2.38,2.87,2.87,0,0,0-2.14-.89,4,4,0,0,0-2.09.61,4.49,4.49,0,0,0-1.61,1.73,6.1,6.1,0,0,0,0,5.4,4.39,4.39,0,0,0,1.61,1.72,4,4,0,0,0,2.09.6,2.89,2.89,0,0,0,2.14-.87,4.86,4.86,0,0,0,1.21-2.37v3h3.26v-.41H267.4Zm-2.32,13.34a3.65,3.65,0,0,1-1.1,1.52,2.34,2.34,0,0,1-1.46.53,2,2,0,0,1-1.39-.53,3.32,3.32,0,0,1-.85-1.52,9.83,9.83,0,0,1,0-4.82,3.35,3.35,0,0,1,.85-1.53,2,2,0,0,1,1.39-.53A2.34,2.34,0,0,1,264,96a3.72,3.72,0,0,1,1.1,1.52,6.28,6.28,0,0,1,.42,2.42A6.16,6.16,0,0,1,265.08,102.34Z"/><path class="cls-1" d="M297.17,104.32a2.58,2.58,0,0,1-.59.07.73.73,0,0,1-.72-.41,2.91,2.91,0,0,1-.23-1.1c0-.45-.05-.95-.06-1.49a8.8,8.8,0,0,0-.17-1.61,4,4,0,0,0-.61-1.49,3.15,3.15,0,0,0-1.34-1.1,5.14,5.14,0,0,0-1.81-.38,8.25,8.25,0,0,0,2-.36,3.38,3.38,0,0,0,1.78-1.22A3.63,3.63,0,0,0,296,93a3.76,3.76,0,0,0-.65-2.26,3.82,3.82,0,0,0-1.83-1.33,8,8,0,0,0-2.77-.44h-6.93v.41h2.31v14.93h-2.31v.41h6.63v-.41h-2.33V97h2.52a3,3,0,0,1,1.52.34,1.94,1.94,0,0,1,.81.89,4.31,4.31,0,0,1,.32,1.26q.07.69.09,1.44c0,.5,0,1,.06,1.45a4.47,4.47,0,0,0,.29,1.26,2,2,0,0,0,.74.89,2.62,2.62,0,0,0,1.42.33,5.62,5.62,0,0,0,1.14-.1,2.65,2.65,0,0,0,.76-.23l-.15-.39A2.87,2.87,0,0,1,297.17,104.32Zm-9.05-7.72V89.41h2.63a3.25,3.25,0,0,1,1.72.43,2.64,2.64,0,0,1,1.07,1.23,4.63,4.63,0,0,1,.37,2,4.54,4.54,0,0,1-.37,1.94,2.64,2.64,0,0,1-1.07,1.21,3.35,3.35,0,0,1-1.72.42Z"/><path class="cls-1" d="M310.79,103.8a3.58,3.58,0,0,1-2.31.71,2.26,2.26,0,0,1-1.34-.37,2.39,2.39,0,0,1-.83-1,5.27,5.27,0,0,1-.42-1.47,11.91,11.91,0,0,1-.13-1.73c0-.24,0-.46.05-.7h6.58a5.57,5.57,0,0,0-.4-2.13,3.41,3.41,0,0,0-1.32-1.59,4.32,4.32,0,0,0-2.43-.61,4.75,4.75,0,0,0-2.39.61,4.24,4.24,0,0,0-1.65,1.73,5.6,5.6,0,0,0-.6,2.69,5.38,5.38,0,0,0,.64,2.71,4.38,4.38,0,0,0,1.71,1.73,4.91,4.91,0,0,0,2.42.6,4.21,4.21,0,0,0,2.74-.84,4.36,4.36,0,0,0,1.44-2.11h-.47A3.92,3.92,0,0,1,310.79,103.8Zm-4.91-5.61a6.16,6.16,0,0,1,.37-1.48,2.48,2.48,0,0,1,.75-1,2,2,0,0,1,1.24-.38,1.53,1.53,0,0,1,1.05.35,2.12,2.12,0,0,1,.58.89,5.21,5.21,0,0,1,.24,1.15,11.29,11.29,0,0,1,.05,1.13h-4.32C305.85,98.61,305.85,98.39,305.88,98.19Z"/><path class="cls-1" d="M326.22,103.28a2.79,2.79,0,0,1-1,.88,3.19,3.19,0,0,1-1.47.31,2.28,2.28,0,0,1-1.34-.37,2.49,2.49,0,0,1-.83-1,4.83,4.83,0,0,1-.43-1.45,10.66,10.66,0,0,1-.13-1.73,10.39,10.39,0,0,1,.12-1.54,5.2,5.2,0,0,1,.42-1.5,2.91,2.91,0,0,1,.88-1.13,2.36,2.36,0,0,1,1.47-.44,3.58,3.58,0,0,1,1,.15,3.18,3.18,0,0,1,.91.43,2,2,0,0,1,.52.49,1.13,1.13,0,0,0-.32-.06,1.32,1.32,0,0,0-.84.29,1,1,0,0,0-.36.85,1.13,1.13,0,0,0,.19.67,1.08,1.08,0,0,0,.47.38,1.32,1.32,0,0,0,.54.12,1.12,1.12,0,0,0,.81-.31,1.2,1.2,0,0,0,.32-.88,2.08,2.08,0,0,0-.42-1.24,3.1,3.1,0,0,0-1.19-1,4.39,4.39,0,0,0-1.85-.37,4.87,4.87,0,0,0-2.67.7,4.41,4.41,0,0,0-1.65,1.83,5.57,5.57,0,0,0-.57,2.51,5.48,5.48,0,0,0,.63,2.71,4.38,4.38,0,0,0,1.71,1.73,5,5,0,0,0,2.45.6,3.49,3.49,0,0,0,2.49-.84,4.88,4.88,0,0,0,1.29-2.11h-.44A5.33,5.33,0,0,1,326.22,103.28Z"/><path class="cls-1" d="M340.88,103.8a3.57,3.57,0,0,1-2.3.71,2.27,2.27,0,0,1-1.35-.37,2.47,2.47,0,0,1-.83-1,5.27,5.27,0,0,1-.42-1.47,12,12,0,0,1-.12-1.73c0-.24,0-.46,0-.7h6.58a5.57,5.57,0,0,0-.4-2.13,3.45,3.45,0,0,0-1.31-1.59,4.38,4.38,0,0,0-2.44-.61,4.75,4.75,0,0,0-2.39.61,4.24,4.24,0,0,0-1.65,1.73,5.6,5.6,0,0,0-.6,2.69,5.49,5.49,0,0,0,.64,2.71,4.4,4.4,0,0,0,1.72,1.73,4.87,4.87,0,0,0,2.41.6,4.19,4.19,0,0,0,2.74-.84,4.36,4.36,0,0,0,1.44-2.11h-.47A3.92,3.92,0,0,1,340.88,103.8ZM336,98.19a6.16,6.16,0,0,1,.37-1.48,2.41,2.41,0,0,1,.76-1,1.94,1.94,0,0,1,1.23-.38,1.5,1.5,0,0,1,1.05.35,2.12,2.12,0,0,1,.58.89,5.21,5.21,0,0,1,.24,1.15c0,.4.06.78.06,1.13h-4.33C335.94,98.61,335.94,98.39,336,98.19Z"/><path class="cls-1" d="M357.29,95.5a4,4,0,0,0-2.09-.59,2.93,2.93,0,0,0-2.15.87,4.86,4.86,0,0,0-1.22,2.38V95.09h-3.26v.41H350v14.09h-1.38V110h4.62v-.41h-1.36V101.7a4.91,4.91,0,0,0,1.22,2.38,2.9,2.9,0,0,0,2.15.88,4,4,0,0,0,2.09-.6,4.47,4.47,0,0,0,1.6-1.73,5.48,5.48,0,0,0,.62-2.71,5.38,5.38,0,0,0-.62-2.69A4.47,4.47,0,0,0,357.29,95.5Zm-.22,6.83a3.5,3.5,0,0,1-.86,1.54,2,2,0,0,1-1.39.53,2.35,2.35,0,0,1-1.47-.53,3.6,3.6,0,0,1-1.1-1.53,7.15,7.15,0,0,1,0-4.83,3.57,3.57,0,0,1,1.1-1.52,2.4,2.4,0,0,1,1.47-.52,2,2,0,0,1,1.39.53,3.36,3.36,0,0,1,.86,1.52,10.12,10.12,0,0,1,0,4.81Z"/><path class="cls-1" d="M370.41,103.78a1.39,1.39,0,0,1-1,.44.74.74,0,0,1-.64-.26,2,2,0,0,1-.19-1V95.5h2.24v-.41h-2.24V92.36a3.27,3.27,0,0,1-.86.43,2.87,2.87,0,0,1-1,.2v2.1h-1.41v.41h1.41v6.91a4.48,4.48,0,0,0,.15,1.15,1.73,1.73,0,0,0,1.89,1.34,2.52,2.52,0,0,0,1.64-.52,4,4,0,0,0,1.06-1.38l-.34-.22A4,4,0,0,1,370.41,103.78Z"/><polygon class="cls-1" points="380.16 95.09 376.9 95.09 376.9 95.5 378.27 95.5 378.27 104.34 376.9 104.34 376.9 104.75 381.53 104.75 381.53 104.34 380.16 104.34 380.16 95.09"/><path class="cls-1" d="M380.11,91a1.26,1.26,0,0,0-.89-2.15,1.25,1.25,0,0,0-.89.36,1.27,1.27,0,0,0,0,1.79,1.23,1.23,0,0,0,.89.38A1.19,1.19,0,0,0,380.11,91Z"/><path class="cls-1" d="M395.05,95.58a4.76,4.76,0,0,0-6.79,1.83,5.63,5.63,0,0,0,0,5,4.74,4.74,0,0,0,8.45,0,5.72,5.72,0,0,0,0-5A4.65,4.65,0,0,0,395.05,95.58Zm0,5.89a6.08,6.08,0,0,1-.38,1.51,2.71,2.71,0,0,1-.8,1.14,2.41,2.41,0,0,1-2.75,0,2.71,2.71,0,0,1-.8-1.14,5.67,5.67,0,0,1-.38-1.51,12.07,12.07,0,0,1-.1-1.55,11.81,11.81,0,0,1,.1-1.54,5.67,5.67,0,0,1,.38-1.51,2.71,2.71,0,0,1,.8-1.14,2.37,2.37,0,0,1,2.75,0,2.71,2.71,0,0,1,.8,1.14,6.08,6.08,0,0,1,.38,1.51,11.81,11.81,0,0,1,.1,1.54A12.07,12.07,0,0,1,395.05,101.47Z"/><path class="cls-1" d="M413,98a5.73,5.73,0,0,0-.21-1.62,2,2,0,0,0-.82-1.12,3.35,3.35,0,0,0-1.83-.41,3.05,3.05,0,0,0-1.85.55,3.92,3.92,0,0,0-1.16,1.36,6.88,6.88,0,0,0-.54,1.43V95.09h-3.21v.41h1.37v8.84h-1.37v.41h4.57v-.41h-1.36V100a6.23,6.23,0,0,1,.2-1.48,6,6,0,0,1,.59-1.52,3.78,3.78,0,0,1,1-1.18,2.36,2.36,0,0,1,1.47-.46,1,1,0,0,1,.85.37,2.2,2.2,0,0,1,.35,1,13.87,13.87,0,0,1,.08,1.55v6h-1.36v.41h4.58v-.41H413Z"/></g></g></svg>