<svg xmlns="http://www.w3.org/2000/svg" viewBox="0 0 69.27 396.98"><defs><style>.cls-1{fill:#f3f1e7;}</style></defs><g id="Layer_2" data-name="Layer 2"><g id="Layer_4" data-name="Layer 4"><path class="cls-1" d="M24.05,391.34a7.06,7.06,0,0,0,.4,2,3.39,3.39,0,0,0,.87,1.34,3.48,3.48,0,0,0,1.45.77,8.34,8.34,0,0,0,2.15.24h4.13a9.94,9.94,0,0,0,1.47-.09,3.16,3.16,0,0,0,1-.29,2.35,2.35,0,0,0,.74-.55,6.14,6.14,0,0,0,.67-.87,2.11,2.11,0,0,1,.55.25,1.79,1.79,0,0,1,.45.46,6.64,6.64,0,0,1-.82,1.17,3.43,3.43,0,0,1-1,.74,4.48,4.48,0,0,1-1.22.39,9.2,9.2,0,0,1-1.59.12H29.09a10.9,10.9,0,0,1-2.23-.21,5.09,5.09,0,0,1-1.76-.68,4.32,4.32,0,0,1-1.26-1.26,5.77,5.77,0,0,1-.76-1.93,14.46,14.46,0,0,1-.26-2.06c-.06-.83-.09-1.93-.09-3.28,0-.54,0-1.08,0-1.64s0-1.09.06-1.57H24c0,.17,0,.34,0,.53s0,.35,0,.5,0,.29,0,.4V386a10.25,10.25,0,0,0,.12,1.7,3.12,3.12,0,0,0,.43,1.14,1.7,1.7,0,0,0,.81.65,3.62,3.62,0,0,0,1.28.2,2.66,2.66,0,0,0,2.17-.79,4,4,0,0,0,.66-2.55v-4h1.25v3.86a7.74,7.74,0,0,0,.15,1.63,2.7,2.7,0,0,0,.5,1.15,2.11,2.11,0,0,0,1,.68,4.17,4.17,0,0,0,1.51.23,3.57,3.57,0,0,0,1.47-.25,1.79,1.79,0,0,0,.88-.88,4.77,4.77,0,0,0,.42-1.68c.07-.71.11-1.61.11-2.69,0-.86,0-1.61-.08-2.23a4.75,4.75,0,0,0-.34-1.55,1.81,1.81,0,0,0-.74-.9,2.5,2.5,0,0,0-1.28-.29h-8.5a5,5,0,0,1-1.54-.2,2,2,0,0,1-.91-.62,2.35,2.35,0,0,1-.45-1,7.9,7.9,0,0,1-.12-1.48,8.56,8.56,0,0,1,.16-1.73,2.44,2.44,0,0,1,.59-1.18,2.75,2.75,0,0,1,1.22-.67,7.32,7.32,0,0,1,2-.22h11v2.86H26.52a9.71,9.71,0,0,0-1.35.07,2,2,0,0,0-.76.23.78.78,0,0,0-.35.45,2.75,2.75,0,0,0-.08.7,3.13,3.13,0,0,0,.07.67,1,1,0,0,0,.23.47,1,1,0,0,0,.5.28,3.44,3.44,0,0,0,.86.08h8.61a4,4,0,0,1,2,.42,2.76,2.76,0,0,1,1.11,1.23,5.93,5.93,0,0,1,.48,2c.06.78.1,1.66.1,2.65,0,1.2,0,2.24-.1,3.12a16.62,16.62,0,0,1-.29,2.25,6,6,0,0,1-.52,1.51,2.7,2.7,0,0,1-.76.92,2.63,2.63,0,0,1-1,.45,6.43,6.43,0,0,1-1.31.12,6.35,6.35,0,0,1-1.4-.13,3.41,3.41,0,0,1-1-.41,3,3,0,0,1-.79-.73,7.11,7.11,0,0,1-.67-1.09H30A3.75,3.75,0,0,1,28.61,392a3.44,3.44,0,0,1-1.94.55,3.53,3.53,0,0,1-1.42-.28,3,3,0,0,1-1.16-.91Z"/><path class="cls-1" d="M68.28,351.19a2.84,2.84,0,0,1,.53.37,5,5,0,0,1,.46.47,12.14,12.14,0,0,1-1.22,1.63,6.08,6.08,0,0,1-1.51,1.18,7.19,7.19,0,0,1-2.07.74,14.44,14.44,0,0,1-2.94.25h-35a9.71,9.71,0,0,0-1.35.07,1.83,1.83,0,0,0-.76.25.85.85,0,0,0-.35.47,3.1,3.1,0,0,0-.08.74,3.52,3.52,0,0,0,.07.7,1.06,1.06,0,0,0,.23.49,1,1,0,0,0,.5.29,2.94,2.94,0,0,0,.86.1H58.89a8.2,8.2,0,0,1,2.4.29,3.84,3.84,0,0,1,1.53.82,2.91,2.91,0,0,1,.8,1.31,6.22,6.22,0,0,1,0,3.35c-.15.51-.31,1-.48,1.46s-.34.93-.49,1.38a4.84,4.84,0,0,0-.22,1.42,4.4,4.4,0,0,0,.14,1.09,11.3,11.3,0,0,0,.35,1.08c.13.36.28.74.45,1.13a10,10,0,0,1,.45,1.24,12.82,12.82,0,0,1,.35,1.42,9.32,9.32,0,0,1,.14,1.65A8,8,0,0,1,64,379,5,5,0,0,1,63,380.8a4,4,0,0,1-1.44,1.08,4.42,4.42,0,0,1-1.82.37,4.47,4.47,0,0,1-2.25-.56,6.3,6.3,0,0,1-1.71-1.47,9.17,9.17,0,0,1-1.24-2.06,20.26,20.26,0,0,1-.87-2.36,2.42,2.42,0,0,1,.58-.29,3.78,3.78,0,0,1,.7-.18,12.33,12.33,0,0,0,.77,1.67,5.62,5.62,0,0,0,1,1.29,4,4,0,0,0,1.29.83,4.17,4.17,0,0,0,1.64.3,2.94,2.94,0,0,0,2.43-.94,4.16,4.16,0,0,0,.75-2.67,7.18,7.18,0,0,0-.25-2c-.18-.59-.37-1.15-.58-1.67s-.41-1-.58-1.55a5.23,5.23,0,0,1,0-3.13c.15-.48.31-1,.49-1.42s.33-.94.48-1.42a5.13,5.13,0,0,0,.22-1.47,4.65,4.65,0,0,0-.17-1.32,1.8,1.8,0,0,0-.58-.89,2.64,2.64,0,0,0-1.13-.52,8.31,8.31,0,0,0-1.81-.16H25.75a4.69,4.69,0,0,1-1.54-.21,1.88,1.88,0,0,1-.91-.62,2.44,2.44,0,0,1-.45-1.06,8.44,8.44,0,0,1-.12-1.52,8.92,8.92,0,0,1,.16-1.77,2.48,2.48,0,0,1,.59-1.19,2.58,2.58,0,0,1,1.22-.68,7.32,7.32,0,0,1,2-.22H60.55l2.33,0c.65,0,1.21-.05,1.68-.1a11.22,11.22,0,0,0,1.2-.21,4.18,4.18,0,0,0,.9-.33,4.55,4.55,0,0,0,.78-.48C67.69,351.67,68,351.45,68.28,351.19Z"/><path class="cls-1" d="M33.44,335.48c-.72.34-1.48.75-2.29,1.21s-1.63,1-2.45,1.5-1.66,1.09-2.48,1.68-1.6,1.16-2.34,1.73a3.37,3.37,0,0,1-.48-.52,2.29,2.29,0,0,1-.32-.62,62.87,62.87,0,0,1,6.37-4.37,79.51,79.51,0,0,1,7.49-3.94,2.64,2.64,0,0,1,.37.58,2.55,2.55,0,0,1,.25.7,7.84,7.84,0,0,0-1.58,1,4,4,0,0,0-1,1.15,5.2,5.2,0,0,0-.52,1.53,16.31,16.31,0,0,0-.2,2.1H33c0-.34,0-.67,0-1s.06-.67.11-1,.1-.62.15-.91.13-.53.2-.75Z"/><path class="cls-1" d="M37.72,296.37v2.86H27.45a8,8,0,0,0-1.85.17,1.76,1.76,0,0,0-1,.54,1.81,1.81,0,0,0-.39,1,14,14,0,0,0-.07,1.59v.3c0,.18,0,.35,0,.51l.06,0a2.64,2.64,0,0,1,.83-.77,4.22,4.22,0,0,1,1.05-.43,6.35,6.35,0,0,1,1.17-.19c.41,0,.8-.05,1.19-.05H34a5.12,5.12,0,0,1,3.22.8,2.92,2.92,0,0,1,1,2.36,3.57,3.57,0,0,1-.29,1.53,3.24,3.24,0,0,1-.71,1,3.16,3.16,0,0,1-.93.56l-.93.33a6.12,6.12,0,0,0-.71.26c-.2.08-.29.19-.29.34s.09.28.29.37a6.12,6.12,0,0,0,.71.26c.28.09.59.2.93.34a2.88,2.88,0,0,1,.93.59,3.08,3.08,0,0,1,.71,1,3.75,3.75,0,0,1,.29,1.58,4.44,4.44,0,0,1-.24,1.49,2.78,2.78,0,0,1-.72,1.14,3.32,3.32,0,0,1-1.22.75,5.44,5.44,0,0,1-1.76.26H30l-1.58,0a10.18,10.18,0,0,1-1.58-.18,6.07,6.07,0,0,1-1.47-.5,4,4,0,0,1-1.24-1l-.07,0a8.05,8.05,0,0,0,.25,2.14,2.92,2.92,0,0,0,.82,1.39,3.24,3.24,0,0,0,1.48.75,9.31,9.31,0,0,0,2.28.23h4.13a11.78,11.78,0,0,0,1.47-.08,3.77,3.77,0,0,0,1-.29,2.38,2.38,0,0,0,.74-.56,6.14,6.14,0,0,0,.67-.87,2.11,2.11,0,0,1,.55.25,1.79,1.79,0,0,1,.45.46,6.28,6.28,0,0,1-.82,1.17,3.43,3.43,0,0,1-1,.74,4.48,4.48,0,0,1-1.22.39,9.2,9.2,0,0,1-1.59.12H29.09a11.24,11.24,0,0,1-2.85-.31,4.2,4.2,0,0,1-1.93-1,4.51,4.51,0,0,1-1.1-2,12.1,12.1,0,0,1-.35-3.14v-.36c0-.19,0-.42,0-.68s0-.53,0-.81,0-.54.05-.76h1.21a2.65,2.65,0,0,0,.93,1.11,5,5,0,0,0,1.43.61,9.15,9.15,0,0,0,1.7.27c.59,0,1.17.05,1.73.05h4.6a5.31,5.31,0,0,0,1.18-.11,2,2,0,0,0,.72-.31.91.91,0,0,0,.36-.43,1.23,1.23,0,0,0,.1-.49,1.21,1.21,0,0,0-.38-.93,3,3,0,0,0-.94-.59,7.93,7.93,0,0,0-1.22-.43,11,11,0,0,1-1.23-.43,3.39,3.39,0,0,1-.94-.61,1.3,1.3,0,0,1-.37-1,1.33,1.33,0,0,1,.37-1,3.06,3.06,0,0,1,.94-.64,9.28,9.28,0,0,1,1.23-.45c.44-.14.85-.28,1.22-.44a3.65,3.65,0,0,0,.94-.56,1.09,1.09,0,0,0,.38-.86,1.16,1.16,0,0,0-.63-1.05,3.16,3.16,0,0,0-.91-.34,7.13,7.13,0,0,0-1.43-.12H28.47a13,13,0,0,0-1.72.1,3,3,0,0,0-1.35.5,2.57,2.57,0,0,0-.89,1.19,5.72,5.72,0,0,0-.32,2.16v.1c0,.05,0,.15,0,.29H23c0-.44,0-.89,0-1.37s0-.94,0-1.38v-2.06a28.61,28.61,0,0,1,.15-3.27,4.47,4.47,0,0,1,.64-2,2.32,2.32,0,0,1,1.35-1,8.86,8.86,0,0,1,2.29-.25Z"/><path class="cls-1" d="M68.28,275.27a2.84,2.84,0,0,1,.53.37,5,5,0,0,1,.46.47,12.14,12.14,0,0,1-1.22,1.63,5.85,5.85,0,0,1-1.51,1.18,7.19,7.19,0,0,1-2.07.74,14.44,14.44,0,0,1-2.94.25h-35a9.71,9.71,0,0,0-1.35.07,1.83,1.83,0,0,0-.76.25.84.84,0,0,0-.35.48,3,3,0,0,0-.08.73,3.44,3.44,0,0,0,.07.7,1.1,1.1,0,0,0,.23.5,1,1,0,0,0,.5.28,2.94,2.94,0,0,0,.86.1H58.89a8.55,8.55,0,0,1,2.4.29,3.73,3.73,0,0,1,1.53.83,2.88,2.88,0,0,1,.8,1.3,6.22,6.22,0,0,1,0,3.35c-.15.51-.31,1-.48,1.46s-.34.93-.49,1.39a4.72,4.72,0,0,0-.22,1.41,4.4,4.4,0,0,0,.14,1.09,11.3,11.3,0,0,0,.35,1.08c.13.37.28.74.45,1.13a10,10,0,0,1,.45,1.24,12.82,12.82,0,0,1,.35,1.42,9.49,9.49,0,0,1,.14,1.65,7.91,7.91,0,0,1-.35,2.45,5.12,5.12,0,0,1-.95,1.78A4.05,4.05,0,0,1,61.59,306a4.42,4.42,0,0,1-1.82.37,4.47,4.47,0,0,1-2.25-.56,6.3,6.3,0,0,1-1.71-1.47,9,9,0,0,1-1.24-2.06,20.26,20.26,0,0,1-.87-2.36,2.42,2.42,0,0,1,.58-.29,3.78,3.78,0,0,1,.7-.18,12.33,12.33,0,0,0,.77,1.67,5.62,5.62,0,0,0,1,1.29,4.22,4.22,0,0,0,1.29.84,4.36,4.36,0,0,0,1.64.29,3,3,0,0,0,2.43-.93,4.21,4.21,0,0,0,.75-2.68,7.18,7.18,0,0,0-.25-2c-.18-.59-.37-1.15-.58-1.67s-.41-1-.58-1.55a5.23,5.23,0,0,1,0-3.13c.15-.48.31-.95.49-1.42s.33-.94.48-1.42a5.13,5.13,0,0,0,.22-1.47,4.65,4.65,0,0,0-.17-1.32,1.8,1.8,0,0,0-.58-.89,2.64,2.64,0,0,0-1.13-.52,8.31,8.31,0,0,0-1.81-.16H25.75a4.69,4.69,0,0,1-1.54-.21,1.88,1.88,0,0,1-.91-.62,2.44,2.44,0,0,1-.45-1.06,8.44,8.44,0,0,1-.12-1.52,9,9,0,0,1,.16-1.77,2.52,2.52,0,0,1,.59-1.19,2.67,2.67,0,0,1,1.22-.68,7.32,7.32,0,0,1,2-.22H60.55l2.33,0c.65,0,1.21-.05,1.68-.1a9.16,9.16,0,0,0,1.2-.21,4.18,4.18,0,0,0,.9-.33,4.55,4.55,0,0,0,.78-.48C67.69,275.75,68,275.53,68.28,275.27Z"/><path class="cls-1" d="M23,251.46c0-.44,0-.89,0-1.36s0-.92,0-1.37v-2.24a24.93,24.93,0,0,1,.16-3.18,4.38,4.38,0,0,1,.64-1.91,2.4,2.4,0,0,1,1.35-.94,8.88,8.88,0,0,1,2.28-.25H37.72v2.86H27.45a8,8,0,0,0-1.85.17,1.76,1.76,0,0,0-1,.54,1.8,1.8,0,0,0-.39,1,13.76,13.76,0,0,0-.07,1.57v.34c0,.16,0,.33,0,.5l.06,0a2.76,2.76,0,0,1,.83-.77,4.22,4.22,0,0,1,1.05-.43,6.35,6.35,0,0,1,1.17-.19c.41,0,.8-.05,1.19-.05h5.2a6.15,6.15,0,0,1,2.38.37,2.5,2.5,0,0,1,1.28,1.18,5.4,5.4,0,0,1,.51,2.11c.07.86.1,1.92.1,3.17,0,1.61,0,2.94-.13,4a6.85,6.85,0,0,1-.58,2.48,2.55,2.55,0,0,1-1.36,1.27,6.8,6.8,0,0,1-2.46.36H30l-1.58,0a10.18,10.18,0,0,1-1.58-.18,5.67,5.67,0,0,1-1.47-.5,4,4,0,0,1-1.24-1l-.07,0a8.05,8.05,0,0,0,.25,2.14,2.92,2.92,0,0,0,.82,1.39,3.24,3.24,0,0,0,1.48.75,9.31,9.31,0,0,0,2.28.23h4.13a7.7,7.7,0,0,0,1.48-.11,3.39,3.39,0,0,0,1-.34,2.49,2.49,0,0,0,.75-.62,7.25,7.25,0,0,0,.64-.94,1.74,1.74,0,0,1,1,.7,6.33,6.33,0,0,1-.81,1.24,3.59,3.59,0,0,1-1,.82,3.85,3.85,0,0,1-1.22.45,8.42,8.42,0,0,1-1.6.13H29.09a11.07,11.07,0,0,1-2.83-.31,4.22,4.22,0,0,1-1.94-1,4.3,4.3,0,0,1-1.11-1.93,11,11,0,0,1-.35-3v-.5c0-.22,0-.45,0-.71s0-.54,0-.82,0-.54.05-.79h1.21a2.59,2.59,0,0,0,.93,1.11,5,5,0,0,0,1.43.61,9.15,9.15,0,0,0,1.7.27c.59,0,1.17.05,1.73.05h3.46a5.75,5.75,0,0,0,1.82-.23,1.76,1.76,0,0,0,1-.81,4,4,0,0,0,.4-1.57c0-.65.08-1.48.08-2.48,0-1.17,0-2.11-.08-2.84a4.77,4.77,0,0,0-.38-1.72,1.68,1.68,0,0,0-.92-.86,4.9,4.9,0,0,0-1.65-.22H28.47a12.54,12.54,0,0,0-1.67.11,3.25,3.25,0,0,0-1.36.49,2.64,2.64,0,0,0-.92,1.12,5,5,0,0,0-.33,2v.31c0,.06,0,.17,0,.31Z"/><path class="cls-1" d="M19.14,238.61a2,2,0,0,1,1.44.43,1.67,1.67,0,0,1,.44,1.24,3,3,0,0,1-.18,1.07c-.11.32-.24.64-.38,1a9.19,9.19,0,0,0-.38,1.05,4.39,4.39,0,0,0-.17,1.33,4.84,4.84,0,0,0,.07.9,4.91,4.91,0,0,0,.21.71c.08.23.17.45.26.67a5.59,5.59,0,0,1,.27.73,6.21,6.21,0,0,1,.2.89,7.62,7.62,0,0,1,.08,1.16,6.61,6.61,0,0,1-.38,2.37,4,4,0,0,1-1.12,1.62,4.64,4.64,0,0,1-1.81.93,9.23,9.23,0,0,1-2.47.3,10.85,10.85,0,0,1-4.1-.73,9.19,9.19,0,0,1-3.1-2,8.38,8.38,0,0,1-1.95-2.91,9.4,9.4,0,0,1-.68-3.56,8,8,0,0,1,.52-3,5.77,5.77,0,0,1,1.57-2.26,7.41,7.41,0,0,1,2.68-1.46,12.6,12.6,0,0,1,3.79-.51Zm-5.3,2.86a10.82,10.82,0,0,0-3.25.42A5.59,5.59,0,0,0,8.48,243a4.11,4.11,0,0,0-1.16,1.69,6.28,6.28,0,0,0,.35,5,6.66,6.66,0,0,0,1.87,2.15,8.79,8.79,0,0,0,2.65,1.33,10.41,10.41,0,0,0,3,.45,4.84,4.84,0,0,0,3.44-1,3.75,3.75,0,0,0,1.06-2.86,5.1,5.1,0,0,0-.17-1.43c-.11-.4-.24-.78-.37-1.14s-.26-.74-.38-1.13a5,5,0,0,1-.17-1.36,6.09,6.09,0,0,1,.21-1.62c.14-.5.31-1,.51-1.58Z"/><path class="cls-1" d="M37.72,197.1V200H26.52a9.71,9.71,0,0,0-1.35.07,2.21,2.21,0,0,0-.76.23.78.78,0,0,0-.35.45,2.75,2.75,0,0,0-.08.7,3.13,3.13,0,0,0,.07.67,1,1,0,0,0,.23.47,1,1,0,0,0,.5.28,4,4,0,0,0,.86.08H34.3a4.56,4.56,0,0,1,2,.36,2.33,2.33,0,0,1,1.1,1.15,6,6,0,0,1,.45,2q.09,1.25.09,3c0,1.56,0,2.85-.11,3.86a8,8,0,0,1-.49,2.42A2.3,2.3,0,0,1,36.26,217a4.29,4.29,0,0,1-1.92.36H25.91a6.46,6.46,0,0,0-1,0,2.24,2.24,0,0,0-.59.16.65.65,0,0,0-.3.29,1,1,0,0,0-.08.42,1.7,1.7,0,0,0,.22.81,2,2,0,0,0,.74.7,4.58,4.58,0,0,0,1.35.48,10.07,10.07,0,0,0,2.07.18h4.69a8.61,8.61,0,0,0,1.48-.11,3.39,3.39,0,0,0,1-.34,2.65,2.65,0,0,0,.75-.62,7.42,7.42,0,0,0,.64-.95,2.11,2.11,0,0,1,.55.25,1.79,1.79,0,0,1,.45.46,6.33,6.33,0,0,1-.81,1.24,3.59,3.59,0,0,1-1,.82,3.85,3.85,0,0,1-1.22.45,9.32,9.32,0,0,1-1.6.13H28.53c-.45,0-.9,0-1.36,0a9.46,9.46,0,0,1-1.33-.19,6.21,6.21,0,0,1-1.21-.43,3.32,3.32,0,0,1-1-.75,3.45,3.45,0,0,1-.66-1.16,5,5,0,0,1-.25-1.66,5,5,0,0,1,.16-1.28,2.28,2.28,0,0,1,.53-1,2.48,2.48,0,0,1,1-.6,5,5,0,0,1,1.56-.21h8.36a2.8,2.8,0,0,0,1.28-.24,1.45,1.45,0,0,0,.71-.8,5.13,5.13,0,0,0,.29-1.53c.05-.64.07-1.44.07-2.4s0-2-.07-2.64a5.12,5.12,0,0,0-.32-1.62,1.47,1.47,0,0,0-.71-.81,3.07,3.07,0,0,0-1.29-.23H25.75a5,5,0,0,1-1.54-.2,2,2,0,0,1-.91-.62,2.35,2.35,0,0,1-.45-1,8,8,0,0,1-.12-1.48,8.64,8.64,0,0,1,.16-1.73,2.44,2.44,0,0,1,.59-1.18,2.66,2.66,0,0,1,1.22-.67,7.32,7.32,0,0,1,2-.22Z"/><path class="cls-1" d="M13.11,198.4a5.54,5.54,0,0,1,.89,1.78,5.82,5.82,0,0,1,.19,1.32A4.19,4.19,0,0,1,14,203a2.93,2.93,0,0,1-.57,1,2.23,2.23,0,0,1-.78.55,2.36,2.36,0,0,1-1.59.06,1.79,1.79,0,0,1-.61-.36,1.73,1.73,0,0,1-.42-.57,2,2,0,0,1-.16-.8,1.52,1.52,0,0,1,.45-1.19,1.48,1.48,0,0,1,1-.4,1.76,1.76,0,0,1,.74.16,1.68,1.68,0,0,1,.65.51h.07a1.78,1.78,0,0,0,0-.28,1.93,1.93,0,0,0,0-.24,3.87,3.87,0,0,0-.16-1.08,6.37,6.37,0,0,0-.59-1.29A3,3,0,0,1,13.11,198.4Zm5.58-4a5.72,5.72,0,0,1,.89,1.77,6,6,0,0,1,.19,1.32,4.44,4.44,0,0,1-.22,1.46,3,3,0,0,1-.57,1,2.37,2.37,0,0,1-.78.55,2.45,2.45,0,0,1-.87.17,2.18,2.18,0,0,1-.72-.12,1.77,1.77,0,0,1-.61-.35,1.63,1.63,0,0,1-.42-.58,1.8,1.8,0,0,1-.16-.79,1.51,1.51,0,0,1,.45-1.19,1.47,1.47,0,0,1,1-.41,1.78,1.78,0,0,1,.74.17,1.63,1.63,0,0,1,.65.5h.06a1.1,1.1,0,0,0,0-.28,1.69,1.69,0,0,0,0-.23,3.77,3.77,0,0,0-.16-1.08,6.18,6.18,0,0,0-.59-1.3A2.84,2.84,0,0,1,18.69,194.42Zm0,7.61a5.72,5.72,0,0,1,.89,1.77,6,6,0,0,1,.19,1.32,4.44,4.44,0,0,1-.22,1.46,3,3,0,0,1-.57,1,2.37,2.37,0,0,1-.78.55,2.45,2.45,0,0,1-.87.17,2.18,2.18,0,0,1-.72-.12,1.77,1.77,0,0,1-.61-.35,1.63,1.63,0,0,1-.42-.58,1.81,1.81,0,0,1-.16-.8,1.5,1.5,0,0,1,.45-1.18,1.47,1.47,0,0,1,1-.41,1.93,1.93,0,0,1,.74.16,1.75,1.75,0,0,1,.65.51h.06a1.1,1.1,0,0,0,0-.28,1.69,1.69,0,0,0,0-.23,3.77,3.77,0,0,0-.16-1.08,6.18,6.18,0,0,0-.59-1.3A2.84,2.84,0,0,1,18.69,202Z"/><path class="cls-1" d="M13.34,194.27a12.67,12.67,0,0,1-.49-2.11,14.51,14.51,0,0,1-.15-2h-.06a46.27,46.27,0,0,0-2.5,4.16,37.39,37.39,0,0,0-2,4.39,31.91,31.91,0,0,0-1.32,4.44,20,20,0,0,0-.48,4.26,14.83,14.83,0,0,0,.25,2.73,8.44,8.44,0,0,0,.81,2.47,5.12,5.12,0,0,0,1.5,1.78,3.73,3.73,0,0,0,2.29.69,4.76,4.76,0,0,0,2.26-.56,7,7,0,0,0,1.9-1.55,11.38,11.38,0,0,0,1.56-2.31,21.24,21.24,0,0,0,1.24-2.86,30.39,30.39,0,0,0,.93-3.19c.26-1.1.47-2.2.65-3.3s.29-2.17.37-3.21.12-2,.12-2.89h1.26c0,1.07,0,2.2-.14,3.38s-.23,2.37-.43,3.57-.43,2.38-.73,3.55a29.19,29.19,0,0,1-1.06,3.35A21.06,21.06,0,0,1,17.7,212a11.55,11.55,0,0,1-1.78,2.33,7.72,7.72,0,0,1-2.17,1.55,6.05,6.05,0,0,1-2.59.56,5.37,5.37,0,0,1-3-.83,6.72,6.72,0,0,1-2.09-2.21,11,11,0,0,1-1.24-3.18,17,17,0,0,1-.4-3.75,22,22,0,0,1,.37-4,29.39,29.39,0,0,1,1.07-4.12,35.54,35.54,0,0,1,1.67-4.07,36.09,36.09,0,0,1,2.18-3.85A32.42,32.42,0,0,1,12.34,187a24.36,24.36,0,0,1,2.93-2.91,2,2,0,0,1,.51.39,2.83,2.83,0,0,1,.39.52,9.1,9.1,0,0,0-1.59,2.69,8.28,8.28,0,0,0-.5,2.84,9.21,9.21,0,0,0,.15,1.65,13,13,0,0,0,.43,1.71,6,6,0,0,1-.66.26A3.85,3.85,0,0,1,13.34,194.27Z"/><path class="cls-1" d="M0,179.1A2.84,2.84,0,0,1,.44,178l20.65,8.43a3.06,3.06,0,0,1-.16.83,4.17,4.17,0,0,1-.35.74Z"/><path class="cls-1" d="M37.72,158.59v2.86H25.91a6.28,6.28,0,0,0-1,.06,1.91,1.91,0,0,0-.59.16.68.68,0,0,0-.3.28,1.1,1.1,0,0,0-.08.43,1.7,1.7,0,0,0,.22.81,1.92,1.92,0,0,0,.74.69,4.3,4.3,0,0,0,1.35.49,10.07,10.07,0,0,0,2.07.18h4.69a8.73,8.73,0,0,0,1.48-.1,3.14,3.14,0,0,0,1-.32,2.52,2.52,0,0,0,.75-.58,6.63,6.63,0,0,0,.64-.86,1.74,1.74,0,0,1,1,.7,5.45,5.45,0,0,1-.81,1.17,3.58,3.58,0,0,1-1,.77,3.88,3.88,0,0,1-1.23.42,9.29,9.29,0,0,1-1.59.13H28.53c-.45,0-.9,0-1.36,0a8.2,8.2,0,0,1-1.33-.2,5.34,5.34,0,0,1-1.22-.43,3.09,3.09,0,0,1-1-.75,3.35,3.35,0,0,1-.66-1.16,5.11,5.11,0,0,1-.25-1.67,4.88,4.88,0,0,1,.16-1.26,2.22,2.22,0,0,1,.53-1,2.61,2.61,0,0,1,1-.61,5,5,0,0,1,1.56-.21h4.83a18.15,18.15,0,0,1,.14-2.15,19.08,19.08,0,0,1,.39-2.24H27a6.19,6.19,0,0,1-2.22-.33,2.71,2.71,0,0,1-1.3-1.08,4.93,4.93,0,0,1-.6-1.93,23.6,23.6,0,0,1-.15-2.89,25.12,25.12,0,0,1,.14-2.71,6.1,6.1,0,0,1,.59-2.15,3.25,3.25,0,0,1,1.36-1.41,4.88,4.88,0,0,1,2.41-.51H37.72v2.86H27a5.13,5.13,0,0,0-1.62.2,1.74,1.74,0,0,0-.92.69,3,3,0,0,0-.41,1.3,19,19,0,0,0-.1,2,20.82,20.82,0,0,0,.1,2.1,3.79,3.79,0,0,0,.4,1.42,1.89,1.89,0,0,0,.9.82,3.89,3.89,0,0,0,1.56.26H31.7a9.77,9.77,0,0,1,.68-1.5,6.17,6.17,0,0,1,.88-1.21,4.13,4.13,0,0,1,1.08-.81,2.86,2.86,0,0,1,1.3-.3,2.73,2.73,0,0,1,.94.16,2.11,2.11,0,0,1,.8.48,2.27,2.27,0,0,1,.57.82,3.19,3.19,0,0,1,.21,1.21,3.34,3.34,0,0,1-.16,1,1.74,1.74,0,0,1-.51.77,2.28,2.28,0,0,1-.9.49,4.41,4.41,0,0,1-1.34.17H32.61a16,16,0,0,0-.44,2,19.07,19.07,0,0,0-.2,2.4Zm-1-6.71a1,1,0,0,0-1.14-1,2.07,2.07,0,0,0-1.32.52,4.77,4.77,0,0,0-1.14,1.53h2.35a1.72,1.72,0,0,0,.6-.09.94.94,0,0,0,.38-.23.72.72,0,0,0,.2-.32A.92.92,0,0,0,36.69,151.88Z"/><path class="cls-1" d="M37.72,121.88v2.86H25.91a6.28,6.28,0,0,0-1,.06,1.91,1.91,0,0,0-.59.16.63.63,0,0,0-.3.28,1.08,1.08,0,0,0-.08.42,1.77,1.77,0,0,0,.22.82,1.92,1.92,0,0,0,.74.69,4.56,4.56,0,0,0,1.35.49,10.92,10.92,0,0,0,2.07.17h4.69a10.09,10.09,0,0,0,1.48-.09,3.14,3.14,0,0,0,1-.32,2.52,2.52,0,0,0,.75-.58,6.63,6.63,0,0,0,.64-.86,1.74,1.74,0,0,1,1,.7,5.45,5.45,0,0,1-.81,1.17,3.79,3.79,0,0,1-1,.77,4.45,4.45,0,0,1-1.23.42,9.36,9.36,0,0,1-1.59.12H28.53c-.45,0-.9,0-1.36,0a9.46,9.46,0,0,1-1.33-.2,5.34,5.34,0,0,1-1.22-.43,3.41,3.41,0,0,1-1-.75,3.35,3.35,0,0,1-.66-1.16,5.15,5.15,0,0,1-.25-1.67,4.82,4.82,0,0,1,.16-1.26,2.25,2.25,0,0,1,.53-1,2.48,2.48,0,0,1,1-.6,5,5,0,0,1,1.56-.21h4.83a18,18,0,0,1,.14-2.15,19.08,19.08,0,0,1,.39-2.24H27a6.19,6.19,0,0,1-2.22-.33,2.71,2.71,0,0,1-1.3-1.08,4.93,4.93,0,0,1-.6-1.93,23.6,23.6,0,0,1-.15-2.89,25,25,0,0,1,.14-2.71,6.1,6.1,0,0,1,.59-2.15A3.33,3.33,0,0,1,24.82,105a4.88,4.88,0,0,1,2.41-.5H37.72v2.85H27a5.09,5.09,0,0,0-1.62.21,1.69,1.69,0,0,0-.92.69,2.93,2.93,0,0,0-.41,1.3,19,19,0,0,0-.1,2,20.45,20.45,0,0,0,.1,2.09,3.79,3.79,0,0,0,.4,1.43,1.94,1.94,0,0,0,.9.82,3.91,3.91,0,0,0,1.56.25H31.7a9.66,9.66,0,0,1,.68-1.49,5.89,5.89,0,0,1,.88-1.21,3.92,3.92,0,0,1,1.08-.81,2.86,2.86,0,0,1,1.3-.3,2.73,2.73,0,0,1,.94.16,2.23,2.23,0,0,1,.8.47,2.4,2.4,0,0,1,.57.83,3.16,3.16,0,0,1,.21,1.21,3.23,3.23,0,0,1-.16,1,1.77,1.77,0,0,1-.51.78,2.42,2.42,0,0,1-.9.49,4.75,4.75,0,0,1-1.34.17H32.61a15.57,15.57,0,0,0-.44,2,18.91,18.91,0,0,0-.2,2.4Zm-1-6.72a1,1,0,0,0-.28-.72,1,1,0,0,0-.86-.32,2.07,2.07,0,0,0-1.32.52,4.83,4.83,0,0,0-1.14,1.52h2.35a2,2,0,0,0,.6-.08,1.07,1.07,0,0,0,.38-.23.72.72,0,0,0,.2-.32A.94.94,0,0,0,36.69,115.16Z"/><path class="cls-1" d="M68.28,83.37a2.91,2.91,0,0,1,.53.38,3.38,3.38,0,0,1,.46.47,12.68,12.68,0,0,1-1.22,1.62A5.89,5.89,0,0,1,66.54,87a7.19,7.19,0,0,1-2.07.73,14.44,14.44,0,0,1-2.94.25h-35a11.57,11.57,0,0,0-1.35.07,1.83,1.83,0,0,0-.76.25.84.84,0,0,0-.35.48,3,3,0,0,0-.08.73,3.63,3.63,0,0,0,.07.71,1.11,1.11,0,0,0,.23.49,1,1,0,0,0,.5.29,3.38,3.38,0,0,0,.86.09H58.89a8.55,8.55,0,0,1,2.4.29,3.73,3.73,0,0,1,1.53.83,2.88,2.88,0,0,1,.8,1.3,6.25,6.25,0,0,1,0,3.36c-.15.5-.31,1-.48,1.46s-.34.93-.49,1.38a4.72,4.72,0,0,0-.22,1.41,4.48,4.48,0,0,0,.14,1.1c.1.35.21.71.35,1.08s.28.73.45,1.12a10,10,0,0,1,.45,1.24,13.4,13.4,0,0,1,.35,1.42,9.49,9.49,0,0,1,.14,1.65,8,8,0,0,1-.35,2.46A5.16,5.16,0,0,1,63,113a4.2,4.2,0,0,1-1.44,1.08,4.58,4.58,0,0,1-1.82.36,4.37,4.37,0,0,1-2.25-.56,6,6,0,0,1-1.71-1.47,9,9,0,0,1-1.24-2.06A20.26,20.26,0,0,1,53.7,108a2.85,2.85,0,0,1,.58-.29,3.78,3.78,0,0,1,.7-.18,11.79,11.79,0,0,0,.77,1.67,5.62,5.62,0,0,0,1,1.29,4.22,4.22,0,0,0,1.29.84,4.17,4.17,0,0,0,1.64.3,3,3,0,0,0,2.43-.94,4.2,4.2,0,0,0,.75-2.67,7.25,7.25,0,0,0-.25-2c-.18-.58-.37-1.14-.58-1.67s-.41-1-.58-1.54a5.26,5.26,0,0,1,0-3.14c.15-.48.31-1,.49-1.42s.33-.94.48-1.41a5.25,5.25,0,0,0,.22-1.48A4.53,4.53,0,0,0,62.41,94a1.79,1.79,0,0,0-.58-.9,2.76,2.76,0,0,0-1.13-.52,8.31,8.31,0,0,0-1.81-.16H25.75a5,5,0,0,1-1.54-.2,2,2,0,0,1-.91-.63,2.39,2.39,0,0,1-.45-1.06A8.36,8.36,0,0,1,22.73,89a8.88,8.88,0,0,1,.16-1.76,2.51,2.51,0,0,1,.59-1.2,2.76,2.76,0,0,1,1.22-.68,7.74,7.74,0,0,1,2-.22H60.55c.9,0,1.68,0,2.33,0s1.21,0,1.68-.1a9.32,9.32,0,0,0,1.2-.2,5.6,5.6,0,0,0,.9-.33,5.35,5.35,0,0,0,.78-.49C67.69,83.86,68,83.63,68.28,83.37Z"/><path class="cls-1" d="M37.72,48.32v2.85H26.52a11.57,11.57,0,0,0-1.35.07,2,2,0,0,0-.76.21.73.73,0,0,0-.35.41,2.51,2.51,0,0,0-.08.67,2.72,2.72,0,0,0,.07.62.86.86,0,0,0,.23.42,1.17,1.17,0,0,0,.5.25,4.07,4.07,0,0,0,.86.07H34a5.19,5.19,0,0,1,3.22.79,2.86,2.86,0,0,1,1,2.34,3.91,3.91,0,0,1-.22,1.38,3.05,3.05,0,0,1-.56.92,2.8,2.8,0,0,1-.77.57,5.35,5.35,0,0,1-.83.36,5.43,5.43,0,0,1-.57.19,3.85,3.85,0,0,0-.48.16,1.07,1.07,0,0,0-.32.18.4.4,0,0,0-.11.27.35.35,0,0,0,.13.26,1.23,1.23,0,0,0,.34.21,3.28,3.28,0,0,0,.45.17l.47.16c.27.1.55.23.84.37a3.05,3.05,0,0,1,.8.6,2.8,2.8,0,0,1,.59,1,3.83,3.83,0,0,1,.24,1.47,4.53,4.53,0,0,1-.23,1.47,2.84,2.84,0,0,1-.7,1.12,3.12,3.12,0,0,1-1.2.73,5.33,5.33,0,0,1-1.75.26H30l-1.58,0a8.22,8.22,0,0,1-1.58-.18,5.67,5.67,0,0,1-1.47-.5,4,4,0,0,1-1.24-1l-.07,0a8.19,8.19,0,0,0,.25,2.15,3,3,0,0,0,.82,1.39,3.24,3.24,0,0,0,1.48.75,9.89,9.89,0,0,0,2.28.22h4.13a10.12,10.12,0,0,0,1.47-.08,3.44,3.44,0,0,0,1-.29,2.35,2.35,0,0,0,.74-.55,7.55,7.55,0,0,0,.67-.87,1.74,1.74,0,0,1,1,.7,6.28,6.28,0,0,1-.82,1.17,3.47,3.47,0,0,1-1,.75,4.48,4.48,0,0,1-1.22.39,10.43,10.43,0,0,1-1.59.11H29.09a11.75,11.75,0,0,1-2.85-.3,4.12,4.12,0,0,1-1.93-1,4.46,4.46,0,0,1-1.1-2,12,12,0,0,1-.35-3.14v-.35c0-.2,0-.42,0-.68s0-.53,0-.82,0-.53.05-.76h1.21A2.53,2.53,0,0,0,25.09,65a5,5,0,0,0,1.43.62,8.39,8.39,0,0,0,1.7.26c.59,0,1.17.06,1.73.06h4.66a5.27,5.27,0,0,0,1.17-.11,2.36,2.36,0,0,0,.7-.28.88.88,0,0,0,.34-.41,1.31,1.31,0,0,0,.09-.47A1.27,1.27,0,0,0,36.7,64a2.08,2.08,0,0,0-.57-.53,4,4,0,0,0-.8-.37l-.92-.31-.92-.31a4.25,4.25,0,0,1-.83-.4,2,2,0,0,1-.6-.57,1.4,1.4,0,0,1-.23-.8,1.31,1.31,0,0,1,.26-.83,2.22,2.22,0,0,1,.66-.59,4.78,4.78,0,0,1,.91-.43l1-.35.84-.29a4,4,0,0,0,.72-.35,1.83,1.83,0,0,0,.5-.45,1.07,1.07,0,0,0,.19-.63,1.26,1.26,0,0,0-.14-.57,1.35,1.35,0,0,0-.49-.49,2.9,2.9,0,0,0-.91-.33,6.4,6.4,0,0,0-1.43-.13H25.75A5,5,0,0,1,24.21,55a1.92,1.92,0,0,1-.91-.6,2.19,2.19,0,0,1-.45-1A7.42,7.42,0,0,1,22.73,52a8,8,0,0,1,.16-1.67,2.39,2.39,0,0,1,.59-1.14,2.73,2.73,0,0,1,1.22-.65,7.79,7.79,0,0,1,2-.21Z"/><path class="cls-1" d="M68.28,17.87a2.84,2.84,0,0,1,.53.37,5,5,0,0,1,.46.47,12.14,12.14,0,0,1-1.22,1.63,5.85,5.85,0,0,1-1.51,1.18,7.19,7.19,0,0,1-2.07.74,14.44,14.44,0,0,1-2.94.25h-35a9.46,9.46,0,0,0-1.35.08,1.68,1.68,0,0,0-.76.27.94.94,0,0,0-.35.52,3.72,3.72,0,0,0-.08.82,4.34,4.34,0,0,0,.07.78.94.94,0,0,0,.28.54,1.34,1.34,0,0,0,.62.31,4.5,4.5,0,0,0,1.08.1h7.25a11.55,11.55,0,0,0,1.2-.05,3.34,3.34,0,0,0,1-.22,1.65,1.65,0,0,0,.71-.51,1.37,1.37,0,0,0,.27-.89H37.7c0,.52,0,1,0,1.52s0,1,0,1.65c0,.87,0,1.59-.07,2.18A3.53,3.53,0,0,1,37.32,31a1.69,1.69,0,0,1-.91.77A5.17,5.17,0,0,1,34.7,32H27a6.22,6.22,0,0,0-.95.06,2.33,2.33,0,0,0-.6.16.66.66,0,0,0-.29.28.94.94,0,0,0-.08.43,1.59,1.59,0,0,0,.22.81,1.88,1.88,0,0,0,.73.69,4.5,4.5,0,0,0,1.35.49,10.07,10.07,0,0,0,2.07.18h3.6A8.61,8.61,0,0,0,34.53,35a3.39,3.39,0,0,0,1-.34,2.65,2.65,0,0,0,.75-.62,7.42,7.42,0,0,0,.64-.95,2.11,2.11,0,0,1,.55.25,1.79,1.79,0,0,1,.45.46,6.33,6.33,0,0,1-.81,1.24,3.63,3.63,0,0,1-2.19,1.26,8.35,8.35,0,0,1-1.6.14H29.62c-.44,0-.9,0-1.35-.05a8.2,8.2,0,0,1-1.33-.2,5,5,0,0,1-1.21-.43,3.17,3.17,0,0,1-1-.75,3.31,3.31,0,0,1-.66-1.15,5.06,5.06,0,0,1-.24-1.66A5,5,0,0,1,24,30.93a2.29,2.29,0,0,1,.54-.95,2.41,2.41,0,0,1,1-.6,4.9,4.9,0,0,1,1.56-.21h6.5c.65,0,1.18,0,1.56,0A1.68,1.68,0,0,0,36,28.9a.91.91,0,0,0,.39-.63,6.27,6.27,0,0,0,.09-1.21V26.6l0,0a1.57,1.57,0,0,1-.67.38,5.54,5.54,0,0,1-.87.21c-.3,0-.62.07-.93.08l-.89,0h-7a6,6,0,0,1-1.76-.21,2.08,2.08,0,0,1-1-.66,2.4,2.4,0,0,1-.48-1.11,8.91,8.91,0,0,1-.13-1.58,9.61,9.61,0,0,1,.16-1.84,2.66,2.66,0,0,1,.59-1.24,2.62,2.62,0,0,1,1.22-.71,7.27,7.27,0,0,1,2-.23H60.55l2.33,0c.65,0,1.21-.05,1.68-.1a9.16,9.16,0,0,0,1.2-.21,4.18,4.18,0,0,0,.9-.33,4.55,4.55,0,0,0,.78-.48C67.69,18.35,68,18.13,68.28,17.87Z"/><path class="cls-1" d="M31.48.11l.53,0,.64,0,.68,0H34a6.58,6.58,0,0,1,2.12.27,2.09,2.09,0,0,1,1.14.85,3.42,3.42,0,0,1,.47,1.54A21.56,21.56,0,0,1,37.8,5c0,.84,0,1.56,0,2.15s0,1-.05,1.33l-.1,0c-1-.73-2-1.43-3-2.1s-2-1.28-2.93-1.8a18.29,18.29,0,0,0-2.72-1.24,7.13,7.13,0,0,0-2.39-.46A4,4,0,0,0,25.8,3a1.64,1.64,0,0,0-.68.28,1.54,1.54,0,0,0-.5.57,2.13,2.13,0,0,0-.2,1A2.12,2.12,0,0,0,25,6.33a1.77,1.77,0,0,0,1.28.53,2.58,2.58,0,0,0,1.38-.44,2.81,2.81,0,0,1,.55,1.14A4.21,4.21,0,0,1,26,8.22,3.12,3.12,0,0,1,24.71,8a2.85,2.85,0,0,1-1-.74A3.57,3.57,0,0,1,23,6a4.84,4.84,0,0,1-.26-1.65A4.82,4.82,0,0,1,23,2.66a3.51,3.51,0,0,1,.76-1.24A3.35,3.35,0,0,1,24.93.66,3.88,3.88,0,0,1,26.34.41a5.45,5.45,0,0,1,1.9.36,11.92,11.92,0,0,1,2.05,1,25.38,25.38,0,0,1,2.26,1.51c.79.58,1.63,1.22,2.53,1.92l.42.33,0,0a5,5,0,0,0,0-.5c0-.25,0-.48,0-.71a8.82,8.82,0,0,0-.11-1.63,2.09,2.09,0,0,0-.34-.9,1.07,1.07,0,0,0-.62-.39,4.12,4.12,0,0,0-.93-.08c-.24,0-.53,0-.86,0s-.69,0-1.06.07Q31.57,1,31.52.73C31.5.53,31.48.32,31.48.11Z"/></g></g></svg>