<svg xmlns="http://www.w3.org/2000/svg" xmlns:xlink="http://www.w3.org/1999/xlink" viewBox="0 0 267.52 593.53"><defs><style>.cls-1{fill:#f3f1e7;}.cls-2{fill:url(#linear-gradient);}.cls-3{fill:url(#linear-gradient-2);}.cls-4{fill:url(#linear-gradient-3);}.cls-5{fill:url(#linear-gradient-4);}.cls-6{fill:url(#linear-gradient-5);}.cls-7{fill:url(#linear-gradient-6);}.cls-8{fill:url(#linear-gradient-7);}.cls-9{fill:url(#linear-gradient-8);}.cls-10{fill:url(#linear-gradient-9);}.cls-11{fill:url(#linear-gradient-10);}.cls-12{fill:url(#linear-gradient-11);}.cls-13{fill:url(#linear-gradient-12);}.cls-14{fill:url(#linear-gradient-13);}.cls-15{fill:url(#linear-gradient-14);}.cls-16{fill:url(#linear-gradient-15);}.cls-17{fill:url(#linear-gradient-16);}.cls-18{fill:url(#linear-gradient-17);}.cls-19{fill:url(#linear-gradient-18);}.cls-20{fill:url(#linear-gradient-19);}.cls-21{fill:url(#linear-gradient-20);}.cls-22{fill:url(#linear-gradient-21);}.cls-23{fill:url(#linear-gradient-22);}.cls-24{fill:url(#linear-gradient-23);}.cls-25{fill:url(#linear-gradient-24);}</style><linearGradient id="linear-gradient" x1="131.06" y1="3.53" x2="137.03" y2="3.53" gradientUnits="userSpaceOnUse"><stop offset="0" stop-color="#826435"/><stop offset="0.43" stop-color="#7d6030"/><stop offset="0.93" stop-color="#6f5423"/><stop offset="1" stop-color="#6c5220"/></linearGradient><linearGradient id="linear-gradient-2" x1="483.41" y1="-32.73" x2="489.38" y2="-32.73" gradientTransform="translate(-335.1 -69.45) rotate(13.05)" xlink:href="#linear-gradient"/><linearGradient id="linear-gradient-3" x1="1100.45" y1="-323.01" x2="1106.42" y2="-323.01" gradientTransform="translate(-905.95 -427.95) rotate(39.26)" xlink:href="#linear-gradient"/><linearGradient id="linear-gradient-4" x1="1106.35" y1="-306.78" x2="1112.32" y2="-306.78" gradientTransform="translate(-905.95 -427.95) rotate(39.26)" xlink:href="#linear-gradient"/><linearGradient id="linear-gradient-5" x1="1098.88" y1="-295.01" x2="1104.85" y2="-295.01" gradientTransform="translate(-905.95 -427.95) rotate(39.26)" xlink:href="#linear-gradient"/><linearGradient id="linear-gradient-6" x1="1563.3" y1="-1748.35" x2="1569.27" y2="-1748.35" gradientTransform="translate(-1275.01 -1852.03) rotate(101.65)" xlink:href="#linear-gradient"/><linearGradient id="linear-gradient-7" x1="1551.67" y1="-1741.52" x2="1557.64" y2="-1741.52" gradientTransform="translate(-1275.01 -1852.03) rotate(101.65)" xlink:href="#linear-gradient"/><linearGradient id="linear-gradient-8" x1="1536.74" y1="-1744.97" x2="1542.71" y2="-1744.97" gradientTransform="translate(-1275.01 -1852.03) rotate(101.65)" xlink:href="#linear-gradient"/><linearGradient id="linear-gradient-9" x1="190.78" y1="19.98" x2="194.69" y2="19.98" gradientTransform="matrix(0.93, -0.38, 0.38, 0.93, 0.63, 65.94)" xlink:href="#linear-gradient"/><linearGradient id="linear-gradient-10" x1="540.47" y1="-30.57" x2="544.39" y2="-30.57" gradientTransform="matrix(0.99, -0.16, 0.16, 0.99, -335.34, 128.84)" xlink:href="#linear-gradient"/><linearGradient id="linear-gradient-11" x1="1148.34" y1="-347.53" x2="1152.25" y2="-347.53" gradientTransform="translate(-999.58 14.08) rotate(16.94)" xlink:href="#linear-gradient"/><linearGradient id="linear-gradient-12" x1="1152.21" y1="-336.89" x2="1156.12" y2="-336.89" gradientTransform="translate(-999.58 14.08) rotate(16.94)" xlink:href="#linear-gradient"/><linearGradient id="linear-gradient-13" x1="1147.31" y1="-329.17" x2="1151.22" y2="-329.17" gradientTransform="translate(-999.58 14.08) rotate(16.94)" xlink:href="#linear-gradient"/><linearGradient id="linear-gradient-14" x1="1557.08" y1="-1810.98" x2="1561" y2="-1810.98" gradientTransform="translate(-1881.98 -1163.02) rotate(79.33)" xlink:href="#linear-gradient"/><linearGradient id="linear-gradient-15" x1="1549.46" y1="-1806.5" x2="1553.37" y2="-1806.5" gradientTransform="translate(-1881.98 -1163.02) rotate(79.33)" xlink:href="#linear-gradient"/><linearGradient id="linear-gradient-16" x1="1539.67" y1="-1808.76" x2="1543.59" y2="-1808.76" gradientTransform="translate(-1881.98 -1163.02) rotate(79.33)" xlink:href="#linear-gradient"/><linearGradient id="linear-gradient-17" x1="79.5" y1="-25.72" x2="83.41" y2="-25.72" gradientTransform="matrix(0.93, -0.38, 0.38, 0.93, 0.63, 65.94)" xlink:href="#linear-gradient"/><linearGradient id="linear-gradient-18" x1="421.75" y1="-49.97" x2="425.66" y2="-49.97" gradientTransform="matrix(0.99, -0.16, 0.16, 0.99, -335.34, 128.84)" xlink:href="#linear-gradient"/><linearGradient id="linear-gradient-19" x1="1033.26" y1="-312.48" x2="1037.17" y2="-312.48" gradientTransform="translate(-999.58 14.08) rotate(16.94)" xlink:href="#linear-gradient"/><linearGradient id="linear-gradient-20" x1="1037.13" y1="-301.84" x2="1041.04" y2="-301.84" gradientTransform="translate(-999.58 14.08) rotate(16.94)" xlink:href="#linear-gradient"/><linearGradient id="linear-gradient-21" x1="1032.23" y1="-294.13" x2="1036.14" y2="-294.13" gradientTransform="translate(-999.58 14.08) rotate(16.94)" xlink:href="#linear-gradient"/><linearGradient id="linear-gradient-22" x1="1534.81" y1="-1692.76" x2="1538.72" y2="-1692.76" gradientTransform="translate(-1881.98 -1163.02) rotate(79.33)" xlink:href="#linear-gradient"/><linearGradient id="linear-gradient-23" x1="1527.18" y1="-1688.28" x2="1531.1" y2="-1688.28" gradientTransform="translate(-1881.98 -1163.02) rotate(79.33)" xlink:href="#linear-gradient"/><linearGradient id="linear-gradient-24" x1="1517.39" y1="-1690.54" x2="1521.31" y2="-1690.54" gradientTransform="translate(-1881.98 -1163.02) rotate(79.33)" xlink:href="#linear-gradient"/></defs><g id="Layer_2" data-name="Layer 2"><g id="Layer_4" data-name="Layer 4"><path class="cls-1" d="M4.72,569.24v-.39h1.8V562L2,554.63H.43v-.39h5.8v.39H4.16l4,6.61,4-6.61h-2.1v-.39h4.08v.39H12.61l-4.19,7v7.27h2v.39Z" transform="translate(-0.43)"/><path class="cls-1" d="M21.58,569.44a4.36,4.36,0,0,1-4-2.41,5.38,5.38,0,0,1,0-4.78,4.4,4.4,0,0,1,1.59-1.75,4.9,4.9,0,0,1,4.88,0,4.35,4.35,0,0,1,1.57,1.75,5.38,5.38,0,0,1,0,4.78A4.35,4.35,0,0,1,24,568.78,4.43,4.43,0,0,1,21.58,569.44Zm0-.39a2,2,0,0,0,1.31-.42,2.52,2.52,0,0,0,.76-1.08,6.09,6.09,0,0,0,.37-1.44,12.59,12.59,0,0,0,.09-1.47,12.76,12.76,0,0,0-.09-1.48,6,6,0,0,0-.37-1.43,2.62,2.62,0,0,0-.76-1.09,2.3,2.3,0,0,0-2.62,0,2.73,2.73,0,0,0-.77,1.09,6,6,0,0,0-.35,1.43,10.93,10.93,0,0,0-.1,1.48,10.79,10.79,0,0,0,.1,1.47,6.07,6.07,0,0,0,.35,1.44,2.63,2.63,0,0,0,.77,1.08A2,2,0,0,0,21.58,569.05Z" transform="translate(-0.43)"/><path class="cls-1" d="M36,569.44a3.16,3.16,0,0,1-1.76-.4,2,2,0,0,1-.8-1.07,5.6,5.6,0,0,1-.2-1.55v-6H31.91V560H35v6.09a12.51,12.51,0,0,0,.08,1.47,2.06,2.06,0,0,0,.34,1,1,1,0,0,0,.81.36,2.26,2.26,0,0,0,1.39-.44,3.42,3.42,0,0,0,1-1.13,5.27,5.27,0,0,0,.54-1.45,6.11,6.11,0,0,0,.18-1.4l.23,0a8,8,0,0,1-.16,1.51,5.9,5.9,0,0,1-.54,1.63,3.33,3.33,0,0,1-1.08,1.3A2.89,2.89,0,0,1,36,569.44Zm3.33-.2v-8.81h-1.4V560h3.21v8.81h1.3v.39Z" transform="translate(-0.43)"/><path class="cls-1" d="M50.93,560v8.81h1.42v.39H47.87v-.39h1.31v-8.42H47.87V560ZM50.7,565a9,9,0,0,1,.18-1.78,7.29,7.29,0,0,1,.56-1.65,3.63,3.63,0,0,1,1-1.21,2,2,0,0,1,1.33-.46,1.92,1.92,0,0,1,.94.21,1.43,1.43,0,0,1,.59.55,1.46,1.46,0,0,1,.2.73,1.23,1.23,0,0,1-.31.86,1,1,0,0,1-.83.36,1.19,1.19,0,0,1-.85-.3,1,1,0,0,1-.31-.74,1,1,0,0,1,.36-.84,1.31,1.31,0,0,1,1.36-.16,1,1,0,0,1,.41.33.86.86,0,0,1,.15.49H55a.88.88,0,0,0-.19-.56,1.29,1.29,0,0,0-.49-.39,1.69,1.69,0,0,0-.68-.14,1.74,1.74,0,0,0-1.11.4,3.73,3.73,0,0,0-.87,1.09,7,7,0,0,0-.57,1.52,7.37,7.37,0,0,0-.2,1.69Z" transform="translate(-0.43)"/><path class="cls-1" d="M75.5,554.24a7.08,7.08,0,0,1,3,.53,3.66,3.66,0,0,1,1.7,1.51,4.49,4.49,0,0,1,.55,2.27,4.33,4.33,0,0,1-.55,2.24,3.57,3.57,0,0,1-1.7,1.46,7.27,7.27,0,0,1-3,.51H73.31v6.09H75.1v.39H69.6v-.39h1.8V554.63H69.6v-.39Zm-2.19,8.13H75.5a2.34,2.34,0,0,0,1.27-.34,3.1,3.1,0,0,0,.94-.9,4.17,4.17,0,0,0,.59-1.24,4.78,4.78,0,0,0,.2-1.34,5,5,0,0,0-.2-1.36,4.46,4.46,0,0,0-.59-1.27,3.12,3.12,0,0,0-.94-.94,2.35,2.35,0,0,0-1.27-.35H73.31Z" transform="translate(-0.43)"/><path class="cls-1" d="M89.54,560v8.81H91v.39H86.48v-.39h1.31v-8.42H86.48V560ZM89.31,565a9,9,0,0,1,.18-1.78,7.29,7.29,0,0,1,.56-1.65,3.63,3.63,0,0,1,1-1.21,2,2,0,0,1,1.33-.46,1.92,1.92,0,0,1,.94.21,1.43,1.43,0,0,1,.59.55,1.46,1.46,0,0,1,.2.73,1.23,1.23,0,0,1-.31.86,1,1,0,0,1-.83.36,1.19,1.19,0,0,1-.85-.3,1,1,0,0,1-.31-.74,1,1,0,0,1,.36-.84,1.31,1.31,0,0,1,1.36-.16,1,1,0,0,1,.41.33.86.86,0,0,1,.15.49h-.39a.88.88,0,0,0-.19-.56,1.29,1.29,0,0,0-.49-.39,1.69,1.69,0,0,0-.68-.14,1.74,1.74,0,0,0-1.11.4,3.73,3.73,0,0,0-.87,1.09,7,7,0,0,0-.57,1.52,7.37,7.37,0,0,0-.2,1.69Z" transform="translate(-0.43)"/><path class="cls-1" d="M104.16,569.44a4.57,4.57,0,0,1-2.3-.58,4.2,4.2,0,0,1-1.64-1.65,5.17,5.17,0,0,1-.6-2.57,5.39,5.39,0,0,1,.57-2.57,4.1,4.1,0,0,1,1.57-1.65,4.54,4.54,0,0,1,2.28-.57,4.11,4.11,0,0,1,2.31.57,3.25,3.25,0,0,1,1.25,1.52,5.24,5.24,0,0,1,.39,2h-7v-.39h4.9a10.64,10.64,0,0,0-.06-1.08,4.39,4.39,0,0,0-.23-1.1,1.85,1.85,0,0,0-.54-.84,1.45,1.45,0,0,0-1-.33,1.86,1.86,0,0,0-1.18.36,2.35,2.35,0,0,0-.72,1,5.78,5.78,0,0,0-.36,1.42,12.61,12.61,0,0,0-.1,1.65,12.31,12.31,0,0,0,.11,1.64,5.11,5.11,0,0,0,.4,1.4,2.39,2.39,0,0,0,.79,1,2.18,2.18,0,0,0,1.29.36,3.43,3.43,0,0,0,2.19-.68,3.74,3.74,0,0,0,1.23-1.7h.45a4.25,4.25,0,0,1-1.37,2A4,4,0,0,1,104.16,569.44Z" transform="translate(-0.43)"/><path class="cls-1" d="M114,569.44v-2.92h.4a2.73,2.73,0,0,0,.54,1.25,3.28,3.28,0,0,0,1.08.91,2.88,2.88,0,0,0,1.38.34,3.11,3.11,0,0,0,1.06-.18,1.88,1.88,0,0,0,.81-.56,1.41,1.41,0,0,0,.31-.95,1.32,1.32,0,0,0-.39-1,2.87,2.87,0,0,0-1-.61c-.4-.15-.83-.31-1.28-.46a8.62,8.62,0,0,1-1.28-.54,2.83,2.83,0,0,1-1-.86,2.37,2.37,0,0,1-.38-1.4,2.85,2.85,0,0,1,.29-1.24,2.45,2.45,0,0,1,.89-1,2.92,2.92,0,0,1,1.55-.38,3.39,3.39,0,0,1,1.25.22,3.22,3.22,0,0,1,1,.59l.75-.82h.35v2.79H120a2.22,2.22,0,0,0-.44-1.13,2.86,2.86,0,0,0-1-.89,3.07,3.07,0,0,0-1.47-.35,2.28,2.28,0,0,0-.87.16,1.49,1.49,0,0,0-.64.48,1.23,1.23,0,0,0-.23.74,1.1,1.1,0,0,0,.4.89,3.73,3.73,0,0,0,1,.6c.43.17.87.33,1.35.49a9.53,9.53,0,0,1,1.34.59,3.21,3.21,0,0,1,1,.88,2.23,2.23,0,0,1,.4,1.37,2.82,2.82,0,0,1-.44,1.56,3,3,0,0,1-1.17,1,3.77,3.77,0,0,1-1.68.37,3.58,3.58,0,0,1-1.31-.24,3.9,3.9,0,0,1-1.1-.65l-.81.89Z" transform="translate(-0.43)"/><path class="cls-1" d="M131.41,569.44a4.54,4.54,0,0,1-2.3-.58,4.2,4.2,0,0,1-1.64-1.65,5.17,5.17,0,0,1-.6-2.57,5.39,5.39,0,0,1,.57-2.57,4.1,4.1,0,0,1,1.57-1.65,4.51,4.51,0,0,1,2.28-.57,4.14,4.14,0,0,1,2.31.57,3.25,3.25,0,0,1,1.25,1.52,5.24,5.24,0,0,1,.39,2h-7v-.39h4.9a10.64,10.64,0,0,0-.06-1.08,4.39,4.39,0,0,0-.23-1.1,1.85,1.85,0,0,0-.54-.84,1.45,1.45,0,0,0-1-.33,1.86,1.86,0,0,0-1.18.36,2.35,2.35,0,0,0-.72,1A5.78,5.78,0,0,0,129,563a12.61,12.61,0,0,0-.1,1.65,12.31,12.31,0,0,0,.11,1.64,5.11,5.11,0,0,0,.4,1.4,2.39,2.39,0,0,0,.79,1,2.18,2.18,0,0,0,1.29.36,3.43,3.43,0,0,0,2.19-.68,3.74,3.74,0,0,0,1.23-1.7h.45a4.25,4.25,0,0,1-1.37,2A4,4,0,0,1,131.41,569.44Z" transform="translate(-0.43)"/><path class="cls-1" d="M144.1,560v8.81h1.29v.39H141v-.39h1.31v-8.42H141V560Zm6.1,2.81v6h1.31v.39h-4.37v-.39h1.3v-5.7a12.82,12.82,0,0,0-.08-1.48,2.14,2.14,0,0,0-.33-1,1,1,0,0,0-.81-.35,2.23,2.23,0,0,0-1.4.44,3.51,3.51,0,0,0-1,1.12,6,6,0,0,0-.75,2.86l-.25,0a8.1,8.1,0,0,1,.17-1.51,6.26,6.26,0,0,1,.59-1.63,3.76,3.76,0,0,1,1.11-1.3,2.91,2.91,0,0,1,1.76-.51,3.26,3.26,0,0,1,1.74.38,1.92,1.92,0,0,1,.78,1.07A5.6,5.6,0,0,1,150.2,562.85Z" transform="translate(-0.43)"/><path class="cls-1" d="M161.81,569.44a4.64,4.64,0,0,1-2.34-.58,4.11,4.11,0,0,1-1.63-1.65,5.28,5.28,0,0,1-.59-2.57,5.41,5.41,0,0,1,.53-2.39,4.28,4.28,0,0,1,1.57-1.75,4.65,4.65,0,0,1,2.55-.66,4.12,4.12,0,0,1,1.76.35,2.9,2.9,0,0,1,1.14.9,2,2,0,0,1,.4,1.18,1.14,1.14,0,0,1-.31.84,1.08,1.08,0,0,1-.77.3,1.27,1.27,0,0,1-.52-.12,1,1,0,0,1-.44-.36,1,1,0,0,1-.18-.64,1,1,0,0,1,.34-.81,1.23,1.23,0,0,1,.8-.27,1.15,1.15,0,0,1,.74.26,1,1,0,0,1,.32.8h-.38a1.53,1.53,0,0,0-.24-.84,2,2,0,0,0-.63-.64,3.14,3.14,0,0,0-.87-.4,3.54,3.54,0,0,0-1-.14,2.26,2.26,0,0,0-1.4.41,2.82,2.82,0,0,0-.84,1.08,5.42,5.42,0,0,0-.4,1.42,9.57,9.57,0,0,0-.11,1.48,10.81,10.81,0,0,0,.12,1.64,5,5,0,0,0,.41,1.38,2.36,2.36,0,0,0,.79,1A2.24,2.24,0,0,0,162,569a3,3,0,0,0,1.4-.3,2.87,2.87,0,0,0,1-.83,5,5,0,0,0,.67-1.21h.42a4.66,4.66,0,0,1-1.24,2A3.31,3.31,0,0,1,161.81,569.44Z" transform="translate(-0.43)"/><path class="cls-1" d="M176,569.44a4.54,4.54,0,0,1-2.3-.58,4.2,4.2,0,0,1-1.64-1.65,5.17,5.17,0,0,1-.6-2.57,5.39,5.39,0,0,1,.57-2.57,4.1,4.1,0,0,1,1.57-1.65,4.49,4.49,0,0,1,2.28-.57,4.14,4.14,0,0,1,2.31.57,3.25,3.25,0,0,1,1.25,1.52,5.24,5.24,0,0,1,.39,2h-7v-.39h4.9a10.64,10.64,0,0,0-.06-1.08,4.39,4.39,0,0,0-.23-1.1,1.94,1.94,0,0,0-.54-.84,1.45,1.45,0,0,0-1-.33,1.84,1.84,0,0,0-1.18.36,2.35,2.35,0,0,0-.72,1,5.78,5.78,0,0,0-.36,1.42,12.61,12.61,0,0,0-.1,1.65,12.31,12.31,0,0,0,.11,1.64,5.11,5.11,0,0,0,.4,1.4,2.39,2.39,0,0,0,.79,1,2.18,2.18,0,0,0,1.29.36,3.43,3.43,0,0,0,2.19-.68,3.74,3.74,0,0,0,1.23-1.7H180a4.25,4.25,0,0,1-1.37,2A4,4,0,0,1,176,569.44Z" transform="translate(-0.43)"/><path class="cls-1" d="M196.43,554.24v14.61h1.48v.39H194.6v-.39H196V554.63H194.5v-.39Zm5.36,15.2-5.56-15.2h1.92l4.63,12.51,4.33-12.51h.42l-5.25,15.2Zm8.93-15.2v.39h-1.4v14.22h1.4v.39h-4.91v-.39h1.61V554.24Z" transform="translate(-0.43)"/><path class="cls-1" d="M220.9,569.44a4.54,4.54,0,0,1-2.3-.58,4.2,4.2,0,0,1-1.64-1.65,5.17,5.17,0,0,1-.6-2.57,5.39,5.39,0,0,1,.57-2.57,4.1,4.1,0,0,1,1.57-1.65,4.49,4.49,0,0,1,2.28-.57,4.14,4.14,0,0,1,2.31.57,3.25,3.25,0,0,1,1.25,1.52,5.24,5.24,0,0,1,.39,2h-7v-.39h4.9a10.64,10.64,0,0,0-.06-1.08,4.39,4.39,0,0,0-.23-1.1,1.94,1.94,0,0,0-.54-.84,1.45,1.45,0,0,0-1-.33,1.84,1.84,0,0,0-1.18.36,2.35,2.35,0,0,0-.72,1,5.78,5.78,0,0,0-.36,1.42,12.61,12.61,0,0,0-.1,1.65,12.31,12.31,0,0,0,.11,1.64,5.11,5.11,0,0,0,.4,1.4,2.39,2.39,0,0,0,.79,1A2.18,2.18,0,0,0,221,569a3.43,3.43,0,0,0,2.19-.68,3.74,3.74,0,0,0,1.23-1.7h.45a4.25,4.25,0,0,1-1.37,2A4,4,0,0,1,220.9,569.44Z" transform="translate(-0.43)"/><path class="cls-1" d="M233.57,569.44a3.06,3.06,0,0,1-2.08-.67,2.26,2.26,0,0,1-.77-1.8,2.4,2.4,0,0,1,1.15-2.11,5.89,5.89,0,0,1,3.28-.76h2.27v.34h-2.27a2.43,2.43,0,0,0-1.42.37,2.17,2.17,0,0,0-.79.92,2.59,2.59,0,0,0-.25,1.1,3.11,3.11,0,0,0,.15,1,1.76,1.76,0,0,0,.49.76,1.25,1.25,0,0,0,.86.3,1.89,1.89,0,0,0,1.08-.36,2.63,2.63,0,0,0,.87-1.09,4.25,4.25,0,0,0,.35-1.82h.23a5,5,0,0,1-.37,2,3.09,3.09,0,0,1-1.06,1.36A3,3,0,0,1,233.57,569.44Zm4.66,0a2.25,2.25,0,0,1-.87-.17,1.34,1.34,0,0,1-.63-.55,1.91,1.91,0,0,1-.24-1v-4.54a7.7,7.7,0,0,0-.12-1.38,2.1,2.1,0,0,0-.51-1.08,1.52,1.52,0,0,0-1.18-.42,4.49,4.49,0,0,0-.94.1,3.81,3.81,0,0,0-.9.3,2.08,2.08,0,0,0-.67.52,1.06,1.06,0,0,0-.26.73h-.47a1,1,0,0,1,.33-.81,1.13,1.13,0,0,1,.74-.29,1.25,1.25,0,0,1,.78.27,1,1,0,0,1,.36.79,1,1,0,0,1-.37.87,1.27,1.27,0,0,1-.77.27,1.12,1.12,0,0,1-.78-.28,1,1,0,0,1-.31-.82,1.34,1.34,0,0,1,.3-.85,2.69,2.69,0,0,1,.82-.64,5.46,5.46,0,0,1,1.16-.41,6.45,6.45,0,0,1,1.33-.14,3.58,3.58,0,0,1,2.06.48,2.32,2.32,0,0,1,.92,1.23,5.4,5.4,0,0,1,.23,1.56v4.92a1.36,1.36,0,0,0,.11.56.5.5,0,0,0,.49.23,1,1,0,0,0,.57-.22,1.49,1.49,0,0,0,.49-.54l.19.36a2.24,2.24,0,0,1-.74.69A2.12,2.12,0,0,1,238.23,569.44Z" transform="translate(-0.43)"/><path class="cls-1" d="M248.05,560v8.81h1.29v.39H245v-.39h1.31v-8.42H245V560Zm6.1,2.81v6h1.31v.39h-4.37v-.39h1.3v-5.7a12.82,12.82,0,0,0-.08-1.48,2.14,2.14,0,0,0-.33-1,1,1,0,0,0-.81-.35,2.23,2.23,0,0,0-1.4.44,3.4,3.4,0,0,0-1,1.12,5.84,5.84,0,0,0-.57,1.45,6.19,6.19,0,0,0-.18,1.41l-.25,0a8.1,8.1,0,0,1,.17-1.51,6.26,6.26,0,0,1,.59-1.63,3.76,3.76,0,0,1,1.11-1.3,2.89,2.89,0,0,1,1.76-.51,3.26,3.26,0,0,1,1.74.38,2,2,0,0,1,.78,1.07A5.6,5.6,0,0,1,254.15,562.85Z" transform="translate(-0.43)"/><path class="cls-1" d="M261.1,569.44v-2.92h.4a2.73,2.73,0,0,0,.54,1.25,3.28,3.28,0,0,0,1.08.91,2.82,2.82,0,0,0,1.38.34,3.15,3.15,0,0,0,1.06-.18,1.88,1.88,0,0,0,.81-.56,1.47,1.47,0,0,0,.31-.95,1.32,1.32,0,0,0-.39-1,2.87,2.87,0,0,0-1-.61c-.4-.15-.83-.31-1.28-.46a8.2,8.2,0,0,1-1.28-.54,2.83,2.83,0,0,1-1-.86,2.37,2.37,0,0,1-.38-1.4,2.72,2.72,0,0,1,.29-1.24,2.45,2.45,0,0,1,.89-1,2.92,2.92,0,0,1,1.55-.38,3.39,3.39,0,0,1,1.25.22,3.22,3.22,0,0,1,1,.59l.75-.82h.35v2.79h-.4a2.31,2.31,0,0,0-.44-1.13,3,3,0,0,0-1-.89,3.07,3.07,0,0,0-1.47-.35,2.21,2.21,0,0,0-.87.16,1.49,1.49,0,0,0-.64.48,1.23,1.23,0,0,0-.23.74,1.1,1.1,0,0,0,.4.89,3.59,3.59,0,0,0,1,.6c.43.17.87.33,1.35.49a9.53,9.53,0,0,1,1.34.59,3.21,3.21,0,0,1,1,.88,2.29,2.29,0,0,1,.4,1.37,2.82,2.82,0,0,1-.44,1.56,3,3,0,0,1-1.17,1,3.84,3.84,0,0,1-1.68.37,3.58,3.58,0,0,1-1.31-.24,3.76,3.76,0,0,1-1.1-.65l-.81.89Z" transform="translate(-0.43)"/><path class="cls-1" d="M48.75,593.53a5.81,5.81,0,0,1-2.23-.4A4.45,4.45,0,0,1,45,592L44,593.44h-.34v-4.11h.39a6,6,0,0,0,.51,1.51,4.33,4.33,0,0,0,.91,1.2,4,4,0,0,0,1.32.79,5,5,0,0,0,1.76.29,4.35,4.35,0,0,0,1.84-.36,2.65,2.65,0,0,0,1.19-1A3.11,3.11,0,0,0,52,590a2.5,2.5,0,0,0-.43-1.49,3.86,3.86,0,0,0-1.14-1,13.57,13.57,0,0,0-1.57-.82l-1.7-.78a8.82,8.82,0,0,1-1.56-1,4.16,4.16,0,0,1-1.15-1.32,3.87,3.87,0,0,1-.43-1.88,3.4,3.4,0,0,1,.56-1.94,3.9,3.9,0,0,1,1.51-1.3,4.63,4.63,0,0,1,2.08-.46,5.08,5.08,0,0,1,1.82.31,3.72,3.72,0,0,1,1.44,1l.93-1.27h.33v4.11h-.38a5.07,5.07,0,0,0-.75-2.07,3.45,3.45,0,0,0-1.37-1.21,4.17,4.17,0,0,0-1.83-.39,3.09,3.09,0,0,0-2.16.67,2.32,2.32,0,0,0-.74,1.79,2.15,2.15,0,0,0,.43,1.34,3.94,3.94,0,0,0,1.12,1,14.73,14.73,0,0,0,1.54.79c.56.25,1.12.51,1.68.79a8.19,8.19,0,0,1,1.54,1,4.11,4.11,0,0,1,1.55,3.41,4.33,4.33,0,0,1-.56,2.26,3.78,3.78,0,0,1-1.59,1.5A5.29,5.29,0,0,1,48.75,593.53Z" transform="translate(-0.43)"/><path class="cls-1" d="M63.69,593.44a4.43,4.43,0,0,1-2.44-.66A4.55,4.55,0,0,1,59.66,591a5.38,5.38,0,0,1,0-4.78,4.33,4.33,0,0,1,4-2.4,4.3,4.3,0,0,1,4,2.4,5.47,5.47,0,0,1,0,4.78,4.33,4.33,0,0,1-4,2.41Zm0-.39a2,2,0,0,0,1.31-.42,2.54,2.54,0,0,0,.77-1.08,5.63,5.63,0,0,0,.36-1.44,12.59,12.59,0,0,0,.09-1.47,12.76,12.76,0,0,0-.09-1.48,5.56,5.56,0,0,0-.36-1.43,2.64,2.64,0,0,0-.77-1.09,2.3,2.3,0,0,0-2.62,0,2.71,2.71,0,0,0-.76,1.09,5.56,5.56,0,0,0-.36,1.43,12.83,12.83,0,0,0-.1,1.48,12.67,12.67,0,0,0,.1,1.47,5.63,5.63,0,0,0,.36,1.44,2.61,2.61,0,0,0,.76,1.08A2,2,0,0,0,63.69,593.05Z" transform="translate(-0.43)"/><path class="cls-1" d="M84.84,578.24v14.61h1.48v.39H83v-.39h1.42V578.63H82.91v-.39Zm5.36,15.2-5.56-15.2h1.92l4.63,12.51,4.33-12.51h.42l-5.25,15.2Zm8.93-15.2v.39h-1.4v14.22h1.4v.39H94.22v-.39h1.61V578.24Z" transform="translate(-0.43)"/><path class="cls-1" d="M108.54,593.44a3.13,3.13,0,0,1-1.75-.4A1.86,1.86,0,0,1,106,592a5.24,5.24,0,0,1-.21-1.55v-6h-1.31V584h3.1v6.09a12.51,12.51,0,0,0,.08,1.47,2.06,2.06,0,0,0,.35,1,.93.93,0,0,0,.8.36,2.29,2.29,0,0,0,1.4-.44,3.28,3.28,0,0,0,1-1.13,5.64,5.64,0,0,0,.55-1.45,6.06,6.06,0,0,0,.17-1.4l.23,0A8.83,8.83,0,0,1,112,590a5.9,5.9,0,0,1-.54,1.63,3.44,3.44,0,0,1-1.09,1.3A2.87,2.87,0,0,1,108.54,593.44Zm3.33-.2v-8.81h-1.4V584h3.21v8.81H115v.39Z" transform="translate(-0.43)"/><path class="cls-1" d="M125.29,593.44a4.67,4.67,0,0,1-2.34-.58,4.15,4.15,0,0,1-1.62-1.65,5.17,5.17,0,0,1-.6-2.57,5.28,5.28,0,0,1,.54-2.39,4.21,4.21,0,0,1,1.57-1.75,4.64,4.64,0,0,1,2.54-.66,4.12,4.12,0,0,1,1.76.35,2.76,2.76,0,0,1,1.14.9,2,2,0,0,1,.4,1.18,1.1,1.1,0,0,1-.31.84,1,1,0,0,1-.77.3,1.26,1.26,0,0,1-.51-.12,1,1,0,0,1-.45-.36,1,1,0,0,1-.18-.64,1,1,0,0,1,.34-.81,1.27,1.27,0,0,1,.8-.27,1.16,1.16,0,0,1,.75.26,1,1,0,0,1,.31.8h-.38a1.52,1.52,0,0,0-.23-.84,2.26,2.26,0,0,0-.63-.64,3.21,3.21,0,0,0-.88-.4,3.54,3.54,0,0,0-1-.14,2.28,2.28,0,0,0-1.4.41,2.8,2.8,0,0,0-.83,1.08,5.43,5.43,0,0,0-.41,1.42,11,11,0,0,0-.11,1.48,10.81,10.81,0,0,0,.12,1.64,5,5,0,0,0,.41,1.38,2.38,2.38,0,0,0,.8,1,2.21,2.21,0,0,0,1.27.35,3,3,0,0,0,1.4-.3,2.81,2.81,0,0,0,1-.83,5.38,5.38,0,0,0,.66-1.21h.42a4.74,4.74,0,0,1-1.23,2A3.31,3.31,0,0,1,125.29,593.44Z" transform="translate(-0.43)"/><path class="cls-1" d="M134.62,593.24v-.39h1.31V578.63h-1.31v-.39h3.1v14.61H139v.39Zm6.1,0v-.39H142v-5.7a13,13,0,0,0-.07-1.48,2,2,0,0,0-.34-1,.94.94,0,0,0-.81-.35,2.2,2.2,0,0,0-1.39.44,3.49,3.49,0,0,0-1,1.12,6.32,6.32,0,0,0-.73,2.86l-.25,0a7.41,7.41,0,0,1,.18-1.51,6.62,6.62,0,0,1,.58-1.63,3.81,3.81,0,0,1,1.09-1.3,2.8,2.8,0,0,1,1.71-.51,3.26,3.26,0,0,1,1.74.38,1.91,1.91,0,0,1,.8,1.07,5.24,5.24,0,0,1,.21,1.55v6h1.31v.39Z" transform="translate(-0.43)"/><path class="cls-1" d="M162.39,593.24v-.39h2.2V578.63h-2a3.07,3.07,0,0,0-1.42.28,2,2,0,0,0-.84.82,4.14,4.14,0,0,0-.4,1.3,12.6,12.6,0,0,0-.11,1.71h-.4v-4.5h12.24v4.5h-.39a11.17,11.17,0,0,0-.11-1.71,3.9,3.9,0,0,0-.4-1.3,2.07,2.07,0,0,0-.84-.82,3.11,3.11,0,0,0-1.43-.28h-2v14.22h2.2v.39Z" transform="translate(-0.43)"/><path class="cls-1" d="M180.49,593.44a4.43,4.43,0,0,1-2.44-.66,4.55,4.55,0,0,1-1.59-1.75,5.38,5.38,0,0,1,0-4.78,4.68,4.68,0,0,1,6.47-1.75,4.45,4.45,0,0,1,1.58,1.75,5.47,5.47,0,0,1,0,4.78,4.33,4.33,0,0,1-4,2.41Zm0-.39a2,2,0,0,0,1.31-.42,2.54,2.54,0,0,0,.77-1.08,6.6,6.6,0,0,0,.36-1.44,12.59,12.59,0,0,0,.09-1.47,12.76,12.76,0,0,0-.09-1.48,6.51,6.51,0,0,0-.36-1.43,2.64,2.64,0,0,0-.77-1.09,2.3,2.3,0,0,0-2.62,0,2.62,2.62,0,0,0-.76,1.09,5.56,5.56,0,0,0-.36,1.43,10.93,10.93,0,0,0-.1,1.48,10.79,10.79,0,0,0,.1,1.47,5.63,5.63,0,0,0,.36,1.44,2.52,2.52,0,0,0,.76,1.08A2,2,0,0,0,180.49,593.05Z" transform="translate(-0.43)"/><path class="cls-1" d="M212.93,578.24v.39H211v10a5.29,5.29,0,0,1-1.11,3.68,4.53,4.53,0,0,1-3.49,1.21,5.37,5.37,0,0,1-3.79-1.15,5,5,0,0,1-1.21-3.74v-10h-1.79v-.39h5.7v.39h-2v9.81a10.43,10.43,0,0,0,.15,1.83,4,4,0,0,0,.52,1.47,2.52,2.52,0,0,0,1.06,1,3.88,3.88,0,0,0,1.76.35,4.28,4.28,0,0,0,2.09-.46,2.88,2.88,0,0,0,1.29-1.43,6.13,6.13,0,0,0,.44-2.54v-10h-1.84v-.39Z" transform="translate(-0.43)"/><path class="cls-1" d="M218.54,593.44v-2.92h.4a2.86,2.86,0,0,0,.55,1.25,3.35,3.35,0,0,0,1.07.91,2.88,2.88,0,0,0,1.38.34,3.06,3.06,0,0,0,1.06-.18,1.77,1.77,0,0,0,.81-.56,1.41,1.41,0,0,0,.31-.95,1.35,1.35,0,0,0-.38-1,3,3,0,0,0-1-.61c-.4-.15-.82-.31-1.28-.46a8.62,8.62,0,0,1-1.28-.54,2.72,2.72,0,0,1-1-.86,2.3,2.3,0,0,1-.39-1.4,2.85,2.85,0,0,1,.29-1.24,2.48,2.48,0,0,1,.9-1,2.88,2.88,0,0,1,1.54-.38,3.35,3.35,0,0,1,1.25.22,3.11,3.11,0,0,1,1,.59l.75-.82h.35v2.79h-.4a2.29,2.29,0,0,0-.43-1.13,3,3,0,0,0-2.5-1.24,2.28,2.28,0,0,0-.87.16,1.46,1.46,0,0,0-.63.48,1.17,1.17,0,0,0-.24.74,1.13,1.13,0,0,0,.4.89,3.65,3.65,0,0,0,1,.6c.42.17.87.33,1.34.49a9.66,9.66,0,0,1,1.35.59,3.17,3.17,0,0,1,1,.88,2.23,2.23,0,0,1,.4,1.37A2.81,2.81,0,0,1,225,592a3,3,0,0,1-1.18,1,3.77,3.77,0,0,1-1.68.37,3.62,3.62,0,0,1-1.31-.24,3.9,3.9,0,0,1-1.1-.65l-.81.89Z" transform="translate(-0.43)"/><path class="cls-1" d="M135.11,16.29a6.35,6.35,0,1,0,6.35,6.35A6.35,6.35,0,0,0,135.11,16.29Z" transform="translate(-0.43)"/><path class="cls-1" d="M157.75,22.64a6.38,6.38,0,0,0-7.61-6.23,6.06,6.06,0,0,0,1-.8,6.35,6.35,0,1,0-9-9,6.72,6.72,0,0,0-.8,1,6.57,6.57,0,0,0,.13-1.26,6.36,6.36,0,0,0-12.71,0,6.57,6.57,0,0,0,.13,1.26,6.72,6.72,0,0,0-.8-1,6.35,6.35,0,0,0-9,9,5.72,5.72,0,0,0,1,.8,6.56,6.56,0,0,0-1.26-.12,6.35,6.35,0,1,0,0,12.7,6.56,6.56,0,0,0,1.26-.12,5.72,5.72,0,0,0-1,.8,6.35,6.35,0,0,0,9,9,6.72,6.72,0,0,0,.8-1,6.57,6.57,0,0,0-.13,1.26,6.36,6.36,0,0,0,12.71,0,6.57,6.57,0,0,0-.13-1.26,6.72,6.72,0,0,0,.8,1,6.35,6.35,0,0,0,9-9,6.06,6.06,0,0,0-1-.8,6.38,6.38,0,0,0,7.61-6.23Zm-9.86-5.3a7.31,7.31,0,0,0-1.12.95c-.1-.28-.22-.55-.34-.83A6,6,0,0,0,147.89,17.34ZM145,22.65a9.88,9.88,0,0,1-2.9,7h0a9.89,9.89,0,0,1-7,2.91h0a9.89,9.89,0,0,1-7-2.91h0a9.88,9.88,0,0,1-2.9-7v0a9.9,9.9,0,0,1,2.9-7h0a9.9,9.9,0,0,1,7-2.9h0a9.9,9.9,0,0,1,7,2.9h0a9.9,9.9,0,0,1,2.9,7h0ZM140.4,9.86a6.5,6.5,0,0,0-.12,1.46c-.27-.13-.55-.24-.83-.35A6.27,6.27,0,0,0,140.4,9.86ZM130.76,11c-.28.11-.56.22-.83.35a6,6,0,0,0-.12-1.46A6.27,6.27,0,0,0,130.76,11Zm-7,6.49c-.12.28-.24.55-.34.83a7.31,7.31,0,0,0-1.12-.95A6,6,0,0,0,123.78,17.46Zm-1.46,10.48a7.31,7.31,0,0,0,1.12-1c.1.28.22.55.34.83A6,6,0,0,0,122.32,27.94Zm7.49,7.48a6,6,0,0,0,.12-1.46l.83.35A5.93,5.93,0,0,0,129.81,35.42Zm9.64-1.11.83-.35a6.5,6.5,0,0,0,.12,1.46A5.93,5.93,0,0,0,139.45,34.31Zm7-6.49c.12-.28.24-.55.34-.83a7.31,7.31,0,0,0,1.12,1A6,6,0,0,0,146.43,27.82Z" transform="translate(-0.43)"/><circle class="cls-2" cx="134.04" cy="3.53" r="2.98"/><circle class="cls-3" cx="146.13" cy="8.47" r="2.98"/><circle class="cls-4" cx="152.81" cy="20.3" r="2.98"/><circle class="cls-5" cx="147.11" cy="36.6" r="2.98"/><circle class="cls-6" cx="133.87" cy="40.98" r="2.98"/><circle class="cls-7" cx="120.88" cy="35.16" r="2.98"/><circle class="cls-8" cx="116.54" cy="22.39" r="2.98"/><circle class="cls-9" cx="122.94" cy="8.47" r="2.98"/><path class="cls-1" d="M190.49,18.79a4.16,4.16,0,1,0,5.44,2.27A4.17,4.17,0,0,0,190.49,18.79Z" transform="translate(-0.43)"/><path class="cls-1" d="M205.8,17a4.16,4.16,0,0,0-5.43-2.27,4.63,4.63,0,0,0-.73.39,4.23,4.23,0,0,0,.39-.73,4.16,4.16,0,1,0-7.68-3.21,4,4,0,0,0-.24.79,4,4,0,0,0-.24-.79,4.16,4.16,0,1,0-7.7,3.16,3.72,3.72,0,0,0,.39.74,4,4,0,0,0-.73-.4,4.17,4.17,0,1,0-3.21,7.69,5.53,5.53,0,0,0,.79.24,4.45,4.45,0,0,0-.79.23,4.17,4.17,0,0,0,3.16,7.71,4.63,4.63,0,0,0,.73-.39,4.23,4.23,0,0,0-.39.73,4.16,4.16,0,0,0,7.68,3.21,4,4,0,0,0,.24-.79,4,4,0,0,0,.24.79,4.16,4.16,0,1,0,7.7-3.16,3.72,3.72,0,0,0-.39-.74,4,4,0,0,0,.73.4,4.17,4.17,0,0,0,3.21-7.69,4.49,4.49,0,0,0-.79-.24,3.78,3.78,0,0,0,.79-.24A4.15,4.15,0,0,0,205.8,17Zm-7.29-.76a4.11,4.11,0,0,0-.44.86c-.14-.15-.28-.28-.42-.42A4.11,4.11,0,0,0,198.51,16.24Zm-.41,3.93a6.51,6.51,0,0,1,0,5h0a6.51,6.51,0,0,1-3.54,3.51h0a6.51,6.51,0,0,1-5,0h0a6.54,6.54,0,0,1-3.51-3.52v0h0a6.5,6.5,0,0,1,0-5h0a6.46,6.46,0,0,1,3.52-3.5h0a6.48,6.48,0,0,1,5,0h0a6.46,6.46,0,0,1,3.51,3.53Zm-6-6.6a4.28,4.28,0,0,0,.29.92h-.58A4.19,4.19,0,0,0,192.1,13.57Zm-5.57,3.08c-.14.13-.28.27-.41.41a4.27,4.27,0,0,0-.44-.85A4.57,4.57,0,0,0,186.53,16.65Zm-2.61,5.67a5.81,5.81,0,0,0,0,.59,4.72,4.72,0,0,0-.92-.3A4.11,4.11,0,0,0,183.92,22.32ZM185.64,29a4.11,4.11,0,0,0,.44-.86c.14.15.28.28.42.42A4.11,4.11,0,0,0,185.64,29Zm6.41,2.67a4.28,4.28,0,0,0-.29-.92h.58A4.19,4.19,0,0,0,192.05,31.71Zm5.57-3.08c.14-.13.28-.27.41-.41a4.27,4.27,0,0,0,.44.85A4.57,4.57,0,0,0,197.62,28.63ZM200.23,23a5.81,5.81,0,0,0,0-.59,4.72,4.72,0,0,0,.92.3A4.11,4.11,0,0,0,200.23,23Z" transform="translate(-0.43)"/><circle class="cls-10" cx="186.5" cy="11.21" r="1.96"/><circle class="cls-11" cx="195.06" cy="11.19" r="1.96"/><circle class="cls-12" cx="202.06" cy="16.7" r="1.96"/><circle class="cls-13" cx="202.66" cy="28.01" r="1.96"/><circle class="cls-14" cx="195.73" cy="33.96" r="1.96"/><circle class="cls-15" cx="186.4" cy="33.67" r="1.96"/><circle class="cls-16" cx="180.59" cy="27.01" r="1.96"/><circle class="cls-17" cx="181" cy="16.97" r="1.96"/><path class="cls-1" d="M70.2,18.79a4.16,4.16,0,1,0,5.43,2.27A4.15,4.15,0,0,0,70.2,18.79Z" transform="translate(-0.43)"/><path class="cls-1" d="M85.51,17a4.17,4.17,0,0,0-5.44-2.27,4.63,4.63,0,0,0-.73.39,4.26,4.26,0,0,0,.4-.73,4.17,4.17,0,0,0-7.69-3.21,4,4,0,0,0-.24.79,4,4,0,0,0-.24-.79,4.16,4.16,0,1,0-7.7,3.16,4.33,4.33,0,0,0,.39.74,4,4,0,0,0-.73-.4,4.17,4.17,0,1,0-3.21,7.69,5.94,5.94,0,0,0,.79.24,4.71,4.71,0,0,0-.79.23,4.17,4.17,0,0,0,3.16,7.71,4.23,4.23,0,0,0,.73-.39,4.23,4.23,0,0,0-.39.73A4.16,4.16,0,0,0,71.5,34.1a4.81,4.81,0,0,0,.25-.79,4.71,4.71,0,0,0,.23.79,4.17,4.17,0,0,0,7.71-3.16,4.33,4.33,0,0,0-.39-.74,3.67,3.67,0,0,0,.73.4,4.17,4.17,0,0,0,3.21-7.69,4.59,4.59,0,0,0-.8-.24,3.86,3.86,0,0,0,.8-.24A4.16,4.16,0,0,0,85.51,17Zm-7.3-.76a4.11,4.11,0,0,0-.44.86,5.55,5.55,0,0,0-.42-.42A3.88,3.88,0,0,0,78.21,16.24Zm-.4,3.93a6.51,6.51,0,0,1,0,5h0a6.46,6.46,0,0,1-3.53,3.51h0a6.51,6.51,0,0,1-5,0h0a6.49,6.49,0,0,1-3.5-3.52v0h0a6.5,6.5,0,0,1,0-5h0a6.49,6.49,0,0,1,3.52-3.5h0a6.46,6.46,0,0,1,5,0h0a6.48,6.48,0,0,1,3.5,3.53h0Zm-6-6.6a4.28,4.28,0,0,0,.29.92h-.59A4.85,4.85,0,0,0,71.81,13.57Zm-5.57,3.08a5.44,5.44,0,0,0-.42.41,3.81,3.81,0,0,0-.44-.85A4.65,4.65,0,0,0,66.24,16.65Zm-2.62,5.67c0,.2,0,.39,0,.59a4.85,4.85,0,0,0-.91-.3A4.19,4.19,0,0,0,63.62,22.32ZM65.34,29a4.15,4.15,0,0,0,.45-.86c.13.15.27.28.41.42A4.11,4.11,0,0,0,65.34,29Zm6.41,2.67a4.28,4.28,0,0,0-.29-.92h.59A4.22,4.22,0,0,0,71.75,31.71Zm5.57-3.08.42-.41a3.77,3.77,0,0,0,.43.85A4.27,4.27,0,0,0,77.32,28.63ZM79.93,23c0-.2,0-.39,0-.59a4.62,4.62,0,0,0,.91.3A4.28,4.28,0,0,0,79.93,23Z" transform="translate(-0.43)"/><circle class="cls-18" cx="66.21" cy="11.21" r="1.96"/><circle class="cls-19" cx="74.76" cy="11.19" r="1.96"/><circle class="cls-20" cx="81.76" cy="16.7" r="1.96"/><circle class="cls-21" cx="82.36" cy="28.01" r="1.96"/><circle class="cls-22" cx="75.43" cy="33.96" r="1.96"/><circle class="cls-23" cx="66.1" cy="33.67" r="1.96"/><circle class="cls-24" cx="60.29" cy="27.01" r="1.96"/><circle class="cls-25" cx="60.7" cy="16.97" r="1.96"/></g></g></svg>