<svg xmlns="http://www.w3.org/2000/svg" viewBox="0 0 453.15 160.59"><defs><style>.cls-1{fill:#f3f1e7;}</style></defs><g id="Layer_2" data-name="Layer 2"><g id="Layer_9" data-name="Layer 9"><path class="cls-1" d="M77.55,0H73.3L19,154.47H0v4.05H45.62v-4.05h-22l15.53-44.58H93.94l14.4,44.58H87.09v4.05h60.13v-4.05H131Zm-37,105.85,27-77.55,25,77.55Z"/><polygon class="cls-1" points="257.73 7.05 281.68 7.05 281.68 126.48 206.41 3.01 185.57 3.01 182.57 3.01 160.07 3.01 160.07 7.05 181.32 7.05 181.32 154.47 160.07 154.47 160.07 158.52 210.04 158.52 210.04 154.47 185.57 154.47 185.57 7.86 280.23 160.59 285.82 160.59 285.82 7.05 307.7 7.05 307.7 3.01 257.73 3.01 257.73 7.05"/><path class="cls-1" d="M444.08,41.05a69.06,69.06,0,0,0-25.76-27.83Q401.63,3,378.51,3H320.45v4h18.66V154.47H320.45v4.05h58.06a76.22,76.22,0,0,0,30.27-5.86,69.92,69.92,0,0,0,23.64-16.43,74.27,74.27,0,0,0,15.34-24.73,85.71,85.71,0,0,0,5.39-30.74Q453.15,58.68,444.08,41.05Zm-17.36,67a78.71,78.71,0,0,1-8.51,23.69,45.64,45.64,0,0,1-15.65,16.59q-9.75,6.12-24.05,6.11h-19.6V7.05h19.6q13.58,0,23.22,6.12a47.41,47.41,0,0,1,15.71,16.58,82.43,82.43,0,0,1,9,23.69,127.4,127.4,0,0,1,2.9,27.32A142.3,142.3,0,0,1,426.72,108.08Z"/></g></g></svg>