<svg xmlns="http://www.w3.org/2000/svg" viewBox="0 0 1080 241.5"><defs><style>.cls-1{fill:#fff;}.cls-2{fill:#826435;}.cls-3{opacity:0.5;}</style></defs><g id="Layer_2" data-name="Layer 2"><g id="Layer_6" data-name="Layer 6"><path class="cls-1" d="M0,231c.76.24,1.57.52,2.51.86,15.65-4.41,19.18-2.19,24.34-.09,9.67-.16,8.67,7.09,19.29,2C64,227,52,223.81,61.73,230.52,74,223.06,79.83,233.64,85,228c1.47,5.83,12.19-.36,17.81-5.16,10.15,5.75,16.34-8.7,22.74-3.71,8,4.71,16.3-7.5,24,.27,7.74,3.44,12.43,1.81,20.18,1.81,6.81.32,13.61-.7,20.42,4.42,6.82.79,13.64,3.24,20.45,4.37,8.06,7.59,16.37,10.78,24.91,2.68,4.83-3.36,8.55,4.68,14.14-5.87,4-12.22,8,1.63,12-.62,6.9.5,13.82-1.38,20.77-2.88,10.12-3.92,17.43-2.06,27.33-3,12.14-1.58,20.33-.66,32.77-2.81,14.41-1,21.31,2.93,32.57,8.73,5.5,3.49,12.08,3.67,19.32,6,1.18-15.81-.14,3.08,2.75-15.29,6.73,7.13,13.71.34,20.72,1,7,5,14,2.81,20.84-.31,2.17,7.57,8.39-6,10.94.2,6.46-3.33,12.39,8.59,18.42-5.14,6-7.43,12.15-1.82,19-5.26,3.42,3.9,6.44-5.23,9.8-.52,12.38,3,18.86.81,29.17,4,7.24,8.35,14.8-.85,22.45,8.24,7.65,4.83,15.39,18.49,23,7.28,3.5-2.41,5.75-4.1,9.27,4.14,9.35,2.45,20.9,1.66,30.46,1.59,8.51,3,5.35,6.34,15.14,3.26,11.53-1.49,23.06,14.39,34.57,0,8.39,4.35,17.29-3.52,25.15.49,9.62-6.57,19.26,4.6,28.89-.31a71.63,71.63,0,0,0,28.91-.09c7.68,3.83,13.53,5.57,19.93-3.17,2.91.49,5.95-7.73,9.24-3.74,6.65-.6,16.1-.35,23.18-1.12,10.73-8.33,21.7-17.83,32.32-2.33,6,7.86,4.83-4,9.24-3,5.49-8.4,9.31-1.67,15.66-4.64,8.37,17.45,17.16-6.33,25.65-5.39,12.16,2.58,25,10,36.63,1.79,11.37,7.43,23.77,8.22,35.78,7.36,5.85-9.32,8.69,2,14.36,1.75,6.17-.85,11.4-1.48,18.21,5,13,3.11,22.4,4.49,36.61,7.44,11.1-6.74,22.22.11,33.32-.07,8.85,5.78,18,5.68,26.09,4.08V6.66c-.63.18-1.26.37-1.94.55-5.84-2.25-16.41-2.54-27.83,0-3.61-4.62-2.84,3-13-.16-13.91-.13-13-1.06-10,5.1,2.23.16-1.57,2.74-4.61,3.72-19-4.43-22.22-1.41-21.29.42,5.47,8.16-11.07-2.92-21.33,0-12,.55-17.25-1-25.59.14-10.28-3.22-15.25-1.22-22.65-4.76-1.16,3.11-2.58-.64-4.22-4.26-2.5-1.15-7.78-.32-10.39-.2-10.17,6.5-13.8,6.12-23.16,8.34-8.31,5.25-16.86,1.81-25,1.36-7.75-1-11.54,1.35-20,2.78-7-2.69-14,4.44-21,0-9.6,6.75-21.93,12.69-31.05-.31-4.52,3.51-7-2.93-11.94-3.38-3.58-1.36-8.1-3.86-11.78.13-6.24,4.11-12.48,6.91-18.72,0-9.65-1.29-19.39-3.44-29,0-8.91,2.13-15.91,2.13-24.58,3.63-9.32-3.13-19.49,3-28.35-1.8-8.66-1-18.93,4.85-26.23-3.49-6.13-6.39-11.63-5-19-8.63-3.76-5.42-7.89-3.17-11.69-2.13-4.74-6.07-7.87.12-12.89-2.2C596.61-.16,587.9-.29,581.56.38c-1.34-.06-3.4-1-6.17,3.4-2.9-2.58-5.79.27-8.69,1.41-7.13-1.57-14,1.47-21.07.22-10-2.31-19.31,6.74-29.76,1.82-9.94,1.5-19.9.5-29.84,0-9.31.39-19.09,5-28.29.09-6.8,10.65-12.43-7.7-18.92-3.74-12-7.52-26.26,13.44-37.89,1.49-7.76,3.34-15.36,1.3-22.92.14-7.58,3.29-15.1-6.68-22.77-1.63-5.92-5.32-12.12-2.31-18,0-6.43-.87-21.39,5.18-23,7.32,3.13,5.27,12.16,11.53,13.55,11.05-11.94,8.21-25.26-1.59-37,.62-7.38,3.67-14.77,5.57-22.22,4.75-7.46-3.73-15-1.76-22.61,3.15-6.35-11.58-11.62,8.07-17.54-3-5.65,7.16-13.82-7.56-20.11-2.73-4.18,1-5-6.33-8.6,2.8-6.4,7.37-10.22,7.84-15.17-.76-9.89,3.42-12.73,11.23-21.36-.34C156.93,32.86,154,33.69,148,25c-9-7.36-17.4,9.79-23.31-1C112.24,10.9,105.18,25,102.91,16c-11.33-2.61-3.59-1-16.64-.18-2.49-5.65-13.59-4.15-21.15-3.63-2.61,5.21-13,4.42-19.52-1.63-4.39.59-18.8-1.11-20,.16-16.78,2.15-13,6.91-15.26,6.93-2,3-3.67,1.25-10.39,1.44Z"/><path class="cls-2" d="M531.67,167.14a36.47,36.47,0,0,1-14.25-2.62,22.47,22.47,0,0,1-9.79-7.56,19.77,19.77,0,0,1-3.56-11.87,18.46,18.46,0,0,1,2.44-9.43,28.44,28.44,0,0,1,6.21-7.38,48.82,48.82,0,0,1,7.8-5.45,80.86,80.86,0,0,1,7.32-3.68q3.28-1.41,4.67-2.08l.91,1.75a40.72,40.72,0,0,0-8.74,6.21,22.53,22.53,0,0,0-5.48,8.13,30.76,30.76,0,0,0-1.87,11.39,17.9,17.9,0,0,0,1.39,7,19,19,0,0,0,10,10.18,19.24,19.24,0,0,0,7.74,1.54,29.24,29.24,0,0,0,13-3,42,42,0,0,0,11.36-8.16A59.16,59.16,0,0,0,570,140.21a73.19,73.19,0,0,0,6.48-14.16,67.7,67.7,0,0,0,3.22-14.94h2.41a75.45,75.45,0,0,1-11,31.33,62.94,62.94,0,0,1-10.45,12.74A46.79,46.79,0,0,1,547.4,164,38.8,38.8,0,0,1,531.67,167.14Zm32.05-1.2-39.88-59a36.32,36.32,0,0,1-4-7.59,20.87,20.87,0,0,1-1.6-7.29,14.72,14.72,0,0,1,3.14-9.4A19.86,19.86,0,0,1,530,76.49a34.24,34.24,0,0,1,12.47-2.14,32.11,32.11,0,0,1,11.6,2,19.44,19.44,0,0,1,8.14,5.58,12.72,12.72,0,0,1,3,8.4,17.11,17.11,0,0,1-1.9,8.35,19.55,19.55,0,0,1-5.21,6,48.68,48.68,0,0,1-7.59,4.82l-9,4.7-1.32-1.63a40.26,40.26,0,0,0,6-4.73,24.22,24.22,0,0,0,5.27-7.32A23.82,23.82,0,0,0,553.6,90a22.15,22.15,0,0,0-.9-6.06,11.49,11.49,0,0,0-3.29-5.36c-1.58-1.46-3.88-2.2-6.9-2.2a13.24,13.24,0,0,0-7.35,1.78,10,10,0,0,0-3.88,4.64,15.68,15.68,0,0,0-1.18,6.05,18.8,18.8,0,0,0,2.17,7.69,86.44,86.44,0,0,0,6,10.33l37.54,56.7h16.08v2.35Zm1.09-53.09v-2.34h28.92v2.34Z"/><g class="cls-3"><path class="cls-2" d="M506.85,125.88a3.23,3.23,0,0,1-3-1.42A6.56,6.56,0,0,1,503,121a18.05,18.05,0,0,1,.87-5.36,25,25,0,0,1,1.89-4.61h-.41a8.7,8.7,0,0,1-3.13-.37,1.29,1.29,0,0,1-.77-1.25c0-.31.24-.47.74-.47l4.31.27c1.12-2.25,2.26-4.33,3.4-6.27a22.54,22.54,0,0,1,2.86-4,3.56,3.56,0,0,1,2.63-.94c1,0,1.48.2,1.48.61a.3.3,0,0,1-.06.2l-2.9,3.43a32,32,0,0,0-2.22,3.1q-1.21,1.89-2.43,4a13.56,13.56,0,0,0,1.38.07h1.11l.61,0c.22,0,.49,0,.81,0h1.41c.54,0,.81.14.81.41,0,.67-2.31,1.08-6.94,1.21a34.63,34.63,0,0,0-1.48,3.27,26.91,26.91,0,0,0-1.18,3.67,14.3,14.3,0,0,0-.44,3.3c0,2.07.88,3.1,2.63,3.1q2.16,0,5-2.63a17.3,17.3,0,0,0,2-2.19q.84-1.11,1.65-2.25c.27-.41.52-.61.74-.61s.34.13.34.4a1.45,1.45,0,0,1-.1.51l-.17.37-1.92,2.49a20.67,20.67,0,0,1-2.46,2.63Q509.81,125.88,506.85,125.88Z"/></g><g class="cls-3"><path class="cls-2" d="M583.51,107.07c-2.56,0-3.84-1.61-3.84-4.85a12.55,12.55,0,0,1,.7-4.17A23.36,23.36,0,0,1,582,94.34a49.79,49.79,0,0,0-4.95,5.16,71.74,71.74,0,0,0-5.08,6.83c-.27.41-.47.61-.61.61-.4,0-.61-.41-.61-1.21a1.21,1.21,0,0,1,.14-.54c.49-1.21,1-2.62,1.48-4.21s1-3.47,1.48-5.63l.27-1.34c.09-.45.23-1,.41-1.76a2.26,2.26,0,0,1,.94-.94,2.38,2.38,0,0,1,1.35-.47c.31,0,.47.13.47.4a21,21,0,0,1-.81,2.9c-.54,1.71-1.33,4.15-2.36,7.34.27-.36.83-1,1.69-2s2-2.22,3.36-3.74l4.18-4.58a1.48,1.48,0,0,1,1.08-.48A1.37,1.37,0,0,1,586,92.25a1.68,1.68,0,0,1-.27.81Q582,99.26,582,102.9c0,1.7.8,2.56,2.42,2.56a6.61,6.61,0,0,0,4-2,9.2,9.2,0,0,0,1.65-1.65c.48-.6,1-1.27,1.52-2,.94-1.31,1.48-2,1.62-2s.2.14.2.41a2.67,2.67,0,0,1-.41,1.14Q588.43,107.08,583.51,107.07Z"/></g></g></g></svg>