<svg xmlns="http://www.w3.org/2000/svg" viewBox="0 0 544.53 73.44"><defs><style>.cls-1{fill:#836435;}</style></defs><g id="Layer_2" data-name="Layer 2"><g id="Layer_8" data-name="Layer 8"><path class="cls-1" d="M60.23,2.12H67L52.09,43.24l-7.85-23.3L50.61,2.12h6.23V.72H0v1.4H6.44L24.7,55.44H28l9.67-26.39,9,26.39h2.63L68.51,2.12h6V.72H60.23ZM49,2.12,43.44,17.56,38.23,2.12ZM30.85,43.24,16.92,2.12H28.4l8.45,24.62Z"/><path class="cls-1" d="M112.28,51.32a12.24,12.24,0,0,1-7.81,2.46,6.92,6.92,0,0,1-4.26-1.24,8.18,8.18,0,0,1-2.62-3.45A19.74,19.74,0,0,1,96.28,44a48.64,48.64,0,0,1-.38-6.24c0-.62,0-1.21,0-1.8h22a17.43,17.43,0,0,0-1.57-7.36A12.71,12.71,0,0,0,111.47,23a15.65,15.65,0,0,0-8.55-2.1,18,18,0,0,0-8.62,2,14.33,14.33,0,0,0-5.88,5.87,19.1,19.1,0,0,0-2.13,9.36,18.37,18.37,0,0,0,2.23,9.36,15.07,15.07,0,0,0,6.09,5.89,18.33,18.33,0,0,0,8.67,2q6.23,0,9.92-3a15.19,15.19,0,0,0,5.09-7.4h-1.54A13.56,13.56,0,0,1,112.28,51.32Zm-15-24.39a8.14,8.14,0,0,1,2.14-3.4,5,5,0,0,1,3.49-1.25,4.06,4.06,0,0,1,3,1.14,6.67,6.67,0,0,1,1.63,3,19.33,19.33,0,0,1,.67,4c.1,1.42.16,2.8.18,4.12H96c0-.9.11-1.78.21-2.63A21.23,21.23,0,0,1,97.29,26.93Z"/><path class="cls-1" d="M166.61.72h-13.5v1.4h4.82v29.7a16,16,0,0,0-4.09-8,10,10,0,0,0-7.32-2.91A13.75,13.75,0,0,0,139.28,23a15.58,15.58,0,0,0-5.56,5.94,18.85,18.85,0,0,0-2.14,9.27,18.74,18.74,0,0,0,2.14,9.25,15.46,15.46,0,0,0,5.56,5.9,13.82,13.82,0,0,0,7.24,2,10,10,0,0,0,7.32-2.88,15.7,15.7,0,0,0,4.09-8V54.72h13.46v-1.4h-4.78ZM156.56,46.4A12.41,12.41,0,0,1,153,51.5a7.09,7.09,0,0,1-4.5,1.74,5.16,5.16,0,0,1-3.92-1.67,11,11,0,0,1-2.39-5,36.25,36.25,0,0,1-.81-8.35,36.44,36.44,0,0,1,.81-8.37,11.06,11.06,0,0,1,2.39-5.06,5.15,5.15,0,0,1,3.92-1.69,7.09,7.09,0,0,1,4.5,1.74A12.46,12.46,0,0,1,156.56,30a22.11,22.11,0,0,1,1.37,8.25A21.73,21.73,0,0,1,156.56,46.4Z"/><path class="cls-1" d="M218.88.72h-13.5v1.4h4.82v29.7a16,16,0,0,0-4.09-8,10,10,0,0,0-7.32-2.91A13.75,13.75,0,0,0,191.55,23,15.58,15.58,0,0,0,186,28.93a18.85,18.85,0,0,0-2.14,9.27A18.74,18.74,0,0,0,186,47.45a15.46,15.46,0,0,0,5.56,5.9,13.82,13.82,0,0,0,7.24,2,10,10,0,0,0,7.32-2.88,15.7,15.7,0,0,0,4.09-8V54.72h13.46v-1.4h-4.78Zm-10,45.68a12.41,12.41,0,0,1-3.53,5.1,7.09,7.09,0,0,1-4.5,1.74,5.16,5.16,0,0,1-3.92-1.67,11,11,0,0,1-2.39-5,36.25,36.25,0,0,1-.81-8.35,36.44,36.44,0,0,1,.81-8.37,11.06,11.06,0,0,1,2.39-5.06,5.15,5.15,0,0,1,3.92-1.69,7.09,7.09,0,0,1,4.5,1.74A12.46,12.46,0,0,1,208.83,30a22.11,22.11,0,0,1,1.37,8.25A21.73,21.73,0,0,1,208.83,46.4Z"/><polygon class="cls-1" points="248.83 21.6 235.4 21.6 235.4 23 240.19 23 240.19 53.31 235.4 53.31 235.4 54.72 253.62 54.72 253.62 53.31 248.83 53.31 248.83 21.6"/><path class="cls-1" d="M244.51,10.94a5.15,5.15,0,0,0,3.85-1.58,5.28,5.28,0,0,0,1.55-3.82,5.4,5.4,0,1,0-10.8,0,5.23,5.23,0,0,0,1.58,3.82A5.19,5.19,0,0,0,244.51,10.94Z"/><path class="cls-1" d="M300.34,31.72a18,18,0,0,0-.79-5.58,7,7,0,0,0-2.95-3.84,11.69,11.69,0,0,0-6.26-1.38,10.63,10.63,0,0,0-6.36,1.8,12.72,12.72,0,0,0-3.94,4.6,23.25,23.25,0,0,0-1.66,4.22V21.6H265V23h4.82V53.32H265v1.4h17.46v-1.4h-4.11V38.59a22.61,22.61,0,0,1,.6-5,19.06,19.06,0,0,1,1.8-4.89,11.37,11.37,0,0,1,3-3.69A6.49,6.49,0,0,1,288,23.54a3,3,0,0,1,2.5,1,6.22,6.22,0,0,1,1.08,3.06,39.5,39.5,0,0,1,.27,5.06V53.32h-4.14v1.4h17.46v-1.4h-4.79Z"/><path class="cls-1" d="M354.31,22.12a7,7,0,0,0-3.6-.88,9.34,9.34,0,0,0-3.41.74,9.12,9.12,0,0,0-3.42,2.5,6.07,6.07,0,0,0-.47.63,10.86,10.86,0,0,0-1.92-1.64,14.33,14.33,0,0,0-4.43-1.94,19.36,19.36,0,0,0-4.82-.61,19.94,19.94,0,0,0-4.84.61,14.94,14.94,0,0,0-4.54,1.94,10.46,10.46,0,0,0-3.33,3.42A9.67,9.67,0,0,0,318.27,32,9.63,9.63,0,0,0,319.53,37a10.27,10.27,0,0,0,3.33,3.42,15,15,0,0,0,4.54,1.95h.06a17.67,17.67,0,0,0-4.2,1.34A8.79,8.79,0,0,0,320,46.21a5.53,5.53,0,0,0-1.21,3.61A5.27,5.27,0,0,0,322,54.88a14.55,14.55,0,0,0,4,1.23,17.12,17.12,0,0,0-2,.3,13.35,13.35,0,0,0-3.47,1.26,8.41,8.41,0,0,0-2.88,2.45A6.26,6.26,0,0,0,316.51,64a7,7,0,0,0,1.35,4.32,10,10,0,0,0,3.69,2.94,20.78,20.78,0,0,0,5.34,1.67,35.54,35.54,0,0,0,6.28.54,29,29,0,0,0,6.52-.72,18.27,18.27,0,0,0,5.58-2.23,11.28,11.28,0,0,0,3.87-4,11.55,11.55,0,0,0,1.42-5.91,13.51,13.51,0,0,0-1.13-5.95,9,9,0,0,0-3-3.53,11.13,11.13,0,0,0-4-1.69,20.44,20.44,0,0,0-4.17-.45h-2.13l-2.28,0-2.43,0a23,23,0,0,1-4.79-.4c-1.23-.26-1.84-.93-1.84-2a2.16,2.16,0,0,1,.81-1.66,7.5,7.5,0,0,1,2.05-1.24,12.7,12.7,0,0,1,2.61-.78l.31,0c.55.05,1.1.08,1.64.08a19.36,19.36,0,0,0,4.82-.61,14.35,14.35,0,0,0,4.43-1.95A10.1,10.1,0,0,0,344.73,37,9.82,9.82,0,0,0,346,32a9.85,9.85,0,0,0-1.23-5.08c-.15-.25-.32-.49-.48-.73a6.86,6.86,0,0,1,.5-.67,7.83,7.83,0,0,1,3.08-2.25,8.49,8.49,0,0,1,3-.63,5.17,5.17,0,0,1,3.6,1.23,4.68,4.68,0,0,0-1.29-.19,5,5,0,0,0-2.85.92,3.36,3.36,0,0,0-1.33,3,3.83,3.83,0,0,0,1.3,3.1,4.38,4.38,0,0,0,2.88,1.08,5.08,5.08,0,0,0,3-1c.92-.64,1.38-1.82,1.38-3.52a5.43,5.43,0,0,0-.82-2.85A6.66,6.66,0,0,0,354.31,22.12ZM332.89,56.45h5.83a12.44,12.44,0,0,1,4.28.7,7,7,0,0,1,3.1,2.11,5.4,5.4,0,0,1,1.15,3.56,7.62,7.62,0,0,1-1,4,8.35,8.35,0,0,1-2.77,2.81,13.92,13.92,0,0,1-4,1.69,19.36,19.36,0,0,1-4.77.58,12.35,12.35,0,0,1-5.8-1.23,8.36,8.36,0,0,1-4.68-7.56,8.81,8.81,0,0,1,1-4.25,6.46,6.46,0,0,1,2.45-2.5c.88.08,1.8.13,2.78.13Zm3.92-19.59a8.08,8.08,0,0,1-1.67,3.48,3.73,3.73,0,0,1-2.9,1.28,4.22,4.22,0,0,1-3.39-1.28,6.66,6.66,0,0,1-1.38-3.48,34.59,34.59,0,0,1-.31-4.89,20.78,20.78,0,0,1,.54-5,7.7,7.7,0,0,1,1.68-3.4,3.69,3.69,0,0,1,2.86-1.24,3.76,3.76,0,0,1,2.9,1.24,7.8,7.8,0,0,1,1.67,3.4,20.78,20.78,0,0,1,.54,5A20.45,20.45,0,0,1,336.81,36.86Z"/><path class="cls-1" d="M423.07,35h7.59V45.72c-.24.6-.6,1.37-1.08,2.3a13.61,13.61,0,0,1-1.94,2.78,10.21,10.21,0,0,1-3.12,2.3,11.66,11.66,0,0,1-11.46-1.3,14.77,14.77,0,0,1-4.23-6,34,34,0,0,1-2.14-8.48,73.8,73.8,0,0,1-.62-9.59,51.77,51.77,0,0,1,.87-9.54,30.67,30.67,0,0,1,2.73-8.35,16,16,0,0,1,4.9-5.89,12.11,12.11,0,0,1,7.27-2.18,15.32,15.32,0,0,1,5.83,1.12A16.51,16.51,0,0,1,432.59,6a17.29,17.29,0,0,1,3.58,4.57A16.6,16.6,0,0,1,438,16.13h1.44V.72h-1.26l-5.37,3.56a19.12,19.12,0,0,0-5.51-3.15A18.21,18.21,0,0,0,421,0a25.74,25.74,0,0,0-10.17,2,24.2,24.2,0,0,0-8.19,5.69,26.19,26.19,0,0,0-5.44,8.78,31.48,31.48,0,0,0-1.94,11.25,33.86,33.86,0,0,0,2.91,14.45,22.57,22.57,0,0,0,8.45,9.76,24.35,24.35,0,0,0,13.33,3.51,22.37,22.37,0,0,0,7.71-1.21,20.79,20.79,0,0,0,5.74-3.09,28.47,28.47,0,0,0,4.23-4q1.8-2.1,3.17-3.87V35h3.92V33.44H423.07Z"/><path class="cls-1" d="M464.86,10.94a5.14,5.14,0,0,0,3.85-1.58,5.28,5.28,0,0,0,1.55-3.82,5.4,5.4,0,1,0-10.8,0A5.23,5.23,0,0,0,461,9.36,5.19,5.19,0,0,0,464.86,10.94Z"/><polygon class="cls-1" points="469.18 21.6 455.75 21.6 455.75 23 460.54 23 460.54 53.31 455.75 53.31 455.75 54.72 473.97 54.72 473.97 53.31 469.18 53.31 469.18 21.6"/><path class="cls-1" d="M512.63,1.21A10.26,10.26,0,0,0,507.45,0a15.21,15.21,0,0,0-8.68,2.41,15.72,15.72,0,0,0-5.52,6.48,20.67,20.67,0,0,0-1.93,9V21.6h-6.23V23h6.23V53.32h-6.23v1.4h23v-1.4h-8.39V23h9.83V21.6h-9.83V15.84a33.49,33.49,0,0,1,.78-7.79,9.75,9.75,0,0,1,2.54-4.92,6.49,6.49,0,0,1,4.71-1.69,8.92,8.92,0,0,1,4,.86,7.12,7.12,0,0,1,2.15,1.59,5.67,5.67,0,0,0-2.17-.43,5.12,5.12,0,0,0-3.31,1.27,4.42,4.42,0,0,0-1.55,3.59,4.4,4.4,0,0,0,2.7,4.3,5.9,5.9,0,0,0,2.27.48,5.27,5.27,0,0,0,3.55-1.36,5,5,0,0,0,1.56-4,6.74,6.74,0,0,0-1.1-3.59A8.71,8.71,0,0,0,512.63,1.21Z"/><path class="cls-1" d="M543.3,47.63a10.6,10.6,0,0,1-2.59,3.56,4.81,4.81,0,0,1-3.2,1.41,2.41,2.41,0,0,1-2.2-1,7.56,7.56,0,0,1-.65-3.73V23h7.71V21.6h-7.71V12.24a14.79,14.79,0,0,1-4,1.55,19,19,0,0,1-4.59.61v7.2h-4.93V23h4.93V46.48a14.24,14.24,0,0,0,.63,4.3A6.15,6.15,0,0,0,529,54a8.49,8.49,0,0,0,5,1.22,10.63,10.63,0,0,0,6.57-1.92,13,13,0,0,0,3.94-5Z"/></g></g></svg>