<svg xmlns="http://www.w3.org/2000/svg" viewBox="0 0 204.72 41.66"><defs><style>.cls-1{fill:#836435;}</style></defs><g id="Layer_2" data-name="Layer 2"><g id="Layer_8" data-name="Layer 8"><path class="cls-1" d="M9.76,36.93h.12a3.89,3.89,0,0,1,0-.51A1.12,1.12,0,0,1,10,36a.6.6,0,0,1,.25-.25,1,1,0,0,1,.43-.08h.6V40h-.66v.12h1.89V40h-.66V35.7h.6a1.06,1.06,0,0,1,.43.08.67.67,0,0,1,.25.25,1.12,1.12,0,0,1,.12.39,3.89,3.89,0,0,1,0,.51h.12V35.58H9.76Z"/><path class="cls-1" d="M17.78,38.16a1.6,1.6,0,0,0-.06-.46.65.65,0,0,0-.24-.32,1,1,0,0,0-.53-.12.86.86,0,0,0-.51.16,1,1,0,0,0-.33.39,2.35,2.35,0,0,0-.15.42V35.58H15v.12h.39V40H15v.12h1.32V40H16V38.73a1.64,1.64,0,0,1,.06-.42,1.59,1.59,0,0,1,.16-.43,1,1,0,0,1,.29-.34.64.64,0,0,1,.42-.13.27.27,0,0,1,.24.1.76.76,0,0,1,.1.3c0,.13,0,.28,0,.44V40h-.39v.12h1.31V40h-.39Z"/><path class="cls-1" d="M22.47,39.9a.27.27,0,0,1-.17.07.17.17,0,0,1-.15-.07.43.43,0,0,1,0-.17V38.25a1.77,1.77,0,0,0-.07-.46.68.68,0,0,0-.28-.37,1,1,0,0,0-.61-.15,1.75,1.75,0,0,0-.4,0,1.6,1.6,0,0,0-.35.12.82.82,0,0,0-.25.19.4.4,0,0,0-.09.25.29.29,0,0,0,.1.25.31.31,0,0,0,.23.08.34.34,0,0,0,.23-.08.3.3,0,0,0,.11-.26.25.25,0,0,0-.11-.23.31.31,0,0,0-.2-.07l.07-.06a1.07,1.07,0,0,1,.27-.09l.28,0a.45.45,0,0,1,.36.13.73.73,0,0,1,.15.32,2.73,2.73,0,0,1,0,.41v.29h-.4a1.77,1.77,0,0,0-1,.23.72.72,0,0,0-.35.63.68.68,0,0,0,.23.54,1,1,0,0,0,.63.2.81.81,0,0,0,.87-.77v.25a.57.57,0,0,0,.08.31.38.38,0,0,0,.19.16.71.71,0,0,0,.59,0,.64.64,0,0,0,.22-.21l-.05-.11A.57.57,0,0,1,22.47,39.9ZM21.59,39a1.29,1.29,0,0,1-.1.55,1,1,0,0,1-.26.33.6.6,0,0,1-.33.1.39.39,0,0,1-.25-.08.51.51,0,0,1-.15-.23,1,1,0,0,1-.05-.29.8.8,0,0,1,.08-.33.77.77,0,0,1,.23-.28.78.78,0,0,1,.43-.11h.4Z"/><path class="cls-1" d="M26.89,38.16a1.6,1.6,0,0,0-.06-.46.58.58,0,0,0-.23-.32.94.94,0,0,0-.53-.12.87.87,0,0,0-.52.16,1.07,1.07,0,0,0-.34.39,2.19,2.19,0,0,0-.15.43v-.92h-.92v.12h.4V40h-.4v.12h1.31V40h-.39V38.73a1.64,1.64,0,0,1,.06-.42,1.33,1.33,0,0,1,.17-.43,1,1,0,0,1,.29-.34.64.64,0,0,1,.42-.13.27.27,0,0,1,.24.1.76.76,0,0,1,.1.3c0,.13,0,.28,0,.44V40H26v.12h1.31V40h-.39Z"/><polygon class="cls-1" points="30.4 38.28 31.44 37.44 31.96 37.44 31.96 37.32 30.68 37.32 30.68 37.44 31.28 37.44 29.96 38.48 29.96 35.58 28.91 35.58 28.91 35.7 29.43 35.7 29.43 39.96 28.91 39.96 28.91 40.08 30.39 40.08 30.39 39.96 29.96 39.96 29.96 38.54 31.18 39.96 30.77 39.96 30.77 40.08 32.16 40.08 32.16 39.96 31.84 39.96 30.4 38.28"/><path class="cls-1" d="M38.51,37.44H39l-.83,2-.95-2h.47v-.12H36.32v.12h.28l1.26,2.65-.49,1.17a.26.26,0,0,0-.06-.13A.31.31,0,0,0,37.2,41a.32.32,0,0,0-.14,0,.33.33,0,0,0-.17,0,.34.34,0,0,0-.12.12.33.33,0,0,0,0,.17.36.36,0,0,0,.05.19.41.41,0,0,0,.13.1l.16,0a.33.33,0,0,0,.26-.1,1.11,1.11,0,0,0,.18-.29l1.61-3.83h.34v-.12h-1Z"/><path class="cls-1" d="M43.12,37.46a1.45,1.45,0,0,0-1.47,0,1.38,1.38,0,0,0-.47.52,1.61,1.61,0,0,0,0,1.44,1.31,1.31,0,0,0,.47.52,1.45,1.45,0,0,0,1.47,0,1.31,1.31,0,0,0,.47-.52,1.61,1.61,0,0,0,0-1.44A1.38,1.38,0,0,0,43.12,37.46Zm0,1.68a1.8,1.8,0,0,1-.11.43.73.73,0,0,1-.23.33.61.61,0,0,1-.39.12.62.62,0,0,1-.4-.12.81.81,0,0,1-.23-.33,1.43,1.43,0,0,1-.1-.43,3.24,3.24,0,0,1,0-.88,1.5,1.5,0,0,1,.1-.43A.89.89,0,0,1,42,37.5a.62.62,0,0,1,.4-.12.61.61,0,0,1,.39.12.79.79,0,0,1,.23.33,1.94,1.94,0,0,1,.11.43,3.24,3.24,0,0,1,0,.88Z"/><path class="cls-1" d="M48.25,37.32h-1v.12h.43v1.23a1.64,1.64,0,0,1-.06.42,1.59,1.59,0,0,1-.16.43,1,1,0,0,1-.29.34.66.66,0,0,1-.42.13.28.28,0,0,1-.24-.1.7.7,0,0,1-.1-.3,3,3,0,0,1,0-.44V37.32h-.94v.12h.4v1.8a1.65,1.65,0,0,0,.06.46.55.55,0,0,0,.24.32.94.94,0,0,0,.53.12.9.9,0,0,0,.53-.15,1.23,1.23,0,0,0,.33-.39,3.09,3.09,0,0,0,.14-.43v.91h.93V40h-.39Z"/><path class="cls-1" d="M55,35.61a.79.79,0,0,0-.4-.09,1,1,0,0,0-.65.21,1.25,1.25,0,0,0-.4.55,2,2,0,0,0-.13.73v.31H53v.12h.51V40H53v.12h1.74V40H54V37.44h.81v-.12H54v-.48a3.06,3.06,0,0,1,.06-.65.79.79,0,0,1,.2-.41.52.52,0,0,1,.38-.14.66.66,0,0,1,.32.07.42.42,0,0,1,.18.14l-.11,0a.4.4,0,0,0-.22.08.31.31,0,0,0-.11.25.36.36,0,0,0,0,.19.45.45,0,0,0,.13.11l.15,0a.33.33,0,0,0,.24-.1.34.34,0,0,0,.11-.27.49.49,0,0,0-.09-.28A.62.62,0,0,0,55,35.61Z"/><path class="cls-1" d="M58.76,37.46a1.35,1.35,0,0,0-.73-.2,1.33,1.33,0,0,0-1.21.72,1.61,1.61,0,0,0,0,1.44,1.27,1.27,0,0,0,.48.52,1.25,1.25,0,0,0,.73.2,1.27,1.27,0,0,0,.73-.2,1.31,1.31,0,0,0,.47-.52,1.61,1.61,0,0,0,0-1.44A1.38,1.38,0,0,0,58.76,37.46Zm0,1.68a1.8,1.8,0,0,1-.11.43.73.73,0,0,1-.23.33A.61.61,0,0,1,58,40a.63.63,0,0,1-.4-.12.8.8,0,0,1-.22-.33,1.43,1.43,0,0,1-.11-.43,3.24,3.24,0,0,1,0-.88,1.51,1.51,0,0,1,.11-.43.87.87,0,0,1,.22-.33.63.63,0,0,1,.4-.12.61.61,0,0,1,.39.12.79.79,0,0,1,.23.33,1.94,1.94,0,0,1,.11.43,3.24,3.24,0,0,1,0,.88Z"/><path class="cls-1" d="M63.17,37.33a.64.64,0,0,0-.69.07,1.07,1.07,0,0,0-.28.37,2.18,2.18,0,0,0-.16.45v-.9h-.91v.12h.39V40h-.39v.12h1.34V40H62V38.79a2.32,2.32,0,0,1,.24-1,1,1,0,0,1,.26-.32.48.48,0,0,1,.33-.13.46.46,0,0,1,.2,0h0a.41.41,0,0,0-.24.08.31.31,0,0,0-.11.25.28.28,0,0,0,.1.23.33.33,0,0,0,.25.09.31.31,0,0,0,.25-.11.39.39,0,0,0,.09-.26.43.43,0,0,0-.06-.22A.44.44,0,0,0,63.17,37.33Z"/><path class="cls-1" d="M69.07,39.8a.38.38,0,0,1-.28.13.22.22,0,0,1-.18-.08.64.64,0,0,1,0-.3V37.44h.64v-.12h-.64v-.78a.83.83,0,0,1-.25.12.79.79,0,0,1-.29.06v.6h-.4v.12H68v2a1.86,1.86,0,0,0,0,.33.55.55,0,0,0,.17.27.53.53,0,0,0,.37.11.72.72,0,0,0,.47-.15,1.1,1.1,0,0,0,.31-.39l-.1-.06A1.46,1.46,0,0,1,69.07,39.8Z"/><path class="cls-1" d="M73.64,38.16a1.6,1.6,0,0,0-.06-.46.55.55,0,0,0-.24-.32,1,1,0,0,0-.53-.12.86.86,0,0,0-.51.16,1,1,0,0,0-.33.39,2.35,2.35,0,0,0-.15.42V35.58h-.93v.12h.4V40h-.4v.12h1.32V40h-.39V38.73a1.64,1.64,0,0,1,.06-.42,1.59,1.59,0,0,1,.16-.43,1.07,1.07,0,0,1,.29-.34.64.64,0,0,1,.42-.13.27.27,0,0,1,.24.1.76.76,0,0,1,.1.3c0,.13,0,.28,0,.44V40h-.39v.12H74V40h-.39Z"/><path class="cls-1" d="M77.81,39.81a1.06,1.06,0,0,1-.66.2.6.6,0,0,1-.62-.4,1.29,1.29,0,0,1-.12-.42,2.56,2.56,0,0,1,0-.49,1.36,1.36,0,0,1,0-.2h1.88a1.54,1.54,0,0,0-.12-.61,1,1,0,0,0-.37-.45,1.23,1.23,0,0,0-.7-.18,1.3,1.3,0,0,0-.68.18,1.17,1.17,0,0,0-.47.49,1.7,1.7,0,0,0,0,1.54,1.24,1.24,0,0,0,.49.5,1.41,1.41,0,0,0,.69.17,1.21,1.21,0,0,0,.78-.24,1.25,1.25,0,0,0,.41-.6h-.13A1.24,1.24,0,0,1,77.81,39.81Zm-1.4-1.6a1.81,1.81,0,0,1,.1-.43.72.72,0,0,1,.22-.29.51.51,0,0,1,.35-.11.4.4,0,0,1,.3.1.47.47,0,0,1,.16.25,1.14,1.14,0,0,1,.07.33c0,.11,0,.22,0,.32H76.39C76.4,38.32,76.4,38.26,76.41,38.21Z"/><path class="cls-1" d="M85.63,37.36a.43.43,0,0,0-.25-.07.74.74,0,0,0-.28.06.79.79,0,0,0-.29.21.25.25,0,0,0,0,.07,1,1,0,0,0-.14-.15.82.82,0,0,0-.34-.16,1.13,1.13,0,0,0-.36-.06,1.26,1.26,0,0,0-.38.06.89.89,0,0,0-.34.16.7.7,0,0,0-.26.28.82.82,0,0,0-.1.42.83.83,0,0,0,.1.43.77.77,0,0,0,.26.28,1.33,1.33,0,0,0,.34.16,1.1,1.1,0,0,0-.32.11.68.68,0,0,0-.24.2.42.42,0,0,0-.1.28.39.39,0,0,0,.25.38,1,1,0,0,0,.37.09l-.21,0a1.69,1.69,0,0,0-.28.12.72.72,0,0,0-.23.23.62.62,0,0,0-.09.34.67.67,0,0,0,.11.37.8.8,0,0,0,.29.25,1.59,1.59,0,0,0,.42.14,2.1,2.1,0,0,0,.51,0,2.16,2.16,0,0,0,.51-.06,1.34,1.34,0,0,0,.44-.19.9.9,0,0,0,.31-.33,1,1,0,0,0,.12-.49,1.08,1.08,0,0,0-.09-.48.67.67,0,0,0-.24-.28,1,1,0,0,0-.32-.12l-.35,0h-.53a2.37,2.37,0,0,1-.41,0,.18.18,0,0,1-.16-.18.2.2,0,0,1,.07-.16.43.43,0,0,1,.17-.12l.23-.07h.15a1.49,1.49,0,0,0,.36-.05,1.19,1.19,0,0,0,.34-.16.84.84,0,0,0,.25-.28.94.94,0,0,0,.09-.43.93.93,0,0,0-.09-.42l0,0s0-.05,0-.06a.64.64,0,0,1,.26-.19.57.57,0,0,1,.24-.05.36.36,0,0,1,.28.1h0a.45.45,0,0,0-.11,0,.35.35,0,0,0-.21.07.24.24,0,0,0-.1.21.31.31,0,0,0,.1.23.31.31,0,0,0,.21.07.35.35,0,0,0,.21-.07.28.28,0,0,0,.11-.26.44.44,0,0,0-.07-.21A.42.42,0,0,0,85.63,37.36Zm-1.84,2.77h.69a1,1,0,0,1,.36.07.62.62,0,0,1,.25.19.44.44,0,0,1,.1.3.78.78,0,0,1-.08.35.82.82,0,0,1-.23.26,1.19,1.19,0,0,1-.34.16,1.86,1.86,0,0,1-.42,0,1,1,0,0,1-.48-.1.78.78,0,0,1-.29-.28.7.7,0,0,1-.1-.36.8.8,0,0,1,.09-.39.68.68,0,0,1,.27-.26Zm.6-1.54a.7.7,0,0,1-.17.29.43.43,0,0,1-.29.1.49.49,0,0,1-.35-.1.56.56,0,0,1-.14-.29,2.63,2.63,0,0,1,0-.41,1.62,1.62,0,0,1,0-.4.74.74,0,0,1,.17-.29.44.44,0,0,1,.3-.11.44.44,0,0,1,.29.11.64.64,0,0,1,.17.29,1.25,1.25,0,0,1,.06.4A1.35,1.35,0,0,1,84.39,38.59Z"/><polygon class="cls-1" points="88.44 37.32 87.51 37.32 87.51 37.44 87.9 37.44 87.9 39.96 87.51 39.96 87.51 40.08 88.83 40.08 88.83 39.96 88.44 39.96 88.44 37.32"/><path class="cls-1" d="M88.43,36.15a.35.35,0,0,0,.1-.25.34.34,0,0,0-.36-.36.33.33,0,0,0-.25.1.36.36,0,0,0-.11.26.36.36,0,0,0,.11.25.34.34,0,0,0,.25.11A.36.36,0,0,0,88.43,36.15Z"/><path class="cls-1" d="M92.57,35.61a.86.86,0,0,0-.41-.09,1,1,0,0,0-.65.21,1.25,1.25,0,0,0-.4.55A2,2,0,0,0,91,37v.31h-.51v.12H91V40h-.51v.12h1.74V40h-.69V37.44h.81v-.12h-.81v-.48a3.06,3.06,0,0,1,.06-.65.88.88,0,0,1,.2-.41.54.54,0,0,1,.38-.14.7.7,0,0,1,.33.07.49.49,0,0,1,.18.14l-.11,0a.43.43,0,0,0-.23.08.31.31,0,0,0-.11.25.36.36,0,0,0,0,.19.33.33,0,0,0,.29.14.33.33,0,0,0,.24-.1.33.33,0,0,0,.1-.27.57.57,0,0,0-.08-.28A.7.7,0,0,0,92.57,35.61Z"/><path class="cls-1" d="M95.47,39.8a.36.36,0,0,1-.27.13.21.21,0,0,1-.18-.08.52.52,0,0,1-.06-.3V37.44h.65v-.12H95v-.78a.89.89,0,0,1-.24.12.83.83,0,0,1-.29.06v.6H94v.12h.4v2a1.24,1.24,0,0,0,0,.33.55.55,0,0,0,.17.27.5.5,0,0,0,.37.11.72.72,0,0,0,.47-.15,1.19,1.19,0,0,0,.3-.39l-.1-.06A.94.94,0,0,1,95.47,39.8Z"/><path class="cls-1" d="M97.86,39.47a.35.35,0,0,0-.36,0,.33.33,0,0,0-.13.13.35.35,0,0,0,0,.36.33.33,0,0,0,.13.13.35.35,0,0,0,.36,0A.27.27,0,0,0,98,40a.35.35,0,0,0,0-.36A.27.27,0,0,0,97.86,39.47Z"/><path class="cls-1" d="M106.89,35.7h.56l-1.23,3.54-.64-2.07.49-1.47h.52v-.12h-4.27v.12h.57l1.38,4.44h.13l.8-2.26.7,2.26H106l1.55-4.44h.48v-.12h-1.17Zm-2.31,3.54-1.09-3.54h1l.62,2Zm.54-3.54h.81L105.51,37Z"/><path class="cls-1" d="M111.77,39.81a1.08,1.08,0,0,1-.66.2.67.67,0,0,1-.39-.1.8.8,0,0,1-.24-.3,1.61,1.61,0,0,1-.11-.42,2.56,2.56,0,0,1,0-.49c0-.07,0-.13,0-.2h1.88a1.74,1.74,0,0,0-.11-.61.93.93,0,0,0-.38-.45,1.18,1.18,0,0,0-.69-.18,1.31,1.31,0,0,0-.69.18,1.23,1.23,0,0,0-.47.49,1.65,1.65,0,0,0-.17.77,1.54,1.54,0,0,0,.18.77,1.31,1.31,0,0,0,.49.5,1.47,1.47,0,0,0,.69.17,1.22,1.22,0,0,0,.79-.24,1.32,1.32,0,0,0,.41-.6h-.14A1.14,1.14,0,0,1,111.77,39.81Zm-1.41-1.6a1.8,1.8,0,0,1,.11-.43.7.7,0,0,1,.21-.29.53.53,0,0,1,.36-.11.44.44,0,0,1,.3.1.54.54,0,0,1,.16.25,1.14,1.14,0,0,1,.07.33c0,.11,0,.22,0,.32h-1.24C110.36,38.32,110.35,38.26,110.36,38.21Z"/><path class="cls-1" d="M118.05,39.8a.38.38,0,0,1-.27.13.19.19,0,0,1-.18-.08.52.52,0,0,1-.06-.3V37.44h.64v-.12h-.64v-.78a.89.89,0,0,1-.24.12.84.84,0,0,1-.3.06v.6h-.4v.12h.4v2a1.26,1.26,0,0,0,0,.33.48.48,0,0,0,.17.27.5.5,0,0,0,.37.11.73.73,0,0,0,.47-.15,1.19,1.19,0,0,0,.3-.39l-.1-.06A.94.94,0,0,1,118.05,39.8Z"/><path class="cls-1" d="M121.91,37.33a.58.58,0,0,0-.28-.07.65.65,0,0,0-.4.14,1.07,1.07,0,0,0-.28.37,2.18,2.18,0,0,0-.16.45v-.9h-.91v.12h.39V40h-.39v.12h1.34V40h-.43V38.79a2.07,2.07,0,0,1,.06-.5,2.1,2.1,0,0,1,.18-.46,1,1,0,0,1,.26-.32.48.48,0,0,1,.33-.13.46.46,0,0,1,.2,0h0a.41.41,0,0,0-.24.08.31.31,0,0,0-.11.25.3.3,0,0,0,.09.23.37.37,0,0,0,.26.09.33.33,0,0,0,.25-.11.39.39,0,0,0,.09-.26.43.43,0,0,0-.06-.22A.4.4,0,0,0,121.91,37.33Z"/><path class="cls-1" d="M126.49,37.32h-1v.12H126v1.23a2.18,2.18,0,0,1,0,.42,1.61,1.61,0,0,1-.17.43,1,1,0,0,1-.28.34A.68.68,0,0,1,125,40a.27.27,0,0,1-.24-.1.59.59,0,0,1-.11-.3c0-.13,0-.27,0-.44V37.32h-.93v.12h.39v1.8a1.65,1.65,0,0,0,.06.46.55.55,0,0,0,.24.32,1,1,0,0,0,.53.12.88.88,0,0,0,.53-.15,1.23,1.23,0,0,0,.33-.39,1.66,1.66,0,0,0,.14-.43v.91h.93V40h-.39Z"/><polygon class="cls-1" points="129.56 35.58 128.52 35.58 128.52 35.7 129.03 35.7 129.03 39.96 128.52 39.96 128.52 40.08 130.08 40.08 130.08 39.96 129.56 39.96 129.56 35.58"/><path class="cls-1" d="M133.78,37.44h.48l-.84,2-.95-2h.47v-.12h-1.35v.12h.28l1.27,2.65-.5,1.17a.19.19,0,0,0,0-.13.34.34,0,0,0-.12-.09.32.32,0,0,0-.14,0,.33.33,0,0,0-.17,0,.25.25,0,0,0-.11.12.34.34,0,0,0-.05.17.29.29,0,0,0,.06.19.32.32,0,0,0,.13.1l.15,0a.35.35,0,0,0,.27-.1,1.11,1.11,0,0,0,.17-.29l1.62-3.83h.34v-.12h-1Z"/><path class="cls-1" d="M141.56,39.9a.27.27,0,0,1-.17.07.16.16,0,0,1-.15-.07.43.43,0,0,1,0-.17V38.25a1.77,1.77,0,0,0-.07-.46.68.68,0,0,0-.28-.37,1,1,0,0,0-.62-.15,1.67,1.67,0,0,0-.39,0,1.6,1.6,0,0,0-.35.12.72.72,0,0,0-.25.19.4.4,0,0,0-.09.25.32.32,0,0,0,.09.25.33.33,0,0,0,.24.08.34.34,0,0,0,.23-.08.3.3,0,0,0,.11-.26.27.27,0,0,0-.11-.23.31.31,0,0,0-.2-.07l.07-.06a1.07,1.07,0,0,1,.27-.09,1.33,1.33,0,0,1,.28,0,.42.42,0,0,1,.35.13.56.56,0,0,1,.15.32,1.84,1.84,0,0,1,0,.41v.29h-.4a1.81,1.81,0,0,0-1,.23.71.71,0,0,0-.34.63.68.68,0,0,0,.23.54.94.94,0,0,0,.62.2.86.86,0,0,0,.52-.15.85.85,0,0,0,.32-.4,1.7,1.7,0,0,0,0-.22v.25a.68.68,0,0,0,.07.31.42.42,0,0,0,.19.16.75.75,0,0,0,.26,0,.71.71,0,0,0,.34-.08.64.64,0,0,0,.22-.21l-.06-.11A.43.43,0,0,1,141.56,39.9Zm-.88-.92a1.29,1.29,0,0,1-.1.55,1,1,0,0,1-.26.33.6.6,0,0,1-.33.1.45.45,0,0,1-.26-.08.59.59,0,0,1-.14-.23,1,1,0,0,1-.05-.29.8.8,0,0,1,.08-.33.77.77,0,0,1,.23-.28.78.78,0,0,1,.43-.11h.4Z"/><path class="cls-1" d="M145.72,37.44a1.09,1.09,0,0,0-.6-.17.82.82,0,0,0-.61.25,1.34,1.34,0,0,0-.35.68v-.88h-.93v.12h.39v4h-.39v.12h1.32v-.12h-.39V39.21a1.42,1.42,0,0,0,.35.68.82.82,0,0,0,.61.25,1.19,1.19,0,0,0,.6-.17,1.31,1.31,0,0,0,.46-.5,1.74,1.74,0,0,0,0-1.54A1.28,1.28,0,0,0,145.72,37.44Zm-.06,2a1,1,0,0,1-.25.44A.56.56,0,0,1,145,40a.68.68,0,0,1-.42-.15,1.07,1.07,0,0,1-.32-.44,2,2,0,0,1,0-1.38,1,1,0,0,1,.32-.43.68.68,0,0,1,.42-.15.56.56,0,0,1,.39.15.94.94,0,0,1,.25.43,3,3,0,0,1,0,1.38Z"/><path class="cls-1" d="M150.57,37.44a1.06,1.06,0,0,0-.59-.17.83.83,0,0,0-.62.25,1.34,1.34,0,0,0-.35.68v-.88h-.93v.12h.4v4h-.4v.12h1.32v-.12H149V39.21a1.42,1.42,0,0,0,.35.68.83.83,0,0,0,.62.25,1.15,1.15,0,0,0,.59-.17,1.31,1.31,0,0,0,.46-.5,1.74,1.74,0,0,0,0-1.54A1.28,1.28,0,0,0,150.57,37.44Zm-.06,2a1,1,0,0,1-.25.44.54.54,0,0,1-.39.15.68.68,0,0,1-.42-.15,1.07,1.07,0,0,1-.32-.44,2,2,0,0,1,0-1.38,1,1,0,0,1,.32-.43.68.68,0,0,1,.42-.15.54.54,0,0,1,.39.15.94.94,0,0,1,.25.43,3,3,0,0,1,0,1.38Z"/><path class="cls-1" d="M155,37.33a.58.58,0,0,0-.28-.07.63.63,0,0,0-.4.14,1.07,1.07,0,0,0-.28.37,2.18,2.18,0,0,0-.16.45v-.9h-.92v.12h.4V40h-.4v.12h1.35V40h-.43V38.79a2.12,2.12,0,0,1,.23-1,1.07,1.07,0,0,1,.27-.32.48.48,0,0,1,.33-.13.46.46,0,0,1,.2,0h0a.41.41,0,0,0-.24.08.28.28,0,0,0-.11.25.3.3,0,0,0,.09.23.37.37,0,0,0,.26.09.33.33,0,0,0,.25-.11.39.39,0,0,0,.09-.26.43.43,0,0,0-.06-.22A.4.4,0,0,0,155,37.33Z"/><path class="cls-1" d="M158.93,39.81a1.06,1.06,0,0,1-.66.2.65.65,0,0,1-.38-.1.8.8,0,0,1-.24-.3,1.29,1.29,0,0,1-.12-.42,3.74,3.74,0,0,1,0-.49,1.36,1.36,0,0,1,0-.2h1.88a1.54,1.54,0,0,0-.12-.61.91.91,0,0,0-.37-.45,1.23,1.23,0,0,0-.7-.18,1.3,1.3,0,0,0-.68.18,1.17,1.17,0,0,0-.47.49,1.78,1.78,0,0,0,0,1.54,1.24,1.24,0,0,0,.49.5,1.41,1.41,0,0,0,.69.17,1.19,1.19,0,0,0,.78-.24,1.25,1.25,0,0,0,.41-.6h-.13A1.24,1.24,0,0,1,158.93,39.81Zm-1.4-1.6a1.81,1.81,0,0,1,.1-.43.72.72,0,0,1,.22-.29.51.51,0,0,1,.35-.11.4.4,0,0,1,.3.1.56.56,0,0,1,.17.25,2.72,2.72,0,0,1,.07.33c0,.11,0,.22,0,.32h-1.24C157.52,38.32,157.52,38.26,157.53,38.21Z"/><path class="cls-1" d="M163.34,39.66a.86.86,0,0,1-.29.25.93.93,0,0,1-.42.09.75.75,0,0,1-.39-.1.76.76,0,0,1-.24-.29,2.1,2.1,0,0,1-.12-.42,3.79,3.79,0,0,1,0-.49,3.37,3.37,0,0,1,0-.44,1.52,1.52,0,0,1,.12-.43.8.8,0,0,1,.25-.32.7.7,0,0,1,.42-.13,1,1,0,0,1,.29,0,.62.62,0,0,1,.26.12.49.49,0,0,1,.16.16s-.06,0-.1,0a.41.41,0,0,0-.24.08.3.3,0,0,0-.1.25.29.29,0,0,0,.05.19.45.45,0,0,0,.13.11l.16,0a.32.32,0,0,0,.23-.09.33.33,0,0,0,.09-.25.59.59,0,0,0-.12-.35.85.85,0,0,0-.34-.27,1.22,1.22,0,0,0-.53-.11,1.39,1.39,0,0,0-.76.2,1.24,1.24,0,0,0-.47.52,1.58,1.58,0,0,0-.16.72,1.65,1.65,0,0,0,.17.77,1.31,1.31,0,0,0,.49.5,1.48,1.48,0,0,0,.7.17,1,1,0,0,0,.71-.24,1.33,1.33,0,0,0,.37-.6h-.12A2.08,2.08,0,0,1,163.34,39.66Z"/><polygon class="cls-1" points="166.34 37.32 165.41 37.32 165.41 37.44 165.8 37.44 165.8 39.96 165.41 39.96 165.41 40.08 166.74 40.08 166.74 39.96 166.34 39.96 166.34 37.32"/><path class="cls-1" d="M166.33,36.15a.36.36,0,0,0,.11-.25.36.36,0,0,0-.11-.26.33.33,0,0,0-.25-.1.34.34,0,0,0-.36.36.35.35,0,0,0,.1.25.36.36,0,0,0,.26.11A.34.34,0,0,0,166.33,36.15Z"/><path class="cls-1" d="M171.07,39.9a.29.29,0,0,1-.18.07.15.15,0,0,1-.14-.07.43.43,0,0,1,0-.17V38.25a1.76,1.76,0,0,0-.06-.46.68.68,0,0,0-.28-.37,1,1,0,0,0-.62-.15,1.83,1.83,0,0,0-.4,0,1.7,1.7,0,0,0-.34.12.72.72,0,0,0-.25.19.4.4,0,0,0-.09.25.32.32,0,0,0,.09.25.33.33,0,0,0,.24.08.34.34,0,0,0,.23-.08.3.3,0,0,0,.11-.26.27.27,0,0,0-.11-.23.31.31,0,0,0-.2-.07l.07-.06a1.07,1.07,0,0,1,.27-.09,1.33,1.33,0,0,1,.28,0,.43.43,0,0,1,.35.13.56.56,0,0,1,.15.32,1.84,1.84,0,0,1,0,.41v.29h-.4a1.81,1.81,0,0,0-1,.23.71.71,0,0,0-.34.63.68.68,0,0,0,.23.54.94.94,0,0,0,.62.2.86.86,0,0,0,.52-.15.85.85,0,0,0,.32-.4,1.7,1.7,0,0,0,0-.22v.25a.57.57,0,0,0,.07.31.42.42,0,0,0,.19.16.75.75,0,0,0,.26,0,.62.62,0,0,0,.56-.29l-.06-.11A.43.43,0,0,1,171.07,39.9Zm-.88-.92a1.29,1.29,0,0,1-.1.55,1,1,0,0,1-.26.33.6.6,0,0,1-.33.1.45.45,0,0,1-.26-.08.59.59,0,0,1-.14-.23,1,1,0,0,1,0-.29.78.78,0,0,1,.07-.33.71.71,0,0,1,.24-.28.78.78,0,0,1,.43-.11h.4Z"/><path class="cls-1" d="M174.13,39.8a.38.38,0,0,1-.27.13.23.23,0,0,1-.19-.08.64.64,0,0,1,0-.3V37.44h.64v-.12h-.64v-.78a.83.83,0,0,1-.25.12.79.79,0,0,1-.29.06v.6h-.4v.12h.4v2a1.86,1.86,0,0,0,0,.33.55.55,0,0,0,.17.27.53.53,0,0,0,.37.11.72.72,0,0,0,.47-.15,1.1,1.1,0,0,0,.31-.39l-.1-.06A1.46,1.46,0,0,1,174.13,39.8Z"/><path class="cls-1" d="M178.1,39.81a1.08,1.08,0,0,1-.66.2.67.67,0,0,1-.39-.1.8.8,0,0,1-.24-.3,1.61,1.61,0,0,1-.11-.42,2.56,2.56,0,0,1,0-.49c0-.07,0-.13,0-.2h1.88a1.74,1.74,0,0,0-.11-.61.93.93,0,0,0-.38-.45,1.18,1.18,0,0,0-.69-.18,1.31,1.31,0,0,0-.69.18,1.23,1.23,0,0,0-.47.49,1.65,1.65,0,0,0-.17.77,1.54,1.54,0,0,0,.18.77,1.31,1.31,0,0,0,.49.5,1.47,1.47,0,0,0,.69.17,1.22,1.22,0,0,0,.79-.24,1.32,1.32,0,0,0,.41-.6h-.14A1.14,1.14,0,0,1,178.1,39.81Zm-1.41-1.6a1.8,1.8,0,0,1,.11-.43.7.7,0,0,1,.21-.29.53.53,0,0,1,.36-.11.44.44,0,0,1,.3.1.54.54,0,0,1,.16.25,1.14,1.14,0,0,1,.07.33c0,.11,0,.22,0,.32h-1.24C176.69,38.32,176.68,38.26,176.69,38.21Z"/><path class="cls-1" d="M183.94,36.15a.36.36,0,0,0,.11-.25.36.36,0,0,0-.11-.26.33.33,0,0,0-.25-.1.34.34,0,0,0-.36.36.35.35,0,0,0,.1.25.36.36,0,0,0,.26.11A.34.34,0,0,0,183.94,36.15Z"/><polygon class="cls-1" points="183.95 37.32 183.02 37.32 183.02 37.44 183.41 37.44 183.41 39.96 183.02 39.96 183.02 40.08 184.35 40.08 184.35 39.96 183.95 39.96 183.95 37.32"/><path class="cls-1" d="M187.4,39.8a.38.38,0,0,1-.27.13.23.23,0,0,1-.19-.08.64.64,0,0,1-.05-.3V37.44h.64v-.12h-.64v-.78a.83.83,0,0,1-.25.12.79.79,0,0,1-.29.06v.6H186v.12h.4v2a1.26,1.26,0,0,0,.05.33.48.48,0,0,0,.53.38.72.72,0,0,0,.47-.15,1.1,1.1,0,0,0,.31-.39l-.1-.06A.94.94,0,0,1,187.4,39.8Z"/><path class="cls-1" d="M189.79,39.47a.32.32,0,0,0-.19,0,.31.31,0,0,0-.18,0,.4.4,0,0,0-.13.13.43.43,0,0,0,0,.36.4.4,0,0,0,.13.13.41.41,0,0,0,.18,0,.41.41,0,0,0,.19,0,.4.4,0,0,0,.13-.13.43.43,0,0,0,0-.36A.4.4,0,0,0,189.79,39.47Z"/><path class="cls-1" d="M35.66,25.49c-.25,0-.38.14-.38.43,0,0,0,.27.14.72a4,4,0,0,1,.08.46c0,.14,0,.26,0,.36,0,.8-.37,1.2-1.1,1.2-1.35,0-3.44-1.49-6.29-4.47-.87-.93-1.77-2-2.71-3.09A38.82,38.82,0,0,1,23,17.9a45.26,45.26,0,0,0,10.8-6.12q3.7-3,3.7-6.12c0-.48-.18-.72-.53-.72s-.38.16-.48.48-.22.65-.36,1l-.26.6q-2.74,5.24-12.63,9.79,2.84-6.33,2.83-10.56c0-2.34-.81-3.5-2.44-3.5a5,5,0,0,0-1,.12,6.64,6.64,0,0,0-1.25.4c-1.09.45-1.63.88-1.63,1.3s.11.43.33.43a8.57,8.57,0,0,0,1-.53,3.51,3.51,0,0,1,1.59-.52c.92,0,1.39.76,1.39,2.3q0,3.64-2.4,9.46c-.32-.61-.66-1.29-1-2s-.69-1.52-1-2.28q-.09-.24-.24-.24c-.22,0-.43.33-.62,1a5.24,5.24,0,0,0-.29,1.44q0,.72,2.26,4a42.73,42.73,0,0,1-2.93,4.75,32.07,32.07,0,0,1-3.41,4Q9.75,31,4.94,31q-3.45,0-3.45-3a7.69,7.69,0,0,1,1.92-4.8A19.46,19.46,0,0,1,12,17c.48-.16.72-.34.72-.53s-.14-.33-.43-.33c-2.18,0-4.74,1.32-7.68,4S0,25.39,0,27.6a3.69,3.69,0,0,0,1.73,3.26,6.23,6.23,0,0,0,3.69,1c3.24,0,6.48-1.39,9.75-4.17a28.36,28.36,0,0,0,3.67-3.82A36.82,36.82,0,0,0,22,19.25c.93,1.21,1.84,2.33,2.72,3.33s1.81,2,2.8,3q4.28,4.19,6.77,4.18a2.17,2.17,0,0,0,1.59-.67,2.3,2.3,0,0,0,.62-1.68C36.48,26.13,36.21,25.49,35.66,25.49Z"/><path class="cls-1" d="M43.2,16.61a1.5,1.5,0,0,0,1.1-.48,1.4,1.4,0,0,0,.44-1A1,1,0,0,0,43.58,14a1.52,1.52,0,0,0-1.1.48,1.37,1.37,0,0,0-.43,1A1,1,0,0,0,43.2,16.61Z"/><path class="cls-1" d="M66,16.61a1.52,1.52,0,0,0,1.11-.48,1.43,1.43,0,0,0,.43-1A1,1,0,0,0,66.34,14a1.52,1.52,0,0,0-1.11.48,1.37,1.37,0,0,0-.43,1A1,1,0,0,0,66,16.61Z"/><path class="cls-1" d="M89.86,22.9q-.15,0-.48.48c-1.86,2.68-3.41,4-4.66,4-.86,0-1.3-.83-1.3-2.5a8,8,0,0,1,.08-1c0-.38.1-.83.16-1.34s.12-.95.17-1.32a7.05,7.05,0,0,0,.07-.94c0-.61-.24-.91-.72-.91a2,2,0,0,0-1.53.91c-1,1.22-1.79,2.3-2.47,3.24S77.92,25.33,77.47,26c.16-1.19.3-2.23.41-3.15s.23-1.67.36-2.28A14.15,14.15,0,0,0,78.5,19a8.27,8.27,0,0,0,.08-.93c0-.58-.26-.87-.77-.87a1.89,1.89,0,0,0-1.49.87l-5.28,7q1.11-3.41,1.68-5.23a16.45,16.45,0,0,0,.58-2.06c0-.2-.12-.29-.34-.29a1.84,1.84,0,0,0-1,.33,1.67,1.67,0,0,0-.43.39,1.51,1.51,0,0,0-.19.29l-.27,1.24c0,.23-.09.45-.12.68-.24,1-.48,1.89-.72,2.74l-.81,1a15.06,15.06,0,0,1-1.32,1.58c-.44.45-.84.85-1.23,1.2a6,6,0,0,1-1.73,1.13,4,4,0,0,1-1.53.36c-.83,0-1.25-.57-1.25-1.73a8,8,0,0,1,.67-3,20.42,20.42,0,0,1,1.73-3.29,1.29,1.29,0,0,0,.19-.67.84.84,0,0,0-.24-.62,1.09,1.09,0,0,0-.77-.39.82.82,0,0,0-.67.44q-.48.72-.93,1.56a14.39,14.39,0,0,0-.89,2c-.17.44-.31.85-.43,1.24h0c-.68.84-1.27,1.52-1.78,2.07-1.57,1.57-2.86,2.35-3.89,2.35s-1.58-.56-1.58-1.68a7.81,7.81,0,0,1,.31-2.06A18,18,0,0,1,55.2,22a20.89,20.89,0,0,1,1.37-2.54,7.81,7.81,0,0,1,.6-.87,1.14,1.14,0,0,0-.34-.86,1.07,1.07,0,0,0-.77-.34c-.22,0-.6.32-1.15,1a2.19,2.19,0,0,1-1.68.92c-.83,0-1.39-.5-1.68-1.49,1.31-1.57,2-2.74,2-3.51a2,2,0,0,0-.1-.64,4.7,4.7,0,0,0-.24-.65c-.28-.58-.59-.87-.91-.87q-.77,0-1.29,1.83a9,9,0,0,0-.44,2.54,4.73,4.73,0,0,0,0,.58,4,4,0,0,0,.07.48c-.64,1.34-1.27,2.56-1.9,3.65-.49.85-1,1.6-1.45,2.29l-.59.73a13,13,0,0,1-1.32,1.58c-.43.45-.84.85-1.22,1.2a6.1,6.1,0,0,1-1.73,1.13,4,4,0,0,1-1.53.36c-.84,0-1.25-.57-1.25-1.73a8,8,0,0,1,.67-3,19.65,19.65,0,0,1,1.73-3.29,1.29,1.29,0,0,0,.19-.67.84.84,0,0,0-.24-.62,1.1,1.1,0,0,0-.77-.39.82.82,0,0,0-.67.44c-.32.48-.63,1-.94,1.56a14.45,14.45,0,0,0-.88,2,12.52,12.52,0,0,0-1,3.93c0,1.89.88,2.83,2.64,2.83s4.21-1.71,6.87-5.09a13.6,13.6,0,0,0,1.86-2.49c.45-.67.84-1.3,1.18-1.87a15.23,15.23,0,0,0,.79-1.54c0,.42.29.82.86,1.2a3,3,0,0,0,1.49.48l.34,0,.29-.07c-.26.41-.56,1-.92,1.68a13.67,13.67,0,0,0-.88,2.28,8.2,8.2,0,0,0-.36,2.32,3.58,3.58,0,0,0,.64,2.21,2.69,2.69,0,0,0,2.28.87,6.41,6.41,0,0,0,4.42-2.16A12.38,12.38,0,0,0,60.61,26a5.85,5.85,0,0,0-.08.87c0,1.89.88,2.83,2.64,2.83s4-1.58,6.58-4.72c-.35,1.1-.69,2-1,2.85a.88.88,0,0,0,0,.39c0,.57.13.86.38.86s.29-.14.48-.43c.74-1.19,1.47-2.28,2.19-3.29s1.4-1.94,2-2.81c.51-.67,1-1.3,1.51-1.89a11.08,11.08,0,0,1,1.13-1.23c.09,0,.14.13.14.39a6,6,0,0,1-.1.86c-.06.42-.14.91-.24,1.49-.22,1.25-.38,2.31-.48,3.19s-.14,1.53-.14,1.94a5.53,5.53,0,0,0,.14,1.35.51.51,0,0,0,.44.19c.57,0,1.1-.45,1.58-1.34a28.62,28.62,0,0,1,2-3.29,12.83,12.83,0,0,1,1.9-2.23c0,.32-.05.62-.05.91v.81q0,5,2.26,5,1.48,0,3.45-1.92a17.68,17.68,0,0,0,1.49-1.59q.63-.76,1.2-1.53s0,0,0-.08a.43.43,0,0,0,.08-.21C90.1,23,90,22.9,89.86,22.9Z"/><path class="cls-1" d="M130.7,29.09l-.86.57a2.64,2.64,0,0,1-1.2.53c-.67,0-1-.57-1-1.73,0-1.95.87-5,2.59-9,1.6.74,2.4,1.42,2.4,2.06a.77.77,0,0,1-.14.39.59.59,0,0,0-.15.33.51.51,0,0,0,.58.58.81.81,0,0,0,.63-.43,2,2,0,0,0,.24-.82c0-1.12-1-2.17-3.08-3.17a79.48,79.48,0,0,1,9.08-15,.93.93,0,0,0,.09-.24c0-.16-.21-.24-.62-.24a3.07,3.07,0,0,0-2.31.72,30.76,30.76,0,0,0-2.81,4.15,67.3,67.3,0,0,0-3.28,6.55l-1.54,3.46a36,36,0,0,0-6.53-1.35q2.31-6,2.31-9.31c0-2.08-.74-3.12-2.21-3.12a6.49,6.49,0,0,0-2.3.58C119.52,5,119,5.44,119,5.86s.1.43.29.43a7.36,7.36,0,0,0,1-.53,3.55,3.55,0,0,1,1.59-.53c.8,0,1.2.63,1.2,1.87q0,3-2.5,9.17l-1.39-.07c-.51,0-1.06,0-1.63,0a65.15,65.15,0,0,0-7.66.43A42.08,42.08,0,0,0,103,18q-9.75,2.73-9.75,8.64a5.72,5.72,0,0,0,2.69,5,10,10,0,0,0,5.67,1.59A14.85,14.85,0,0,0,107.28,32a25.05,25.05,0,0,0,6.34-4,38.46,38.46,0,0,0,4.89-4.8,31.08,31.08,0,0,0,3.7-5.52,35.56,35.56,0,0,1,6.67,1.25q-2.55,6.35-2.55,9.31c0,2,.74,2.93,2.21,2.93a3.56,3.56,0,0,0,1.63-.57c.64-.36,1-.71,1-1.06A.38.38,0,0,0,130.7,29.09Zm-18.24-2q-5.65,4.95-10.84,4.94a8,8,0,0,1-4.47-1.2A4.29,4.29,0,0,1,94.94,27c0-3.56,3-6.16,9.12-7.83a50,50,0,0,1,13.44-1.73q.68,0,1.32,0c.43,0,.83,0,1.18.07A32,32,0,0,1,112.46,27.12Z"/><path class="cls-1" d="M167.9,14a1.52,1.52,0,0,0-1.1.48,1.37,1.37,0,0,0-.43,1,1,1,0,0,0,1.15,1.15,1.52,1.52,0,0,0,1.1-.48,1.39,1.39,0,0,0,.43-1A1,1,0,0,0,167.9,14Z"/><path class="cls-1" d="M201.45,22.37a.31.31,0,0,0-.24.14L200.16,24a14.38,14.38,0,0,1-2.26,2.59A4.43,4.43,0,0,1,195,28a1.46,1.46,0,0,1-1.63-1.68,10.14,10.14,0,0,1,1.15-3.93l1.15-2.5c0-.67-.32-1-1-1a1.48,1.48,0,0,0-.77.29,11.38,11.38,0,0,0-1.58,1.44c-.67.71-1.38,1.46-2.11,2.26L188,25.32q-1,1.13-1.56,1.8a.2.2,0,0,0,0-.14,9,9,0,0,1,.77-2.36l.62-1.48a3.7,3.7,0,0,1,.39-.77c.79-.8,1.59-1.54,2.37-2.21s1.38-1.2,1.8-1.58c1.79-1.64,3.29-3,4.49-4.25s2.15-2.19,2.86-2.95q5-5.52,5-8.6c0-1.56-.69-2.35-2.07-2.35q-3.74,0-9.55,9.27-1.92,3-3.62,6.21t-3.24,6.75c0,.07-.06.13-.09.21l-.25.34-1.05,1.46a10.71,10.71,0,0,1-.82,1c-1.28,1.41-2.26,2.11-2.93,2.11-1,0-1.49-1.15-1.49-3.45a10.89,10.89,0,0,1,1.16-5.62.72.72,0,0,1,.48-.34c.22,0,.33-.08.33-.14a.63.63,0,0,0-.14-.34,2.75,2.75,0,0,0-2.5-1.2,3.46,3.46,0,0,0-.77.1q-.37.09-.81.24-2.31.81-4.66,4.32a18.82,18.82,0,0,0-1.56,2.73l-.12.15a15.06,15.06,0,0,1-1.32,1.58c-.43.45-.84.85-1.22,1.2a6.1,6.1,0,0,1-1.73,1.13,4.09,4.09,0,0,1-1.54.36c-.83,0-1.24-.57-1.24-1.73a8,8,0,0,1,.67-3,19.65,19.65,0,0,1,1.73-3.29,1.39,1.39,0,0,0,.19-.67.84.84,0,0,0-.24-.62,1.1,1.1,0,0,0-.77-.39.81.81,0,0,0-.67.44c-.32.48-.63,1-.94,1.56a15.64,15.64,0,0,0-.89,2c-.16.43-.3.84-.42,1.22l-1,1.22c-1.28,1.54-2.25,2.31-2.92,2.31-1,0-1.54-1.22-1.54-3.65a18.5,18.5,0,0,1,.29-3.17Q168.92,7.35,168.91,2.3c0-1.53-.67-2.3-2-2.3q-3.12,0-6.38,6.72a44,44,0,0,0-1.87,4.46q-.87,2.4-1.68,5.19a4.58,4.58,0,0,0-3,.89,13.89,13.89,0,0,0-3.12,3.09,15.67,15.67,0,0,0-2.66,4.73c-.2.26-.38.47-.5.6-1.28,1.41-2.26,2.11-2.93,2.11-1,0-1.49-1.15-1.49-3.45a10.9,10.9,0,0,1,1.15-5.62.76.76,0,0,1,.48-.34c.23,0,.34-.08.34-.14a.58.58,0,0,0-.15-.34,2.73,2.73,0,0,0-2.49-1.2,3.39,3.39,0,0,0-.77.1A8.12,8.12,0,0,0,141,17q-2.29.81-4.65,4.32t-2.4,6c0,1.09.49,1.63,1.49,1.63q2.44,0,5.71-5.71c0,.26-.06.5-.07.74s0,.48,0,.7q0,4.13,2.93,4.13a4,4,0,0,0,1.73-.43,8.25,8.25,0,0,0,2.15-1.9c0,.23,0,.47,0,.7,0,1.08.5,1.63,1.49,1.63q2.53,0,6.29-6.67a15,15,0,0,0-.29,2.78q0,3.79,2.49,3.79,2.17,0,4.4-2.76a5.49,5.49,0,0,0-.08.84c0,1.89.88,2.83,2.64,2.83s3.57-1.26,5.76-3.75a6.42,6.42,0,0,0-.19,1.45c0,1.09.5,1.63,1.49,1.63,1.63,0,3.54-1.9,5.71-5.71,0,.26-.05.5-.07.74s0,.48,0,.7q0,4.13,2.92,4.13a3.91,3.91,0,0,0,1.73-.43,8.33,8.33,0,0,0,2.31-2.07c.24-.28.45-.58.68-.86-.13.32-.25.63-.35.91a7.28,7.28,0,0,0-.53,2c0,.41.44.62,1.3.62a2.1,2.1,0,0,0,1.25-.38,35.61,35.61,0,0,1,2.88-4,25,25,0,0,1,2-2.2c.67-.68,1.23-1.22,1.68-1.64a14.9,14.9,0,0,0-1,2.72,9.58,9.58,0,0,0-.4,2.52c0,2.08.86,3.12,2.59,3.12A5.29,5.29,0,0,0,198,27.58a22,22,0,0,0,3.36-4,3.32,3.32,0,0,0,.43-.77.3.3,0,0,0,0-.34A.36.36,0,0,0,201.45,22.37Zm-10-7.2c1-1.92,2.1-3.79,3.19-5.62q4.76-8,7.34-8c.7,0,1.06.53,1.06,1.59q0,2.73-5.62,9.21a57.26,57.26,0,0,1-4.73,5,48.35,48.35,0,0,1-3.91,3.31Q189.89,18,191.45,15.17Zm-30.6-6q2.93-7.83,5.32-7.83c.58,0,.87.36.87,1.06q0,4.41-9.31,17A74.16,74.16,0,0,1,160.85,9.17ZM141.12,22.08A32.88,32.88,0,0,1,139,25.34,9.51,9.51,0,0,1,137.47,27a2.11,2.11,0,0,1-1.25.6c-.45,0-.67-.33-.67-1,0-1.53,1-3.47,2.93-5.8,1.34-1.64,2.67-2.45,4-2.45a1.2,1.2,0,0,1,.43.05A25.3,25.3,0,0,1,141.12,22.08Zm14.95-2.4a22.82,22.82,0,0,1-1.18,2.21c-.48.83-.88,1.53-1.22,2.09a10,10,0,0,1-.84,1.22c-1.09,1.44-2,2.16-2.74,2.16-.48,0-.72-.35-.72-1.06,0-1.34.76-3,2.26-5s2.9-3,4.18-3c.32,0,.49,0,.52.14s.06.05.08.05,0,0,0,.09A3.66,3.66,0,0,1,156.07,19.68Zm21.43,2.4a32.88,32.88,0,0,1-2.16,3.26A9.51,9.51,0,0,1,173.85,27a2.09,2.09,0,0,1-1.24.6c-.45,0-.68-.33-.68-1,0-1.53,1-3.47,2.93-5.8,1.35-1.64,2.67-2.45,4-2.45a1.23,1.23,0,0,1,.43.05A25.32,25.32,0,0,1,177.5,22.08Z"/></g></g></svg>