<svg xmlns="http://www.w3.org/2000/svg" viewBox="0 0 987.22 1717.17"><defs><style>.cls-1{fill:#f3f1e7;}</style></defs><g id="Layer_2" data-name="Layer 2"><g id="Layer_1-2" data-name="Layer 1"><path class="cls-1" d="M908.74,96.55s-7.78-18-8.2-28.69,1.58-50,1.58-50L905,0,883.59,11.58l-21-9.92S833-.41,814.14.87,776.23,12,776.23,12L771,30,770,4.74,753.46,3.18s-11.12,2.11-19.81,6.21-32.38,1.8-32.38,1.8l-18.5-5.25L677.55,23.4,654.1,12s8.1-4.08-20.05.25S591.72,16,591.72,16l-22.45-.73s-20.91-6.71-35.89,2.48-27.46,37.06-27.46,37.06l13.17-40.27-34.74,1.9-35.76,5.7s-36.62-8.51-35.73-.76-4.46,14.15-4.46,14.15l-8.48,17,1.5-37.12-22.68.88,4.66,36.08,13.32,8.88s-17.46-1.47-19.35-12.14S367.67,35,365.89,34.78s-34.51,0-35.69,0-53.64-6.22-53.64-6.22l-2.85,17.57-1-25.75-9.21,5.73-53.93,9.09-20.32-6.72L169.46,50.79,168.05,75,153.22,27.79s-20.64.27-23,.36-35.16-8.83-35.16-8.83-7.13,13.71-7,17.46,5.77,26.64-3.55,14.65-13.32-23.66-16.24-23S15.73,42.3,12.83,43.49,1.11,45.56,1.11,45.56L0,77.56l29.08,64.67s23.33,8.22,23.54,13.58c0,0-1-7.61-32.54-13.5L15.29,182,20.4,207,17,224.89,6.22,236.6l3.72,19.73,18,7.35L2.22,255l19.33,11.6s-8.33,13.21-7.64,15.87S35.52,306.9,35.52,306.9l.71,33.27S35.79,359,38.14,358.9s-2.94,15.16-2.94,15.16L17.33,445.13,26.83,477l19.72-8.83,1.49-7s1.74,14.43-3.54,15.18-20.26,9.92-20.26,9.92,26.72,155.28,35,155l14.14-.56L52.9,660.76s-22.47,28.81-4.21,43.14,17.7,90.63,17.7,90.63,23.9,7.66,26.55,15.08-7.49,19.63-13.38,19.86-15.74-10.13-15.74-10.13l1.24,31.82s-11.43,9.41-11.3,12.63-8,68-8,68,22.16,84,25.74,85,20.24,4.58,21.58,8.82,17,12.23,17,12.23l-6.48,15.3s-35.39.31-35.18,5.67l1.43,36.47s-15.67,112.35,2,112.73,16.74,5.79,16.74,5.79l-13.84,38.15s-2.41,59.18-.94,66.65,27.43,37.6,31,38.54-7.58,17.48-7.58,17.48l-25.79,34.32s-37.16,45.5-2.12,66.69,18.68,85.22,18.68,85.22l-9.61,86.33L73,1717.17s66-31.59,78.27-20.25,19.82,23.93,28.95,16.06S203,1693.82,203,1693.82s27.22,2.16,30.84,4.16,17.88,4.68,17.88,4.68l6.45-46.46,17.5,55.28,56.09-14.1s15.14-4.89,23.6.15,20.83,19.6,46.12,2.49a285.26,285.26,0,0,1,49.7-26.65s36.14,19,45.56,18.63,40-3.71,40-3.71l-.59-15c-.12-3.22,13.46,12.36,13.46,12.36l6.16,5.13s43.37-6,55.15-6.45,25.84-3.16,32.91-3.44,17.25-11.41,27.85-11.83,40-3.71,43.51-3.85,20.37,7.8,20.37,7.8,34.9,17.42,42.06,19.56,51.14,10.1,51.14,10.1L885.71,1680s-1.6,19.4,3.15,20.29,25.92-1,25.92-1l30.66-.72s29.14-9.14,32.67-9.28-.88-22.53-.88-22.53,3.32-56-.82-61.21-25.51-38.75-25.51-38.75,4-17.35,12.21-19.82,19.44-15.8,19.44-15.8l4.67-31.34s-22.06-13.64-23-13.6,18.2-2.33,18.2-2.33-7.65-14.47-8.55-15-27.5-16.65-29.65-19,28.08,1.59,32.47.61,2.9-9,2.9-9-33-20.47-34.23-22.84-18.6-45.47-18.6-45.47l22.24,40.49,9.21-5.73s-7.81-18.76-8.08-25.74.53-46.75-.12-48.34-7.82-26.28-7.82-26.28l15.06-7.31,9.38-31.52s-10.53-13-18.27-14.6-30.83-3.89-30.83-3.89l44.92,2,.25-31.44-8.7-11.21s6.6-12.07,6.83-14-.92-23.33-.92-23.33l-3.13-27.28s-12.77,12.86-28.29-7-16.79-29.43-16.79-29.43l31-29.41s12.63-9.09,12.86-10.71,1.51-21.81,1.51-21.81L933.9,1034l15,5.33L934,1013.89l14.62-25.82L941,942.71l-4.46-23.47,4.33-17.62L932.21,870s9.19-13.79,9-17.54-2.73-17.09-2.73-17.09-12.14-16.37-9.26-18,20.88-9.31,22.27-11.51-11.45-66.44-12.23-71.24S937,705.69,937.18,703,947,682.47,947,682.47s-21.57-8.29-22.79-9.32S913.8,595.4,913.8,595.4s-3.14-19.75-1.74-21.69,12.25-26.26,12.51-27.08,5.78-48.57,5.78-48.57l-16.28-23.81,11.47-1s4.69-15.77,4.61-17.91,2.41-13.79-4.57-18.89-22-11.5-25.3-13.25,12.69-15,18.1-27.57S930.7,348.7,930.7,348.7l-25.36.19,26.48-9.36-7.46-9.65s-8.7-11.21-13.31-15.86-15.84-12.81-15.84-12.81l15.5-3.56,7,13.15s6.2-7.49,6.09-10.17-8.54-22.23-8.9-24.1-.94-23.87-.41-25.5,3.33-43.1-3-45.54-22-12.84-16.78-21.64,26.56-30,26.56-30S905,122.21,904.88,118.45,908.74,96.55,908.74,96.55Z"/></g></g></svg>