<svg xmlns="http://www.w3.org/2000/svg" viewBox="0 0 878.16 1664.43"><defs><style>.cls-1{fill:#836435;}</style></defs><g id="Layer_2" data-name="Layer 2"><g id="Layer_1-2" data-name="Layer 1"><path class="cls-1" d="M22.13,106s6.64-17.75,6.64-28.2-3.32-48.55-3.32-48.55L22.13,12,42.61,22.45,62,12S89.64,8.88,107.35,9.4s36,9.4,36,9.4L148.85,36V11.49l15.49-2.15s10.52,1.62,18.82,5.28,30.43.52,30.43.52l17.15-5.8,5.54,16.77,21.58-12s-7.75-3.66,18.81-.53,39.84,2.09,39.84,2.09l21-1.56s19.37-7.31,33.75,1,27.12,35,27.12,35L384.57,11.49l32.65.52L451,16.19s34-9.66,33.47-2.09,4.71,13.57,4.71,13.57l8.57,16.19L495,7.83h21.3l-3,35.24-12.18,9.14s16.33-2.09,17.71-12.53,8.58-14.1,10.24-14.36S561.37,24,562.47,24s50.08-8.1,50.08-8.1l3.32,17V7.83l8.86,5.22,50.9,6.79,18.82-7.31,19.36,20.88L716,56.91,728.2,10.44s19.37-.52,21.58-.52S782.43,0,782.43,0s7.19,13.05,7.19,16.71-4.42,26.1,3.88,14.09,11.62-23.49,14.38-23,49.8,11.49,52.57,12.53,11.07,1.57,11.07,1.57L873.73,53l-24.9,64s-21.58,8.88-21.58,14.1c0,0,.69-7.44,30-14.36l6,38.38-3.88,24.54,3.88,17.23,10.51,11L871,227.12,854.36,235l23.8-9.4-17.71,12s8.3,12.53,7.75,15.14-19.37,24.54-19.37,24.54l.55,32.37s1.11,18.27-1.1,18.27,3.32,14.62,3.32,14.62L871,410.9l-7.74,31.33-18.82-7.84-1.66-6.78s-1.1,14.09,3.88,14.62S866,451.1,866,451.1,846.62,603,838.87,603H825.59l19.92,18.79S867.64,649,851,663.6s-13.28,88.76-13.28,88.76-22.13,8.35-24.34,15.66,7.74,18.8,13.28,18.8,14.38-10.44,14.38-10.44v31s11.07,8.71,11.07,11.84,10,65.79,10,65.79-17.71,82.49-21,83.53-18.81,5.22-19.92,9.4-15.49,12.53-15.49,12.53l6.64,14.62s33.2-1,33.2,4.18v35.5s18.81,108.6,2.21,109.64-15.49,6.27-15.49,6.27l14.39,36.55s4.42,57.43,3.32,64.74-24.35,37.59-27.67,38.63,7.75,16.71,7.75,16.71l25.45,32.37s36.52,42.82,4.43,64.74-14.39,83.54-14.39,83.54l12.17,83.54,7.75,67.87s-63.08-28.19-74.15-16.7-17.7,24-26.56,16.7-22.13-17.75-22.13-17.75-25.46,3.13-28.78,5.22-16.6,5.22-16.6,5.22l-7.74-44.9-14.39,54.39L622,1639.94s-14.39-4.17-22.13,1-18.82,19.84-43.17,4.18a262.93,262.93,0,0,0-47.58-24S475.88,1641,467,1641s-37.62-2.09-37.62-2.09v-14.62c0-3.13-12.18,12.53-12.18,12.53l-5.59,5.22s-40.89-4.17-52-4.17-24.34-2.09-31-2.09-16.6-10.44-26.56-10.44-37.63-2.09-40.95-2.09-18.82,8.35-18.82,8.35-32.09,18.26-38.73,20.62S156,1664,156,1664l-54.22-19.84s2.21,18.8-2.22,19.84-24.35,0-24.35,0l-28.77.47s-27.67-7.78-31-7.78,0-21.93,0-21.93-5.16-54.3-1.47-59.52,22.5-38.63,22.5-38.63-4.43-16.71-12.17-18.8-18.82-14.62-18.82-14.62L0,1472.87s20.2-14.1,21-14.1-17.16-1.56-17.16-1.56,6.64-14.36,7.47-14.88,25.18-17.23,27.12-19.58-26.29,2.61-30.44,1.82S5,1416,5,1416s30.16-21.15,31.26-23.49S52,1347.56,52,1347.56l-19.36,40.21-8.86-5.22s6.64-18.54,6.64-25.33-2.21-45.42-1.66-47,6.37-25.84,6.37-25.84l-14.39-6.53-10-30.28s9.41-13,16.6-14.88,28.77-5,28.77-5l-42,3.65-1.38-30.54,7.74-11.22s-6.64-11.49-6.91-13.32,0-22.71,0-22.71L15.49,1127s12.45,12,26.29-7.83,14.66-29.24,14.66-29.24l-30.16-27.41s-12.17-8.35-12.45-9.92-2.21-21.14-2.21-21.14l21.3-13.32-13.83,5.75,13-25.33L17.43,974,23,929.62l3.32-23-4.7-17,6.92-31.06s-9.13-13.05-9.13-16.71,1.93-16.71,1.93-16.71,10.79-16.38,8-17.84S9.41,799.09,8,797s8.3-65,8.86-69.7,1.1-28.2.83-30.81-10-19.58-10-19.58,19.92-8.87,21-9.92,6.92-76,6.92-76,2.21-19.32.83-21.15S24.07,544.82,23.79,544s-7.19-47-7.19-47L31,473.29l-10.79-.52s-5-15.14-5-17.23S12.45,442.23,18.81,437,39,425,42.05,423.17s-12.45-14.1-18-26.11S10.79,351.9,10.79,351.9l23.79-.78L9.41,343l6.64-9.66s7.74-11.23,11.89-15.93,14.39-13.05,14.39-13.05l-14.66-2.87-6.09,13.05s-6.09-7.05-6.09-9.66S22.69,283,23,281.16s0-23.24-.55-24.8-4.7-41.77,1.11-44.38,20.19-13.32,14.94-21.67-26-28.2-26-28.2,14.11-31.32,14.11-35S22.13,106,22.13,106Z"/></g></g></svg>