<svg xmlns="http://www.w3.org/2000/svg" viewBox="0 0 243.6 74.1"><defs><style>.cls-1{fill:#836435;}</style></defs><g id="Layer_2" data-name="Layer 2"><g id="Layer_8" data-name="Layer 8"><path class="cls-1" d="M72.69,72.08h-.63a26.77,26.77,0,0,1-16.2-5.77,17,17,0,0,1-6.51-10,11.77,11.77,0,0,1,2.12-10.13,10.23,10.23,0,0,1,7.47-4c.36,0,.72,0,1.07,0a12,12,0,0,1,7.51,2.69,9.37,9.37,0,0,1,2.74,3.28,7.08,7.08,0,0,1,.7,3.79v.11l.08.07.79.61a7.72,7.72,0,0,1,3,4.56,5.61,5.61,0,0,1-1.15,4.76,7.89,7.89,0,0,1-3.51,2.56,11.5,11.5,0,0,1-4.07.68l-.94,0a14.11,14.11,0,0,1-2.85-.44,5.2,5.2,0,0,1-1.7-.63.47.47,0,0,1-.12-.19.17.17,0,0,1,0-.07.33.33,0,0,1,.14,0,4,4,0,0,1,.87.16,15,15,0,0,0,1.73.4,16.54,16.54,0,0,0,2.73.24,11.84,11.84,0,0,0,3.23-.43,7.9,7.9,0,0,0,4.11-2.68,4.9,4.9,0,0,0,1-4.42A8.63,8.63,0,0,0,71,52.77l-.22-.17-.1.26a9.58,9.58,0,0,1-.58,1.36,6.49,6.49,0,0,1-.73,1.14,8.36,8.36,0,0,1-5.06,3.13,9,9,0,0,1-1.73.18,5.15,5.15,0,0,1-3.27-1.05,3.45,3.45,0,0,1-1.43-2.46,3.82,3.82,0,0,1,.88-2.8A6.48,6.48,0,0,1,63.62,50c.25,0,.51,0,.76,0a11.49,11.49,0,0,1,5.7,1.63l.28.16,0-.32a6,6,0,0,0-.49-2.94A6.2,6.2,0,0,0,68,46.15,10.17,10.17,0,0,0,61.57,44a14,14,0,0,0-2,.15,11.56,11.56,0,0,0-7.73,4.31,9.74,9.74,0,0,0-1.7,8.85,16.81,16.81,0,0,0,6.36,8.93,20.54,20.54,0,0,0,13,4.27h.31c5.08-.06,11.54-1.65,19.22-4.71l.46-.19L89,65.41a26.93,26.93,0,0,1-3-1.5A25.6,25.6,0,0,1,83.09,62c-3.69-2.87-6-6.1-6.87-9.58a10.51,10.51,0,0,1,2-9.42,9.17,9.17,0,0,1,7.56-3.62h.06a15.11,15.11,0,0,1,9.32,3.55,13.56,13.56,0,0,1,4.94,6.55,6.52,6.52,0,0,1-1,6.19q-.34.39-.66.69a8,8,0,0,1-.77.6l-.11.07,0,.13a16.31,16.31,0,0,1,.17,2c0,.74-.09.9-.11.92s0,0,0,0a7.25,7.25,0,0,1-.3-1.1c-.09-.49-.18-.91-.26-1.24l-.06-.26-.23.13a10.38,10.38,0,0,1-5,1.3c-.34,0-.69,0-1,0a11.3,11.3,0,0,1-5.83-2.44A7.52,7.52,0,0,1,82,52.62a3.87,3.87,0,0,1,.7-3.64,4.48,4.48,0,0,1,3.72-1.73h.41a10.18,10.18,0,0,1,5.58,2.4,16.31,16.31,0,0,1,2.91,2.9A14.41,14.41,0,0,1,97.25,56l.09.24.22-.15a6.6,6.6,0,0,0,.62-.53c.17-.18.34-.38.5-.58a5.72,5.72,0,0,0,.85-5.32,10.66,10.66,0,0,0-3.9-5.43,13.67,13.67,0,0,0-8.56-3l-.81,0A10.23,10.23,0,0,0,78.35,45,8.55,8.55,0,0,0,77,53a16.27,16.27,0,0,0,6,8.28,22.18,22.18,0,0,0,3.4,2.18,25.64,25.64,0,0,0,4,1.63l.07,0,.06,0A78.2,78.2,0,0,1,109,60.58c1.19-.11,2.3-.16,3.32-.16,3.4,0,5.92.61,7.48,1.83a2.59,2.59,0,0,1,1.12,1.57,2.36,2.36,0,0,1-.63,1.73c-1.45,1.86-4.82,3-10,3.4-1,.08-2,.11-3.08.11a52.66,52.66,0,0,1-13.93-2l-.07,0-.07,0c-7.67,3.35-14.54,5-20.41,5Zm41.92-10.53a31,31,0,0,0-4.28.35A72.46,72.46,0,0,0,94.7,66.43l-.58.23.6.15A49.94,49.94,0,0,0,107,68.46c1.1,0,2.19,0,3.25-.13,4.81-.41,7.93-1.48,9.27-3.19a2,2,0,0,0,.51-1.33,1.57,1.57,0,0,0-.69-1.13,7.85,7.85,0,0,0-4.74-1.13ZM86.5,47.93a3.9,3.9,0,0,0-3.25,1.48,3.46,3.46,0,0,0-.59,3.25A6.64,6.64,0,0,0,85.11,56a10.63,10.63,0,0,0,5.78,2.36l.66,0a9.16,9.16,0,0,0,5.09-1.58l.13-.08,0-.14a12.39,12.39,0,0,0-1.66-3.43,13,13,0,0,0-2.62-2.74A10.49,10.49,0,0,0,87.16,48a5,5,0,0,0-.66,0ZM64.58,50.52l-.64,0a6.32,6.32,0,0,0-4.77,2.36,3.05,3.05,0,0,0-.65,2.27,2.84,2.84,0,0,0,1.12,2,4.66,4.66,0,0,0,3,1A8,8,0,0,0,64.3,58a7.77,7.77,0,0,0,4.58-2.83,7.69,7.69,0,0,0,.78-1.25,10.33,10.33,0,0,0,.59-1.46l0-.15-.13-.08a10.93,10.93,0,0,0-5.58-1.67Z"/><path class="cls-1" d="M170.64,72c-5.87,0-12.73-1.69-20.41-5l-.06,0-.07,0a52.42,52.42,0,0,1-13.94,2c-1,0-2.07,0-3.07-.11-5.19-.4-8.55-1.54-10-3.4a2.38,2.38,0,0,1-.64-1.74,2.66,2.66,0,0,1,1.13-1.56c1.56-1.22,4.07-1.83,7.47-1.83,1,0,2.14.05,3.32.16A78.08,78.08,0,0,1,152.78,65l.07,0,.06,0a24.82,24.82,0,0,0,4-1.64,22.34,22.34,0,0,0,3.4-2.17,16.37,16.37,0,0,0,6-8.28A8.57,8.57,0,0,0,165,45a10.26,10.26,0,0,0-7.92-3.84c-.27,0-.54,0-.81,0a13.69,13.69,0,0,0-8.55,3,10.57,10.57,0,0,0-3.9,5.44,5.66,5.66,0,0,0,1.35,5.9,5.53,5.53,0,0,0,.62.53l.21.15.09-.24a14.81,14.81,0,0,1,1.95-3.4,15.92,15.92,0,0,1,2.9-2.9,10.18,10.18,0,0,1,5.58-2.4h.41a4.47,4.47,0,0,1,3.72,1.72,3.9,3.9,0,0,1,.71,3.65,7.63,7.63,0,0,1-2.85,3.83,11.41,11.41,0,0,1-5.83,2.44c-.35,0-.7,0-1,0a10.34,10.34,0,0,1-5-1.3l-.23-.13-.06.25c-.09.34-.17.76-.26,1.26a7.94,7.94,0,0,1-.31,1.09l0-.05s-.12-.2-.11-.93a16.09,16.09,0,0,1,.16-2l0-.13-.1-.07a6.68,6.68,0,0,1-.77-.61,8.9,8.9,0,0,1-.67-.69,6.53,6.53,0,0,1-1.05-6.18,13.56,13.56,0,0,1,4.94-6.55,15.14,15.14,0,0,1,9.32-3.56h.06a9.2,9.2,0,0,1,7.56,3.63,10.48,10.48,0,0,1,2,9.42c-.87,3.48-3.18,6.7-6.86,9.58a25.71,25.71,0,0,1-2.87,1.93,26.93,26.93,0,0,1-3,1.5l-.46.19.46.18c7.68,3.07,14.14,4.66,19.22,4.72h.32a20.57,20.57,0,0,0,13-4.27,16.81,16.81,0,0,0,6.37-8.93,9.75,9.75,0,0,0-1.71-8.85,11.56,11.56,0,0,0-7.73-4.31,13.88,13.88,0,0,0-2-.15,10.2,10.2,0,0,0-6.43,2.15,6.11,6.11,0,0,0-1.88,2.35,6,6,0,0,0-.5,2.94l0,.32.28-.16A11.35,11.35,0,0,1,179,49.91c.26,0,.51,0,.77,0a6.46,6.46,0,0,1,4.85,2.37,3.82,3.82,0,0,1,.89,2.8A3.55,3.55,0,0,1,184,57.57a5.15,5.15,0,0,1-3.27,1,8.83,8.83,0,0,1-1.72-.18A8.33,8.33,0,0,1,174,55.31a6.72,6.72,0,0,1-.74-1.14,11.58,11.58,0,0,1-.58-1.36l-.09-.26-.22.17a8.48,8.48,0,0,0-3.27,4.41,4.88,4.88,0,0,0,1,4.41,7.78,7.78,0,0,0,4.11,2.69,11.79,11.79,0,0,0,3.23.43,16.52,16.52,0,0,0,2.72-.24,16.21,16.21,0,0,0,1.73-.4,4,4,0,0,1,.88-.16l.14,0a.19.19,0,0,1,0,.07.51.51,0,0,1-.14.21,5.39,5.39,0,0,1-1.68.61,14.75,14.75,0,0,1-2.84.44l-1,0a11.5,11.5,0,0,1-4.07-.68A8,8,0,0,1,169.65,62a5.61,5.61,0,0,1-1.14-4.76,7.7,7.7,0,0,1,3-4.56l.79-.61.09-.07v-.11a7,7,0,0,1,.69-3.79,9.47,9.47,0,0,1,2.74-3.28,12,12,0,0,1,7.51-2.7c.36,0,.72,0,1.08.05a10.2,10.2,0,0,1,7.46,4A11.8,11.8,0,0,1,194,56.29a16.92,16.92,0,0,1-6.52,10A26.72,26.72,0,0,1,171.28,72ZM128.73,61.49A7.82,7.82,0,0,0,124,62.63a1.59,1.59,0,0,0-.7,1.13,2,2,0,0,0,.52,1.32c1.33,1.72,4.45,2.79,9.26,3.2,1.06.09,2.16.13,3.26.13a49.86,49.86,0,0,0,12.28-1.65l.61-.15-.58-.23A71.8,71.8,0,0,0,133,61.85a29.54,29.54,0,0,0-4.27-.36Zm28.11-13.61a5.12,5.12,0,0,0-.67,0,10.46,10.46,0,0,0-5.27,2.39,12.86,12.86,0,0,0-2.63,2.74,12.48,12.48,0,0,0-1.66,3.42l0,.15.12.08a9.18,9.18,0,0,0,5.09,1.58q.33,0,.66,0a10.51,10.51,0,0,0,5.78-2.35,6.58,6.58,0,0,0,2.45-3.29,3.48,3.48,0,0,0-.58-3.25,3.91,3.91,0,0,0-3.25-1.48Zm21.92,2.59a10.9,10.9,0,0,0-5.58,1.67l-.14.08.05.15a10.33,10.33,0,0,0,.58,1.46,7.91,7.91,0,0,0,.79,1.24A7.68,7.68,0,0,0,179,57.91a7.91,7.91,0,0,0,1.68.2,4.72,4.72,0,0,0,3-1,2.88,2.88,0,0,0,1.13-2,3,3,0,0,0-.65-2.27,6.34,6.34,0,0,0-4.77-2.36l-.64,0Z"/><path class="cls-1" d="M61.18,71.43l0,0c-.31-.18-1.18-.68-3.56-2a66.41,66.41,0,0,1-7.49-4.93c-1.18-.9-3-2.3-5.32-4.16a109.79,109.79,0,0,0-13.38-9.46,23.79,23.79,0,0,0-10.3-2.91A26.46,26.46,0,0,0,10.3,49.87c-4.08,1.61-7,4-8.78,7a10.34,10.34,0,0,0-.73,9.36,11.93,11.93,0,0,0,7.83,7.06,17.47,17.47,0,0,0,12.13-.57,13.76,13.76,0,0,0,5.11-3.28A7.43,7.43,0,0,0,27.94,65v-.09l.05,0,0,0a7.92,7.92,0,0,0,2.72-3.39,4.92,4.92,0,0,0,0-3.62,8.35,8.35,0,0,0-3.27-3.77c-1.83-1.22-2.75-1.37-3.21-1.25.24.16.86.54,2.4,1.43a7.64,7.64,0,0,1,3.49,3.69,4.56,4.56,0,0,1,.1,3.23,5.3,5.3,0,0,1-2.08,2.67l-.09.07L27.9,64l0-.18,0-.12c-.07-.3-.16-.61-.25-.92s-.2-.62-.32-.92a10.29,10.29,0,0,0-6-5.86,11.28,11.28,0,0,0-8.65-.1,6.47,6.47,0,0,0-3.53,2.94,4.62,4.62,0,0,0-.23,4c.89,2.24,2.94,3.74,6.1,4.45a17,17,0,0,0,10.05-1l1.73-.68.13,0,.22-.08,0,.22,0,.14a6.58,6.58,0,0,1-2,3.6,12.24,12.24,0,0,1-4.27,2.72A17.22,17.22,0,0,1,9,72.79a11.53,11.53,0,0,1-7.65-6.85,9.85,9.85,0,0,1,.78-9,16.5,16.5,0,0,1,8.52-6.71,20.52,20.52,0,0,1,8.61-1.53,22.19,22.19,0,0,1,8.62,2.44,59.88,59.88,0,0,1,7.84,5.44c3.67,2.84,6.63,5,8.79,6.52a78.15,78.15,0,0,0,10.87,6.38C59.41,71.39,60.76,71.6,61.18,71.43ZM27.07,64.81l-.12,0-.07,0c-.09,0-.25.12-.46.24a10.28,10.28,0,0,1-1.23.61,17.25,17.25,0,0,1-9.77,1.1c-3.13-.61-5.15-2-6-4.14a3.67,3.67,0,0,1,0-3,4.16,4.16,0,0,1,2.41-2c2.4-1,5.26-.8,8.5.43s5.37,3.06,6.3,5.43c.07.17.13.34.19.51s.12.37.18.58l0,.07Z"/><path class="cls-1" d="M188.26,69.47a80.52,80.52,0,0,0,10.87-6.39c2.16-1.48,5.11-3.68,8.78-6.51a61,61,0,0,1,7.84-5.45,22.19,22.19,0,0,1,8.62-2.44A20.66,20.66,0,0,1,233,50.21a16.5,16.5,0,0,1,8.52,6.71,9.87,9.87,0,0,1,.78,9,11.53,11.53,0,0,1-7.64,6.84,17.22,17.22,0,0,1-11.83-.61,12.27,12.27,0,0,1-4.28-2.71,6.61,6.61,0,0,1-2-3.6l0-.14,0-.23.22.08.13.05,1.73.69a17.07,17.07,0,0,0,10,1c3.16-.71,5.22-2.21,6.1-4.45a4.59,4.59,0,0,0-.23-4A6.44,6.44,0,0,0,231,55.91a11.28,11.28,0,0,0-8.65.11,10.26,10.26,0,0,0-6,5.86,8.85,8.85,0,0,0-.31.91c-.1.32-.18.63-.26.93l0,.11-.05.19-.16-.11-.09-.07a5.36,5.36,0,0,1-2.08-2.68,4.59,4.59,0,0,1,.1-3.22A7.6,7.6,0,0,1,217,54.25c1.55-.89,2.16-1.27,2.4-1.44-.46-.12-1.38,0-3.21,1.25a8.26,8.26,0,0,0-3.26,3.77,4.87,4.87,0,0,0,0,3.62,7.89,7.89,0,0,0,2.73,3.4l0,0,0,0V65a7.38,7.38,0,0,0,2.09,4.41,13.63,13.63,0,0,0,5.1,3.28,17.47,17.47,0,0,0,12.13.57,11.9,11.9,0,0,0,7.83-7.05,10.36,10.36,0,0,0-.72-9.37c-1.75-3-4.71-5.37-8.79-7a26.43,26.43,0,0,0-10.88-1.93,23.83,23.83,0,0,0-10.3,2.91,109,109,0,0,0-13.38,9.47c-2.34,1.85-4.13,3.25-5.32,4.15a63.78,63.78,0,0,1-7.49,4.93c-2.38,1.33-3.25,1.83-3.56,2l0,0C182.84,71.59,184.19,71.38,188.26,69.47Zm28.31-4.78,0-.08c.06-.2.12-.4.18-.57s.12-.35.19-.52c.93-2.37,3-4.2,6.3-5.43s6.1-1.37,8.5-.43a4.22,4.22,0,0,1,2.42,2,3.64,3.64,0,0,1,0,3c-.84,2.14-2.85,3.53-6,4.14a17.36,17.36,0,0,1-9.78-1.09,12.12,12.12,0,0,1-1.23-.61,3.31,3.31,0,0,0-.46-.25l-.07,0-.11,0Z"/><path class="cls-1" d="M115.51,56.75a.5.5,0,0,0,0,.56l.49.55a1.55,1.55,0,0,0,1.77-.25,4.27,4.27,0,0,0,1.37-1.37q1.72-2.76-.08-6.18a12.46,12.46,0,0,0-4.5-4.72q-1.38-.87-5.15-2.71-3.52-1.74-4.79-2.52a17,17,0,0,1-7.82-10.58A16.28,16.28,0,0,1,99,16.59a13,13,0,0,1,7.24-5.82,9.57,9.57,0,0,1,8.3,1,10.35,10.35,0,0,1,5,7.67,13.21,13.21,0,0,1-2.06,9.07,10.58,10.58,0,0,1-4.38,4.11,5.63,5.63,0,0,1-5.76-.26,5.92,5.92,0,0,1-2.84-4.43,7.76,7.76,0,0,1,1.22-5.22,6.14,6.14,0,0,1,5.16-3.13l.09.72a5.61,5.61,0,0,0-4.62,2.81,7.13,7.13,0,0,0-1.19,4.69,5.15,5.15,0,0,0,2.55,4,4.33,4.33,0,0,0,4.33.29,11.07,11.07,0,0,0,4.33-4.38,13.17,13.17,0,0,0,2.15-8.25,8.87,8.87,0,0,0-4.31-7.08,8.76,8.76,0,0,0-8.12-.8A12.92,12.92,0,0,0,99.64,17a14.73,14.73,0,0,0-2.2,11.37,13.79,13.79,0,0,0,2.43,5.23,16.57,16.57,0,0,0,4.62,4.13q1.56,1,4.87,2.66t4.86,2.65a15.13,15.13,0,0,1,5.59,5.87q2.19,4.21,0,7.73a6,6,0,0,1-2.15,2.07,2.59,2.59,0,0,1-2.8.09,2,2,0,0,1-.82-1.05,1.36,1.36,0,0,1,.09-1.25,1.11,1.11,0,0,1,.68-.51,2,2,0,0,1,1,.32Z"/><path class="cls-1" d="M127.38,56.32a1.9,1.9,0,0,1,1-.32,1.11,1.11,0,0,1,.68.51,1.39,1.39,0,0,1,.08,1.25,2,2,0,0,1-.82,1.05,2.59,2.59,0,0,1-2.8-.09,6,6,0,0,1-2.14-2.07q-2.2-3.52,0-7.73a15.2,15.2,0,0,1,5.59-5.87q1.56-1,4.87-2.65c2.2-1.12,3.83-2,4.87-2.66a16.57,16.57,0,0,0,4.62-4.13,13.62,13.62,0,0,0,2.42-5.23A14.73,14.73,0,0,0,143.51,17a12.9,12.9,0,0,0-6.39-5.44,8.76,8.76,0,0,0-8.12.8,8.84,8.84,0,0,0-4.31,7.08,13.17,13.17,0,0,0,2.15,8.25,11,11,0,0,0,4.33,4.38,4.34,4.34,0,0,0,4.33-.29,5.15,5.15,0,0,0,2.55-4,7.19,7.19,0,0,0-1.19-4.69,5.64,5.64,0,0,0-4.63-2.81l.09-.72a6.14,6.14,0,0,1,5.17,3.13,7.7,7.7,0,0,1,1.21,5.22,5.91,5.91,0,0,1-2.83,4.43,5.63,5.63,0,0,1-5.76.26,10.66,10.66,0,0,1-4.39-4.11,13.2,13.2,0,0,1-2-9.07,10.34,10.34,0,0,1,5-7.67,9.6,9.6,0,0,1,8.31-1,13,13,0,0,1,7.24,5.82,16.28,16.28,0,0,1,2.19,12.94,17,17,0,0,1-7.83,10.58c-.84.52-2.43,1.36-4.79,2.52s-4.22,2.13-5.15,2.71a12.46,12.46,0,0,0-4.5,4.72q-1.8,3.42-.08,6.18a4.37,4.37,0,0,0,1.37,1.37,1.57,1.57,0,0,0,1.78.25l.49-.55a.52.52,0,0,0,0-.56Z"/><path class="cls-1" d="M130.66,8A3.63,3.63,0,0,0,130,6a4.15,4.15,0,0,0-1.88-1.45,4.76,4.76,0,0,0-2.44-.27,5.34,5.34,0,0,0-2.9,1.5,7.18,7.18,0,0,0,.33-1.1,4.25,4.25,0,0,0-.26-2.44A9.14,9.14,0,0,0,121.55,0a9.14,9.14,0,0,0-1.28,2.25A4.26,4.26,0,0,0,120,4.69a6.69,6.69,0,0,0,.32,1.09,5.33,5.33,0,0,0-2.89-1.49,4.73,4.73,0,0,0-2.44.27A4.15,4.15,0,0,0,113.13,6a3.56,3.56,0,0,0-.68,2,3,3,0,0,0,.42,1.63,2.29,2.29,0,0,0,.95.89,1.81,1.81,0,0,0,1,.2,1.17,1.17,0,0,0,1.12-1.06.82.82,0,1,0-1.63-.14.73.73,0,0,0,0,.33,1.58,1.58,0,0,1-.41-.37,2,2,0,0,1-.42-1.12,2.56,2.56,0,0,1,.36-1.5,3.14,3.14,0,0,1,1.35-1.25,3.75,3.75,0,0,1,1.95-.38,4.74,4.74,0,0,1,3.38,1.94,5.39,5.39,0,0,1,.76,1.49,5.2,5.2,0,0,1,0,1A1.83,1.83,0,0,0,120.19,9a1.65,1.65,0,0,0-.85.09,1.43,1.43,0,0,0-.65.51,1.16,1.16,0,0,0-.24.69,1.07,1.07,0,0,0,.14.57.83.83,0,0,0,.34.31.66.66,0,0,0,.33.06.4.4,0,0,0,.39-.36.28.28,0,0,0-.26-.31.28.28,0,0,0-.31.26.2.2,0,0,0,0,.11.43.43,0,0,1-.14-.13.68.68,0,0,1-.15-.39.94.94,0,0,1,.13-.52,1,1,0,0,1,.47-.43,1.34,1.34,0,0,1,.68-.14,1.68,1.68,0,0,1,1.18.68.43.43,0,0,1,0,.07c-.08,1.21-.42,2.33-.42,3.21a3.86,3.86,0,0,0,.67,2.25,3.78,3.78,0,0,0,.67-2.25c0-.88-.33-2-.42-3.21l0-.07A1.66,1.66,0,0,1,123,9.27a1.34,1.34,0,0,1,.68.14,1.15,1.15,0,0,1,.47.43.85.85,0,0,1,.12.52.76.76,0,0,1-.14.39.58.58,0,0,1-.15.13.36.36,0,0,0,0-.11.29.29,0,0,0-.31-.26.28.28,0,0,0-.26.31.39.39,0,0,0,.39.36.68.68,0,0,0,.33-.06.88.88,0,0,0,.33-.31,1.18,1.18,0,0,0,.15-.57,1.31,1.31,0,0,0-.24-.69,1.49,1.49,0,0,0-.65-.51,1.65,1.65,0,0,0-.85-.09,1.89,1.89,0,0,0-1.14.66,7.82,7.82,0,0,1,0-1,5.39,5.39,0,0,1,.76-1.49A4.74,4.74,0,0,1,126,5.22a3.73,3.73,0,0,1,2,.38,3.17,3.17,0,0,1,1.36,1.25,2.56,2.56,0,0,1,.36,1.5,2.13,2.13,0,0,1-.42,1.12,1.76,1.76,0,0,1-.41.37.91.91,0,0,0,0-.33.82.82,0,1,0-1.64.14,1.18,1.18,0,0,0,1.12,1.06,1.8,1.8,0,0,0,.95-.2,2.37,2.37,0,0,0,1-.89A3,3,0,0,0,130.66,8Z"/></g></g></svg>