<?xml version="1.0" encoding="utf-8"?>
<!-- Generator: Adobe Illustrator 25.4.1, SVG Export Plug-In . SVG Version: 6.00 Build 0)  -->
<svg version="1.1" id="Layer_1" xmlns="http://www.w3.org/2000/svg" xmlns:xlink="http://www.w3.org/1999/xlink" x="0px" y="0px"
	 viewBox="0 0 773.2 149.1" style="enable-background:new 0 0 773.2 149.1;" xml:space="preserve">
<style type="text/css">
	.st0{fill:#826435;}
</style>
<path class="st0" d="M0,20.4h1.6c0.3-2.4,0.7-4.7,1.4-7c0.6-2,1.4-3.9,2.6-5.6C6.6,6.2,8,4.9,9.6,4c1.7-0.9,3.6-1.4,5.5-1.3H20v56.9
	h-8.8v1.6h30v-1.6h-8.8V2.7h4.9c1.9-0.1,3.8,0.4,5.5,1.3c1.6,0.9,3,2.2,4,3.7c1.1,1.7,2,3.6,2.6,5.6c0.7,2.3,1.2,4.6,1.4,7h1.6V1.2
	H0V20.4z"/>
<path class="st0" d="M67.5,14.1c1.8,0,3.6-0.7,4.9-2c1.3-1.3,2-3,2-4.8c0.1-3.7-2.9-6.8-6.6-6.8c-0.1,0-0.2,0-0.3,0
	c-1.8,0-3.6,0.7-4.8,2c-1.3,1.3-2,3-2,4.9c0,1.8,0.7,3.6,2,4.8C63.9,13.4,65.7,14.1,67.5,14.1z"/>
<polygon class="st0" points="73.1,24.4 56.5,24.4 56.5,25.9 61.9,25.9 61.9,59.6 56.5,59.6 56.5,61.2 78.5,61.2 78.5,59.6 
	73.1,59.6 "/>
<path class="st0" d="M104.8,57.1c-1,0.9-2.2,1.4-3.5,1.5c-1,0.1-1.9-0.4-2.4-1.2c-0.6-1.3-0.8-2.8-0.7-4.2V25.9h8.6v-1.6h-8.6V14
	c-1.7,0.9-3.4,1.5-5.3,1.8C91,16.2,89,16.4,87,16.4v8h-5.6V26H87v25.9c0,1.7,0.2,3.4,0.8,5.1c0.5,1.5,1.5,2.7,2.8,3.5
	c1.8,1,3.9,1.4,5.9,1.3c5.5,0.4,10.6-2.9,12.6-8l-1.4-0.7C107.1,54.6,106.1,56,104.8,57.1z"/>
<path class="st0" d="M135.9,54.8c0.2-0.5,0.4-1,0.6-1.5v1.5c-0.1,1.4,0.4,2.9,1.2,4.1c0.8,1.1,1.9,1.9,3.2,2.3
	c1.5,0.5,3,0.8,4.6,0.7c2.2,0.1,4.4-0.4,6.3-1.3c1.7-0.7,3-2,3.9-3.7l-1-1c-0.5,1-1.2,1.8-2.2,2.4c-0.7,0.5-1.5,0.7-2.4,0.8
	c-0.8,0.1-1.6-0.3-2-0.9c-0.4-0.7-0.6-1.5-0.5-2.3V36.8c0-2.3-0.5-4.7-1.6-6.7c-1.2-2.1-3.1-3.7-5.3-4.7c-3.1-1.3-6.4-1.8-9.8-1.7
	c-1.8,0-3.6,0.2-5.4,0.5c-1.7,0.3-3.3,0.8-4.9,1.5c-1.4,0.6-2.5,1.5-3.5,2.7c-0.9,1.1-1.4,2.5-1.3,3.9c-0.1,1.6,0.6,3.1,1.8,4.1
	c1.3,1,2.9,1.6,4.5,1.5c1.6,0,3.2-0.5,4.6-1.5c1.3-1,2.1-2.6,2-4.3c0.1-1.6-0.7-3.1-2-4c-1.3-0.9-3-1.4-4.6-1.4h-0.1
	c1.1-0.5,2.2-0.8,3.4-1.1c1.2-0.2,2.4-0.4,3.6-0.4c1.8-0.1,3.5,0.5,4.8,1.7c1.1,1.2,1.9,2.7,2.2,4.3c0.4,1.8,0.5,3.7,0.5,5.5v3.8
	h-5.8c-5.7,0-10.1,1-13.2,3.1c-2.9,1.8-4.7,5-4.6,8.4c-0.1,2.8,1.1,5.4,3.2,7.2c2.3,1.9,5.3,2.8,8.3,2.7c2.5,0.1,4.9-0.6,7-1.9
	C133.3,58.8,134.9,56.9,135.9,54.8z M129.6,57.7c-1,0-1.9-0.3-2.6-0.9c-0.7-0.7-1.2-1.5-1.5-2.5c-0.3-1.1-0.5-2.3-0.5-3.5
	c0-1.4,0.3-2.7,0.8-4c0.5-1.4,1.5-2.6,2.7-3.4c1.4-1,3.1-1.5,4.9-1.4h3.2v4.7c0.1,2.1-0.3,4.2-1,6.2c-0.5,1.4-1.4,2.7-2.6,3.6
	C131.9,57.3,130.7,57.7,129.6,57.7z"/>
<path class="st0" d="M183.7,59.6v1.6h20.8v-1.6H199v-24c0-2.1-0.3-4.2-0.9-6.2c-0.6-1.8-1.8-3.3-3.4-4.3c-1.6-1-3.9-1.6-7-1.6
	c-2.5-0.1-4.9,0.6-7,2c-1.8,1.3-3.4,3-4.4,5.1c-0.7,1.4-1.3,2.8-1.7,4.3V24.4h-16.5v1.6h5.4v33.7h-5.4v1.6h20.8v-1.6h-4.2V43.3
	c0-1.9,0.2-3.7,0.6-5.6c0.4-1.8,1-3.6,1.8-5.2c0.7-1.5,1.7-2.8,3-3.9c1.1-1,2.5-1.5,4-1.5c0.9-0.1,1.8,0.3,2.5,1
	c0.6,0.9,1,1.9,1.1,3c0.2,1.8,0.3,3.6,0.3,5.4v23L183.7,59.6z"/>
<polygon class="st0" points="230.8,59.6 225.3,59.6 225.3,24.4 208.7,24.4 208.7,25.9 214.1,25.9 214.1,59.6 208.7,59.6 208.7,61.2 
	230.8,61.2 "/>
<path class="st0" d="M219.7,14.1c1.8,0,3.6-0.7,4.9-2c1.3-1.3,2-3,2-4.8c0.1-3.7-2.9-6.8-6.6-6.8c-0.1,0-0.2,0-0.3,0
	c-1.8,0-3.6,0.7-4.8,2c-1.3,1.3-2,3-2,4.9c0,1.8,0.7,3.6,2,4.8C216.2,13.4,217.9,14.1,219.7,14.1z"/>
<path class="st0" d="M268.1,62c2.2,0.1,4.4-0.4,6.3-1.3c1.7-0.7,3-2.1,3.9-3.7l-1-1c-0.5,1-1.2,1.8-2.2,2.4
	c-0.7,0.5-1.5,0.7-2.4,0.8c-0.8,0.1-1.5-0.3-2-0.9c-0.4-0.7-0.6-1.5-0.5-2.3V36.8c0-2.3-0.5-4.7-1.6-6.7c-1.2-2.1-3.1-3.7-5.3-4.7
	c-3.1-1.3-6.4-1.8-9.8-1.7c-1.8,0-3.6,0.2-5.4,0.5c-1.7,0.3-3.3,0.8-4.9,1.5c-1.4,0.6-2.6,1.5-3.5,2.7c-0.9,1.1-1.4,2.5-1.3,3.9
	c-0.1,1.6,0.6,3.1,1.8,4.1c1.3,1,2.9,1.6,4.5,1.5c1.6,0,3.2-0.5,4.6-1.5c1.3-1,2.1-2.6,2-4.3c0.1-1.6-0.7-3.1-2-4
	c-1.3-0.9-2.9-1.4-4.6-1.4h-0.1c1.1-0.5,2.2-0.9,3.4-1.1c1.2-0.2,2.4-0.4,3.6-0.4c1.8-0.1,3.5,0.5,4.8,1.7c1.1,1.2,1.9,2.7,2.1,4.3
	c0.4,1.8,0.6,3.7,0.5,5.5v3.8h-5.8c-5.7,0-10.1,1-13.2,3.1c-2.9,1.8-4.7,5-4.6,8.4c-0.1,2.8,1,5.4,3.1,7.2c2.3,1.9,5.3,2.8,8.3,2.7
	c2.5,0.1,4.9-0.6,7-1.9c2.4-1.6,4.2-4,5.1-6.8v1.5c-0.1,1.4,0.4,2.9,1.2,4.1c0.8,1.1,1.9,1.9,3.2,2.3C265,61.8,266.6,62,268.1,62z
	 M258.1,52.9c-0.5,1.4-1.4,2.7-2.6,3.6c-0.9,0.7-2.1,1.2-3.3,1.2c-1,0-1.9-0.3-2.6-0.9c-0.7-0.7-1.2-1.5-1.5-2.5
	c-0.3-1.1-0.5-2.3-0.5-3.5c0-1.4,0.3-2.7,0.8-4c1.2-3.1,4.2-5.1,7.5-4.8h3.2v4.7C259.2,48.8,258.9,50.9,258.1,52.9L258.1,52.9z"/>
<polygon class="st0" points="319.8,59.6 310.5,59.6 310.5,2.9 349.1,62 351.3,62 351.3,2.7 359.7,2.7 359.7,1.2 340.6,1.2 
	340.6,2.7 349.6,2.7 349.6,40.7 324.2,1.2 310.5,1.2 309.4,1.2 300.7,1.2 300.7,2.7 308.9,2.7 308.9,59.6 300.7,59.6 300.7,61.2 
	319.8,61.2 "/>
<path class="st0" d="M373.2,60.4c2.1,1.2,4.6,1.7,7,1.6c2.5,0.1,5-0.6,7.1-2c1.8-1.3,3.3-3,4.3-5.1c0.7-1.4,1.2-2.8,1.6-4.2v10.5
	h16.6v-1.6h-5.4V24.4H388v1.6h5.2v16.3c0,1.9-0.2,3.7-0.6,5.6c-0.4,1.8-0.9,3.5-1.7,5.2c-0.7,1.5-1.6,2.8-2.9,3.9
	c-1.1,1-2.5,1.5-4,1.5c-0.9,0.1-1.8-0.3-2.5-1c-0.7-0.9-1-1.9-1.1-3c-0.2-1.8-0.3-3.6-0.3-5.4V24.4h-16.7v1.6h5.4v24
	c0,2.1,0.3,4.2,0.9,6.2C370.4,57.9,371.6,59.4,373.2,60.4z"/>
<path class="st0" d="M436.5,59.6h-6.2V44.1c0-2.5,0.3-4.9,0.8-7.3c0.5-2.1,1.2-4.1,2.2-6c0.8-1.6,2-3,3.5-4.1c1.3-1,2.9-1.5,4.5-1.5
	c1.3,0,2.5,0.3,3.6,0.9c-0.5-0.1-1-0.2-1.6-0.2c-3.5-0.1-6.5,2.6-6.6,6.1c0,0.2,0,0.4,0,0.5c0,1.6,0.7,3.2,1.9,4.3
	c1.3,1.2,3,1.9,4.8,1.8c1.8,0.1,3.6-0.7,4.8-2c1.2-1.3,1.9-3.1,1.8-4.9c0-1.4-0.4-2.7-1-3.9c-0.7-1.3-1.6-2.3-2.9-3.1
	c-1.4-0.8-3.1-1.3-4.7-1.2c-2,0-3.9,0.5-5.5,1.7c-1.6,1.2-2.9,2.8-3.8,4.6c-0.9,1.8-1.5,3.6-1.9,5.6v-11h-16.5V26h5.4v33.6h-5.4v1.6
	h22.8L436.5,59.6z"/>
<path class="st0" d="M458.8,49.9c0,2.1,0.3,4.2,0.9,6.2c0.6,1.8,1.8,3.3,3.4,4.3c2.1,1.2,4.6,1.7,7,1.6c2.5,0.1,5-0.6,7.1-2
	c1.8-1.3,3.3-3,4.3-5.1c0.7-1.4,1.2-2.8,1.6-4.2v10.5h16.6v-1.6h-5.4V24.4H478v1.6h5.2v16.3c0,1.9-0.2,3.7-0.6,5.6
	c-0.4,1.8-1,3.5-1.8,5.2c-0.7,1.5-1.7,2.8-2.9,3.9c-1.1,1-2.5,1.5-4,1.5c-0.9,0.1-1.8-0.3-2.5-1c-0.7-0.9-1-1.9-1.1-3
	c-0.2-1.8-0.3-3.6-0.3-5.4V24.4h-16.7v1.6h5.4V49.9z"/>
<polygon class="st0" points="528.9,59.6 521.9,59.6 521.9,1.2 503.6,1.2 503.6,2.7 510.7,2.7 510.7,59.6 503.6,59.6 503.6,61.2 
	528.9,61.2 "/>
<path class="st0" d="M570.3,59.6h-8.5l6-17H587l5.5,17h-7v1.6h27.6v-1.6h-6.2L586.2,0H581l-21,59.6h-7.4v1.6h17.6L570.3,59.6z
	 M586.5,41h-18.2l9.4-27L586.5,41z"/>
<path class="st0" d="M657.8,35.6c0-2.1-0.3-4.2-0.9-6.2c-0.6-1.8-1.8-3.3-3.4-4.3c-1.6-1-3.9-1.6-7-1.6c-2.5-0.1-4.9,0.6-7,2
	c-1.8,1.3-3.3,3-4.4,5.1c-0.7,1.4-1.3,2.8-1.7,4.3V24.4h-16.6v1.6h5.4v33.7h-5.4v1.6h20.8v-1.6h-4.2V43.3c0-1.9,0.2-3.7,0.7-5.6
	c0.4-1.8,1-3.6,1.8-5.2c0.7-1.5,1.7-2.8,3-3.9c1.1-1,2.5-1.5,4-1.5c0.9-0.1,1.8,0.3,2.5,1c0.6,0.9,1,1.9,1.1,3
	c0.2,1.8,0.3,3.6,0.3,5.4v23h-4.2v1.6h20.8v-1.6h-5.4L657.8,35.6z"/>
<path class="st0" d="M678.4,14.1c1.8,0,3.6-0.7,4.9-2c1.3-1.3,2-3,2-4.8c0.1-3.7-2.9-6.8-6.6-6.8c-0.1,0-0.2,0-0.3,0
	c-1.8,0-3.6,0.7-4.8,2c-1.3,1.3-2,3-2,4.9c0,1.8,0.7,3.6,2,4.8C674.9,13.4,676.6,14.1,678.4,14.1z"/>
<polygon class="st0" points="684,24.4 667.4,24.4 667.4,25.9 672.8,25.9 672.8,59.6 667.4,59.6 667.4,61.2 689.5,61.2 689.5,59.6 
	684,59.6 "/>
<path class="st0" d="M718.5,39.7c-1.8-1-3.7-1.8-5.6-2.5l-5.6-1.9c-1.5-0.5-3-1.2-4.3-2.1c-1.1-0.7-1.7-1.9-1.7-3.2
	c0-0.9,0.3-1.8,0.9-2.5c0.6-0.8,1.5-1.3,2.4-1.7c1-0.4,2.1-0.6,3.3-0.6c2,0,4,0.4,5.8,1.3c1.6,0.9,3.1,2,4.2,3.5
	c1.1,1.4,2,3,2.7,4.6h1.6V23.6h-1.4l-4.1,3.3c-1.2-1-2.6-1.8-4-2.3c-3.8-1.4-7.9-1.1-11.5,0.6c-1.8,0.9-3.2,2.4-4.3,4.1
	c-1,1.7-1.5,3.7-1.5,5.7c-0.1,2.2,0.5,4.3,1.7,6.2c1.1,1.6,2.5,2.9,4.2,3.9c1.7,1,3.6,1.8,5.5,2.5l5.5,1.9c1.5,0.5,2.9,1.2,4.2,2.1
	c1.1,0.8,1.7,2,1.7,3.3c0,1.1-0.4,2.2-1.1,3c-0.8,0.9-1.9,1.5-3,1.9c-3.3,1-6.9,0.8-10-0.7c-1.8-0.9-3.4-2.2-4.6-3.8
	c-1.4-1.8-2.5-3.7-3.3-5.9h-1.6V62h1.4l4.2-3.8c1.4,1.2,3,2.1,4.7,2.8c1.8,0.7,3.7,1,5.6,1c2.4,0,4.7-0.4,6.9-1.4
	c2.1-0.9,3.9-2.3,5.3-4.1c1.4-2,2.2-4.5,2.1-7c0.1-2.1-0.5-4.2-1.7-6C721.6,42,720.2,40.7,718.5,39.7z"/>
<path class="st0" d="M772.3,56c-0.5,1-1.2,1.8-2.2,2.4c-0.7,0.5-1.5,0.7-2.4,0.8c-0.8,0.1-1.6-0.3-2-0.9c-0.4-0.7-0.6-1.5-0.5-2.3
	V36.8c0-2.3-0.5-4.7-1.6-6.7c-1.2-2.1-3.1-3.7-5.3-4.7c-3.1-1.3-6.4-1.8-9.8-1.7c-1.8,0-3.6,0.2-5.4,0.5c-1.7,0.3-3.3,0.8-4.9,1.5
	c-1.4,0.6-2.6,1.5-3.5,2.7c-0.9,1.1-1.4,2.5-1.3,3.9c-0.1,1.6,0.6,3.1,1.8,4.1c1.3,1,2.9,1.6,4.5,1.5c1.6,0,3.2-0.5,4.6-1.5
	c1.3-1,2.1-2.6,2-4.3c0.1-1.6-0.7-3.1-2-4c-1.3-0.9-3-1.4-4.6-1.4h-0.1c1.1-0.5,2.2-0.8,3.4-1.1c1.2-0.2,2.4-0.4,3.6-0.4
	c1.8-0.1,3.5,0.5,4.8,1.7c1.1,1.2,1.9,2.7,2.2,4.3c0.4,1.8,0.5,3.7,0.5,5.5v3.8h-5.8c-5.7,0-10.1,1-13.2,3.1c-2.9,1.8-4.7,5-4.6,8.4
	c-0.1,2.8,1,5.4,3.1,7.2c2.4,1.9,5.3,2.8,8.3,2.7c2.5,0.1,4.9-0.6,7-1.9c2-1.3,3.6-3.1,4.6-5.3c0.2-0.5,0.4-1,0.6-1.5v1.5
	c-0.1,1.4,0.4,2.9,1.2,4.1c0.8,1.1,1.9,1.9,3.2,2.3c1.5,0.5,3.1,0.8,4.6,0.8c2.2,0.1,4.4-0.4,6.3-1.3c1.7-0.7,3.1-2.1,3.9-3.7
	L772.3,56z M753,52.9c-0.5,1.4-1.4,2.7-2.6,3.6c-0.9,0.7-2.1,1.2-3.3,1.2c-1,0-1.9-0.3-2.6-0.9c-0.7-0.7-1.2-1.5-1.5-2.5
	c-0.3-1.1-0.5-2.3-0.5-3.5c0-1.4,0.3-2.7,0.8-4c1.2-3.1,4.2-5,7.5-4.8h3.1v4.7C754.1,48.8,753.7,50.9,753,52.9z"/>
<path class="st0" d="M178.4,84.5c0.7-0.7,0.7-1.9,0-2.6c0,0,0,0,0,0c-0.3-0.4-0.8-0.5-1.3-0.5c-1,0-1.8,0.8-1.8,1.8l0,0
	c0,0.5,0.2,1,0.5,1.3c0.3,0.4,0.8,0.6,1.3,0.6C177.6,85.1,178,84.9,178.4,84.5z"/>
<g>
	<path class="st0" d="M90.2,81.9c-1.2-0.5-2.7-0.8-4.5-0.8h-9v0.6h2.7v21.7h-2.7v0.6h8.4v-0.6h-2.7v-9.3h3.3c1.8,0,3.3-0.3,4.5-0.8
		s2-1.3,2.6-2.2s0.8-2.1,0.8-3.4c0-1.3-0.3-2.5-0.8-3.5S91.4,82.5,90.2,81.9z M90,89.7c-0.2,0.7-0.5,1.3-0.9,1.9
		c-0.4,0.6-0.9,1-1.4,1.4c-0.6,0.3-1.2,0.5-1.9,0.5h-3.3V81.7h3.3c0.7,0,1.4,0.2,1.9,0.5c0.6,0.4,1,0.8,1.4,1.4
		c0.4,0.6,0.7,1.2,0.9,1.9c0.2,0.7,0.3,1.4,0.3,2.1C90.3,88.4,90.2,89,90,89.7z"/>
	<path class="st0" d="M110.4,89.9h-4.9v0.6h2.1v6.3c0,0.7-0.1,1.4-0.3,2.1c-0.2,0.8-0.5,1.5-0.8,2.2c-0.4,0.7-0.9,1.3-1.5,1.7
		s-1.3,0.7-2.1,0.7c-0.5,0-1-0.2-1.2-0.5c-0.3-0.4-0.4-0.9-0.5-1.5c-0.1-0.6-0.1-1.4-0.1-2.2v-9.3h-4.7v0.6h2v9.1
		c0,0.9,0.1,1.7,0.3,2.4c0.2,0.7,0.6,1.2,1.2,1.6c0.6,0.4,1.5,0.6,2.7,0.6c1.1,0,2-0.3,2.7-0.8c0.7-0.5,1.3-1.2,1.7-2
		c0.3-0.7,0.5-1.3,0.7-2v4.5h4.7v-0.6h-2V89.9z"/>
	<path class="st0" d="M121.6,102.6c-0.4,0.4-0.9,0.6-1.4,0.6c-0.4,0-0.7-0.1-0.9-0.4c-0.2-0.3-0.3-0.8-0.3-1.5V90.5h3.3v-0.6H119v-4
		c-0.3,0.2-0.7,0.4-1.3,0.6c-0.5,0.2-1,0.3-1.5,0.3v3h-2v0.6h2v10c0,0.6,0.1,1.1,0.2,1.7c0.1,0.6,0.4,1,0.9,1.4s1,0.6,1.9,0.6
		c1,0,1.8-0.3,2.4-0.8c0.6-0.5,1.1-1.2,1.5-2l-0.5-0.3C122.4,101.6,122.1,102.1,121.6,102.6z"/>
	<path class="st0" d="M135.2,90c-0.4-0.2-0.9-0.3-1.4-0.3c-0.8,0-1.4,0.2-2,0.7c-0.6,0.5-1.1,1.1-1.4,1.9c-0.3,0.7-0.6,1.5-0.8,2.3
		v-4.5h-4.7v0.6h2v12.8h-2v0.6h6.8v-0.6h-2.2v-5.9c0-0.9,0.1-1.7,0.3-2.6s0.5-1.6,0.9-2.3s0.8-1.3,1.3-1.7c0.5-0.4,1.1-0.6,1.7-0.6
		c0.4,0,0.7,0.1,1,0.2c0,0,0,0,0,0c0,0-0.1,0-0.1,0c-0.4,0-0.8,0.1-1.2,0.4c-0.4,0.3-0.6,0.7-0.6,1.3c0,0.5,0.2,0.8,0.5,1.1
		s0.8,0.5,1.3,0.5c0.5,0,1-0.2,1.3-0.5c0.3-0.4,0.5-0.8,0.5-1.3c0-0.4-0.1-0.8-0.3-1.1C135.9,90.5,135.6,90.2,135.2,90z"/>
	<polygon class="st0" points="143.2,89.9 138.4,89.9 138.4,90.5 140.4,90.5 140.4,103.4 138.4,103.4 138.4,104 145.2,104 
		145.2,103.4 143.2,103.4 	"/>
	<path class="st0" d="M141.8,84.5c0.5,0,0.9-0.2,1.3-0.5c0.4-0.4,0.5-0.8,0.5-1.3c0-0.5-0.2-0.9-0.5-1.3c-0.4-0.4-0.8-0.5-1.3-0.5
		c-0.5,0-0.9,0.2-1.3,0.5c-0.4,0.4-0.5,0.8-0.5,1.3c0,0.5,0.2,0.9,0.5,1.3C140.9,84.4,141.3,84.5,141.8,84.5z"/>
	<polygon class="st0" points="162.7,94.8 168,90.5 170.6,90.5 170.6,89.9 164.1,89.9 164.1,90.5 167.2,90.5 160.5,95.8 160.5,81.1 
		155.1,81.1 155.1,81.7 157.8,81.7 157.8,103.4 155.1,103.4 155.1,104 162.6,104 162.6,103.4 160.5,103.4 160.5,96.1 166.7,103.4 
		164.6,103.4 164.6,104 171.7,104 171.7,103.4 170,103.4 	"/>
	<path class="st0" d="M184.5,102.6c-0.9,0.7-2,1-3.3,1c-0.8,0-1.4-0.2-2-0.5c-0.5-0.4-0.9-0.9-1.2-1.5c-0.3-0.6-0.5-1.3-0.6-2.1
		c-0.1-0.8-0.2-1.6-0.2-2.5c0-0.3,0-0.7,0-1h9.6c0-1.1-0.2-2.1-0.6-3.1c-0.4-1-1-1.7-1.9-2.3c-0.9-0.6-2.1-0.9-3.5-0.9
		c-1.3,0-2.5,0.3-3.5,0.9c-1,0.6-1.8,1.4-2.4,2.5c-0.6,1.1-0.9,2.4-0.9,3.9c0,1.5,0.3,2.8,0.9,3.9s1.4,1.9,2.5,2.5
		c1,0.6,2.2,0.9,3.5,0.9c1.7,0,3-0.4,4-1.2c1-0.8,1.7-1.8,2.1-3.1h-0.7C186,101,185.3,101.9,184.5,102.6z M177.3,94.4
		c0.1-0.8,0.3-1.5,0.5-2.2c0.3-0.6,0.6-1.1,1.1-1.5s1.1-0.5,1.8-0.5c0.6,0,1.1,0.2,1.5,0.5c0.4,0.3,0.7,0.8,0.8,1.3s0.3,1.1,0.4,1.7
		c0.1,0.6,0.1,1.1,0.1,1.6h-6.3C177.3,95,177.3,94.7,177.3,94.4z"/>
	<path class="st0" d="M203.9,81.1h-4.8v0.6h2v12.7c-0.3-1.5-0.9-2.6-1.7-3.5c-0.8-0.9-1.9-1.3-3.1-1.3c-1.1,0-2.1,0.3-3,0.9
		c-1,0.6-1.7,1.4-2.3,2.5c-0.6,1.1-0.9,2.4-0.9,3.9c0,1.5,0.3,2.8,0.9,3.9c0.6,1.1,1.4,1.9,2.3,2.5c1,0.6,2,0.9,3,0.9
		c1.2,0,2.3-0.4,3.1-1.3s1.4-2,1.7-3.4v4.4h4.7v-0.6h-2V81.1z M200.5,100.5c-0.4,1-0.9,1.7-1.6,2.2c-0.7,0.5-1.4,0.8-2.1,0.8
		c-0.8,0-1.5-0.3-2-0.8c-0.5-0.5-1-1.2-1.2-2.2c-0.3-1-0.4-2.1-0.4-3.5s0.1-2.5,0.4-3.5c0.3-1,0.7-1.7,1.2-2.2
		c0.5-0.5,1.2-0.8,2-0.8c0.8,0,1.5,0.3,2.1,0.8c0.7,0.5,1.2,1.2,1.6,2.2s0.6,2.1,0.6,3.5C201.1,98.3,200.9,99.5,200.5,100.5z"/>
	<path class="st0" d="M222.1,89.9h-4.9v0.6h2.1v6.3c0,0.7-0.1,1.4-0.3,2.1c-0.2,0.8-0.5,1.5-0.8,2.2s-0.9,1.3-1.5,1.7
		s-1.3,0.7-2.1,0.7c-0.5,0-1-0.2-1.2-0.5c-0.3-0.4-0.4-0.9-0.5-1.5c-0.1-0.6-0.1-1.4-0.1-2.2v-9.3h-4.7v0.6h2v9.1
		c0,0.9,0.1,1.7,0.3,2.4c0.2,0.7,0.6,1.2,1.2,1.6c0.6,0.4,1.5,0.6,2.7,0.6c1.1,0,2-0.3,2.7-0.8s1.3-1.2,1.7-2c0.3-0.7,0.5-1.3,0.7-2
		v4.5h4.7v-0.6h-2V89.9z"/>
	<path class="st0" d="M239.9,103.1c-0.3,0.2-0.6,0.3-0.9,0.3c-0.4,0-0.6-0.1-0.7-0.4c-0.1-0.2-0.2-0.5-0.2-0.9v-7.5
		c0-0.8-0.1-1.6-0.4-2.4c-0.2-0.8-0.7-1.4-1.4-1.9s-1.7-0.7-3.1-0.7c-0.7,0-1.4,0.1-2,0.2c-0.7,0.1-1.2,0.4-1.8,0.6
		c-0.5,0.3-0.9,0.6-1.3,1c-0.3,0.4-0.5,0.8-0.5,1.3c0,0.5,0.2,1,0.5,1.3c0.3,0.3,0.7,0.4,1.2,0.4c0.4,0,0.8-0.1,1.2-0.4
		s0.6-0.7,0.6-1.3c0-0.5-0.2-0.9-0.5-1.2c-0.3-0.3-0.7-0.4-1.1-0.4c0.1-0.1,0.2-0.2,0.4-0.2c0.4-0.2,0.9-0.4,1.4-0.5
		c0.5-0.1,1-0.2,1.4-0.2c0.8,0,1.4,0.2,1.8,0.6c0.4,0.4,0.6,1,0.8,1.6s0.2,1.4,0.2,2.1v1.4h-2c-2.2,0-3.8,0.4-5,1.2
		c-1.2,0.8-1.8,1.8-1.8,3.2c0,1.2,0.4,2.1,1.2,2.8s1.8,1,3.2,1c1,0,1.9-0.2,2.6-0.7s1.3-1.2,1.6-2.1c0.1-0.2,0.1-0.4,0.2-0.6v0.7
		c0,0.7,0.1,1.2,0.4,1.6s0.6,0.7,1,0.8c0.4,0.2,0.8,0.3,1.3,0.3c0.7,0,1.2-0.1,1.7-0.4c0.5-0.3,0.9-0.6,1.1-1.1l-0.3-0.5
		C240.5,102.6,240.2,102.8,239.9,103.1z M234.9,101.2c-0.4,0.7-0.8,1.3-1.3,1.7c-0.5,0.4-1.1,0.5-1.7,0.5c-0.5,0-1-0.1-1.3-0.5
		c-0.3-0.3-0.6-0.7-0.7-1.2c-0.2-0.5-0.2-1-0.2-1.5c0-0.6,0.1-1.1,0.4-1.7c0.3-0.6,0.7-1,1.2-1.4s1.3-0.6,2.2-0.6h2v1.7
		C235.4,99.5,235.2,100.4,234.9,101.2z"/>
	<path class="st0" d="M266.3,104v-0.6h-2V81.1h-4.8v0.6h2v12.7c-0.3-1.5-0.9-2.6-1.7-3.5c-0.8-0.9-1.9-1.3-3.1-1.3
		c-1.1,0-2.1,0.3-3,0.9c-1,0.6-1.7,1.4-2.3,2.5c-0.6,1.1-0.9,2.4-0.9,3.9c0,1.5,0.3,2.8,0.9,3.9c0.6,1.1,1.4,1.9,2.3,2.5
		c1,0.6,2,0.9,3,0.9c1.2,0,2.3-0.4,3.1-1.3s1.4-2,1.7-3.4v4.4H266.3z M260.9,100.5c-0.4,1-0.9,1.7-1.6,2.2c-0.7,0.5-1.4,0.8-2.1,0.8
		c-0.8,0-1.5-0.3-2-0.8c-0.5-0.5-1-1.2-1.2-2.2c-0.3-1-0.4-2.1-0.4-3.5s0.1-2.5,0.4-3.5c0.3-1,0.7-1.7,1.2-2.2
		c0.5-0.5,1.2-0.8,2-0.8c0.8,0,1.5,0.3,2.1,0.8c0.7,0.5,1.2,1.2,1.6,2.2s0.6,2.1,0.6,3.5C261.5,98.3,261.3,99.5,260.9,100.5z"/>
	<path class="st0" d="M273.1,104.3c1,0,1.9-0.2,2.6-0.7s1.3-1.2,1.6-2.1c0.1-0.2,0.1-0.4,0.2-0.6v0.7c0,0.7,0.1,1.2,0.4,1.6
		s0.6,0.7,1,0.8c0.4,0.2,0.8,0.3,1.3,0.3c0.7,0,1.2-0.1,1.7-0.4c0.5-0.3,0.9-0.6,1.1-1.1l-0.3-0.5c-0.2,0.3-0.4,0.6-0.7,0.8
		s-0.6,0.3-0.9,0.3c-0.4,0-0.6-0.1-0.7-0.4c-0.1-0.2-0.2-0.5-0.2-0.9v-7.5c0-0.8-0.1-1.6-0.4-2.4c-0.2-0.8-0.7-1.4-1.4-1.9
		s-1.7-0.7-3.1-0.7c-0.7,0-1.4,0.1-2,0.2c-0.7,0.1-1.2,0.4-1.8,0.6c-0.5,0.3-0.9,0.6-1.3,1c-0.3,0.4-0.5,0.8-0.5,1.3
		c0,0.5,0.2,1,0.5,1.3c0.3,0.3,0.7,0.4,1.2,0.4c0.4,0,0.8-0.1,1.2-0.4s0.6-0.7,0.6-1.3c0-0.5-0.2-0.9-0.5-1.2
		c-0.3-0.3-0.7-0.4-1.1-0.4c0.1-0.1,0.2-0.2,0.4-0.2c0.4-0.2,0.9-0.4,1.4-0.5c0.5-0.1,1-0.2,1.4-0.2c0.8,0,1.4,0.2,1.8,0.6
		c0.4,0.4,0.6,1,0.8,1.6s0.2,1.4,0.2,2.1v1.4h-2c-2.2,0-3.8,0.4-5,1.2c-1.2,0.8-1.8,1.8-1.8,3.2c0,1.2,0.4,2.1,1.2,2.8
		S271.8,104.3,273.1,104.3z M272.1,98.6c0.3-0.6,0.7-1,1.2-1.4s1.3-0.6,2.2-0.6h2v1.7c0,1.1-0.2,2-0.5,2.8c-0.4,0.7-0.8,1.3-1.3,1.7
		c-0.5,0.4-1.1,0.5-1.7,0.5c-0.5,0-1-0.1-1.3-0.5c-0.3-0.3-0.6-0.7-0.7-1.2c-0.2-0.5-0.2-1-0.2-1.5
		C271.8,99.7,271.9,99.2,272.1,98.6z"/>
	<path class="st0" d="M291.3,103.4h-2.2v-5.9c0-0.9,0.1-1.7,0.3-2.6c0.2-0.8,0.5-1.6,0.9-2.3s0.8-1.3,1.3-1.7
		c0.5-0.4,1.1-0.6,1.7-0.6c0.4,0,0.7,0.1,1,0.2c0,0,0,0,0,0c0,0-0.1,0-0.1,0c-0.4,0-0.8,0.1-1.2,0.4c-0.4,0.3-0.6,0.7-0.6,1.3
		c0,0.5,0.2,0.8,0.5,1.1s0.8,0.5,1.3,0.5c0.5,0,1-0.2,1.3-0.5c0.3-0.4,0.5-0.8,0.5-1.3c0-0.4-0.1-0.8-0.3-1.1
		c-0.2-0.3-0.5-0.6-0.9-0.8c-0.4-0.2-0.9-0.3-1.4-0.3c-0.8,0-1.4,0.2-2,0.7c-0.6,0.5-1.1,1.1-1.4,1.9c-0.3,0.7-0.6,1.5-0.8,2.3v-4.5
		h-4.7v0.6h2v12.8h-2v0.6h6.8V103.4z"/>
	<polygon class="st0" points="304.8,103.4 302.8,103.4 302.8,89.9 298.1,89.9 298.1,90.5 300,90.5 300,103.4 298.1,103.4 298.1,104 
		304.8,104 	"/>
	<path class="st0" d="M301.4,84.5c0.5,0,0.9-0.2,1.3-0.5c0.4-0.4,0.5-0.8,0.5-1.3c0-0.5-0.2-0.9-0.5-1.3c-0.4-0.4-0.8-0.5-1.3-0.5
		c-0.5,0-0.9,0.2-1.3,0.5c-0.4,0.4-0.5,0.8-0.5,1.3c0,0.5,0.2,0.9,0.5,1.3C300.5,84.4,300.9,84.5,301.4,84.5z"/>
	<path class="st0" d="M329.9,102.5c1.4-1,2.1-2.6,2.1-4.9c0-1.3-0.4-2.4-1.1-3.2c-0.7-0.8-1.7-1.4-2.9-1.7c-0.8-0.2-1.7-0.4-2.6-0.5
		c1.5-0.2,2.8-0.6,3.7-1.2c1.3-0.9,2-2.3,2-4.3c0-2-0.7-3.4-2.1-4.3c-1.4-0.9-3.2-1.3-5.5-1.3h-8.8v0.6h2.7v21.7h-2.7v0.6h9.5
		C326.5,104,328.5,103.5,329.9,102.5z M323.4,81.7c0.8,0,1.5,0.2,2.2,0.6c0.7,0.4,1.3,1,1.7,1.8c0.4,0.8,0.7,1.8,0.7,3
		s-0.2,2.2-0.7,2.9c-0.4,0.7-1,1.2-1.7,1.5c-0.7,0.3-1.4,0.5-2.2,0.5h-3.2V81.7H323.4z M320.3,103.4V92.5h3.5c0.9,0,1.7,0.2,2.4,0.5
		c0.7,0.3,1.3,0.9,1.8,1.6s0.7,1.7,0.7,2.9s-0.2,2.2-0.7,3.1s-1,1.5-1.8,2c-0.7,0.5-1.6,0.7-2.4,0.7H320.3z"/>
	<path class="st0" d="M343.9,100.9v0.7c0,0.7,0.1,1.2,0.4,1.6s0.6,0.7,1,0.8c0.4,0.2,0.8,0.3,1.3,0.3c0.7,0,1.2-0.1,1.7-0.4
		c0.5-0.3,0.9-0.6,1.1-1.1l-0.3-0.5c-0.2,0.3-0.4,0.6-0.7,0.8s-0.6,0.3-0.9,0.3c-0.4,0-0.6-0.1-0.7-0.4c-0.1-0.2-0.2-0.5-0.2-0.9
		v-7.5c0-0.8-0.1-1.6-0.4-2.4c-0.2-0.8-0.7-1.4-1.4-1.9s-1.7-0.7-3.1-0.7c-0.7,0-1.4,0.1-2,0.2c-0.7,0.1-1.2,0.4-1.8,0.6
		c-0.5,0.3-0.9,0.6-1.3,1c-0.3,0.4-0.5,0.8-0.5,1.3c0,0.5,0.2,1,0.5,1.3c0.3,0.3,0.7,0.4,1.2,0.4c0.4,0,0.8-0.1,1.2-0.4
		s0.6-0.7,0.6-1.3c0-0.5-0.2-0.9-0.5-1.2c-0.3-0.3-0.7-0.4-1.1-0.4c0.1-0.1,0.2-0.2,0.4-0.2c0.4-0.2,0.9-0.4,1.4-0.5
		c0.5-0.1,1-0.2,1.4-0.2c0.8,0,1.4,0.2,1.8,0.6c0.4,0.4,0.6,1,0.8,1.6s0.2,1.4,0.2,2.1v1.4h-2c-2.2,0-3.8,0.4-5,1.2
		c-1.2,0.8-1.8,1.8-1.8,3.2c0,1.2,0.4,2.1,1.2,2.8s1.8,1,3.2,1c1,0,1.9-0.2,2.6-0.7s1.3-1.2,1.6-2.1
		C343.7,101.3,343.8,101.1,343.9,100.9z M342,102.8c-0.5,0.4-1.1,0.5-1.7,0.5c-0.5,0-1-0.1-1.3-0.5c-0.3-0.3-0.6-0.7-0.7-1.2
		c-0.2-0.5-0.2-1-0.2-1.5c0-0.6,0.1-1.1,0.4-1.7c0.3-0.6,0.7-1,1.2-1.4s1.3-0.6,2.2-0.6h2v1.7c0,1.1-0.2,2-0.5,2.8
		C343,101.9,342.5,102.5,342,102.8z"/>
	<path class="st0" d="M363.4,90.5c-1-0.6-2-0.9-3-0.9c-1.2,0-2.3,0.4-3.1,1.3c-0.8,0.8-1.4,2-1.8,3.5v-4.5h-4.7v0.6h2V111h-2v0.6
		h6.7V111h-2V99.5c0.3,1.4,0.9,2.6,1.8,3.5s1.9,1.3,3.1,1.3c1.1,0,2.1-0.3,3-0.9c1-0.6,1.7-1.4,2.3-2.5c0.6-1.1,0.9-2.4,0.9-3.9
		c0-1.5-0.3-2.8-0.9-3.9C365.1,92,364.3,91.1,363.4,90.5z M363.1,100.5c-0.3,1-0.7,1.7-1.2,2.2c-0.5,0.5-1.2,0.8-2,0.8
		c-0.8,0-1.5-0.3-2.1-0.8c-0.7-0.5-1.2-1.2-1.6-2.2c-0.4-1-0.6-2.1-0.6-3.5c0-1.4,0.2-2.5,0.6-3.5c0.4-1,0.9-1.7,1.6-2.2
		c0.7-0.5,1.4-0.8,2.1-0.8c0.8,0,1.5,0.3,2,0.8c0.5,0.5,1,1.2,1.2,2.2c0.3,1,0.4,2.1,0.4,3.5S363.4,99.5,363.1,100.5z"/>
	<path class="st0" d="M373.9,104.3c1,0,1.9-0.2,2.6-0.7s1.3-1.2,1.6-2.1c0.1-0.2,0.1-0.4,0.2-0.6v0.7c0,0.7,0.1,1.2,0.4,1.6
		s0.6,0.7,1,0.8c0.4,0.2,0.8,0.3,1.3,0.3c0.7,0,1.2-0.1,1.7-0.4c0.5-0.3,0.9-0.6,1.1-1.1l-0.3-0.5c-0.2,0.3-0.4,0.6-0.7,0.8
		s-0.6,0.3-0.9,0.3c-0.4,0-0.6-0.1-0.7-0.4c-0.1-0.2-0.2-0.5-0.2-0.9v-7.5c0-0.8-0.1-1.6-0.4-2.4c-0.2-0.8-0.7-1.4-1.4-1.9
		s-1.7-0.7-3.1-0.7c-0.7,0-1.4,0.1-2,0.2c-0.7,0.1-1.2,0.4-1.8,0.6c-0.5,0.3-0.9,0.6-1.3,1c-0.3,0.4-0.5,0.8-0.5,1.3
		c0,0.5,0.2,1,0.5,1.3c0.3,0.3,0.7,0.4,1.2,0.4c0.4,0,0.8-0.1,1.2-0.4s0.6-0.7,0.6-1.3c0-0.5-0.2-0.9-0.5-1.2
		c-0.3-0.3-0.7-0.4-1.1-0.4c0.1-0.1,0.2-0.2,0.4-0.2c0.4-0.2,0.9-0.4,1.4-0.5c0.5-0.1,1-0.2,1.4-0.2c0.8,0,1.4,0.2,1.8,0.6
		c0.4,0.4,0.6,1,0.8,1.6s0.2,1.4,0.2,2.1v1.4h-2c-2.2,0-3.8,0.4-5,1.2c-1.2,0.8-1.8,1.8-1.8,3.2c0,1.2,0.4,2.1,1.2,2.8
		S372.6,104.3,373.9,104.3z M373,98.6c0.3-0.6,0.7-1,1.2-1.4s1.3-0.6,2.2-0.6h2v1.7c0,1.1-0.2,2-0.5,2.8c-0.4,0.7-0.8,1.3-1.3,1.7
		c-0.5,0.4-1.1,0.5-1.7,0.5c-0.5,0-1-0.1-1.3-0.5c-0.3-0.3-0.6-0.7-0.7-1.2c-0.2-0.5-0.2-1-0.2-1.5C372.6,99.7,372.7,99.2,373,98.6z
		"/>
	<polygon class="st0" points="390.6,96.1 396.8,103.4 394.7,103.4 394.7,104 401.8,104 401.8,103.4 400.1,103.4 392.8,94.8 
		398.1,90.5 400.7,90.5 400.7,89.9 394.2,89.9 394.2,90.5 397.3,90.5 390.6,95.8 390.6,81.1 385.2,81.1 385.2,81.7 387.8,81.7 
		387.8,103.4 385.2,103.4 385.2,104 392.7,104 392.7,103.4 390.6,103.4 	"/>
	<path class="st0" d="M425.6,92.8l3.6,11.5h0.7l7.9-22.6h2.4v-0.6h-6v0.6h2.9l-6.3,18l-3.2-10.5l2.5-7.5h2.6v-0.6h-21.7v0.6h2.9
		l7,22.6h0.7L425.6,92.8z M429.3,81.7l-2.1,6.4l-2-6.4H429.3z M416.8,81.7h5.3l3.1,10.1l-2.8,7.9L416.8,81.7z"/>
	<path class="st0" d="M451,100.9v0.7c0,0.7,0.1,1.2,0.4,1.6s0.6,0.7,1,0.8c0.4,0.2,0.8,0.3,1.3,0.3c0.7,0,1.2-0.1,1.7-0.4
		c0.5-0.3,0.9-0.6,1.1-1.1l-0.3-0.5c-0.2,0.3-0.4,0.6-0.7,0.8s-0.6,0.3-0.9,0.3c-0.4,0-0.6-0.1-0.7-0.4c-0.1-0.2-0.2-0.5-0.2-0.9
		v-7.5c0-0.8-0.1-1.6-0.4-2.4c-0.2-0.8-0.7-1.4-1.4-1.9s-1.7-0.7-3.1-0.7c-0.7,0-1.4,0.1-2,0.2c-0.7,0.1-1.2,0.4-1.8,0.6
		c-0.5,0.3-0.9,0.6-1.3,1c-0.3,0.4-0.5,0.8-0.5,1.3c0,0.5,0.2,1,0.5,1.3c0.3,0.3,0.7,0.4,1.2,0.4c0.4,0,0.8-0.1,1.2-0.4
		s0.6-0.7,0.6-1.3c0-0.5-0.2-0.9-0.5-1.2c-0.3-0.3-0.7-0.4-1.1-0.4c0.1-0.1,0.2-0.2,0.4-0.2c0.4-0.2,0.9-0.4,1.4-0.5
		c0.5-0.1,1-0.2,1.4-0.2c0.8,0,1.4,0.2,1.8,0.6c0.4,0.4,0.6,1,0.8,1.6s0.2,1.4,0.2,2.1v1.4h-2c-2.2,0-3.8,0.4-5,1.2
		c-1.2,0.8-1.8,1.8-1.8,3.2c0,1.2,0.4,2.1,1.2,2.8s1.8,1,3.2,1c1,0,1.9-0.2,2.6-0.7s1.3-1.2,1.6-2.1
		C450.9,101.3,450.9,101.1,451,100.9z M449.2,102.8c-0.5,0.4-1.1,0.5-1.7,0.5c-0.5,0-1-0.1-1.3-0.5c-0.3-0.3-0.6-0.7-0.7-1.2
		c-0.2-0.5-0.2-1-0.2-1.5c0-0.6,0.1-1.1,0.4-1.7c0.3-0.6,0.7-1,1.2-1.4s1.3-0.6,2.2-0.6h2v1.7c0,1.1-0.2,2-0.5,2.8
		C450.1,101.9,449.7,102.5,449.2,102.8z"/>
	<path class="st0" d="M464.7,103.4h-2.2v-5.9c0-0.9,0.1-1.7,0.3-2.6c0.2-0.8,0.5-1.6,0.9-2.3s0.8-1.3,1.3-1.7
		c0.5-0.4,1.1-0.6,1.7-0.6c0.4,0,0.7,0.1,1,0.2c0,0,0,0,0,0c0,0-0.1,0-0.1,0c-0.4,0-0.8,0.1-1.2,0.4c-0.4,0.3-0.6,0.7-0.6,1.3
		c0,0.5,0.2,0.8,0.5,1.1s0.8,0.5,1.3,0.5c0.5,0,1-0.2,1.3-0.5c0.3-0.4,0.5-0.8,0.5-1.3c0-0.4-0.1-0.8-0.3-1.1
		c-0.2-0.3-0.5-0.6-0.9-0.8c-0.4-0.2-0.9-0.3-1.4-0.3c-0.8,0-1.4,0.2-2,0.7c-0.6,0.5-1.1,1.1-1.4,1.9c-0.3,0.7-0.6,1.5-0.8,2.3v-4.5
		h-4.7v0.6h2v12.8h-2v0.6h6.8V103.4z"/>
	<path class="st0" d="M474.9,84.5c0.5,0,0.9-0.2,1.3-0.5c0.4-0.4,0.5-0.8,0.5-1.3c0-0.5-0.2-0.9-0.5-1.3c-0.4-0.4-0.8-0.5-1.3-0.5
		c-0.5,0-0.9,0.2-1.3,0.5c-0.4,0.4-0.5,0.8-0.5,1.3c0,0.5,0.2,0.9,0.5,1.3C473.9,84.4,474.4,84.5,474.9,84.5z"/>
	<polygon class="st0" points="478.2,103.4 476.2,103.4 476.2,89.9 471.5,89.9 471.5,90.5 473.5,90.5 473.5,103.4 471.5,103.4 
		471.5,104 478.2,104 	"/>
	<path class="st0" d="M489.2,96.3c-0.6-0.4-1.3-0.7-2.1-0.9s-1.4-0.5-2.1-0.8c-0.6-0.3-1.2-0.6-1.6-0.9c-0.4-0.4-0.6-0.8-0.6-1.4
		c0-0.4,0.1-0.8,0.4-1.1c0.2-0.3,0.6-0.6,1-0.7c0.4-0.2,0.8-0.3,1.3-0.3c0.8,0,1.6,0.2,2.2,0.5c0.7,0.4,1.2,0.8,1.6,1.4
		s0.6,1.1,0.7,1.7h0.6v-4.3h-0.5l-1.1,1.2c-0.4-0.4-0.9-0.7-1.5-0.9c-0.6-0.2-1.2-0.3-1.9-0.3c-1,0-1.7,0.2-2.4,0.6
		c-0.6,0.4-1.1,0.9-1.4,1.5s-0.4,1.2-0.4,1.9c0,0.9,0.2,1.6,0.6,2.1c0.4,0.5,0.9,1,1.5,1.3s1.3,0.6,2,0.8c0.7,0.2,1.3,0.5,2,0.7
		c0.6,0.2,1.1,0.5,1.5,0.9c0.4,0.4,0.6,0.9,0.6,1.5c0,0.6-0.2,1.1-0.5,1.5c-0.3,0.4-0.7,0.7-1.2,0.8c-0.5,0.2-1,0.3-1.6,0.3
		c-0.8,0-1.5-0.2-2.1-0.5c-0.7-0.3-1.2-0.8-1.6-1.4c-0.4-0.6-0.7-1.2-0.8-1.9h-0.6v4.5h0.5l1.2-1.4c0.5,0.4,1,0.7,1.7,1
		c0.6,0.2,1.3,0.4,2,0.4c1,0,1.8-0.2,2.6-0.6c0.8-0.4,1.3-0.9,1.8-1.6c0.4-0.7,0.7-1.5,0.7-2.4c0-0.8-0.2-1.5-0.6-2.1
		C490.3,97.1,489.8,96.7,489.2,96.3z"/>
	<path class="st0" d="M516,94.2c0-0.9-0.1-1.7-0.4-2.4s-0.7-1.2-1.2-1.6s-1.4-0.6-2.4-0.6s-1.9,0.3-2.5,0.8
		c-0.7,0.5-1.2,1.2-1.5,1.9c-0.3,0.6-0.5,1.2-0.6,1.8c0-0.9-0.1-1.7-0.3-2.3c-0.2-0.7-0.6-1.2-1.2-1.6c-0.6-0.4-1.3-0.6-2.4-0.6
		c-1,0-1.8,0.3-2.5,0.8c-0.7,0.5-1.2,1.2-1.6,1.9c-0.3,0.7-0.6,1.4-0.8,2.1v-4.6H494v0.6h2v12.8h-2v0.6h6.6v-0.6h-2V97
		c0-0.6,0.1-1.3,0.3-2.1c0.2-0.8,0.4-1.5,0.8-2.2s0.8-1.3,1.3-1.7c0.5-0.5,1.2-0.7,1.9-0.7c0.5,0,0.9,0.2,1.2,0.5
		c0.2,0.3,0.4,0.8,0.5,1.5c0.1,0.6,0.1,1.4,0.1,2.2v8.8h-2v0.6h6.6v-0.6h-2V97c0-0.6,0.1-1.3,0.2-2.1c0.2-0.8,0.4-1.5,0.7-2.2
		c0.3-0.7,0.7-1.3,1.3-1.7c0.5-0.5,1.2-0.7,1.9-0.7c0.5,0,0.9,0.2,1.2,0.5c0.3,0.3,0.5,0.8,0.5,1.5c0.1,0.6,0.1,1.4,0.1,2.2v8.8h-2
		v0.6h6.6v-0.6h-2V94.2z"/>
	<path class="st0" d="M533.8,103.1c-0.3,0.2-0.6,0.3-0.9,0.3c-0.4,0-0.6-0.1-0.7-0.4c-0.1-0.2-0.2-0.5-0.2-0.9v-7.5
		c0-0.8-0.1-1.6-0.4-2.4c-0.2-0.8-0.7-1.4-1.4-1.9s-1.7-0.7-3.1-0.7c-0.7,0-1.4,0.1-2,0.2c-0.7,0.1-1.2,0.4-1.8,0.6
		c-0.5,0.3-0.9,0.6-1.3,1c-0.3,0.4-0.5,0.8-0.5,1.3c0,0.5,0.2,1,0.5,1.3c0.3,0.3,0.7,0.4,1.2,0.4c0.4,0,0.8-0.1,1.2-0.4
		s0.6-0.7,0.6-1.3c0-0.5-0.2-0.9-0.5-1.2c-0.3-0.3-0.7-0.4-1.1-0.4c0.1-0.1,0.2-0.2,0.4-0.2c0.4-0.2,0.9-0.4,1.4-0.5
		c0.5-0.1,1-0.2,1.4-0.2c0.8,0,1.4,0.2,1.8,0.6c0.4,0.4,0.6,1,0.8,1.6s0.2,1.4,0.2,2.1v1.4h-2c-2.2,0-3.8,0.4-5,1.2
		c-1.2,0.8-1.8,1.8-1.8,3.2c0,1.2,0.4,2.1,1.2,2.8s1.8,1,3.2,1c1,0,1.9-0.2,2.6-0.7s1.3-1.2,1.6-2.1c0.1-0.2,0.1-0.4,0.2-0.6v0.7
		c0,0.7,0.1,1.2,0.4,1.6s0.6,0.7,1,0.8c0.4,0.2,0.8,0.3,1.3,0.3c0.7,0,1.2-0.1,1.7-0.4c0.5-0.3,0.9-0.6,1.1-1.1l-0.3-0.5
		C534.3,102.6,534.1,102.8,533.8,103.1z M528.8,101.2c-0.4,0.7-0.8,1.3-1.3,1.7c-0.5,0.4-1.1,0.5-1.7,0.5c-0.5,0-1-0.1-1.3-0.5
		c-0.3-0.3-0.6-0.7-0.7-1.2c-0.2-0.5-0.2-1-0.2-1.5c0-0.6,0.1-1.1,0.4-1.7c0.3-0.6,0.7-1,1.2-1.4s1.3-0.6,2.2-0.6h2v1.7
		C529.3,99.5,529.1,100.4,528.8,101.2z"/>
	<path class="st0" d="M550.1,94.2c0-0.9-0.1-1.7-0.3-2.4s-0.6-1.2-1.2-1.6s-1.5-0.6-2.7-0.6c-1.1,0-2,0.3-2.7,0.8s-1.3,1.2-1.7,2
		c-0.4,0.7-0.6,1.4-0.8,2.1v-4.6h-4.7v0.6h2v12.8h-2v0.6h6.6v-0.6h-2v-6.3c0-0.7,0.1-1.4,0.3-2.1c0.2-0.8,0.5-1.5,0.9-2.2
		c0.4-0.7,0.9-1.3,1.5-1.7c0.6-0.4,1.3-0.7,2.1-0.7c0.6,0,1,0.2,1.2,0.5c0.3,0.4,0.4,0.9,0.5,1.5c0.1,0.6,0.1,1.4,0.1,2.2v8.7h-2
		v0.6h6.7v-0.6h-2V94.2z"/>
	<path class="st0" d="M567.2,85.8c0.5-1.2,1.1-2.4,1.8-3.3c0.7-1,1.6-1.8,2.5-2.4l-0.3-0.4c-1.7,0.7-3.1,1.8-4.4,3.1
		c-1.3,1.4-2.3,3-3,4.9c-0.7,1.9-1.1,4.1-1.1,6.4c0,1.8,0.2,3.5,0.6,5c0.4,1.6,1,3,1.8,4.4c0.8,1.3,1.7,2.5,2.7,3.4
		c1,1,2.2,1.7,3.4,2.3l0.3-0.5c-0.9-0.6-1.8-1.4-2.5-2.5c-0.7-1-1.3-2.2-1.8-3.6c-0.5-1.3-0.9-2.7-1.1-4.2c-0.3-1.5-0.4-2.9-0.4-4.4
		c0-1.5,0.1-2.9,0.4-4.3C566.4,88.3,566.7,87,567.2,85.8z"/>
	<path class="st0" d="M586.5,103.1c-0.3,0.2-0.6,0.3-0.9,0.3c-0.4,0-0.6-0.1-0.7-0.4c-0.1-0.2-0.2-0.5-0.2-0.9v-7.5
		c0-0.8-0.1-1.6-0.4-2.4c-0.2-0.8-0.7-1.4-1.4-1.9s-1.7-0.7-3.1-0.7c-0.7,0-1.4,0.1-2,0.2c-0.7,0.1-1.2,0.4-1.8,0.6
		c-0.5,0.3-0.9,0.6-1.3,1c-0.3,0.4-0.5,0.8-0.5,1.3c0,0.5,0.2,1,0.5,1.3c0.3,0.3,0.7,0.4,1.2,0.4c0.4,0,0.8-0.1,1.2-0.4
		s0.6-0.7,0.6-1.3c0-0.5-0.2-0.9-0.5-1.2c-0.3-0.3-0.7-0.4-1.1-0.4c0.1-0.1,0.2-0.2,0.4-0.2c0.4-0.2,0.9-0.4,1.4-0.5
		c0.5-0.1,1-0.2,1.4-0.2c0.8,0,1.4,0.2,1.8,0.6c0.4,0.4,0.6,1,0.8,1.6s0.2,1.4,0.2,2.1v1.4h-2c-2.2,0-3.8,0.4-5,1.2
		c-1.2,0.8-1.8,1.8-1.8,3.2c0,1.2,0.4,2.1,1.2,2.8s1.8,1,3.2,1c1,0,1.9-0.2,2.6-0.7s1.3-1.2,1.6-2.1c0.1-0.2,0.1-0.4,0.2-0.6v0.7
		c0,0.7,0.1,1.2,0.4,1.6s0.6,0.7,1,0.8c0.4,0.2,0.8,0.3,1.3,0.3c0.7,0,1.2-0.1,1.7-0.4c0.5-0.3,0.9-0.6,1.1-1.1l-0.3-0.5
		C587.1,102.6,586.9,102.8,586.5,103.1z M581.6,101.2c-0.4,0.7-0.8,1.3-1.3,1.7c-0.5,0.4-1.1,0.5-1.7,0.5c-0.5,0-1-0.1-1.3-0.5
		c-0.3-0.3-0.6-0.7-0.7-1.2c-0.2-0.5-0.2-1-0.2-1.5c0-0.6,0.1-1.1,0.4-1.7c0.3-0.6,0.7-1,1.2-1.4s1.3-0.6,2.2-0.6h2v1.7
		C582.1,99.5,581.9,100.4,581.6,101.2z"/>
	<polygon class="st0" points="594.3,81.1 588.9,81.1 588.9,81.7 591.6,81.7 591.6,103.4 588.9,103.4 588.9,104 596.9,104 
		596.9,103.4 594.3,103.4 	"/>
	<path class="st0" d="M621.1,94.2c0-0.9-0.1-1.7-0.4-2.4s-0.7-1.2-1.2-1.6s-1.4-0.6-2.4-0.6s-1.9,0.3-2.5,0.8
		c-0.7,0.5-1.2,1.2-1.5,1.9c-0.3,0.6-0.5,1.2-0.6,1.8c0-0.9-0.1-1.7-0.3-2.3c-0.2-0.7-0.6-1.2-1.2-1.6c-0.6-0.4-1.3-0.6-2.4-0.6
		c-1,0-1.8,0.3-2.5,0.8c-0.7,0.5-1.2,1.2-1.6,1.9c-0.3,0.7-0.6,1.4-0.8,2.1v-4.6h-4.7v0.6h2v12.8h-2v0.6h6.6v-0.6h-2V97
		c0-0.6,0.1-1.3,0.3-2.1c0.2-0.8,0.4-1.5,0.8-2.2s0.8-1.3,1.3-1.7c0.5-0.5,1.2-0.7,1.9-0.7c0.5,0,0.9,0.2,1.2,0.5
		c0.2,0.3,0.4,0.8,0.5,1.5c0.1,0.6,0.1,1.4,0.1,2.2v8.8h-2v0.6h6.6v-0.6h-2V97c0-0.6,0.1-1.3,0.2-2.1c0.2-0.8,0.4-1.5,0.7-2.2
		c0.3-0.7,0.7-1.3,1.3-1.7c0.5-0.5,1.2-0.7,1.9-0.7c0.5,0,0.9,0.2,1.2,0.5c0.3,0.3,0.5,0.8,0.5,1.5c0.1,0.6,0.1,1.4,0.1,2.2v8.8h-2
		v0.6h6.6v-0.6h-2V94.2z"/>
	<path class="st0" d="M630.9,85.3c-0.8-1.3-1.7-2.5-2.7-3.4c-1-1-2.2-1.7-3.4-2.3l-0.3,0.5c0.9,0.6,1.8,1.4,2.5,2.5
		c0.7,1,1.3,2.2,1.8,3.6s0.9,2.7,1.1,4.2c0.3,1.5,0.4,2.9,0.4,4.4s-0.1,2.9-0.4,4.3s-0.6,2.7-1.1,4s-1.1,2.4-1.8,3.3
		c-0.7,1-1.6,1.8-2.5,2.4l0.3,0.4c1.7-0.7,3.1-1.8,4.4-3.1c1.3-1.4,2.3-3,3-4.9c0.7-1.9,1.1-4.1,1.1-6.4c0-1.8-0.2-3.5-0.6-5
		S631.7,86.6,630.9,85.3z"/>
	<path class="st0" d="M658.4,81.1h-4.8v0.6h2v12.7c-0.3-1.5-0.9-2.6-1.7-3.5c-0.8-0.9-1.9-1.3-3.1-1.3c-1.1,0-2.1,0.3-3,0.9
		c-1,0.6-1.7,1.4-2.3,2.5c-0.6,1.1-0.9,2.4-0.9,3.9c0,1.5,0.3,2.8,0.9,3.9c0.6,1.1,1.4,1.9,2.3,2.5c1,0.6,2,0.9,3,0.9
		c1.2,0,2.3-0.4,3.1-1.3s1.4-2,1.7-3.4v4.4h4.7v-0.6h-2V81.1z M655,100.5c-0.4,1-0.9,1.7-1.6,2.2c-0.7,0.5-1.4,0.8-2.1,0.8
		c-0.8,0-1.5-0.3-2-0.8c-0.5-0.5-1-1.2-1.2-2.2c-0.3-1-0.4-2.1-0.4-3.5s0.1-2.5,0.4-3.5c0.3-1,0.7-1.7,1.2-2.2
		c0.5-0.5,1.2-0.8,2-0.8c0.8,0,1.5,0.3,2.1,0.8c0.7,0.5,1.2,1.2,1.6,2.2s0.6,2.1,0.6,3.5C655.6,98.3,655.4,99.5,655,100.5z"/>
	<path class="st0" d="M676.1,103.1c-0.3,0.2-0.6,0.3-0.9,0.3c-0.4,0-0.6-0.1-0.7-0.4c-0.1-0.2-0.2-0.5-0.2-0.9v-7.5
		c0-0.8-0.1-1.6-0.4-2.4c-0.2-0.8-0.7-1.4-1.4-1.9s-1.7-0.7-3.1-0.7c-0.7,0-1.4,0.1-2,0.2c-0.7,0.1-1.2,0.4-1.8,0.6
		c-0.5,0.3-0.9,0.6-1.3,1c-0.3,0.4-0.5,0.8-0.5,1.3c0,0.5,0.2,1,0.5,1.3c0.3,0.3,0.7,0.4,1.2,0.4c0.4,0,0.8-0.1,1.2-0.4
		s0.6-0.7,0.6-1.3c0-0.5-0.2-0.9-0.5-1.2c-0.3-0.3-0.7-0.4-1.1-0.4c0.1-0.1,0.2-0.2,0.4-0.2c0.4-0.2,0.9-0.4,1.4-0.5
		c0.5-0.1,1-0.2,1.4-0.2c0.8,0,1.4,0.2,1.8,0.6c0.4,0.4,0.6,1,0.8,1.6s0.2,1.4,0.2,2.1v1.4h-2c-2.2,0-3.8,0.4-5,1.2
		c-1.2,0.8-1.8,1.8-1.8,3.2c0,1.2,0.4,2.1,1.2,2.8s1.8,1,3.2,1c1,0,1.9-0.2,2.6-0.7s1.3-1.2,1.6-2.1c0.1-0.2,0.1-0.4,0.2-0.6v0.7
		c0,0.7,0.1,1.2,0.4,1.6s0.6,0.7,1,0.8c0.4,0.2,0.8,0.3,1.3,0.3c0.7,0,1.2-0.1,1.7-0.4c0.5-0.3,0.9-0.6,1.1-1.1l-0.3-0.5
		C676.7,102.6,676.4,102.8,676.1,103.1z M671.1,101.2c-0.4,0.7-0.8,1.3-1.3,1.7c-0.5,0.4-1.1,0.5-1.7,0.5c-0.5,0-1-0.1-1.3-0.5
		c-0.3-0.3-0.6-0.7-0.7-1.2c-0.2-0.5-0.2-1-0.2-1.5c0-0.6,0.1-1.1,0.4-1.7c0.3-0.6,0.7-1,1.2-1.4s1.3-0.6,2.2-0.6h2v1.7
		C671.6,99.5,671.5,100.4,671.1,101.2z"/>
	<path class="st0" d="M692.5,103.4v-9.2c0-0.9-0.1-1.7-0.3-2.4s-0.6-1.2-1.2-1.6s-1.5-0.6-2.7-0.6c-1.1,0-2,0.3-2.7,0.8
		s-1.3,1.2-1.7,2c-0.4,0.7-0.6,1.4-0.8,2.1v-4.6h-4.7v0.6h2v12.8h-2v0.6h6.6v-0.6h-2v-6.3c0-0.7,0.1-1.4,0.3-2.1
		c0.2-0.8,0.5-1.5,0.9-2.2c0.4-0.7,0.9-1.3,1.5-1.7c0.6-0.4,1.3-0.7,2.1-0.7c0.6,0,1,0.2,1.2,0.5c0.3,0.4,0.4,0.9,0.5,1.5
		c0.1,0.6,0.1,1.4,0.1,2.2v8.7h-2v0.6h6.7v-0.6H692.5z"/>
	<polygon class="st0" points="268.2,126.5 263.5,126.5 263.5,127.1 265.5,127.1 265.5,140 263.5,140 263.5,140.6 270.2,140.6 
		270.2,140 268.2,140 	"/>
	<path class="st0" d="M265,119.3c0,0.5,0.2,0.9,0.5,1.3c0.4,0.4,0.8,0.5,1.3,0.5c0.5,0,0.9-0.2,1.3-0.5c0.4-0.4,0.5-0.8,0.5-1.3
		c0-0.5-0.2-0.9-0.5-1.3c-0.4-0.4-0.8-0.5-1.3-0.5c-0.5,0-0.9,0.2-1.3,0.5C265.2,118.4,265,118.8,265,119.3z"/>
	<path class="st0" d="M285.3,127.1c-1-0.6-2-0.9-3-0.9c-1.2,0-2.3,0.4-3.1,1.3c-0.8,0.8-1.4,2-1.8,3.5v-13.3h-4.7v0.6h2V140h-2v0.6
		h4.7v-4.4c0.3,1.4,0.9,2.6,1.8,3.5s1.9,1.3,3.1,1.3c1.1,0,2.1-0.3,3-0.9c1-0.6,1.7-1.4,2.3-2.5c0.6-1.1,0.9-2.4,0.9-3.9
		c0-1.5-0.3-2.8-0.9-3.9C287,128.5,286.2,127.7,285.3,127.1z M284.9,137.1c-0.3,1-0.7,1.7-1.2,2.2c-0.5,0.5-1.2,0.8-2,0.8
		c-0.8,0-1.5-0.3-2.1-0.8c-0.7-0.5-1.2-1.2-1.6-2.2c-0.4-1-0.6-2.1-0.6-3.5c0-1.4,0.2-2.5,0.6-3.5c0.4-1,0.9-1.7,1.6-2.2
		c0.7-0.5,1.4-0.8,2.1-0.8c0.8,0,1.5,0.3,2,0.8c0.5,0.5,1,1.2,1.2,2.2c0.3,1,0.4,2.1,0.4,3.5S285.2,136.1,284.9,137.1z"/>
	<path class="st0" d="M305.2,126.5h-4.9v0.6h2.1v6.3c0,0.7-0.1,1.4-0.3,2.1c-0.2,0.8-0.5,1.5-0.8,2.2s-0.9,1.3-1.5,1.7
		s-1.3,0.7-2.1,0.7c-0.5,0-1-0.2-1.2-0.5c-0.3-0.4-0.4-0.9-0.5-1.5c-0.1-0.6-0.1-1.4-0.1-2.2v-9.3h-4.7v0.6h2v9.1
		c0,0.9,0.1,1.7,0.3,2.4c0.2,0.7,0.6,1.2,1.2,1.6c0.6,0.4,1.5,0.6,2.7,0.6c1.1,0,2-0.3,2.7-0.8s1.3-1.2,1.7-2c0.3-0.7,0.5-1.3,0.7-2
		v4.5h4.7V140h-2V126.5z"/>
	<path class="st0" d="M330,129.3c-0.7-0.6-1.5-1.1-2.3-1.5c-0.9-0.4-1.7-0.8-2.6-1.2c-0.9-0.4-1.6-0.8-2.3-1.2s-1.3-0.9-1.7-1.5
		c-0.4-0.6-0.6-1.2-0.6-2c0-1.1,0.4-2,1.1-2.7s1.8-1,3.3-1c1,0,2,0.2,2.8,0.6c0.8,0.4,1.5,1,2.1,1.8c0.6,0.8,0.9,1.9,1.1,3.1h0.6
		v-6.3h-0.5l-1.4,1.9c-0.6-0.7-1.4-1.1-2.2-1.5c-0.8-0.3-1.8-0.5-2.8-0.5c-1.2,0-2.2,0.2-3.2,0.7c-1,0.5-1.7,1.1-2.3,2
		s-0.9,1.8-0.9,3c0,1.1,0.2,2.1,0.7,2.9c0.4,0.8,1,1.5,1.7,2c0.7,0.6,1.5,1,2.4,1.5s1.7,0.8,2.6,1.2c0.9,0.4,1.7,0.8,2.4,1.2
		c0.7,0.5,1.3,1,1.7,1.6c0.4,0.6,0.7,1.4,0.7,2.3c0,1-0.2,1.9-0.6,2.6c-0.4,0.7-1,1.2-1.8,1.6c-0.8,0.4-1.7,0.5-2.8,0.5
		c-1,0-1.9-0.1-2.7-0.4c-0.8-0.3-1.4-0.7-2-1.2c-0.6-0.5-1-1.1-1.4-1.8s-0.6-1.5-0.8-2.3h-0.6v6.3h0.5l1.4-2.2
		c0.6,0.7,1.4,1.3,2.4,1.7c1,0.4,2.1,0.6,3.4,0.6c1.4,0,2.7-0.3,3.7-0.8c1-0.5,1.9-1.3,2.4-2.3c0.6-1,0.9-2.1,0.9-3.5
		c0-1.2-0.2-2.2-0.6-3.1C331.3,130.6,330.7,129.9,330,129.3z"/>
	<polygon class="st0" points="339.5,126.5 334.7,126.5 334.7,127.1 336.7,127.1 336.7,140 334.7,140 334.7,140.6 341.5,140.6 
		341.5,140 339.5,140 	"/>
	<path class="st0" d="M339.4,120.6c0.4-0.4,0.5-0.8,0.5-1.3c0-0.5-0.2-0.9-0.5-1.3c-0.4-0.4-0.8-0.5-1.3-0.5c-0.5,0-0.9,0.2-1.3,0.5
		c-0.4,0.4-0.5,0.8-0.5,1.3c0,0.5,0.2,0.9,0.5,1.3c0.4,0.4,0.8,0.5,1.3,0.5C338.6,121.1,339,121,339.4,120.6z"/>
	<path class="st0" d="M350.9,139.2c-0.4,0.4-0.9,0.6-1.4,0.6c-0.4,0-0.7-0.1-0.9-0.4c-0.2-0.3-0.3-0.8-0.3-1.5v-10.8h3.3v-0.6h-3.3
		v-4c-0.3,0.2-0.7,0.4-1.2,0.6c-0.5,0.2-1,0.3-1.5,0.3v3h-2v0.6h2v10c0,0.6,0.1,1.1,0.2,1.7c0.1,0.6,0.4,1,0.9,1.4s1,0.6,1.9,0.6
		c1,0,1.8-0.3,2.4-0.8c0.6-0.5,1.1-1.2,1.5-2l-0.5-0.3C351.7,138.2,351.3,138.7,350.9,139.2z"/>
	<polygon class="st0" points="358.9,126.5 354.2,126.5 354.2,127.1 356.2,127.1 356.2,140 354.2,140 354.2,140.6 360.9,140.6 
		360.9,140 358.9,140 	"/>
	<path class="st0" d="M358.9,120.6c0.4-0.4,0.5-0.8,0.5-1.3c0-0.5-0.2-0.9-0.5-1.3c-0.4-0.4-0.8-0.5-1.3-0.5c-0.5,0-0.9,0.2-1.3,0.5
		c-0.4,0.4-0.5,0.8-0.5,1.3c0,0.5,0.2,0.9,0.5,1.3c0.4,0.4,0.8,0.5,1.3,0.5C358.1,121.1,358.5,121,358.9,120.6z"/>
	<path class="st0" d="M382.2,117.3h-0.6l-8,22.7h-2.8v0.6h6.7V140h-3.2l2.3-6.6h8.1l2.1,6.6h-3.1v0.6h8.8V140H390L382.2,117.3z
		 M376.7,132.8l4-11.4l3.7,11.4H376.7z"/>
	<path class="st0" d="M416.5,130.8c0-0.9-0.1-1.7-0.4-2.4s-0.7-1.2-1.2-1.6s-1.4-0.6-2.4-0.6s-1.9,0.3-2.5,0.8
		c-0.7,0.5-1.2,1.2-1.5,1.9c-0.3,0.6-0.5,1.2-0.6,1.8c0-0.9-0.1-1.7-0.3-2.3c-0.2-0.7-0.6-1.2-1.2-1.6c-0.6-0.4-1.3-0.6-2.4-0.6
		c-1,0-1.8,0.3-2.5,0.8c-0.7,0.5-1.2,1.2-1.6,1.9c-0.3,0.7-0.6,1.4-0.8,2.1v-4.6h-4.7v0.6h2V140h-2v0.6h6.6V140h-2v-6.4
		c0-0.6,0.1-1.3,0.3-2.1c0.2-0.8,0.4-1.5,0.8-2.2s0.8-1.3,1.3-1.7c0.5-0.5,1.2-0.7,1.9-0.7c0.5,0,0.9,0.2,1.2,0.5
		c0.2,0.3,0.4,0.8,0.5,1.5c0.1,0.6,0.1,1.4,0.1,2.2v8.8h-2v0.6h6.6V140h-2v-6.4c0-0.6,0.1-1.3,0.2-2.1c0.2-0.8,0.4-1.5,0.7-2.2
		c0.3-0.7,0.7-1.3,1.3-1.7c0.5-0.5,1.2-0.7,1.9-0.7c0.5,0,0.9,0.2,1.2,0.5c0.3,0.3,0.5,0.8,0.5,1.5c0.1,0.6,0.1,1.4,0.1,2.2v8.8h-2
		v0.6h6.6V140h-2V130.8z"/>
	<path class="st0" d="M434.3,139.7c-0.3,0.2-0.6,0.3-0.9,0.3c-0.4,0-0.6-0.1-0.7-0.4c-0.1-0.2-0.2-0.5-0.2-0.9v-7.5
		c0-0.8-0.1-1.6-0.4-2.4c-0.2-0.8-0.7-1.4-1.4-1.9s-1.7-0.7-3.1-0.7c-0.7,0-1.4,0.1-2,0.2c-0.7,0.1-1.2,0.4-1.8,0.6
		c-0.5,0.3-0.9,0.6-1.3,1c-0.3,0.4-0.5,0.8-0.5,1.3c0,0.5,0.2,1,0.5,1.3c0.3,0.3,0.7,0.4,1.2,0.4c0.4,0,0.8-0.1,1.2-0.4
		s0.6-0.7,0.6-1.3c0-0.5-0.2-0.9-0.5-1.2c-0.3-0.3-0.7-0.4-1.1-0.4c0.1-0.1,0.2-0.2,0.4-0.2c0.4-0.2,0.9-0.4,1.4-0.5
		c0.5-0.1,1-0.2,1.4-0.2c0.8,0,1.4,0.2,1.8,0.6c0.4,0.4,0.6,1,0.8,1.6s0.2,1.4,0.2,2.1v1.4h-2c-2.2,0-3.8,0.4-5,1.2
		c-1.2,0.8-1.8,1.8-1.8,3.2c0,1.2,0.4,2.1,1.2,2.8s1.8,1,3.2,1c1,0,1.9-0.2,2.6-0.7s1.3-1.2,1.6-2.1c0.1-0.2,0.1-0.4,0.2-0.6v0.7
		c0,0.7,0.1,1.2,0.4,1.6s0.6,0.7,1,0.8c0.4,0.2,0.8,0.3,1.3,0.3c0.7,0,1.2-0.1,1.7-0.4c0.5-0.3,0.9-0.6,1.1-1.1l-0.3-0.5
		C434.8,139.2,434.6,139.4,434.3,139.7z M429.3,137.8c-0.4,0.7-0.8,1.3-1.3,1.7c-0.5,0.4-1.1,0.5-1.7,0.5c-0.5,0-1-0.1-1.3-0.5
		c-0.3-0.3-0.6-0.7-0.7-1.2c-0.2-0.5-0.2-1-0.2-1.5c0-0.6,0.1-1.1,0.4-1.7c0.3-0.6,0.7-1,1.2-1.4s1.3-0.6,2.2-0.6h2v1.7
		C429.8,136.1,429.6,137,429.3,137.8z"/>
	<path class="st0" d="M447,126.6c-0.4-0.2-0.9-0.3-1.4-0.3c-0.8,0-1.4,0.2-2,0.7c-0.6,0.5-1.1,1.1-1.4,1.9c-0.3,0.7-0.6,1.5-0.8,2.3
		v-4.5h-4.7v0.6h2V140h-2v0.6h6.8V140h-2.2V134c0-0.9,0.1-1.7,0.3-2.6c0.2-0.8,0.5-1.6,0.9-2.3s0.8-1.3,1.3-1.7
		c0.5-0.4,1.1-0.6,1.7-0.6c0.4,0,0.7,0.1,1,0.2c0,0,0,0,0,0c0,0-0.1,0-0.1,0c-0.4,0-0.8,0.1-1.2,0.4c-0.4,0.3-0.6,0.7-0.6,1.3
		c0,0.5,0.2,0.8,0.5,1.1s0.8,0.5,1.3,0.5c0.5,0,1-0.2,1.3-0.5c0.3-0.4,0.5-0.8,0.5-1.3c0-0.4-0.1-0.8-0.3-1.1
		C447.7,127.1,447.4,126.8,447,126.6z"/>
	<polygon class="st0" points="455,126.5 450.3,126.5 450.3,127.1 452.3,127.1 452.3,140 450.3,140 450.3,140.6 457,140.6 457,140 
		455,140 	"/>
	<path class="st0" d="M453.7,117.5c-0.5,0-0.9,0.2-1.3,0.5c-0.4,0.4-0.5,0.8-0.5,1.3c0,0.5,0.2,0.9,0.5,1.3c0.4,0.4,0.8,0.5,1.3,0.5
		c0.5,0,0.9-0.2,1.3-0.5c0.4-0.4,0.5-0.8,0.5-1.3c0-0.5-0.2-0.9-0.5-1.3C454.6,117.6,454.2,117.5,453.7,117.5z"/>
	<path class="st0" d="M469.9,127.1h2.4l-4.2,10.1l-4.8-10.1h2.4v-0.6h-6.9v0.6h1.4l6.4,13.5l-2.5,5.9c0-0.3-0.1-0.5-0.3-0.7
		c-0.2-0.2-0.3-0.3-0.6-0.4c-0.2-0.1-0.5-0.2-0.7-0.2c-0.3,0-0.6,0.1-0.9,0.2s-0.5,0.3-0.6,0.6c-0.1,0.3-0.2,0.5-0.2,0.9
		c0,0.4,0.1,0.7,0.3,0.9c0.2,0.2,0.4,0.4,0.7,0.5c0.3,0.1,0.5,0.2,0.8,0.2c0.6,0,1-0.2,1.3-0.5s0.6-0.8,0.9-1.5l8.2-19.5h1.7v-0.6
		h-4.8V127.1z"/>
	<path class="st0" d="M489.6,139.7c-0.3,0.2-0.6,0.3-0.9,0.3c-0.4,0-0.6-0.1-0.7-0.4c-0.1-0.2-0.2-0.5-0.2-0.9v-7.5
		c0-0.8-0.1-1.6-0.4-2.4c-0.2-0.8-0.7-1.4-1.4-1.9s-1.7-0.7-3.1-0.7c-0.7,0-1.4,0.1-2,0.2c-0.7,0.1-1.2,0.4-1.8,0.6
		c-0.5,0.3-0.9,0.6-1.3,1c-0.3,0.4-0.5,0.8-0.5,1.3c0,0.5,0.2,1,0.5,1.3c0.3,0.3,0.7,0.4,1.2,0.4c0.4,0,0.8-0.1,1.2-0.4
		s0.6-0.7,0.6-1.3c0-0.5-0.2-0.9-0.5-1.2c-0.3-0.3-0.7-0.4-1.1-0.4c0.1-0.1,0.2-0.2,0.4-0.2c0.4-0.2,0.9-0.4,1.4-0.5
		c0.5-0.1,1-0.2,1.4-0.2c0.8,0,1.4,0.2,1.8,0.6c0.4,0.4,0.6,1,0.8,1.6s0.2,1.4,0.2,2.1v1.4h-2c-2.2,0-3.8,0.4-5,1.2
		c-1.2,0.8-1.8,1.8-1.8,3.2c0,1.2,0.4,2.1,1.2,2.8s1.8,1,3.2,1c1,0,1.9-0.2,2.6-0.7s1.3-1.2,1.6-2.1c0.1-0.2,0.1-0.4,0.2-0.6v0.7
		c0,0.7,0.1,1.2,0.4,1.6s0.6,0.7,1,0.8c0.4,0.2,0.8,0.3,1.3,0.3c0.7,0,1.2-0.1,1.7-0.4c0.5-0.3,0.9-0.6,1.1-1.1l-0.3-0.5
		C490.2,139.2,489.9,139.4,489.6,139.7z M484.6,137.8c-0.4,0.7-0.8,1.3-1.3,1.7c-0.5,0.4-1.1,0.5-1.7,0.5c-0.5,0-1-0.1-1.3-0.5
		c-0.3-0.3-0.6-0.7-0.7-1.2c-0.2-0.5-0.2-1-0.2-1.5c0-0.6,0.1-1.1,0.4-1.7c0.3-0.6,0.7-1,1.2-1.4s1.3-0.6,2.2-0.6h2v1.7
		C485.1,136.1,485,137,484.6,137.8z"/>
	<path class="st0" d="M506,130.8c0-0.9-0.1-1.7-0.3-2.4c-0.2-0.7-0.6-1.2-1.2-1.6s-1.5-0.6-2.7-0.6c-1,0-1.9,0.3-2.6,0.8
		c-0.7,0.5-1.3,1.2-1.7,2c-0.3,0.7-0.6,1.4-0.8,2.1v-13.4H492v0.6h2V140h-2v0.6h6.7V140h-2v-6.3c0-0.7,0.1-1.4,0.3-2.1
		s0.5-1.5,0.8-2.2s0.9-1.3,1.5-1.7s1.3-0.7,2.1-0.7c0.6,0,1,0.2,1.2,0.5c0.3,0.4,0.4,0.9,0.5,1.5c0.1,0.6,0.1,1.4,0.1,2.2v8.7h-2
		v0.6h6.7V140h-2V130.8z"/>
</g>
</svg>
