<svg xmlns="http://www.w3.org/2000/svg" viewBox="0 0 637.03 140.93"><defs><style>.cls-1{fill:#826435;}</style></defs><g id="Layer_2" data-name="Layer 2"><g id="Layer_6" data-name="Layer 6"><polygon class="cls-1" points="51.56 0.72 50.32 0.72 35.44 43.8 19.44 0.72 7.76 0.72 6.96 0.72 0 0.72 0 2.28 6.12 2.28 6.12 59.16 0.44 59.16 0.44 60.72 13.68 60.72 13.68 59.16 7.76 59.16 7.76 2.91 29.2 61.52 31.04 61.52 51.56 2 51.56 59.16 45.16 59.16 45.16 60.72 69.6 60.72 69.6 59.16 63.96 59.16 63.96 2.28 69.6 2.28 69.6 0.72 52 0.72 51.56 0.72"/><path class="cls-1" d="M135.12,4.5A33.09,33.09,0,0,0,118.8.72H93.16V2.28h7.24V59.16H93.16v1.56H118.8a34.3,34.3,0,0,0,12.44-2.16,27.68,27.68,0,0,0,9.62-6.14A27,27,0,0,0,147,42.94a33.18,33.18,0,0,0,2.16-12.22A32.53,32.53,0,0,0,145.56,15,25.91,25.91,0,0,0,135.12,4.5Zm-.76,37.3a32.46,32.46,0,0,1-2.74,9.06,15.68,15.68,0,0,1-5,6.1,13.2,13.2,0,0,1-7.78,2.2h-6V2.28h6a12.53,12.53,0,0,1,7.46,2.2,16.25,16.25,0,0,1,5.06,6.1,33.83,33.83,0,0,1,2.92,9.06,60.56,60.56,0,0,1,1,11.08A69,69,0,0,1,134.36,41.8Z"/><polygon class="cls-1" points="195.6 61.52 200.04 61.52 212.08 25.48 218.44 25.48 218.44 23.92 202.64 23.92 202.64 25.48 210.36 25.48 202.56 48.72 194.76 23.12 188.2 23.12 177.24 50.4 170.08 25.48 176.56 25.48 176.56 23.92 153.4 23.92 153.4 25.48 158.52 25.48 170 61.52 174.56 61.52 185.76 33.68 195.6 61.52"/><path class="cls-1" d="M232.48,13.64a6.59,6.59,0,0,0,4.88-2,6.59,6.59,0,0,0,2-4.82A6.7,6.7,0,0,0,232.48,0a6.57,6.57,0,0,0-4.82,2,6.59,6.59,0,0,0-2,4.88,6.57,6.57,0,0,0,2,4.82A6.55,6.55,0,0,0,232.48,13.64Z"/><polygon class="cls-1" points="238.08 23.92 221.48 23.92 221.48 25.48 226.88 25.48 226.88 59.16 221.48 59.16 221.48 60.72 243.52 60.72 243.52 59.16 238.08 59.16 238.08 23.92"/><path class="cls-1" d="M300.64,21.32H299A13.5,13.5,0,0,1,297.12,26a8.9,8.9,0,0,1-3.5,3,11.78,11.78,0,0,1-5.26,1.08h-1.64V2.28h8.84a13.84,13.84,0,0,1,7.52,1.92,13.63,13.63,0,0,1,4.8,5.28,23.42,23.42,0,0,1,2.36,7.64h1.6V.72H267V2.28h7.24V59.16H267v1.56h27.64V59.16h-8V31.68h1.64a10.9,10.9,0,0,1,5.26,1.18,9.37,9.37,0,0,1,3.5,3.26A14.86,14.86,0,0,1,299,40.88h1.6Z"/><path class="cls-1" d="M327.36,59.3a21.78,21.78,0,0,0,10,2.22q7.2,0,11.4-3.36a17,17,0,0,0,5.76-8.4H352.8a15.2,15.2,0,0,1-5,7.06,13.41,13.41,0,0,1-8.58,2.78,7.15,7.15,0,0,1-4.52-1.36,8.63,8.63,0,0,1-2.72-3.8,22.75,22.75,0,0,1-1.34-5.74,61.45,61.45,0,0,1-.38-7.18c0-.54,0-1,0-1.56h23.85a18.56,18.56,0,0,0-1.86-8.2,15.08,15.08,0,0,0-5.66-6.24,17.85,17.85,0,0,0-9.68-2.4,21.24,21.24,0,0,0-9.9,2.22,16,16,0,0,0-6.72,6.5,20.93,20.93,0,0,0-2.42,10.48,20.33,20.33,0,0,0,2.52,10.48A16.49,16.49,0,0,0,327.36,59.3Zm4.24-29.64a8.69,8.69,0,0,1,2-3.66A4.49,4.49,0,0,1,337,24.68a3.67,3.67,0,0,1,2.9,1.22,7.79,7.79,0,0,1,1.56,3.24,26.26,26.26,0,0,1,.66,4.44c.1,1.61.16,3.22.16,4.82H330.35c0-1.16.12-2.28.23-3.36A27.54,27.54,0,0,1,331.6,29.66Z"/><path class="cls-1" d="M382.12,59.16h-6.24V43.68a31.82,31.82,0,0,1,.8-7.34,23.62,23.62,0,0,1,2.24-6,12,12,0,0,1,3.48-4.08,7.6,7.6,0,0,1,4.52-1.46,7.27,7.27,0,0,1,3.6.88,7.86,7.86,0,0,0-1.56-.16,6.34,6.34,0,0,0-6.6,6.6,5.86,5.86,0,0,0,1.86,4.34A6.56,6.56,0,0,0,389,38.24a6.11,6.11,0,0,0,4.78-2,7,7,0,0,0,1.82-4.84,8.5,8.5,0,0,0-1-3.92,7.88,7.88,0,0,0-2.86-3.08,8.66,8.66,0,0,0-4.7-1.2,9,9,0,0,0-5.5,1.68,12.44,12.44,0,0,0-3.76,4.56A23.71,23.71,0,0,0,375.88,35v-11H359.32v1.56h5.44V59.16h-5.44v1.56h22.8Z"/><path class="cls-1" d="M419.68,59.16h-4.2V42.84a25.51,25.51,0,0,1,.62-5.58A22.2,22.2,0,0,1,417.92,32a11.62,11.62,0,0,1,3-3.86,6.09,6.09,0,0,1,4-1.46,3.12,3.12,0,0,1,2.48,1,5.78,5.78,0,0,1,1.12,3,43.71,43.71,0,0,1,.28,5.44v23h-4.2v1.56h20.76V59.16h-5.44v-24a19.1,19.1,0,0,0-.94-6.2,8.15,8.15,0,0,0-3.36-4.28c-1.62-1-3.94-1.56-7-1.56a11.79,11.79,0,0,0-7,2,14,14,0,0,0-4.38,5.06,23.58,23.58,0,0,0-1.72,4.32V23.92H398.92v1.56h5.44V59.16h-5.44v1.56h20.76Z"/><path class="cls-1" d="M493.08,56.6l-1-1A5.44,5.44,0,0,1,489.94,58a5.06,5.06,0,0,1-2.38.78,2.14,2.14,0,0,1-2-.92,4.42,4.42,0,0,1-.54-2.28V36.36a13.65,13.65,0,0,0-1.64-6.72,11.21,11.21,0,0,0-5.3-4.66,23.56,23.56,0,0,0-9.78-1.7,30,30,0,0,0-5.42.5,19.81,19.81,0,0,0-4.9,1.54A9.84,9.84,0,0,0,454.44,28a5.93,5.93,0,0,0-1.32,3.86,5,5,0,0,0,1.82,4.1,6.88,6.88,0,0,0,4.54,1.5A7.59,7.59,0,0,0,464,36a5,5,0,0,0,2-4.3,4.67,4.67,0,0,0-2-4,7.74,7.74,0,0,0-4.6-1.4h-.12a15.06,15.06,0,0,1,3.35-1.07,19.61,19.61,0,0,1,3.65-.38,6.4,6.4,0,0,1,4.82,1.68,8.54,8.54,0,0,1,2.15,4.34,27,27,0,0,1,.55,5.54v3.8h-5.76q-8.52,0-13.16,3.06a9.57,9.57,0,0,0-4.64,8.42,9,9,0,0,0,3.1,7.22,12.3,12.3,0,0,0,8.29,2.66,12.79,12.79,0,0,0,7-1.88,12.39,12.39,0,0,0,4.55-5.32,14.54,14.54,0,0,0,.59-1.47V54.4a6.58,6.58,0,0,0,1.18,4.06,6.77,6.77,0,0,0,3.19,2.32,13.51,13.51,0,0,0,4.63.74,14.37,14.37,0,0,0,6.33-1.3A8,8,0,0,0,493.08,56.6Zm-20.22-4.18a8.42,8.42,0,0,1-2.61,3.64A5.33,5.33,0,0,1,467,57.24a3.77,3.77,0,0,1-2.62-.92,5.48,5.48,0,0,1-1.52-2.48,11.17,11.17,0,0,1-.5-3.48,10.72,10.72,0,0,1,.82-4,7.52,7.52,0,0,1,7.53-4.8h3.17V46.2A16.34,16.34,0,0,1,472.86,52.42Z"/><path class="cls-1" d="M512.69,37.26A22.66,22.66,0,0,1,514.51,32a11.76,11.76,0,0,1,3-3.86,6.13,6.13,0,0,1,4-1.46,3.11,3.11,0,0,1,2.48,1,5.7,5.7,0,0,1,1.12,3,41.85,41.85,0,0,1,.28,5.44v23h-4.2v1.56h20.76V59.16h-5.44v-24a18.83,18.83,0,0,0-.94-6.2,8.06,8.06,0,0,0-3.36-4.28q-2.42-1.56-7-1.56a11.83,11.83,0,0,0-7,2,14.19,14.19,0,0,0-4.38,5.06,24.31,24.31,0,0,0-1.72,4.32V23.92H495.51v1.56H501V59.16h-5.44v1.56h20.76V59.16h-4.2V42.84A26.14,26.14,0,0,1,512.69,37.26Z"/><path class="cls-1" d="M587.51.72H570.87V2.28h5.4V35a17.13,17.13,0,0,0-4.52-8.74,11.16,11.16,0,0,0-8.08-3.14,15.5,15.5,0,0,0-8.1,2.3,17.39,17.39,0,0,0-6.22,6.6,20.83,20.83,0,0,0-2.4,10.3,20.7,20.7,0,0,0,2.4,10.28,17.34,17.34,0,0,0,6.22,6.56,15.57,15.57,0,0,0,8.1,2.28,11.18,11.18,0,0,0,8.08-3.12,17,17,0,0,0,4.52-8.68v11h16.64V59.16h-5.4Zm-12.72,50.7a13.85,13.85,0,0,1-3.72,5.6,7.09,7.09,0,0,1-4.64,1.9,4.73,4.73,0,0,1-3.74-1.76,12.24,12.24,0,0,1-2.26-5.44,48,48,0,0,1-.76-9.36,48.41,48.41,0,0,1,.76-9.38,12.43,12.43,0,0,1,2.26-5.48,4.69,4.69,0,0,1,3.74-1.78,7.09,7.09,0,0,1,4.64,1.9,13.85,13.85,0,0,1,3.72,5.6,24.64,24.64,0,0,1,1.48,9.14A24.41,24.41,0,0,1,574.79,51.42Z"/><path class="cls-1" d="M634.67,32.76a18.13,18.13,0,0,0-6.72-7,21.92,21.92,0,0,0-20.86,0,18.11,18.11,0,0,0-6.74,7,20.54,20.54,0,0,0,0,19.12,18.11,18.11,0,0,0,6.74,7,21.92,21.92,0,0,0,20.86,0,18.13,18.13,0,0,0,6.72-7A19.69,19.69,0,0,0,637,42.32,19.69,19.69,0,0,0,634.67,32.76Zm-9.9,16.32a25.88,25.88,0,0,1-1.24,5.64,9.42,9.42,0,0,1-2.34,3.84,5.1,5.1,0,0,1-3.64,1.4,5.16,5.16,0,0,1-3.68-1.4,9.53,9.53,0,0,1-2.34-3.84,26.47,26.47,0,0,1-1.24-5.64,60.5,60.5,0,0,1,0-13.54,26.41,26.41,0,0,1,1.24-5.62,9.53,9.53,0,0,1,2.34-3.84,5.16,5.16,0,0,1,3.68-1.4,5.1,5.1,0,0,1,3.64,1.4,9.42,9.42,0,0,1,2.34,3.84,25.81,25.81,0,0,1,1.24,5.62,55.85,55.85,0,0,1,.38,6.78A56,56,0,0,1,624.77,49.08Z"/><path class="cls-1" d="M84.87,82a10.8,10.8,0,0,0-4.51-.81h-9v.59h2.75v21.69H71.36V104h8.39v-.59H77V94.15h3.34a11.17,11.17,0,0,0,4.51-.78,5.46,5.46,0,0,0,2.58-2.22,6.67,6.67,0,0,0,.84-3.42,6.87,6.87,0,0,0-.84-3.46A5.6,5.6,0,0,0,84.87,82Zm-.24,7.81a6.51,6.51,0,0,1-.89,1.88A4.81,4.81,0,0,1,82.31,93a3.73,3.73,0,0,1-2,.51H77V81.75h3.34a3.57,3.57,0,0,1,2,.54,4.87,4.87,0,0,1,1.43,1.43,6.93,6.93,0,0,1,.89,1.93,7.66,7.66,0,0,1,.31,2.08A7.34,7.34,0,0,1,84.63,89.78Z"/><path class="cls-1" d="M105.05,90h-4.89v.59h2.13v6.26A9.56,9.56,0,0,1,102,99a8.67,8.67,0,0,1-.83,2.21,5.18,5.18,0,0,1-1.45,1.72,3.51,3.51,0,0,1-2.13.67,1.44,1.44,0,0,1-1.23-.54,3.27,3.27,0,0,1-.53-1.51,18.63,18.63,0,0,1-.12-2.25V90H91v.59h2v9.14a8.12,8.12,0,0,0,.32,2.36,2.84,2.84,0,0,0,1.22,1.64,4.84,4.84,0,0,0,2.67.6,4.51,4.51,0,0,0,2.72-.78,5.29,5.29,0,0,0,1.65-2,9.58,9.58,0,0,0,.71-2V104H107v-.59h-2Z"/><path class="cls-1" d="M116.3,102.61a2,2,0,0,1-1.38.64,1,1,0,0,1-.93-.38,2.76,2.76,0,0,1-.28-1.52V90.59H117V90h-3.26V86a5,5,0,0,1-1.25.62A4.4,4.4,0,0,1,111,87v3h-2v.59h2v10a6.78,6.78,0,0,0,.22,1.67,2.74,2.74,0,0,0,.86,1.39,2.78,2.78,0,0,0,1.88.55,3.66,3.66,0,0,0,2.39-.76,6,6,0,0,0,1.55-2l-.51-.32A5.39,5.39,0,0,1,116.3,102.61Z"/><path class="cls-1" d="M129.84,90a3,3,0,0,0-1.44-.32,3.11,3.11,0,0,0-2,.7,5.51,5.51,0,0,0-1.44,1.85,10.32,10.32,0,0,0-.79,2.27V90h-4.66v.59h2v12.85h-2V104h6.83v-.59h-2.17v-6a10.6,10.6,0,0,1,.32-2.58,9.76,9.76,0,0,1,.86-2.31,5.37,5.37,0,0,1,1.33-1.66,2.65,2.65,0,0,1,1.69-.62,2.35,2.35,0,0,1,1,.22l0,0h-.1a2,2,0,0,0-1.22.43,1.67,1.67,0,0,0-.07,2.41,1.81,1.81,0,0,0,1.29.45,1.6,1.6,0,0,0,1.27-.54A2,2,0,0,0,131,92a2.22,2.22,0,0,0-1.2-2Z"/><path class="cls-1" d="M146.51,103.12a1.61,1.61,0,0,1-.88.33.75.75,0,0,1-.74-.35,1.84,1.84,0,0,1-.18-.85V94.74a7.93,7.93,0,0,0-.35-2.38A3.51,3.51,0,0,0,143,90.49a5.51,5.51,0,0,0-3.15-.73,9,9,0,0,0-2,.22,7,7,0,0,0-1.77.62,3.82,3.82,0,0,0-1.25,1,2,2,0,0,0-.47,1.29,1.59,1.59,0,0,0,.48,1.25,1.75,1.75,0,0,0,1.19.42,1.92,1.92,0,0,0,1.18-.41,1.52,1.52,0,0,0,.55-1.32,1.43,1.43,0,0,0-.54-1.2,1.89,1.89,0,0,0-1.08-.4,3.85,3.85,0,0,1,.4-.24,6,6,0,0,1,1.37-.47,7.17,7.17,0,0,1,1.43-.15,2.31,2.31,0,0,1,1.8.64,3.25,3.25,0,0,1,.77,1.65,11.9,11.9,0,0,1,.18,2.1v1.45h-2a9,9,0,0,0-5,1.17,3.66,3.66,0,0,0-1.75,3.21,3.42,3.42,0,0,0,1.18,2.75,4.67,4.67,0,0,0,3.16,1,4.42,4.42,0,0,0,2.62-.74,4.6,4.6,0,0,0,1.63-2.08,4.94,4.94,0,0,0,.2-.58v.74a3,3,0,0,0,.37,1.58,2,2,0,0,0,1,.83,3.34,3.34,0,0,0,1.32.25,3.24,3.24,0,0,0,1.71-.43,3.3,3.3,0,0,0,1.13-1.06l-.29-.55A2.27,2.27,0,0,1,146.51,103.12Zm-5-1.9a4,4,0,0,1-1.33,1.67,2.91,2.91,0,0,1-1.65.55,1.91,1.91,0,0,1-1.31-.45,2.55,2.55,0,0,1-.74-1.16,4.62,4.62,0,0,1-.24-1.47,4.1,4.1,0,0,1,.38-1.68,3.47,3.47,0,0,1,1.21-1.41,3.78,3.78,0,0,1,2.16-.56h2v1.74A6.46,6.46,0,0,1,141.52,101.22Z"/><polygon class="cls-1" points="164.06 94.86 169.39 90.59 172 90.59 172 90 165.5 90 165.5 90.59 168.56 90.59 161.87 95.89 161.87 81.16 156.53 81.16 156.53 81.75 159.14 81.75 159.14 103.44 156.53 103.44 156.53 104.03 164 104.03 164 103.44 161.87 103.44 161.87 96.19 168.05 103.44 165.96 103.44 165.96 104.03 173.05 104.03 173.05 103.44 171.39 103.44 164.06 94.86"/><path class="cls-1" d="M185.85,102.65a5.21,5.21,0,0,1-3.35,1,3.36,3.36,0,0,1-2-.54,3.68,3.68,0,0,1-1.2-1.48,7.54,7.54,0,0,1-.61-2.14,16.71,16.71,0,0,1-.18-2.5c0-.35,0-.69,0-1h9.6a8.1,8.1,0,0,0-.59-3.09,5,5,0,0,0-1.91-2.31,6.23,6.23,0,0,0-3.53-.88,6.82,6.82,0,0,0-3.48.88,6.16,6.16,0,0,0-2.39,2.51,8.19,8.19,0,0,0-.87,3.92,7.92,7.92,0,0,0,.92,3.92,6.44,6.44,0,0,0,2.5,2.52,7.1,7.1,0,0,0,3.5.87,6.15,6.15,0,0,0,4-1.21,6.44,6.44,0,0,0,2.08-3.07h-.68A5.74,5.74,0,0,1,185.85,102.65Zm-7.14-8.15a9,9,0,0,1,.55-2.16,3.61,3.61,0,0,1,1.09-1.5,2.82,2.82,0,0,1,1.8-.55,2.25,2.25,0,0,1,1.53.5,3.1,3.1,0,0,1,.83,1.29,7.5,7.5,0,0,1,.35,1.67,16.22,16.22,0,0,1,.08,1.65h-6.31C178.65,95.1,178.67,94.79,178.71,94.5Z"/><path class="cls-1" d="M205.29,81.16h-4.76v.59h2v12.7A7.06,7.06,0,0,0,200.78,91a4.22,4.22,0,0,0-3.12-1.28,5.64,5.64,0,0,0-3,.88,6.53,6.53,0,0,0-2.34,2.51,8,8,0,0,0-.91,3.93,7.89,7.89,0,0,0,.91,3.92,6.5,6.5,0,0,0,2.34,2.5,5.72,5.72,0,0,0,3,.87,4.21,4.21,0,0,0,3.12-1.27,7,7,0,0,0,1.75-3.44V104h4.74v-.59h-2Zm-3.37,19.37a5.29,5.29,0,0,1-1.6,2.2,3.38,3.38,0,0,1-2.12.77,2.82,2.82,0,0,1-2-.77,4.74,4.74,0,0,1-1.24-2.21,14.42,14.42,0,0,1,0-7,4.92,4.92,0,0,1,1.24-2.23,2.82,2.82,0,0,1,2-.77,3.38,3.38,0,0,1,2.12.77,5.23,5.23,0,0,1,1.6,2.22,10.37,10.37,0,0,1,0,7Z"/><path class="cls-1" d="M223.52,90h-4.89v.59h2.13v6.26A9.51,9.51,0,0,1,220.5,99a9.06,9.06,0,0,1-.83,2.21,5.33,5.33,0,0,1-1.46,1.72,3.47,3.47,0,0,1-2.13.67,1.41,1.41,0,0,1-1.22-.54,3.16,3.16,0,0,1-.53-1.51,18.63,18.63,0,0,1-.12-2.25V90h-4.73v.59h2v9.14a8.13,8.13,0,0,0,.31,2.36,2.92,2.92,0,0,0,1.22,1.64,4.88,4.88,0,0,0,2.68.6,4.48,4.48,0,0,0,2.71-.78,5.41,5.41,0,0,0,1.66-2,9.55,9.55,0,0,0,.7-2V104h4.75v-.59h-2Z"/><path class="cls-1" d="M241.27,103.12a1.61,1.61,0,0,1-.88.33.75.75,0,0,1-.74-.35,1.84,1.84,0,0,1-.17-.85V94.74a7.94,7.94,0,0,0-.36-2.38,3.46,3.46,0,0,0-1.39-1.87,5.51,5.51,0,0,0-3.15-.73,9.06,9.06,0,0,0-2,.22,7,7,0,0,0-1.77.62,3.92,3.92,0,0,0-1.25,1,2,2,0,0,0-.46,1.29,1.59,1.59,0,0,0,.48,1.25,1.72,1.72,0,0,0,1.18.42,1.92,1.92,0,0,0,1.18-.41,1.53,1.53,0,0,0,.56-1.32,1.44,1.44,0,0,0-.55-1.2,1.86,1.86,0,0,0-1.07-.4,2.89,2.89,0,0,1,.39-.24,6,6,0,0,1,1.37-.47,7.17,7.17,0,0,1,1.43-.15,2.31,2.31,0,0,1,1.8.64,3.17,3.17,0,0,1,.77,1.65,11,11,0,0,1,.19,2.1v1.45h-2.05a9,9,0,0,0-5,1.17,3.66,3.66,0,0,0-1.75,3.21,3.42,3.42,0,0,0,1.18,2.75,4.67,4.67,0,0,0,3.16,1,4.48,4.48,0,0,0,2.63-.74,4.65,4.65,0,0,0,1.62-2.08c.08-.18.14-.38.21-.58v.74a3,3,0,0,0,.36,1.58,2,2,0,0,0,1,.83,3.34,3.34,0,0,0,1.32.25,3.3,3.3,0,0,0,1.72-.43,3.36,3.36,0,0,0,1.12-1.06l-.29-.55A2.27,2.27,0,0,1,241.27,103.12Zm-5-1.9a4,4,0,0,1-1.33,1.67,2.91,2.91,0,0,1-1.65.55A1.89,1.89,0,0,1,232,103a2.57,2.57,0,0,1-.75-1.16,4.62,4.62,0,0,1-.24-1.47,4.1,4.1,0,0,1,.38-1.68,3.47,3.47,0,0,1,1.21-1.41,3.8,3.8,0,0,1,2.16-.56h2.05v1.74A6.45,6.45,0,0,1,236.28,101.22Z"/><path class="cls-1" d="M261.15,103.05a7,7,0,0,0,1.75-3.44V104h4.74v-.59h-2V81.16H260.9v.59h2v12.7A7.06,7.06,0,0,0,261.15,91,4.22,4.22,0,0,0,258,89.71a5.69,5.69,0,0,0-3,.88,6.53,6.53,0,0,0-2.34,2.51,8,8,0,0,0-.91,3.93,7.89,7.89,0,0,0,.91,3.92,6.5,6.5,0,0,0,2.34,2.5,5.77,5.77,0,0,0,3,.87A4.21,4.21,0,0,0,261.15,103.05Zm-5.83-2.53a12.6,12.6,0,0,1-.43-3.49,12.73,12.73,0,0,1,.43-3.5,4.92,4.92,0,0,1,1.24-2.23,2.85,2.85,0,0,1,2-.77,3.42,3.42,0,0,1,2.13.77,5.3,5.3,0,0,1,1.59,2.22,10.37,10.37,0,0,1,0,7,5.36,5.36,0,0,1-1.59,2.2,3.42,3.42,0,0,1-2.13.77,2.85,2.85,0,0,1-2-.77A4.74,4.74,0,0,1,255.32,100.52Z"/><path class="cls-1" d="M276.9,96.19a9,9,0,0,0-5,1.17,3.67,3.67,0,0,0-1.76,3.21,3.45,3.45,0,0,0,1.18,2.75,4.69,4.69,0,0,0,3.17,1,4.42,4.42,0,0,0,2.62-.74,4.74,4.74,0,0,0,1.63-2.08c.07-.18.14-.38.2-.58v.74a2.93,2.93,0,0,0,.37,1.58,2,2,0,0,0,1,.83,3.32,3.32,0,0,0,1.31.25,3.27,3.27,0,0,0,2.84-1.49l-.29-.55a2.18,2.18,0,0,1-.74.83,1.58,1.58,0,0,1-.87.33.74.74,0,0,1-.74-.35,1.84,1.84,0,0,1-.18-.85V94.74a8.26,8.26,0,0,0-.35-2.38,3.48,3.48,0,0,0-1.4-1.87,5.47,5.47,0,0,0-3.15-.73,9.06,9.06,0,0,0-2,.22,7,7,0,0,0-1.76.62,4,4,0,0,0-1.26,1,2,2,0,0,0-.46,1.29,1.59,1.59,0,0,0,.48,1.25,1.72,1.72,0,0,0,1.18.42,1.9,1.9,0,0,0,1.18-.41,1.53,1.53,0,0,0,.56-1.32,1.43,1.43,0,0,0-.54-1.2,1.91,1.91,0,0,0-1.08-.4c.13-.08.25-.17.39-.24a5.9,5.9,0,0,1,1.38-.47,7.07,7.07,0,0,1,1.42-.15A2.33,2.33,0,0,1,278,91a3.25,3.25,0,0,1,.77,1.65,11.9,11.9,0,0,1,.18,2.1v1.45Zm1.52,5a4.16,4.16,0,0,1-1.33,1.67,3,3,0,0,1-1.66.55,1.9,1.9,0,0,1-1.3-.45,2.66,2.66,0,0,1-.75-1.16,4.91,4.91,0,0,1-.23-1.47,3.94,3.94,0,0,1,.38-1.68,3.37,3.37,0,0,1,1.2-1.41,3.82,3.82,0,0,1,2.17-.56h2v1.74A6.46,6.46,0,0,1,278.42,101.22Z"/><path class="cls-1" d="M296.17,90a3.33,3.33,0,0,0-3.47.38,5.51,5.51,0,0,0-1.44,1.85,10.32,10.32,0,0,0-.79,2.27V90H285.8v.59h2v12.85h-2V104h6.84v-.59h-2.17v-6a10.59,10.59,0,0,1,.31-2.58,10.23,10.23,0,0,1,.87-2.31A5.1,5.1,0,0,1,293,90.94a2.63,2.63,0,0,1,1.68-.62,2.36,2.36,0,0,1,1,.22l0,0h-.11a1.93,1.93,0,0,0-1.21.43,1.67,1.67,0,0,0-.07,2.41,1.8,1.8,0,0,0,1.28.45,1.6,1.6,0,0,0,1.28-.54,2,2,0,0,0,.46-1.32,2.18,2.18,0,0,0-.3-1.11A2.26,2.26,0,0,0,296.17,90Z"/><polygon class="cls-1" points="306.16 103.44 304.16 103.44 304.16 90 299.44 90 299.44 90.59 301.42 90.59 301.42 103.44 299.44 103.44 299.44 104.03 306.16 104.03 306.16 103.44"/><path class="cls-1" d="M301.52,81.46a1.82,1.82,0,0,0,0,2.59,1.73,1.73,0,0,0,1.29.55,1.7,1.7,0,0,0,1.29-.55,1.82,1.82,0,0,0,0-2.59,1.72,1.72,0,0,0-1.29-.53A1.75,1.75,0,0,0,301.52,81.46Z"/><path class="cls-1" d="M331.26,102.54c1.4-1,2.11-2.63,2.11-4.92a4.55,4.55,0,0,0-1.08-3.17,6.29,6.29,0,0,0-2.89-1.72,13.17,13.17,0,0,0-2.6-.47,8.45,8.45,0,0,0,3.69-1.19,5.57,5.57,0,0,0-.12-8.58,10.14,10.14,0,0,0-5.54-1.33H316v.59h2.75v21.69H316V104h9.47A10,10,0,0,0,331.26,102.54Zm-6.43-20.79a4.49,4.49,0,0,1,2.21.59,4.43,4.43,0,0,1,1.71,1.77,6.07,6.07,0,0,1,.67,3,5.34,5.34,0,0,1-.67,2.88A3.81,3.81,0,0,1,327,91.53a5.56,5.56,0,0,1-2.21.45h-3.19V81.75Zm-3.19,21.69V92.58h3.49a5.9,5.9,0,0,1,2.43.5,4,4,0,0,1,1.78,1.62,5.59,5.59,0,0,1,.67,2.92,6.69,6.69,0,0,1-.67,3.12,5,5,0,0,1-1.78,2,4.52,4.52,0,0,1-2.43.7Z"/><path class="cls-1" d="M349.71,103.12a1.61,1.61,0,0,1-.88.33.76.76,0,0,1-.74-.35,1.84,1.84,0,0,1-.17-.85V94.74a8.26,8.26,0,0,0-.35-2.38,3.53,3.53,0,0,0-1.4-1.87,5.51,5.51,0,0,0-3.15-.73,9.06,9.06,0,0,0-2,.22,7,7,0,0,0-1.77.62,3.92,3.92,0,0,0-1.25,1,2,2,0,0,0-.46,1.29,1.59,1.59,0,0,0,.48,1.25,1.72,1.72,0,0,0,1.18.42,1.92,1.92,0,0,0,1.18-.41,1.53,1.53,0,0,0,.56-1.32,1.43,1.43,0,0,0-.54-1.2,1.91,1.91,0,0,0-1.08-.4,2.89,2.89,0,0,1,.39-.24,6,6,0,0,1,1.37-.47,7.17,7.17,0,0,1,1.43-.15,2.31,2.31,0,0,1,1.8.64,3.17,3.17,0,0,1,.77,1.65,11,11,0,0,1,.19,2.1v1.45H343.2a9,9,0,0,0-5,1.17,3.66,3.66,0,0,0-1.75,3.21,3.42,3.42,0,0,0,1.18,2.75,4.67,4.67,0,0,0,3.16,1,4.46,4.46,0,0,0,2.63-.74,4.65,4.65,0,0,0,1.62-2.08,5,5,0,0,0,.21-.58v.74a3,3,0,0,0,.36,1.58,2,2,0,0,0,1,.83,3.34,3.34,0,0,0,1.32.25,3.3,3.3,0,0,0,1.72-.43,3.36,3.36,0,0,0,1.12-1.06l-.29-.55A2.27,2.27,0,0,1,349.71,103.12Zm-5-1.9a4,4,0,0,1-1.33,1.67,2.91,2.91,0,0,1-1.65.55,1.89,1.89,0,0,1-1.3-.45,2.57,2.57,0,0,1-.75-1.16,4.62,4.62,0,0,1-.24-1.47,4.1,4.1,0,0,1,.38-1.68A3.47,3.47,0,0,1,341,97.27a3.8,3.8,0,0,1,2.16-.56h2.05v1.74A6.45,6.45,0,0,1,344.72,101.22Z"/><path class="cls-1" d="M356.84,99.59a7,7,0,0,0,1.77,3.46,4.21,4.21,0,0,0,3.12,1.28,5.78,5.78,0,0,0,3-.87,6.62,6.62,0,0,0,2.33-2.52,9,9,0,0,0,0-7.84,6.59,6.59,0,0,0-2.33-2.51,5.86,5.86,0,0,0-3-.86A4.24,4.24,0,0,0,358.61,91a6.92,6.92,0,0,0-1.77,3.45V90h-4.73v.59h2v20.47h-2v.6h6.71v-.6h-2Zm.61-6.08a5.24,5.24,0,0,1,1.6-2.21,3.46,3.46,0,0,1,2.13-.75,2.85,2.85,0,0,1,2,.76,4.85,4.85,0,0,1,1.25,2.21,14.79,14.79,0,0,1,0,7,4.84,4.84,0,0,1-1.25,2.22,2.86,2.86,0,0,1-2,.77,3.41,3.41,0,0,1-2.13-.76,5.27,5.27,0,0,1-1.6-2.22,10.4,10.4,0,0,1,0-7Z"/><path class="cls-1" d="M379.76,100.93v.74a3,3,0,0,0,.36,1.58,2,2,0,0,0,1,.83,3.34,3.34,0,0,0,1.32.25,3.3,3.3,0,0,0,1.72-.43,3.36,3.36,0,0,0,1.12-1.06l-.29-.55a2.27,2.27,0,0,1-.74.83,1.61,1.61,0,0,1-.88.33.75.75,0,0,1-.74-.35,1.84,1.84,0,0,1-.17-.85V94.74a8.26,8.26,0,0,0-.35-2.38,3.53,3.53,0,0,0-1.4-1.87,5.51,5.51,0,0,0-3.15-.73,9.06,9.06,0,0,0-2,.22,7,7,0,0,0-1.77.62,3.92,3.92,0,0,0-1.25,1,2,2,0,0,0-.46,1.29,1.59,1.59,0,0,0,.48,1.25,1.72,1.72,0,0,0,1.18.42,1.92,1.92,0,0,0,1.18-.41,1.53,1.53,0,0,0,.56-1.32,1.41,1.41,0,0,0-.55-1.2,1.86,1.86,0,0,0-1.07-.4,2.89,2.89,0,0,1,.39-.24,6,6,0,0,1,1.37-.47,7.17,7.17,0,0,1,1.43-.15,2.31,2.31,0,0,1,1.8.64,3.17,3.17,0,0,1,.77,1.65,11,11,0,0,1,.19,2.1v1.45h-2.05a9,9,0,0,0-5,1.17,3.66,3.66,0,0,0-1.75,3.21,3.42,3.42,0,0,0,1.18,2.75,4.67,4.67,0,0,0,3.16,1,4.48,4.48,0,0,0,2.63-.74,4.65,4.65,0,0,0,1.62-2.08C379.63,101.33,379.69,101.13,379.76,100.93Zm-1.86,2a2.91,2.91,0,0,1-1.65.55A1.89,1.89,0,0,1,375,103a2.57,2.57,0,0,1-.75-1.16,4.62,4.62,0,0,1-.24-1.47,4.1,4.1,0,0,1,.38-1.68,3.47,3.47,0,0,1,1.21-1.41,3.8,3.8,0,0,1,2.16-.56h2.05v1.74a6.45,6.45,0,0,1-.53,2.77A4,4,0,0,1,377.9,102.89Z"/><polygon class="cls-1" points="394.15 94.86 399.48 90.59 402.08 90.59 402.08 90 395.59 90 395.59 90.59 398.65 90.59 391.96 95.89 391.96 81.16 386.62 81.16 386.62 81.75 389.23 81.75 389.23 103.44 386.62 103.44 386.62 104.03 394.09 104.03 394.09 103.44 391.96 103.44 391.96 96.19 398.13 103.44 396.04 103.44 396.04 104.03 403.13 104.03 403.13 103.44 401.47 103.44 394.15 94.86"/><path class="cls-1" d="M425.64,92.73a12.18,12.18,0,0,0-2.35-1.53c-.85-.43-1.7-.84-2.56-1.21a24.49,24.49,0,0,1-2.35-1.2,5.92,5.92,0,0,1-1.71-1.47,3.26,3.26,0,0,1-.65-2,3.51,3.51,0,0,1,1.12-2.72,4.71,4.71,0,0,1,3.3-1,6.34,6.34,0,0,1,2.79.6A5.28,5.28,0,0,1,425.32,84a7.87,7.87,0,0,1,1.15,3.15h.58V80.85h-.51l-1.42,1.94a5.9,5.9,0,0,0-2.19-1.46,7.8,7.8,0,0,0-2.78-.48,7.17,7.17,0,0,0-3.18.71,5.79,5.79,0,0,0-2.29,2,5.17,5.17,0,0,0-.85,3,5.84,5.84,0,0,0,.65,2.88,6.36,6.36,0,0,0,1.75,2,14.15,14.15,0,0,0,2.38,1.46c.87.41,1.73.81,2.6,1.19a20.39,20.39,0,0,1,2.38,1.25,6.05,6.05,0,0,1,1.75,1.61,3.77,3.77,0,0,1,.65,2.26,4.79,4.79,0,0,1-.64,2.56,4.11,4.11,0,0,1-1.82,1.59,6.69,6.69,0,0,1-2.8.55,7.7,7.7,0,0,1-2.69-.44,6,6,0,0,1-2-1.21,6.22,6.22,0,0,1-1.38-1.83,8.55,8.55,0,0,1-.78-2.3h-.59v6.26h.51l1.42-2.15a6.5,6.5,0,0,0,2.4,1.68,8.57,8.57,0,0,0,3.4.61,8,8,0,0,0,3.72-.81,5.67,5.67,0,0,0,2.42-2.28,6.74,6.74,0,0,0,.86-3.45,6.34,6.34,0,0,0-2.37-5.2Z"/><polygon class="cls-1" points="435.57 81.16 430.23 81.16 430.23 81.75 432.84 81.75 432.84 103.44 430.23 103.44 430.23 104.03 438.16 104.03 438.16 103.44 435.57 103.44 435.57 81.16"/><path class="cls-1" d="M453.94,103.12a1.58,1.58,0,0,1-.88.33.76.76,0,0,1-.74-.35,2,2,0,0,1-.17-.85V94.74a8.26,8.26,0,0,0-.35-2.38,3.53,3.53,0,0,0-1.4-1.87,5.47,5.47,0,0,0-3.15-.73,9.06,9.06,0,0,0-2,.22,7.25,7.25,0,0,0-1.77.62,3.92,3.92,0,0,0-1.25,1,2,2,0,0,0-.46,1.29,1.59,1.59,0,0,0,.48,1.25,1.72,1.72,0,0,0,1.18.42,1.9,1.9,0,0,0,1.18-.41,1.53,1.53,0,0,0,.56-1.32,1.43,1.43,0,0,0-.54-1.2,1.91,1.91,0,0,0-1.08-.4,3.68,3.68,0,0,1,.39-.24,6,6,0,0,1,1.37-.47,7.25,7.25,0,0,1,1.43-.15,2.35,2.35,0,0,1,1.81.64,3.34,3.34,0,0,1,.77,1.65,11.9,11.9,0,0,1,.18,2.1v1.45h-2a9,9,0,0,0-5,1.17,3.66,3.66,0,0,0-1.75,3.21,3.42,3.42,0,0,0,1.18,2.75,4.68,4.68,0,0,0,3.17,1,4.45,4.45,0,0,0,2.62-.74,4.65,4.65,0,0,0,1.62-2.08,5,5,0,0,0,.21-.58v.74a3,3,0,0,0,.36,1.58,2,2,0,0,0,1,.83,3.34,3.34,0,0,0,1.32.25,3.3,3.3,0,0,0,1.72-.43,3.36,3.36,0,0,0,1.12-1.06l-.29-.55A2.18,2.18,0,0,1,453.94,103.12Zm-5-1.9a4.06,4.06,0,0,1-1.32,1.67,3,3,0,0,1-1.66.55,1.89,1.89,0,0,1-1.3-.45,2.66,2.66,0,0,1-.75-1.16,4.62,4.62,0,0,1-.24-1.47,4.1,4.1,0,0,1,.38-1.68,3.47,3.47,0,0,1,1.21-1.41,3.82,3.82,0,0,1,2.17-.56h2v1.74A6.45,6.45,0,0,1,449,101.22Z"/><path class="cls-1" d="M478.38,94.29a7.19,7.19,0,0,0-.37-2.37,3.13,3.13,0,0,0-1.23-1.62,4.19,4.19,0,0,0-2.38-.59,4,4,0,0,0-2.52.76,5.23,5.23,0,0,0-1.55,2,9.3,9.3,0,0,0-.63,1.84,7.69,7.69,0,0,0-.33-2.34,3,3,0,0,0-1.16-1.62,4.71,4.71,0,0,0-4.85.17,5.65,5.65,0,0,0-1.59,2,9.43,9.43,0,0,0-.76,2.14V90h-4.67v.59h2v12.85h-2V104H463v-.59h-2V97.08a8.84,8.84,0,0,1,.26-2,9.53,9.53,0,0,1,.78-2.19,5.38,5.38,0,0,1,1.34-1.72,2.85,2.85,0,0,1,1.89-.68,1.33,1.33,0,0,1,1.17.51,3,3,0,0,1,.47,1.46c.06.63.1,1.37.1,2.23v8.8h-2V104h6.63v-.59h-2V97.08a10.62,10.62,0,0,1,.23-2,9.37,9.37,0,0,1,.72-2.19,5,5,0,0,1,1.27-1.72,2.82,2.82,0,0,1,1.9-.68A1.45,1.45,0,0,1,475,91a3,3,0,0,1,.54,1.46,15.9,15.9,0,0,1,.14,2.23v8.8h-2V104h6.65v-.59h-2Z"/><path class="cls-1" d="M493.48,102.65a5.21,5.21,0,0,1-3.35,1,3.36,3.36,0,0,1-2-.54,3.68,3.68,0,0,1-1.2-1.48,7.88,7.88,0,0,1-.61-2.14,16.71,16.71,0,0,1-.18-2.5c0-.35,0-.69,0-1h9.59a8.1,8.1,0,0,0-.59-3.09,5,5,0,0,0-1.91-2.31,6.23,6.23,0,0,0-3.53-.88,6.76,6.76,0,0,0-3.47.88,6.12,6.12,0,0,0-2.4,2.51A8.19,8.19,0,0,0,483,97a7.81,7.81,0,0,0,.93,3.92,6.36,6.36,0,0,0,2.49,2.52,7.14,7.14,0,0,0,3.51.87,6.14,6.14,0,0,0,4-1.21,6.53,6.53,0,0,0,2.09-3.07h-.69A5.74,5.74,0,0,1,493.48,102.65Zm-7.14-8.15a9,9,0,0,1,.55-2.16,3.7,3.7,0,0,1,1.09-1.5,2.82,2.82,0,0,1,1.8-.55,2.25,2.25,0,0,1,1.53.5,3.1,3.1,0,0,1,.83,1.29,7.5,7.5,0,0,1,.35,1.67,16.22,16.22,0,0,1,.08,1.65h-6.31C486.28,95.1,486.31,94.79,486.34,94.5Z"/><path class="cls-1" d="M505.61,102.61a2,2,0,0,1-1.38.64,1,1,0,0,1-.93-.38,2.76,2.76,0,0,1-.28-1.52V90.59h3.26V90H503V86a5,5,0,0,1-1.25.62,4.4,4.4,0,0,1-1.48.29v3h-2v.59h2v10a6.78,6.78,0,0,0,.22,1.67,2.74,2.74,0,0,0,.86,1.39,2.78,2.78,0,0,0,1.88.55,3.66,3.66,0,0,0,2.39-.76,5.81,5.81,0,0,0,1.54-2l-.5-.32A5.39,5.39,0,0,1,505.61,102.61Z"/><path class="cls-1" d="M530.78,81.16H526v.59h2v12.7A7.06,7.06,0,0,0,526.27,91a4.22,4.22,0,0,0-3.12-1.28,5.64,5.64,0,0,0-3,.88,6.53,6.53,0,0,0-2.34,2.51,8,8,0,0,0-.91,3.93,7.89,7.89,0,0,0,.91,3.92,6.5,6.5,0,0,0,2.34,2.5,5.72,5.72,0,0,0,3,.87,4.21,4.21,0,0,0,3.12-1.27A7,7,0,0,0,528,99.61V104h4.74v-.59h-2Zm-3.37,19.37a5.29,5.29,0,0,1-1.6,2.2,3.38,3.38,0,0,1-2.13.77,2.81,2.81,0,0,1-2-.77,4.66,4.66,0,0,1-1.24-2.21,14.42,14.42,0,0,1,0-7,4.83,4.83,0,0,1,1.24-2.23,2.81,2.81,0,0,1,2-.77,3.38,3.38,0,0,1,2.13.77,5.23,5.23,0,0,1,1.6,2.22,10.37,10.37,0,0,1,0,7Z"/><path class="cls-1" d="M548.52,103.12a1.58,1.58,0,0,1-.88.33.76.76,0,0,1-.74-.35,2,2,0,0,1-.17-.85V94.74a8.26,8.26,0,0,0-.35-2.38,3.53,3.53,0,0,0-1.4-1.87,5.51,5.51,0,0,0-3.15-.73,9.06,9.06,0,0,0-2,.22,7.25,7.25,0,0,0-1.77.62,3.92,3.92,0,0,0-1.25,1,2,2,0,0,0-.46,1.29,1.59,1.59,0,0,0,.48,1.25,1.72,1.72,0,0,0,1.18.42,1.9,1.9,0,0,0,1.18-.41,1.53,1.53,0,0,0,.56-1.32,1.43,1.43,0,0,0-.54-1.2,1.91,1.91,0,0,0-1.08-.4,3.68,3.68,0,0,1,.39-.24,6,6,0,0,1,1.37-.47,7.17,7.17,0,0,1,1.43-.15,2.31,2.31,0,0,1,1.8.64,3.26,3.26,0,0,1,.78,1.65,11.9,11.9,0,0,1,.18,2.1v1.45h-2a9,9,0,0,0-5,1.17,3.66,3.66,0,0,0-1.75,3.21,3.42,3.42,0,0,0,1.18,2.75,4.67,4.67,0,0,0,3.16,1,4.46,4.46,0,0,0,2.63-.74,4.65,4.65,0,0,0,1.62-2.08,5,5,0,0,0,.21-.58v.74a3,3,0,0,0,.36,1.58,2,2,0,0,0,1,.83,3.34,3.34,0,0,0,1.32.25,3.3,3.3,0,0,0,1.72-.43,3.36,3.36,0,0,0,1.12-1.06l-.29-.55A2.27,2.27,0,0,1,548.52,103.12Zm-5-1.9a4.06,4.06,0,0,1-1.32,1.67,3,3,0,0,1-1.66.55,1.89,1.89,0,0,1-1.3-.45,2.66,2.66,0,0,1-.75-1.16,4.62,4.62,0,0,1-.24-1.47,4.1,4.1,0,0,1,.38-1.68,3.47,3.47,0,0,1,1.21-1.41,3.8,3.8,0,0,1,2.16-.56h2v1.74A6.45,6.45,0,0,1,543.53,101.22Z"/><path class="cls-1" d="M564.89,94.29a8.15,8.15,0,0,0-.31-2.37,2.83,2.83,0,0,0-1.19-1.62,4.84,4.84,0,0,0-2.65-.59,4.35,4.35,0,0,0-2.68.79,5.61,5.61,0,0,0-1.7,2,9.49,9.49,0,0,0-.77,2.08V90h-4.67v.59h2v12.85h-2V104h6.63v-.59h-2V97.18a9.07,9.07,0,0,1,.28-2.15,8.82,8.82,0,0,1,.86-2.2,5.38,5.38,0,0,1,1.48-1.72,3.51,3.51,0,0,1,2.13-.67,1.43,1.43,0,0,1,1.24.54,3.27,3.27,0,0,1,.51,1.51,18.63,18.63,0,0,1,.12,2.25v8.7h-2V104h6.67v-.59h-2Z"/><polygon class="cls-1" points="251.21 126.6 246.48 126.6 246.48 127.19 248.47 127.19 248.47 140.03 246.48 140.03 246.48 140.63 253.21 140.63 253.21 140.03 251.21 140.03 251.21 126.6"/><path class="cls-1" d="M249.85,121.2a1.74,1.74,0,0,0,1.3-.55,1.83,1.83,0,0,0-1.3-3.12,1.74,1.74,0,0,0-1.28.53,1.8,1.8,0,0,0,0,2.59A1.73,1.73,0,0,0,249.85,121.2Z"/><path class="cls-1" d="M268.23,127.19a5.83,5.83,0,0,0-3-.86,4.24,4.24,0,0,0-3.12,1.27,7,7,0,0,0-1.78,3.45v-13.3h-4.73v.6h2V140h-2v.59h4.73v-4.44a7.09,7.09,0,0,0,1.78,3.46,4.21,4.21,0,0,0,3.12,1.28,5.74,5.74,0,0,0,3-.87,6.61,6.61,0,0,0,2.33-2.52,9,9,0,0,0,0-7.84A6.51,6.51,0,0,0,268.23,127.19Zm-.32,9.93a4.75,4.75,0,0,1-1.25,2.22,2.85,2.85,0,0,1-2,.77,3.42,3.42,0,0,1-2.14-.76,5.36,5.36,0,0,1-1.6-2.22,10.4,10.4,0,0,1,0-7,5.32,5.32,0,0,1,1.6-2.21,3.47,3.47,0,0,1,2.14-.75,2.84,2.84,0,0,1,2,.76,4.77,4.77,0,0,1,1.25,2.21,14.46,14.46,0,0,1,0,7Z"/><path class="cls-1" d="M288.18,126.6h-4.9v.59h2.14v6.26a9.56,9.56,0,0,1-.27,2.14,9.06,9.06,0,0,1-.83,2.21,5.21,5.21,0,0,1-1.46,1.72,3.46,3.46,0,0,1-2.12.67,1.44,1.44,0,0,1-1.23-.54,3.16,3.16,0,0,1-.53-1.51,18.63,18.63,0,0,1-.12-2.25V126.6h-4.73v.59h2v9.14a8.13,8.13,0,0,0,.31,2.36,3,3,0,0,0,1.22,1.64,4.9,4.9,0,0,0,2.68.6,4.46,4.46,0,0,0,2.71-.78,5.39,5.39,0,0,0,1.66-2,10.16,10.16,0,0,0,.71-2v4.51h4.74V140h-2Z"/><polygon class="cls-1" points="309.12 126.65 315.27 118.35 318.43 118.35 318.43 117.75 311.11 117.75 311.11 118.35 314.41 118.35 305.49 130.37 305.49 118.35 308.52 118.35 308.52 117.75 299.83 117.75 299.83 118.35 302.57 118.35 302.57 140.03 299.83 140.03 299.83 140.63 308.52 140.63 308.52 140.03 305.49 140.03 305.49 131.54 307.28 129.13 313.43 140.03 310.35 140.03 310.35 140.63 319.81 140.63 319.81 140.03 317.07 140.03 309.12 126.65"/><path class="cls-1" d="M335.05,139.72a1.61,1.61,0,0,1-.88.33.75.75,0,0,1-.74-.35,1.84,1.84,0,0,1-.18-.85v-7.51a7.93,7.93,0,0,0-.35-2.38,3.46,3.46,0,0,0-1.39-1.87,5.51,5.51,0,0,0-3.15-.73,9.06,9.06,0,0,0-2,.22,7,7,0,0,0-1.77.62,3.92,3.92,0,0,0-1.25,1,2,2,0,0,0-.47,1.29,1.59,1.59,0,0,0,.48,1.25,1.77,1.77,0,0,0,1.19.42,1.92,1.92,0,0,0,1.18-.41,1.52,1.52,0,0,0,.55-1.32,1.43,1.43,0,0,0-.54-1.2,1.88,1.88,0,0,0-1.07-.4,2.89,2.89,0,0,1,.39-.24,6,6,0,0,1,1.37-.47,7.17,7.17,0,0,1,1.43-.15,2.31,2.31,0,0,1,1.8.64,3.25,3.25,0,0,1,.77,1.65,11,11,0,0,1,.19,2.1v1.45h-2a9,9,0,0,0-5,1.17,3.66,3.66,0,0,0-1.75,3.21,3.42,3.42,0,0,0,1.18,2.75,4.67,4.67,0,0,0,3.16,1,4.48,4.48,0,0,0,2.63-.74,4.65,4.65,0,0,0,1.62-2.08c.08-.18.14-.38.21-.58v.74a3,3,0,0,0,.36,1.57,2,2,0,0,0,1,.84,3.34,3.34,0,0,0,1.32.25,3.3,3.3,0,0,0,1.72-.43,3.36,3.36,0,0,0,1.12-1.06l-.29-.55A2.27,2.27,0,0,1,335.05,139.72Zm-5-1.9a4,4,0,0,1-1.33,1.67,2.91,2.91,0,0,1-1.65.55,1.89,1.89,0,0,1-1.31-.46,2.47,2.47,0,0,1-.74-1.15,4.62,4.62,0,0,1-.24-1.47,4.1,4.1,0,0,1,.38-1.68,3.47,3.47,0,0,1,1.21-1.41,3.8,3.8,0,0,1,2.16-.56h2v1.74A6.45,6.45,0,0,1,330.06,137.82Z"/><path class="cls-1" d="M347.81,126.63a3,3,0,0,0-1.44-.32,3.13,3.13,0,0,0-2,.7,5.51,5.51,0,0,0-1.44,1.85,10.86,10.86,0,0,0-.79,2.27V126.6h-4.66v.59h2V140h-2v.59h6.83V140h-2.17v-5.95a10.6,10.6,0,0,1,.32-2.58,10.23,10.23,0,0,1,.87-2.31,5.21,5.21,0,0,1,1.32-1.66,2.67,2.67,0,0,1,1.69-.62,2.43,2.43,0,0,1,1,.22l0,0h-.1a1.91,1.91,0,0,0-1.21.43,1.51,1.51,0,0,0-.56,1.28A1.49,1.49,0,0,0,346,130a1.81,1.81,0,0,0,1.29.45,1.58,1.58,0,0,0,1.27-.54,2,2,0,0,0,.47-1.32,2.09,2.09,0,0,0-.31-1.11A2.19,2.19,0,0,0,347.81,126.63Z"/><polygon class="cls-1" points="355.81 126.6 351.08 126.6 351.08 127.19 353.06 127.19 353.06 140.03 351.08 140.03 351.08 140.63 357.81 140.63 357.81 140.03 355.81 140.03 355.81 126.6"/><path class="cls-1" d="M355.75,120.65a1.85,1.85,0,0,0,0-2.59,1.84,1.84,0,0,0-3.13,1.3,1.78,1.78,0,0,0,.54,1.29,1.8,1.8,0,0,0,2.59,0Z"/><path class="cls-1" d="M374.14,130.88a8.13,8.13,0,0,0-.31-2.36,2.83,2.83,0,0,0-1.19-1.62,4.84,4.84,0,0,0-2.65-.59,4.35,4.35,0,0,0-2.68.79,5.61,5.61,0,0,0-1.7,2,9.49,9.49,0,0,0-.77,2.08V126.6h-4.67v.59h2V140h-2v.59h6.63V140h-2v-6.26a9.07,9.07,0,0,1,.28-2.15,8.67,8.67,0,0,1,.86-2.2,5.38,5.38,0,0,1,1.48-1.72,3.51,3.51,0,0,1,2.13-.67,1.43,1.43,0,0,1,1.24.54,3.27,3.27,0,0,1,.51,1.51,18.63,18.63,0,0,1,.12,2.25V140h-2v.59h6.67V140h-2Z"/><path class="cls-1" d="M391.88,139.72a1.58,1.58,0,0,1-.88.33.76.76,0,0,1-.74-.35,2,2,0,0,1-.17-.85v-7.51a8.26,8.26,0,0,0-.35-2.38,3.53,3.53,0,0,0-1.4-1.87,5.47,5.47,0,0,0-3.15-.73,9.06,9.06,0,0,0-2,.22,7,7,0,0,0-1.76.62,3.86,3.86,0,0,0-1.26,1,2,2,0,0,0-.46,1.29,1.59,1.59,0,0,0,.48,1.25,1.72,1.72,0,0,0,1.18.42,1.9,1.9,0,0,0,1.18-.41,1.53,1.53,0,0,0,.56-1.32,1.43,1.43,0,0,0-.54-1.2,1.91,1.91,0,0,0-1.08-.4c.13-.08.25-.17.39-.24a5.9,5.9,0,0,1,1.38-.47,7.07,7.07,0,0,1,1.42-.15,2.33,2.33,0,0,1,1.81.64,3.25,3.25,0,0,1,.77,1.65,11.9,11.9,0,0,1,.18,2.1v1.45h-2a9,9,0,0,0-5,1.17,3.67,3.67,0,0,0-1.76,3.21,3.45,3.45,0,0,0,1.18,2.75,4.69,4.69,0,0,0,3.17,1,4.45,4.45,0,0,0,2.62-.74,4.65,4.65,0,0,0,1.62-2.08,5,5,0,0,0,.21-.58v.74a2.87,2.87,0,0,0,.37,1.57,1.93,1.93,0,0,0,1,.84,3.32,3.32,0,0,0,1.31.25,3.27,3.27,0,0,0,2.84-1.49l-.29-.55A2.18,2.18,0,0,1,391.88,139.72Zm-5-1.9a4.06,4.06,0,0,1-1.32,1.67,3,3,0,0,1-1.66.55,1.85,1.85,0,0,1-1.3-.46,2.57,2.57,0,0,1-.75-1.15,4.91,4.91,0,0,1-.23-1.47,3.94,3.94,0,0,1,.38-1.68,3.37,3.37,0,0,1,1.2-1.41,3.82,3.82,0,0,1,2.17-.56h2v1.74A6.31,6.31,0,0,1,386.89,137.82Z"/></g></g></svg>