<?xml version="1.0" encoding="utf-8"?>
<!-- Generator: Adobe Illustrator 25.4.1, SVG Export Plug-In . SVG Version: 6.00 Build 0)  -->
<svg version="1.1" id="Layer_1" xmlns="http://www.w3.org/2000/svg" xmlns:xlink="http://www.w3.org/1999/xlink" x="0px" y="0px"
	 viewBox="0 0 612.9 164.4" style="enable-background:new 0 0 612.9 164.4;" xml:space="preserve">
<style type="text/css">
	.st0{fill:#F3F1E7;}
</style>
<g>
	<g>
		<path class="st0" d="M208.6,100.8v4.7h-0.4c0-0.8-0.1-1.5-0.4-2.2c-0.2-0.6-0.6-1.1-1.1-1.5s-1.2-0.5-2.1-0.5h-3.6v16.2h2.3v0.4
			h-6.5v-0.4h2.1v-16.2h-2.1v-0.4H208.6z M204.8,111.8c0-0.5-0.1-0.9-0.3-1.2s-0.5-0.6-0.9-0.7c-0.4-0.2-1-0.2-1.6-0.2h-1.5v-0.4
			h1.5c0.7,0,1.2-0.1,1.6-0.2c0.4-0.1,0.7-0.3,0.9-0.6c0.2-0.3,0.3-0.7,0.3-1.2h0.5v4.7H204.8z"/>
		<path class="st0" d="M213.9,118.1c-1,0-1.8-0.3-2.4-0.8c-0.6-0.5-0.9-1.2-0.9-2.1c0-1,0.4-1.8,1.3-2.4c0.9-0.6,2.1-0.9,3.7-0.9
			h2.6v0.4h-2.6c-0.7,0-1.2,0.1-1.6,0.4s-0.7,0.6-0.9,1c-0.2,0.4-0.3,0.8-0.3,1.3c0,0.4,0.1,0.7,0.2,1.1s0.3,0.6,0.6,0.9
			c0.3,0.2,0.6,0.3,1,0.3c0.4,0,0.8-0.1,1.2-0.4c0.4-0.3,0.7-0.7,1-1.2s0.4-1.2,0.4-2.1h0.3c0,0.9-0.1,1.6-0.4,2.3s-0.7,1.2-1.2,1.5
			C215.4,117.9,214.7,118.1,213.9,118.1z M219.2,118.1c-0.4,0-0.7-0.1-1-0.2c-0.3-0.1-0.5-0.3-0.7-0.6c-0.2-0.3-0.3-0.7-0.3-1.2V111
			c0-0.5,0-1.1-0.1-1.6s-0.3-0.9-0.6-1.2c-0.3-0.3-0.7-0.5-1.4-0.5c-0.3,0-0.7,0-1.1,0.1c-0.4,0.1-0.7,0.2-1,0.3
			c-0.3,0.2-0.6,0.4-0.8,0.6c-0.2,0.2-0.3,0.5-0.3,0.8h-0.5c0-0.4,0.1-0.7,0.4-0.9c0.3-0.2,0.5-0.3,0.8-0.3c0.3,0,0.6,0.1,0.9,0.3
			s0.4,0.5,0.4,0.9c0,0.5-0.1,0.8-0.4,1c-0.3,0.2-0.6,0.3-0.9,0.3c-0.3,0-0.6-0.1-0.9-0.3s-0.4-0.5-0.4-0.9c0-0.4,0.1-0.7,0.3-1
			s0.5-0.5,0.9-0.7c0.4-0.2,0.8-0.4,1.3-0.5c0.5-0.1,1-0.2,1.5-0.2c1,0,1.8,0.2,2.4,0.5c0.5,0.4,0.9,0.8,1,1.4
			c0.2,0.6,0.3,1.2,0.3,1.8v5.6c0,0.3,0,0.5,0.1,0.6s0.3,0.3,0.6,0.3c0.2,0,0.4-0.1,0.7-0.2s0.4-0.4,0.6-0.6l0.2,0.4
			c-0.2,0.3-0.5,0.6-0.8,0.8S219.7,118.1,219.2,118.1z"/>
		<path class="st0" d="M227.4,118.1c-0.8,0-1.6-0.2-2.3-0.6c-0.7-0.4-1.3-1.1-1.7-1.9s-0.7-1.8-0.7-2.9c0-1.1,0.2-2.1,0.7-2.9
			s1-1.4,1.7-1.9c0.7-0.4,1.5-0.7,2.3-0.7c0.9,0,1.7,0.3,2.3,1c0.6,0.6,1.1,1.5,1.3,2.6v-9.5h-1.5v-0.4h3.6v16.6h1.5v0.4h-3.5v-3.3
			c-0.2,1.1-0.7,1.9-1.3,2.6C229.1,117.8,228.4,118.1,227.4,118.1z M227.8,117.5c0.6,0,1.1-0.2,1.6-0.6c0.5-0.4,0.9-0.9,1.2-1.6
			s0.5-1.6,0.5-2.6s-0.2-1.9-0.5-2.6s-0.7-1.3-1.2-1.7c-0.5-0.4-1-0.6-1.6-0.6c-0.6,0-1.1,0.2-1.5,0.6s-0.7,0.9-0.9,1.7
			c-0.2,0.7-0.3,1.6-0.3,2.6c0,1,0.1,1.9,0.3,2.6c0.2,0.7,0.5,1.3,0.9,1.7S227.2,117.5,227.8,117.5z"/>
		<path class="st0" d="M236.3,117.9v-0.4h1.5v-16.2h-1.5v-0.4h3.5v16.6h1.5v0.4H236.3z M243.2,117.9v-0.4h1.5V111
			c0-0.6,0-1.2-0.1-1.7c-0.1-0.5-0.2-0.9-0.4-1.1c-0.2-0.3-0.5-0.4-0.9-0.4c-0.6,0-1.1,0.2-1.6,0.5s-0.8,0.8-1.1,1.3
			c-0.3,0.5-0.5,1.1-0.6,1.6s-0.2,1.1-0.2,1.6l-0.3,0.1c0-0.5,0.1-1.1,0.2-1.7c0.1-0.6,0.4-1.3,0.7-1.9c0.3-0.6,0.7-1.1,1.2-1.5
			c0.5-0.4,1.2-0.6,1.9-0.6c0.9,0,1.5,0.1,2,0.4c0.4,0.3,0.8,0.7,0.9,1.2c0.2,0.5,0.2,1.1,0.2,1.8v6.8h1.5v0.4H243.2z"/>
		<path class="st0" d="M253.5,107.4v10h1.5v0.4h-5v-0.4h1.5v-9.6h-1.5v-0.4H253.5z M252.5,103.4c-0.4,0-0.7-0.1-1-0.4
			s-0.4-0.6-0.4-1c0-0.4,0.1-0.7,0.4-1c0.3-0.3,0.6-0.4,1-0.4c0.4,0,0.7,0.1,1,0.4c0.3,0.3,0.4,0.6,0.4,1c0,0.4-0.1,0.7-0.4,1
			C253.2,103.2,252.8,103.4,252.5,103.4z"/>
		<path class="st0" d="M260.7,100.8v16.6h1.9v0.4h-5.9v-0.4h1.9v-16.2h-1.9v-0.4H260.7z"/>
		<path class="st0" d="M269.9,117.9v-0.4h2.1v-16.2h-2.1v-0.4h6.3v0.4h-2v16.2h3.5c0.9,0,1.6-0.1,2.2-0.3c0.5-0.2,0.9-0.5,1.2-0.9
			c0.3-0.4,0.5-0.9,0.6-1.5c0.1-0.6,0.1-1.2,0.1-1.9h0.5v5.1H269.9z"/>
		<path class="st0" d="M287.2,118.1c-1,0-1.8-0.3-2.4-0.8c-0.6-0.5-0.9-1.2-0.9-2.1c0-1,0.4-1.8,1.3-2.4c0.9-0.6,2.1-0.9,3.7-0.9
			h2.6v0.4H289c-0.7,0-1.2,0.1-1.6,0.4s-0.7,0.6-0.9,1c-0.2,0.4-0.3,0.8-0.3,1.3c0,0.4,0.1,0.7,0.2,1.1s0.3,0.6,0.6,0.9
			c0.3,0.2,0.6,0.3,1,0.3c0.4,0,0.8-0.1,1.2-0.4c0.4-0.3,0.7-0.7,1-1.2s0.4-1.2,0.4-2.1h0.3c0,0.9-0.1,1.6-0.4,2.3s-0.7,1.2-1.2,1.5
			C288.7,117.9,288,118.1,287.2,118.1z M292.5,118.1c-0.4,0-0.7-0.1-1-0.2c-0.3-0.1-0.5-0.3-0.7-0.6c-0.2-0.3-0.3-0.7-0.3-1.2V111
			c0-0.5,0-1.1-0.1-1.6s-0.3-0.9-0.6-1.2c-0.3-0.3-0.7-0.5-1.4-0.5c-0.3,0-0.7,0-1.1,0.1c-0.4,0.1-0.7,0.2-1,0.3
			c-0.3,0.2-0.6,0.4-0.8,0.6c-0.2,0.2-0.3,0.5-0.3,0.8h-0.5c0-0.4,0.1-0.7,0.4-0.9c0.3-0.2,0.5-0.3,0.8-0.3c0.3,0,0.6,0.1,0.9,0.3
			s0.4,0.5,0.4,0.9c0,0.5-0.1,0.8-0.4,1c-0.3,0.2-0.6,0.3-0.9,0.3c-0.3,0-0.6-0.1-0.9-0.3s-0.4-0.5-0.4-0.9c0-0.4,0.1-0.7,0.3-1
			s0.5-0.5,0.9-0.7c0.4-0.2,0.8-0.4,1.3-0.5c0.5-0.1,1-0.2,1.5-0.2c1,0,1.8,0.2,2.4,0.5c0.5,0.4,0.9,0.8,1,1.4
			c0.2,0.6,0.3,1.2,0.3,1.8v5.6c0,0.3,0,0.5,0.1,0.6s0.3,0.3,0.6,0.3c0.2,0,0.4-0.1,0.7-0.2s0.4-0.4,0.6-0.6l0.2,0.4
			c-0.2,0.3-0.5,0.6-0.8,0.8S293,118.1,292.5,118.1z"/>
		<path class="st0" d="M302.9,118.1c-0.9,0-1.7-0.3-2.3-1c-0.6-0.6-1.1-1.5-1.3-2.6v3.3h-3.5v-0.4h1.5v-16.2h-1.5v-0.4h3.5v9.9
			c0.3-1.1,0.7-1.9,1.3-2.6c0.6-0.6,1.4-1,2.3-1c0.8,0,1.6,0.2,2.3,0.6c0.7,0.4,1.3,1.1,1.7,1.9s0.7,1.8,0.7,2.9
			c0,1.1-0.2,2.1-0.7,2.9s-1,1.4-1.7,1.9C304.4,117.9,303.7,118.1,302.9,118.1z M302.5,117.5c0.6,0,1.1-0.2,1.5-0.6s0.7-0.9,0.9-1.7
			c0.2-0.7,0.3-1.6,0.3-2.6c0-1-0.1-1.9-0.3-2.6c-0.2-0.7-0.5-1.3-0.9-1.7s-0.9-0.6-1.5-0.6c-0.6,0-1.1,0.2-1.6,0.6
			c-0.5,0.4-0.9,0.9-1.2,1.6s-0.5,1.6-0.5,2.6s0.2,1.9,0.5,2.6s0.7,1.3,1.2,1.7C301.4,117.3,301.9,117.5,302.5,117.5z"/>
		<path class="st0" d="M313.2,107.4v10h1.5v0.4h-5v-0.4h1.5v-9.6h-1.5v-0.4H313.2z M312.2,103.4c-0.4,0-0.7-0.1-1-0.4
			s-0.4-0.6-0.4-1c0-0.4,0.1-0.7,0.4-1c0.3-0.3,0.6-0.4,1-0.4c0.4,0,0.7,0.1,1,0.4c0.3,0.3,0.4,0.6,0.4,1c0,0.4-0.1,0.7-0.4,1
			S312.6,103.4,312.2,103.4z"/>
		<path class="st0" d="M323.7,118.1c-0.9,0-1.7-0.3-2.3-1c-0.6-0.6-1.1-1.5-1.3-2.6v3.3h-3.5v-0.4h1.5v-16.2h-1.5v-0.4h3.5v9.9
			c0.3-1.1,0.7-1.9,1.3-2.6c0.6-0.6,1.4-1,2.3-1c0.8,0,1.6,0.2,2.3,0.6c0.7,0.4,1.3,1.1,1.7,1.9c0.4,0.8,0.7,1.8,0.7,2.9
			c0,1.1-0.2,2.1-0.7,2.9c-0.4,0.8-1,1.4-1.7,1.9C325.2,117.9,324.5,118.1,323.7,118.1z M323.2,117.5c0.6,0,1.1-0.2,1.5-0.6
			c0.4-0.4,0.7-0.9,0.9-1.7c0.2-0.7,0.3-1.6,0.3-2.6c0-1-0.1-1.9-0.3-2.6s-0.5-1.3-0.9-1.7c-0.4-0.4-0.9-0.6-1.5-0.6
			c-0.6,0-1.1,0.2-1.6,0.6c-0.5,0.4-0.9,0.9-1.2,1.6c-0.3,0.7-0.5,1.6-0.5,2.6s0.2,1.9,0.5,2.6c0.3,0.7,0.7,1.3,1.2,1.7
			C322.1,117.3,322.7,117.5,323.2,117.5z"/>
		<path class="st0" d="M335.7,117.9v-0.4l9-16.2h-4.2c-1,0-1.8,0.1-2.4,0.3s-0.9,0.6-1.2,1.1c-0.2,0.5-0.3,1.2-0.3,2h-0.4v-3.9h10.9
			v0.4l-9,16.2h4.9c1,0,1.8-0.1,2.4-0.4s0.9-0.7,1.1-1.2c0.2-0.6,0.3-1.3,0.3-2.3h0.5v4.3H335.7z"/>
		<path class="st0" d="M353.8,118.1c-0.9,0-1.5-0.1-2-0.5c-0.5-0.3-0.8-0.7-0.9-1.2c-0.2-0.5-0.2-1.1-0.2-1.8v-6.8h-1.5v-0.4h3.5
			v6.9c0,0.6,0,1.2,0.1,1.7s0.2,0.9,0.4,1.1c0.2,0.3,0.5,0.4,0.9,0.4c0.6,0,1.1-0.2,1.6-0.5c0.4-0.3,0.8-0.8,1.1-1.3
			c0.3-0.5,0.5-1.1,0.6-1.7s0.2-1.1,0.2-1.6l0.3-0.1c0,0.5-0.1,1.1-0.2,1.7c-0.1,0.6-0.3,1.3-0.6,1.9c-0.3,0.6-0.7,1.1-1.2,1.5
			C355.3,117.9,354.6,118.1,353.8,118.1z M357.6,117.9v-10H356v-0.4h3.7v10h1.5v0.4H357.6z"/>
		<path class="st0" d="M362.8,117.9v-0.4h1.5v-16.2h-1.5v-0.4h3.5v16.6h1.5v0.4H362.8z M369.8,117.9v-0.4h1.5V111
			c0-0.6,0-1.2-0.1-1.7c-0.1-0.5-0.2-0.9-0.4-1.1c-0.2-0.3-0.5-0.4-0.9-0.4c-0.6,0-1.1,0.2-1.6,0.5s-0.8,0.8-1.1,1.3
			c-0.3,0.5-0.5,1.1-0.6,1.6s-0.2,1.1-0.2,1.6l-0.3,0.1c0-0.5,0.1-1.1,0.2-1.7c0.1-0.6,0.4-1.3,0.7-1.9c0.3-0.6,0.7-1.1,1.2-1.5
			c0.5-0.4,1.2-0.6,1.9-0.6c0.9,0,1.5,0.1,2,0.4c0.4,0.3,0.8,0.7,0.9,1.2c0.2,0.5,0.2,1.1,0.2,1.8v6.8h1.5v0.4H369.8z"/>
		<path class="st0" d="M379.8,118.1c-1,0-1.8-0.3-2.4-0.8c-0.6-0.5-0.9-1.2-0.9-2.1c0-1,0.4-1.8,1.3-2.4c0.9-0.6,2.1-0.9,3.7-0.9
			h2.6v0.4h-2.6c-0.7,0-1.2,0.1-1.6,0.4s-0.7,0.6-0.9,1c-0.2,0.4-0.3,0.8-0.3,1.3c0,0.4,0.1,0.7,0.2,1.1c0.1,0.4,0.3,0.6,0.6,0.9
			c0.3,0.2,0.6,0.3,1,0.3c0.4,0,0.8-0.1,1.2-0.4c0.4-0.3,0.7-0.7,1-1.2c0.3-0.6,0.4-1.2,0.4-2.1h0.3c0,0.9-0.1,1.6-0.4,2.3
			s-0.7,1.2-1.2,1.5C381.3,117.9,380.6,118.1,379.8,118.1z M385.2,118.1c-0.4,0-0.7-0.1-1-0.2c-0.3-0.1-0.5-0.3-0.7-0.6
			c-0.2-0.3-0.3-0.7-0.3-1.2V111c0-0.5,0-1.1-0.1-1.6s-0.3-0.9-0.6-1.2c-0.3-0.3-0.7-0.5-1.4-0.5c-0.3,0-0.7,0-1.1,0.1
			c-0.4,0.1-0.7,0.2-1,0.3c-0.3,0.2-0.6,0.4-0.8,0.6c-0.2,0.2-0.3,0.5-0.3,0.8h-0.5c0-0.4,0.1-0.7,0.4-0.9c0.3-0.2,0.5-0.3,0.8-0.3
			c0.3,0,0.6,0.1,0.9,0.3s0.4,0.5,0.4,0.9c0,0.5-0.1,0.8-0.4,1s-0.6,0.3-0.9,0.3c-0.3,0-0.6-0.1-0.9-0.3s-0.4-0.5-0.4-0.9
			c0-0.4,0.1-0.7,0.3-1s0.5-0.5,0.9-0.7c0.4-0.2,0.8-0.4,1.3-0.5c0.5-0.1,1-0.2,1.5-0.2c1,0,1.8,0.2,2.4,0.5c0.5,0.4,0.9,0.8,1,1.4
			c0.2,0.6,0.3,1.2,0.3,1.8v5.6c0,0.3,0,0.5,0.1,0.6s0.3,0.3,0.6,0.3c0.2,0,0.4-0.1,0.7-0.2s0.4-0.4,0.6-0.6l0.2,0.4
			c-0.2,0.3-0.5,0.6-0.8,0.8C386.1,118,385.6,118.1,385.2,118.1z"/>
		<path class="st0" d="M391.9,107.4v10h1.5v0.4h-5v-0.4h1.5v-9.6h-1.5v-0.4H391.9z M390.9,103.4c-0.4,0-0.7-0.1-1-0.4
			s-0.4-0.6-0.4-1c0-0.4,0.1-0.7,0.4-1c0.3-0.3,0.6-0.4,1-0.4c0.4,0,0.7,0.1,1,0.4c0.3,0.3,0.4,0.6,0.4,1c0,0.4-0.1,0.7-0.4,1
			S391.3,103.4,390.9,103.4z"/>
		<path class="st0" d="M398.7,107.4v10h1.6v0.4h-5.1v-0.4h1.5v-9.6h-1.5v-0.4H398.7z M398.4,113c0-0.7,0.1-1.3,0.2-2
			c0.1-0.7,0.4-1.3,0.6-1.9s0.6-1,1.1-1.4c0.4-0.3,0.9-0.5,1.5-0.5c0.4,0,0.8,0.1,1.1,0.2c0.3,0.2,0.5,0.4,0.7,0.6
			c0.2,0.3,0.2,0.5,0.2,0.8c0,0.4-0.1,0.7-0.3,1c-0.2,0.3-0.5,0.4-1,0.4s-0.7-0.1-1-0.3c-0.2-0.2-0.4-0.5-0.4-0.8
			c0-0.4,0.1-0.7,0.4-1s0.6-0.3,0.9-0.3c0.2,0,0.5,0,0.6,0.1c0.2,0.1,0.3,0.2,0.5,0.4c0.1,0.2,0.2,0.3,0.2,0.6h-0.4
			c0-0.2-0.1-0.4-0.2-0.6c-0.1-0.2-0.3-0.3-0.6-0.4c-0.2-0.1-0.5-0.2-0.8-0.2c-0.5,0-0.9,0.2-1.3,0.5c-0.4,0.3-0.7,0.7-1,1.2
			s-0.5,1.1-0.6,1.7c-0.2,0.6-0.2,1.3-0.2,1.9H398.4z"/>
		<path class="st0" d="M408.1,107.9l3.8,8l-1.1,2.5l-5-10.5h-1v-0.4h5.1v0.4H408.1z M416.8,107.4v0.4h-1.3l-6.1,14.6
			c-0.2,0.5-0.4,0.8-0.7,1.1c-0.2,0.3-0.6,0.4-1,0.4c-0.2,0-0.4,0-0.6-0.1c-0.2-0.1-0.4-0.2-0.5-0.4s-0.2-0.4-0.2-0.7
			c0-0.3,0.1-0.5,0.2-0.7c0.1-0.2,0.3-0.3,0.5-0.4c0.2-0.1,0.4-0.2,0.6-0.2c0.2,0,0.4,0,0.5,0.1c0.2,0.1,0.3,0.2,0.4,0.3
			c0.1,0.1,0.2,0.3,0.2,0.5l6.1-14.5h-1.8v-0.4H416.8z"/>
	</g>
</g>
</svg>
