<svg xmlns="http://www.w3.org/2000/svg" viewBox="0 0 769.04 160.59"><defs><style>.cls-1{fill:#f3f1e7;}</style></defs><g id="Layer_2" data-name="Layer 2"><g id="Layer_9" data-name="Layer 9"><polygon class="cls-1" points="97.66 7.05 121.61 7.05 121.61 126.48 46.34 3.01 25.5 3.01 22.5 3.01 0 3.01 0 7.05 21.25 7.05 21.25 154.47 0 154.47 0 158.52 49.97 158.52 49.97 154.47 25.5 154.47 25.5 7.86 120.16 160.59 125.76 160.59 125.76 7.05 147.63 7.05 147.63 3.01 97.66 3.01 97.66 7.05"/><path class="cls-1" d="M237.93,0h-4.25L179.35,154.47h-19v4.05H206v-4.05H184l15.53-44.58h54.77l14.4,44.58H247.47v4.05H307.6v-4.05H291.42ZM201,105.85,228,28.3l25,77.55Z"/><polygon class="cls-1" points="418.11 7.05 442.06 7.05 442.06 126.48 366.79 3.01 345.95 3.01 342.95 3.01 320.45 3.01 320.45 7.05 341.7 7.05 341.7 154.47 320.45 154.47 320.45 158.52 370.42 158.52 370.42 154.47 345.95 154.47 345.95 7.86 440.61 160.59 446.21 160.59 446.21 7.05 468.08 7.05 468.08 3.01 418.11 3.01 418.11 7.05"/><path class="cls-1" d="M578.7,13.22Q562,3,538.89,3H480.83v4h18.66V154.47H480.83v4.05h58.06a76.22,76.22,0,0,0,30.27-5.86,69.72,69.72,0,0,0,23.64-16.43,74.11,74.11,0,0,0,15.34-24.73,85.5,85.5,0,0,0,5.4-30.74q0-22.08-9.08-39.71A69,69,0,0,0,578.7,13.22Zm8.4,94.86a78.7,78.7,0,0,1-8.5,23.69,45.75,45.75,0,0,1-15.66,16.59q-9.74,6.12-24.05,6.11H519.3V7.05h19.59q13.58,0,23.22,6.12a47.32,47.32,0,0,1,15.71,16.58,82.43,82.43,0,0,1,9,23.69,127.4,127.4,0,0,1,2.9,27.32A141.5,141.5,0,0,1,587.1,108.08Z"/><path class="cls-1" d="M764.38,49.71A79.66,79.66,0,0,0,751,24.26,62.81,62.81,0,0,0,730,7.1a63.22,63.22,0,0,0-54.48,0,62.13,62.13,0,0,0-20.94,17.16,81.07,81.07,0,0,0-13.43,25.45,99.67,99.67,0,0,0-4.71,31.05,105.93,105.93,0,0,0,4.4,31.05,78,78,0,0,0,13,25.45,60.36,60.36,0,0,0,20.89,17.16q12.34,6.17,28.1,6.17t28.09-6.17a59.83,59.83,0,0,0,20.84-17.16,78.53,78.53,0,0,0,12.91-25.45,105.93,105.93,0,0,0,4.4-31A100.56,100.56,0,0,0,764.38,49.71ZM743.7,108.44A92.82,92.82,0,0,1,737.58,133a41.55,41.55,0,0,1-12.86,17.42q-8.34,6.48-21.92,6.48t-21.93-6.48A40.83,40.83,0,0,1,668,133a95.21,95.21,0,0,1-6.11-24.52,227.23,227.23,0,0,1-1.66-27.68,197.57,197.57,0,0,1,1.92-27.68,94.87,94.87,0,0,1,6.63-24.52,43.33,43.33,0,0,1,13-17.42q8.29-6.47,21-6.47t21,6.47a43,43,0,0,1,13,17.42,96.49,96.49,0,0,1,6.58,24.52,197.57,197.57,0,0,1,1.92,27.68A235.62,235.62,0,0,1,743.7,108.44Z"/></g></g></svg>