<svg xmlns="http://www.w3.org/2000/svg" viewBox="0 0 441 86.77"><defs><style>.cls-1{fill:#f3f1e7;}</style></defs><g id="Layer_2" data-name="Layer 2"><g id="Layer_9" data-name="Layer 9"><path class="cls-1" d="M29.72,50.3a8.26,8.26,0,0,1-.46.94,4.23,4.23,0,0,1-.54.75,3.65,3.65,0,0,1-.68.61,7.05,7.05,0,0,1-.88.53V40.76a7.65,7.65,0,0,0-.35-2.49,3.76,3.76,0,0,0-1-1.59A4.15,4.15,0,0,0,24,35.83a10.26,10.26,0,0,0-2.35-.25,6.57,6.57,0,0,0-2.39.36,3.12,3.12,0,0,0-1.49,1.26h-.1A4,4,0,0,0,16.37,36a4.24,4.24,0,0,0-2.05-.44,4.94,4.94,0,0,0-1.83.3,3.44,3.44,0,0,0-1.21.79,2.84,2.84,0,0,0-.66,1.1,3.53,3.53,0,0,0-.2,1.18,4.73,4.73,0,0,0,.09.9,5.67,5.67,0,0,0,.29,1,4.44,4.44,0,0,0,1.35-.43A4.11,4.11,0,0,1,11.86,39a2.56,2.56,0,0,1,.11-.71,1.79,1.79,0,0,1,.38-.67,1.88,1.88,0,0,1,.73-.49A3.12,3.12,0,0,1,14.27,37a2.41,2.41,0,0,1,2.08.87A4.79,4.79,0,0,1,17,40.58h1.38a4.42,4.42,0,0,1,.69-2.8A2.7,2.7,0,0,1,21.26,37a3.67,3.67,0,0,1,1.33.21,1.93,1.93,0,0,1,.85.66,2.83,2.83,0,0,1,.45,1.1,9.24,9.24,0,0,1,.12,1.6V54a20.57,20.57,0,0,1-2.38.52c-.85.14-1.74.27-2.67.4l-2.89.37c-1,.13-2,.28-3,.47s-2,.38-2.92.62a23.86,23.86,0,0,0-2.71.86,14.32,14.32,0,0,0-2.38,1.2,8.3,8.3,0,0,0-1.86,1.61A7.17,7.17,0,0,0,2,62.23,7.74,7.74,0,0,0,1.51,65,8,8,0,0,0,2,67.76,5.84,5.84,0,0,0,5.5,71.31a8.17,8.17,0,0,0,2.94.49,8,8,0,0,0,2.07-.23A12.22,12.22,0,0,0,12,71.05l1.24-.52a3.48,3.48,0,0,1,1.34-.24,4.11,4.11,0,0,1,1.39.24l1.4.52a16.31,16.31,0,0,0,1.62.52A8.33,8.33,0,0,0,21,71.8a7.85,7.85,0,0,0,2.41-.36,5.06,5.06,0,0,0,1.94-1.14,5.51,5.51,0,0,0,1.3-2,8.41,8.41,0,0,0,.47-3V55.56a8.42,8.42,0,0,0,2.45-1.93A7,7,0,0,0,31,50.69a2.61,2.61,0,0,0-.63-.28A2.16,2.16,0,0,0,29.72,50.3ZM24,65.32a10.32,10.32,0,0,1-.22,2.32,4.17,4.17,0,0,1-.68,1.58,2.63,2.63,0,0,1-1.12.9,4,4,0,0,1-1.55.29,5.86,5.86,0,0,1-1.67-.23c-.5-.16-1-.33-1.45-.52s-.92-.36-1.37-.52a4.06,4.06,0,0,0-1.39-.24,3.58,3.58,0,0,0-1.33.24l-1.29.52a13.74,13.74,0,0,1-1.5.52,7.29,7.29,0,0,1-1.93.23,6.9,6.9,0,0,1-2.25-.35,4.93,4.93,0,0,1-1.75-1,4.55,4.55,0,0,1-1.13-1.61A5.52,5.52,0,0,1,3,65.29a5.14,5.14,0,0,1,.86-3,6.89,6.89,0,0,1,2.29-2,13.6,13.6,0,0,1,3.33-1.3c1.25-.33,2.57-.6,3.94-.82,1-.15,1.93-.28,2.91-.4l2.83-.36c.92-.12,1.79-.25,2.62-.38A19.24,19.24,0,0,0,24,56.47Z"/><path class="cls-1" d="M2.91,52.31a1.76,1.76,0,0,0,.49-.49,2,2,0,0,0,.28-.61,8.1,8.1,0,0,1-1-.71A2.77,2.77,0,0,1,2,49.69a3.85,3.85,0,0,1-.38-1.13,9.29,9.29,0,0,1-.12-1.63V41.77a11.28,11.28,0,0,1,.2-2.28A5,5,0,0,1,2.19,38,2.16,2.16,0,0,1,3,37.2,1.78,1.78,0,0,1,3.85,37a1.32,1.32,0,0,1,.47.08.7.7,0,0,1,.3.33A2.22,2.22,0,0,1,4.8,38a7.44,7.44,0,0,1,.07,1v9.16a4.8,4.8,0,0,0,.4,2.2,2.53,2.53,0,0,0,1.27,1.16A6.39,6.39,0,0,0,8.78,52c.91,0,2,.07,3.27.07H18l1.76,0V50.69a14.44,14.44,0,0,1-1.63-.07A4.44,4.44,0,0,1,17,50.34a3.59,3.59,0,0,1-.89-.54q-.43-.34-1-.9c-.24-.21-.51-.43-.79-.65a5.37,5.37,0,0,0-1-.59,6.21,6.21,0,0,0-1.34-.43,8.69,8.69,0,0,0-1.81-.16v1.37a6.72,6.72,0,0,1,1.67.18,4.32,4.32,0,0,1,2.12,1.2c.26.26.51.53.76.82v.07l-1.47,0H11.59a13.56,13.56,0,0,1-1.71-.09,2.69,2.69,0,0,1-1.1-.35,1.5,1.5,0,0,1-.59-.76A3.83,3.83,0,0,1,8,48.23V39.16a5.59,5.59,0,0,0-.23-1.72,2.76,2.76,0,0,0-.66-1.1,2.48,2.48,0,0,0-1-.59,5.45,5.45,0,0,0-1.41-.17,5.41,5.41,0,0,0-1.82.27,3.8,3.8,0,0,0-1.28.73,3.68,3.68,0,0,0-.82,1.09A6,6,0,0,0,.27,39a9.87,9.87,0,0,0-.22,1.46c0,.51,0,1,0,1.5v5.29A9.17,9.17,0,0,0,.15,49a4.18,4.18,0,0,0,.49,1.35,4.1,4.1,0,0,0,.9,1.06A7.05,7.05,0,0,0,2.91,52.31Z"/><path class="cls-1" d="M74.55,68.91a4.43,4.43,0,0,1-.36-1A9.1,9.1,0,0,1,74,66.61a18.42,18.42,0,0,1-.11-1.85c0-.71,0-1.57,0-2.57V40a8.35,8.35,0,0,0-.24-2.21,2.82,2.82,0,0,0-.75-1.33,2.73,2.73,0,0,0-1.3-.66,9.78,9.78,0,0,0-1.94-.17,10.25,10.25,0,0,0-1.68.13,2.71,2.71,0,0,0-1.17.49,2.13,2.13,0,0,0-.69,1,5.25,5.25,0,0,0-.22,1.69V64.79a5.85,5.85,0,0,1-1.09,3.81,4.17,4.17,0,0,1-3.38,1.31,7.77,7.77,0,0,1-2.15-.28c-.67-.19-1.31-.4-1.94-.62s-1.26-.43-1.88-.62a6.64,6.64,0,0,0-2-.28,5.81,5.81,0,0,0-1.86.28c-.57.19-1.15.39-1.74.62s-1.22.43-1.88.62a8.42,8.42,0,0,1-2.3.28,7.47,7.47,0,0,1-2.13-.28,4.57,4.57,0,0,1-1.62-.81,3.57,3.57,0,0,1-1-1.36,5.22,5.22,0,0,1,0-3.86A4.87,4.87,0,0,1,42,62.12,6.5,6.5,0,0,1,43.58,61a14.29,14.29,0,0,1,2-.79c.73-.22,1.5-.42,2.3-.59l2.42-.5c1-.18,1.89-.37,2.78-.57a24.65,24.65,0,0,0,2.48-.67,11.43,11.43,0,0,0,2.09-.9,6.32,6.32,0,0,0,1.61-1.27,5.3,5.3,0,0,0,1-1.78,7.4,7.4,0,0,0,.36-2.43V40.76a7.65,7.65,0,0,0-.35-2.49,3.76,3.76,0,0,0-1-1.59,4.15,4.15,0,0,0-1.72-.85,10.26,10.26,0,0,0-2.35-.25,6.57,6.57,0,0,0-2.39.36,3.12,3.12,0,0,0-1.49,1.26h-.1A4,4,0,0,0,49.89,36a4.27,4.27,0,0,0-2-.44,4.94,4.94,0,0,0-1.83.3,3.44,3.44,0,0,0-1.21.79,3,3,0,0,0-.67,1.1A3.78,3.78,0,0,0,43.94,39a4.73,4.73,0,0,0,.09.9,5.67,5.67,0,0,0,.29,1,4.44,4.44,0,0,0,1.35-.43A4.11,4.11,0,0,1,45.38,39a2.56,2.56,0,0,1,.11-.71,1.79,1.79,0,0,1,.38-.67,1.88,1.88,0,0,1,.73-.49A3.12,3.12,0,0,1,47.79,37a2.41,2.41,0,0,1,2.08.87,4.79,4.79,0,0,1,.63,2.75h1.38a4.42,4.42,0,0,1,.69-2.8A2.7,2.7,0,0,1,54.78,37a3.67,3.67,0,0,1,1.33.21,1.93,1.93,0,0,1,.85.66,2.83,2.83,0,0,1,.45,1.1,9.24,9.24,0,0,1,.12,1.6V51.59A5.91,5.91,0,0,1,57,54.35a4.28,4.28,0,0,1-1.66,1.72,10.28,10.28,0,0,1-2.8,1.1c-1.11.29-2.43.59-3.94.9l-2.67.56q-1.33.3-2.58.69a15.91,15.91,0,0,0-2.31.93,7.89,7.89,0,0,0-1.87,1.27,5.55,5.55,0,0,0-1.26,1.73,5.38,5.38,0,0,0-.47,2.31A5.63,5.63,0,0,0,37.93,68a4.84,4.84,0,0,0,1.48,1.8,6.55,6.55,0,0,0,2.36,1.12,12.16,12.16,0,0,0,3.16.38,12.83,12.83,0,0,0,2-.14,14.76,14.76,0,0,0,1.59-.33c.48-.14.92-.28,1.33-.43s.79-.3,1.17-.43.77-.25,1.16-.34a5.59,5.59,0,0,1,1.26-.14,6.52,6.52,0,0,1,1.92.29c.61.19,1.23.39,1.86.62s1.29.43,2,.62a8.35,8.35,0,0,0,2.25.28,7.1,7.1,0,0,0,2.42-.4A5,5,0,0,0,65.7,69.7a5.54,5.54,0,0,0,1.18-2,8.86,8.86,0,0,0,.42-2.87v-26a3.59,3.59,0,0,1,.1-1,1.18,1.18,0,0,1,.32-.55,1.13,1.13,0,0,1,.54-.25A3.55,3.55,0,0,1,69,37a3.69,3.69,0,0,1,.81.08,1,1,0,0,1,.53.38,2.07,2.07,0,0,1,.27.84,11.38,11.38,0,0,1,.08,1.48V63.28A16.52,16.52,0,0,0,71,66.51a8.27,8.27,0,0,0,.81,2.27,6.5,6.5,0,0,0,1.31,1.66,11.76,11.76,0,0,0,1.79,1.34,3.85,3.85,0,0,0,.51-.49,3,3,0,0,0,.41-.59c-.28-.34-.53-.65-.74-.93A5.85,5.85,0,0,1,74.55,68.91Z"/><path class="cls-1" d="M35.18,39.49A5,5,0,0,1,35.71,38a2.08,2.08,0,0,1,.77-.81,1.78,1.78,0,0,1,.89-.24,1.22,1.22,0,0,1,.46.08.67.67,0,0,1,.31.33,2.22,2.22,0,0,1,.18.65,7.63,7.63,0,0,1,.06,1v9.16a4.78,4.78,0,0,0,.41,2.2,2.53,2.53,0,0,0,1.27,1.16,6.38,6.38,0,0,0,2.23.44c.92,0,2,.07,3.28.07h5.9l1.77,0V50.69a14.44,14.44,0,0,1-1.63-.07,4.44,4.44,0,0,1-1.09-.28,3.59,3.59,0,0,1-.89-.54q-.43-.34-1.05-.9c-.24-.21-.51-.43-.79-.65a5.37,5.37,0,0,0-1-.59,6.21,6.21,0,0,0-1.34-.43,8.69,8.69,0,0,0-1.81-.16v1.37a6.72,6.72,0,0,1,1.67.18,4.32,4.32,0,0,1,2.12,1.2c.26.26.51.53.76.82v.07l-1.47,0H45.11a13.56,13.56,0,0,1-1.71-.09,2.69,2.69,0,0,1-1.1-.35,1.5,1.5,0,0,1-.59-.76,3.83,3.83,0,0,1-.18-1.3V39.16a5.59,5.59,0,0,0-.23-1.72,2.76,2.76,0,0,0-.66-1.1,2.48,2.48,0,0,0-1-.59,6.12,6.12,0,0,0-3.23.1,3.8,3.8,0,0,0-1.28.73,3.68,3.68,0,0,0-.82,1.09A6,6,0,0,0,33.79,39a9.87,9.87,0,0,0-.22,1.46c0,.51,0,1,0,1.5v5.29A9.17,9.17,0,0,0,33.67,49a4.18,4.18,0,0,0,.49,1.35,3.91,3.91,0,0,0,.9,1.06,7.28,7.28,0,0,0,1.36.89,1.67,1.67,0,0,0,.5-.49,2,2,0,0,0,.28-.61,8.1,8.1,0,0,1-1-.71,2.77,2.77,0,0,1-.68-.81,3.85,3.85,0,0,1-.38-1.13A9.29,9.29,0,0,1,35,46.93V41.77A11.28,11.28,0,0,1,35.18,39.49Z"/><path class="cls-1" d="M114.35,36.38a6.86,6.86,0,0,0-2.37-.65,27.35,27.35,0,0,0-3-.15,25.8,25.8,0,0,0-3.18.17,5.2,5.2,0,0,0-2.12.66,2.87,2.87,0,0,0-1.19,1.42,6.68,6.68,0,0,0-.37,2.45v4.77a20.41,20.41,0,0,0-2.46-.43,19.59,19.59,0,0,0-2.37-.15V39.16a5.59,5.59,0,0,0-.23-1.72,2.76,2.76,0,0,0-.66-1.1,2.48,2.48,0,0,0-1-.59A5.4,5.4,0,0,0,94,35.58a5.47,5.47,0,0,0-1.83.27A3.52,3.52,0,0,0,90,37.66,5.91,5.91,0,0,0,89.57,39a9.87,9.87,0,0,0-.22,1.46c0,.51,0,1,0,1.5v5.29A10.09,10.09,0,0,0,89.44,49a4.36,4.36,0,0,0,.46,1.36,4.27,4.27,0,0,0,.84,1.06,6.62,6.62,0,0,0,1.29.89,1.67,1.67,0,0,0,.5-.49,2,2,0,0,0,.28-.61,7.49,7.49,0,0,1-1-.71,2.77,2.77,0,0,1-.63-.81,3.57,3.57,0,0,1-.36-1.13,12.12,12.12,0,0,1-.1-1.63V41.77a11.28,11.28,0,0,1,.2-2.28A5,5,0,0,1,91.49,38a2.08,2.08,0,0,1,.77-.81,1.78,1.78,0,0,1,.89-.24,1.32,1.32,0,0,1,.47.08.7.7,0,0,1,.3.33,2.22,2.22,0,0,1,.18.65,7.44,7.44,0,0,1,.07,1v13h3.14V45.74A20.86,20.86,0,0,1,100,46a16.43,16.43,0,0,1,2.18.49v2.9a4.9,4.9,0,0,0,.19,1.47,2.72,2.72,0,0,0,.54,1,2.11,2.11,0,0,0,.85.56,3.6,3.6,0,0,0,1.14.17,3.56,3.56,0,0,0,1.33-.23,2.53,2.53,0,0,0,.91-.62,2.49,2.49,0,0,0,.52-.89,3,3,0,0,0,.18-1,3.16,3.16,0,0,0-.33-1.43,4.57,4.57,0,0,0-.89-1.19,6.88,6.88,0,0,0-1.34-1,10.21,10.21,0,0,0-1.64-.74V40.21a4.23,4.23,0,0,1,.29-1.72,2,2,0,0,1,.89-1,4.11,4.11,0,0,1,1.57-.45,21.81,21.81,0,0,1,2.31-.1,20.05,20.05,0,0,1,2.24.1,3.17,3.17,0,0,1,1.43.46,1.87,1.87,0,0,1,.76,1,5.69,5.69,0,0,1,.22,1.78V52.07h3.15V40.53a5.41,5.41,0,0,0-.56-2.65A3.67,3.67,0,0,0,114.35,36.38Zm-9.07,11.85a2.3,2.3,0,0,1,.57,1.45,1.17,1.17,0,0,1-.35,1,1.19,1.19,0,0,1-.8.3,1.09,1.09,0,0,1-.4-.07.87.87,0,0,1-.35-.22,1,1,0,0,1-.25-.42,1.83,1.83,0,0,1-.1-.66V47A5.19,5.19,0,0,1,105.28,48.23Z"/><path class="cls-1" d="M141.64,83.9a4.62,4.62,0,0,1-.36-1,10.42,10.42,0,0,1-.22-1.31,18.42,18.42,0,0,1-.11-1.85c0-.71,0-1.57,0-2.57V40a7.91,7.91,0,0,0-.25-2.21,2.86,2.86,0,0,0-.78-1.33,2.93,2.93,0,0,0-1.37-.66,10.51,10.51,0,0,0-2-.17,9.72,9.72,0,0,0-1.74.14,2.67,2.67,0,0,0-1.22.53,2.25,2.25,0,0,0-.72,1.14,6.43,6.43,0,0,0-.24,1.94V47c0,.3,0,.62,0,1a7,7,0,0,0,.1,1,5.61,5.61,0,0,0,.22,1,2,2,0,0,0,.42.73l0,.06h-.5a6.63,6.63,0,0,1-1.34-.1,1,1,0,0,1-.69-.43,1.87,1.87,0,0,1-.26-1c0-.42,0-1,0-1.72V40.36a5.28,5.28,0,0,0-.24-1.72,2.61,2.61,0,0,0-.66-1.1,2.35,2.35,0,0,0-1.05-.58,5,5,0,0,0-1.41-.17,5.74,5.74,0,0,0-1.82.26,3.75,3.75,0,0,0-1.27.73,3.85,3.85,0,0,0-.83,1.09,6.64,6.64,0,0,0-.47,1.34,8.56,8.56,0,0,0-.21,1.46c0,.5,0,1,0,1.49v4.09a9.23,9.23,0,0,0,.14,1.76,4.42,4.42,0,0,0,.49,1.35,4.1,4.1,0,0,0,.9,1.06,7.37,7.37,0,0,0,1.37.89,1.8,1.8,0,0,0,.5-.49,1.75,1.75,0,0,0,.27-.61,8.87,8.87,0,0,1-1-.71,2.74,2.74,0,0,1-.67-.81,3.58,3.58,0,0,1-.38-1.13,9.29,9.29,0,0,1-.12-1.63V43a11.19,11.19,0,0,1,.19-2.27,5,5,0,0,1,.54-1.49,2.14,2.14,0,0,1,.76-.81,1.84,1.84,0,0,1,.9-.24,1.08,1.08,0,0,1,.46.09.61.61,0,0,1,.31.32,2.21,2.21,0,0,1,.18.66,7.43,7.43,0,0,1,.06,1.05v8.47a5.43,5.43,0,0,0,.25,1.87,1.88,1.88,0,0,0,.84,1A3.87,3.87,0,0,0,130,52c.64.05,1.44.08,2.39.08l1.82,0,1.67-.05V50.69a1.55,1.55,0,0,1-1-.29,1.87,1.87,0,0,1-.55-.78,3.48,3.48,0,0,1-.25-1.12c0-.42-.06-.86-.06-1.31v-8a4.79,4.79,0,0,1,.12-1.19,1.5,1.5,0,0,1,.34-.68,1.06,1.06,0,0,1,.59-.31A4.33,4.33,0,0,1,136,37a4.47,4.47,0,0,1,.9.08,1,1,0,0,1,.57.38,1.8,1.8,0,0,1,.3.84,9.63,9.63,0,0,1,.09,1.48V78.26a16.56,16.56,0,0,0,.27,3.24,8.27,8.27,0,0,0,.81,2.27,6.5,6.5,0,0,0,1.31,1.66A11.76,11.76,0,0,0,142,86.77a3.4,3.4,0,0,0,.51-.5,3,3,0,0,0,.41-.58c-.28-.34-.53-.65-.74-.93A5.85,5.85,0,0,1,141.64,83.9Z"/><path class="cls-1" d="M155.5,46.49c0-.25,0-.48-.05-.71s0-.41,0-.57a5.32,5.32,0,0,0-.69,0,5.43,5.43,0,0,0-.68.13c0,.4.06.79.07,1.16s0,.69,0,1a4.29,4.29,0,0,1-.1,1,1.16,1.16,0,0,1-.42.68,2.41,2.41,0,0,1-1,.38,10.44,10.44,0,0,1-1.79.12h-.78l-.56,0,0,0,.37-.47c.76-1,1.47-1.91,2.11-2.78s1.19-1.7,1.66-2.49a13.55,13.55,0,0,0,1.09-2.25,6.07,6.07,0,0,0,.39-2.09A4.22,4.22,0,0,0,154.8,38a3.63,3.63,0,0,0-.83-1.27,4.17,4.17,0,0,0-1.37-.84,5.48,5.48,0,0,0-1.9-.31,5.25,5.25,0,0,0-1.81.29,4,4,0,0,0-1.32.76,3.36,3.36,0,0,0-.81,1.13,3.54,3.54,0,0,0-.27,1.38,4.66,4.66,0,0,0,.72,2.41,3.2,3.2,0,0,0,1.26-.6,2.83,2.83,0,0,1-.48-1.52,1.92,1.92,0,0,1,.58-1.41,2.31,2.31,0,0,1,1.7-.58,2.36,2.36,0,0,1,1.08.21,1.79,1.79,0,0,1,.63.55,1.88,1.88,0,0,1,.31.76,4.65,4.65,0,0,1,.08.82,7.87,7.87,0,0,1-.51,2.63,20.9,20.9,0,0,1-1.36,3c-.58,1-1.24,2.12-2,3.23S147,50.85,146.2,52l0,.11,1.47.06,2.37,0c1,0,1.84,0,2.54-.1a3.75,3.75,0,0,0,1.69-.52,2.34,2.34,0,0,0,.94-1.25,7.55,7.55,0,0,0,.29-2.34c0-.22,0-.45,0-.7S155.51,46.74,155.5,46.49Z"/><path class="cls-1" d="M187.06,36.66A4.84,4.84,0,0,0,185,36a27.41,27.41,0,0,0-3.5-.18H179l-1.52,0-1.49,0V37.2l.34,0h.34a5.37,5.37,0,0,1,2.21.37,2.86,2.86,0,0,1,1.22,1,3.55,3.55,0,0,1,.55,1.49,13.33,13.33,0,0,1,.12,1.84V47.6a5.53,5.53,0,0,1-.25,1.82,1.82,1.82,0,0,1-.94,1,5.41,5.41,0,0,1-1.89.42c-.8,0-1.85.08-3.13.08-1.1,0-2,0-2.73-.08a4.39,4.39,0,0,1-1.72-.44,1.94,1.94,0,0,1-.9-1.08,6.27,6.27,0,0,1-.25-2v-3.8c0-.61,0-1.25.06-1.9a9.25,9.25,0,0,1,.29-1.87,5.19,5.19,0,0,1,.68-1.57,2.73,2.73,0,0,1,1.22-1V35.82l-.88-.06-.89,0H168.1a11.84,11.84,0,0,0-3.3.39,4.38,4.38,0,0,0-3.26,3.35,12.71,12.71,0,0,0-.34,3.12v4.67a9.17,9.17,0,0,0,.15,1.76,4.42,4.42,0,0,0,.49,1.35,4.1,4.1,0,0,0,.9,1.06,7.37,7.37,0,0,0,1.37.89,1.8,1.8,0,0,0,.5-.49,2,2,0,0,0,.27-.61,8.1,8.1,0,0,1-1-.71,2.94,2.94,0,0,1-.68-.81,3.85,3.85,0,0,1-.37-1.13,9.29,9.29,0,0,1-.12-1.63V42.39a10.51,10.51,0,0,1,.25-2.51,3.54,3.54,0,0,1,.82-1.63,3.24,3.24,0,0,1,1.53-.9,8.81,8.81,0,0,1,2.36-.27l0,.07a4.47,4.47,0,0,0-1.07,1.36,6.43,6.43,0,0,0-.54,1.62,9.19,9.19,0,0,0-.2,1.74q0,.9,0,1.74v3.71a7.34,7.34,0,0,0,.4,2.71,2.81,2.81,0,0,0,1.4,1.5,7.6,7.6,0,0,0,2.72.64c1.15.09,2.61.14,4.39.14,1.37,0,2.53,0,3.49-.1a6,6,0,0,0,2.32-.57,2.78,2.78,0,0,0,1.29-1.41,6.78,6.78,0,0,0,.41-2.61V41.89c0-.42,0-.86,0-1.31A7.6,7.6,0,0,0,182,39.3a5,5,0,0,0-.47-1.16,3.15,3.15,0,0,0-.84-.91v-.07h.93a16.84,16.84,0,0,1,1.73.07,2.18,2.18,0,0,1,1.12.43,2,2,0,0,1,.6,1.09,8.85,8.85,0,0,1,.18,2v11.3h3.14V40.65a9.61,9.61,0,0,0-.27-2.51A2.61,2.61,0,0,0,187.06,36.66Z"/><path class="cls-1" d="M178.55,27.71a1.87,1.87,0,0,0-.64.46,1.94,1.94,0,0,0-.38.67,2.38,2.38,0,0,0-.13.79,2.49,2.49,0,0,0,.19,1,2.32,2.32,0,0,0,.6.86,3,3,0,0,0,1.07.63,4.75,4.75,0,0,0,1.61.24,6,6,0,0,0,1.45-.21,6.11,6.11,0,0,0,2-1,3.16,3.16,0,0,0-.65-1.15,6.55,6.55,0,0,1-1.43.64,4.23,4.23,0,0,1-1.18.18h-.26a1.38,1.38,0,0,1-.31,0v-.07A1.9,1.9,0,0,0,181,30a2,2,0,0,0,.18-.82,1.6,1.6,0,0,0-.45-1.12,1.67,1.67,0,0,0-1.31-.49A2.14,2.14,0,0,0,178.55,27.71Z"/><path class="cls-1" d="M172.63,30a2,2,0,0,0,.18-.82,1.6,1.6,0,0,0-.45-1.12,1.67,1.67,0,0,0-1.31-.49,2.14,2.14,0,0,0-.87.17,1.87,1.87,0,0,0-.64.46,2.14,2.14,0,0,0-.39.67,2.65,2.65,0,0,0,.06,1.75,2.48,2.48,0,0,0,.61.86,3,3,0,0,0,1.07.63,4.75,4.75,0,0,0,1.61.24,5.69,5.69,0,0,0,3.4-1.19,3.16,3.16,0,0,0-.65-1.15,6.76,6.76,0,0,1-1.43.64,4.23,4.23,0,0,1-1.18.18h-.26a1.31,1.31,0,0,1-.31,0v-.07A1.9,1.9,0,0,0,172.63,30Z"/><path class="cls-1" d="M174.17,21.57a1.81,1.81,0,0,0-.64.47,2,2,0,0,0-.39.67,2.56,2.56,0,0,0-.13.79,2.64,2.64,0,0,0,.19.95,2.48,2.48,0,0,0,.6.86,3.14,3.14,0,0,0,1.08.63,4.75,4.75,0,0,0,1.61.24,5.69,5.69,0,0,0,3.4-1.19,3.41,3.41,0,0,0-.65-1.15,6.86,6.86,0,0,1-1.43.65,4.25,4.25,0,0,1-1.19.18h-.25l-.31,0v-.07a2.13,2.13,0,0,0,.56-.72,2,2,0,0,0,.17-.81,1.61,1.61,0,0,0-.44-1.13A1.67,1.67,0,0,0,175,21.4,2.14,2.14,0,0,0,174.17,21.57Z"/><path class="cls-1" d="M213.55,83.9a4.62,4.62,0,0,1-.36-1A8.74,8.74,0,0,1,213,81.6c-.06-.52-.09-1.13-.11-1.85s0-1.57,0-2.57V40a8.35,8.35,0,0,0-.24-2.21,2.79,2.79,0,0,0-.79-1.33,2.89,2.89,0,0,0-1.36-.66,10.58,10.58,0,0,0-2-.17,9.76,9.76,0,0,0-1.75.14,2.72,2.72,0,0,0-1.22.53,2.32,2.32,0,0,0-.72,1.14,6.81,6.81,0,0,0-.23,1.94V47c0,.3,0,.62,0,1s.05.69.1,1a6.75,6.75,0,0,0,.22,1,2,2,0,0,0,.42.73l0,.06h-.5a6.52,6.52,0,0,1-1.33-.1,1,1,0,0,1-.7-.43,2,2,0,0,1-.26-1c0-.42,0-1,0-1.72V40.36a5.59,5.59,0,0,0-.23-1.72,2.83,2.83,0,0,0-.66-1.1,2.46,2.46,0,0,0-1.05-.58,5,5,0,0,0-1.41-.17,5.7,5.7,0,0,0-1.82.26,3.51,3.51,0,0,0-2.1,1.82,6.08,6.08,0,0,0-.47,1.34,9.68,9.68,0,0,0-.22,1.46c0,.5-.05,1-.05,1.49v4.09a9.17,9.17,0,0,0,.15,1.76,4.18,4.18,0,0,0,.49,1.35,4.1,4.1,0,0,0,.9,1.06,7.05,7.05,0,0,0,1.37.89,1.76,1.76,0,0,0,.49-.49,2,2,0,0,0,.28-.61,8.1,8.1,0,0,1-1-.71,2.77,2.77,0,0,1-.68-.81,3.85,3.85,0,0,1-.38-1.13,9.29,9.29,0,0,1-.12-1.63V43a11.11,11.11,0,0,1,.2-2.27,5,5,0,0,1,.53-1.49,2.08,2.08,0,0,1,.77-.81,1.78,1.78,0,0,1,.89-.24,1.13,1.13,0,0,1,.47.09.63.63,0,0,1,.3.32,2.21,2.21,0,0,1,.18.66,7.22,7.22,0,0,1,.07,1.05v8.47a5.73,5.73,0,0,0,.24,1.87,1.85,1.85,0,0,0,.85,1,3.77,3.77,0,0,0,1.56.41c.65.05,1.45.08,2.4.08l1.81,0,1.68-.05V50.69a1.55,1.55,0,0,1-1-.29,1.89,1.89,0,0,1-.56-.78A4.1,4.1,0,0,1,206,48.5c0-.42-.05-.86-.05-1.31v-8a5.4,5.4,0,0,1,.11-1.19,1.5,1.5,0,0,1,.34-.68A1.09,1.09,0,0,1,207,37a4.26,4.26,0,0,1,.86-.07,4.44,4.44,0,0,1,.89.08,1,1,0,0,1,.58.38,2.06,2.06,0,0,1,.3.84,11.38,11.38,0,0,1,.08,1.48V78.26A15.74,15.74,0,0,0,210,81.5a7.66,7.66,0,0,0,.81,2.27,6.46,6.46,0,0,0,1.3,1.66,12.27,12.27,0,0,0,1.79,1.34,4,4,0,0,0,.52-.5,3,3,0,0,0,.41-.58c-.29-.34-.53-.65-.74-.93A5.1,5.1,0,0,1,213.55,83.9Z"/><path class="cls-1" d="M233.06,52.31c1.09,0,2.06,0,2.91-.11a6.52,6.52,0,0,0,2.17-.53,2.92,2.92,0,0,0,1.35-1.22,4.53,4.53,0,0,0,.46-2.2V38.78a4.13,4.13,0,0,1,.09-1,1.17,1.17,0,0,1,.31-.55,1,1,0,0,1,.51-.25,3.21,3.21,0,0,1,.74-.07,3.25,3.25,0,0,1,.77.08.84.84,0,0,1,.49.38,2.25,2.25,0,0,1,.26.84,11.38,11.38,0,0,1,.08,1.48V52.07h3.14V40a8.35,8.35,0,0,0-.24-2.21,2.81,2.81,0,0,0-.74-1.33,2.65,2.65,0,0,0-1.29-.66,10.56,10.56,0,0,0-3.54,0,2.69,2.69,0,0,0-1.14.49,2.18,2.18,0,0,0-.68,1,5.25,5.25,0,0,0-.22,1.69v9.35a2.73,2.73,0,0,1-.32,1.41,2,2,0,0,1-1,.82,5.58,5.58,0,0,1-1.7.37c-.69,0-1.51.08-2.46.08-1.19,0-2.18,0-3-.12a5.48,5.48,0,0,1-1.86-.46,2,2,0,0,1-1-1,4,4,0,0,1-.28-1.62,4.68,4.68,0,0,1,.25-1.66,2.5,2.5,0,0,1,.75-1.06,2.91,2.91,0,0,1,1.26-.55,8.6,8.6,0,0,1,1.8-.17h4.24V43h-4.34a4.37,4.37,0,0,1-2.81-.72,3,3,0,0,1-.87-2.39,3.79,3.79,0,0,1,.22-1.41,1.93,1.93,0,0,1,.71-.9,3.28,3.28,0,0,1,1.26-.46,10.85,10.85,0,0,1,1.86-.14h.64l.56,0,.57,0V35.67c-.52,0-1.1-.06-1.71-.07l-1.81,0c-1.49,0-2.7,0-3.62.1a15.56,15.56,0,0,0-2.26.28,6.22,6.22,0,0,0-2.12.83,4.6,4.6,0,0,0-1.38,1.4,5.53,5.53,0,0,0-.76,1.93,12.25,12.25,0,0,0-.23,2.46v4.67a11.08,11.08,0,0,0,.13,1.75,4.9,4.9,0,0,0,.43,1.34,3.82,3.82,0,0,0,.82,1.07,6.9,6.9,0,0,0,1.29.9,1.8,1.8,0,0,0,.5-.49,2,2,0,0,0,.27-.61,9.32,9.32,0,0,1-1-.73,2.7,2.7,0,0,1-.61-.82,3.73,3.73,0,0,1-.32-1.11,12.06,12.06,0,0,1-.09-1.62V42.39a8.9,8.9,0,0,1,.26-2.36,3.56,3.56,0,0,1,2.32-2.57,8.33,8.33,0,0,1,2.16-.43l0,0a3.34,3.34,0,0,0-1,1.27,4.1,4.1,0,0,0,.29,3.7,4.09,4.09,0,0,0,1.74,1.47v.11a7.31,7.31,0,0,0-1.2.74,3.37,3.37,0,0,0-.79.86,3.64,3.64,0,0,0-.46,1.14,7.73,7.73,0,0,0,0,3,2.9,2.9,0,0,0,.5,1.13,3,3,0,0,0,1,.83,6.52,6.52,0,0,0,1.66.57,17.65,17.65,0,0,0,2.48.33C230.6,52.27,231.74,52.31,233.06,52.31Z"/><path class="cls-1" d="M261.25,83.9a4.62,4.62,0,0,1-.36-1,8.74,8.74,0,0,1-.23-1.31c-.05-.52-.09-1.13-.11-1.85s0-1.57,0-2.57V40a8.35,8.35,0,0,0-.24-2.21,2.91,2.91,0,0,0-.75-1.33,2.75,2.75,0,0,0-1.32-.66,9.78,9.78,0,0,0-1.94-.17,10,10,0,0,0-1.67.13,2.71,2.71,0,0,0-1.17.49,2.11,2.11,0,0,0-.68,1,5.21,5.21,0,0,0-.23,1.69V75.36a9,9,0,0,1-.18,2,3,3,0,0,1-.56,1.25,2,2,0,0,1-1,.65,5.13,5.13,0,0,1-1.45.18,5.48,5.48,0,0,1-1.62-.24c-.52-.17-1-.34-1.56-.54s-1-.37-1.56-.53a5.71,5.71,0,0,0-1.67-.24,5.49,5.49,0,0,0-1.78.28c-.55.19-1.12.4-1.7.64a18,18,0,0,1-1.84.63,7.79,7.79,0,0,1-2.19.29,4.61,4.61,0,0,1-2.94-.83,3.25,3.25,0,0,1-1-2.68,4.62,4.62,0,0,1,.33-1.8A4.38,4.38,0,0,1,232.7,73a6,6,0,0,1,1.42-1.09,13.07,13.07,0,0,1,1.84-.84,3.78,3.78,0,0,0-.2-.77,2.92,2.92,0,0,0-.31-.64,21.9,21.9,0,0,0-2.6,1A9.83,9.83,0,0,0,230.58,72,6.75,6.75,0,0,0,229,73.86a4.73,4.73,0,0,0-.62,2.46,4.89,4.89,0,0,0,.4,2,4.44,4.44,0,0,0,1.19,1.6,5.66,5.66,0,0,0,1.95,1,8.84,8.84,0,0,0,2.7.38,10.28,10.28,0,0,0,1.81-.15,14.86,14.86,0,0,0,1.56-.38,13.59,13.59,0,0,0,1.37-.5c.42-.18.84-.35,1.24-.5s.8-.27,1.18-.38a4.89,4.89,0,0,1,1.21-.15,5,5,0,0,1,1.55.24c.5.16,1,.34,1.53.53s1.05.37,1.6.53a6.17,6.17,0,0,0,1.8.25,6.49,6.49,0,0,0,1.89-.26,3.19,3.19,0,0,0,1.43-.89,4.22,4.22,0,0,0,.92-1.68,9.46,9.46,0,0,0,.31-2.64V38.78a3.54,3.54,0,0,1,.11-1,1.1,1.1,0,0,1,.32-.55A1.13,1.13,0,0,1,255,37a3.43,3.43,0,0,1,.77-.07,3.69,3.69,0,0,1,.81.08.94.94,0,0,1,.52.38,2.07,2.07,0,0,1,.28.84,11.68,11.68,0,0,1,.07,1.48V78.26a16.48,16.48,0,0,0,.28,3.24,7.66,7.66,0,0,0,.81,2.27,6.46,6.46,0,0,0,1.3,1.66,12.84,12.84,0,0,0,1.79,1.34,3.44,3.44,0,0,0,.52-.5,3,3,0,0,0,.41-.58c-.29-.34-.53-.65-.74-.93A5.1,5.1,0,0,1,261.25,83.9Z"/><path class="cls-1" d="M283.88,50.34a3.7,3.7,0,0,1-.91-.54c-.3-.23-.65-.53-1.06-.9-.24-.21-.5-.43-.79-.65a5.61,5.61,0,0,0-1-.59,6.2,6.2,0,0,0-1.32-.43,8.69,8.69,0,0,0-1.81-.16v1.37a6.75,6.75,0,0,1,1.68.18,4.44,4.44,0,0,1,1.21.49,4,4,0,0,1,.9.71c.26.26.52.53.77.82l0,.07-1.47,0h-1.59a13.5,13.5,0,0,1-1.7-.09,2.64,2.64,0,0,1-1.1-.35,1.45,1.45,0,0,1-.59-.76,3.83,3.83,0,0,1-.18-1.3V39.16a5.28,5.28,0,0,0-.24-1.72,2.55,2.55,0,0,0-.66-1.1,2.36,2.36,0,0,0-1.05-.59,6.12,6.12,0,0,0-3.23.1,3.58,3.58,0,0,0-2.1,1.82,6.55,6.55,0,0,0-.47,1.33,8.7,8.7,0,0,0-.21,1.46c0,.51-.05,1-.05,1.5v5.29A9.23,9.23,0,0,0,267,49a4.42,4.42,0,0,0,.49,1.35,4.1,4.1,0,0,0,.9,1.06,7.37,7.37,0,0,0,1.37.89,1.8,1.8,0,0,0,.5-.49,1.75,1.75,0,0,0,.27-.61,8.87,8.87,0,0,1-1-.71,2.74,2.74,0,0,1-.67-.81,3.58,3.58,0,0,1-.38-1.13,9.29,9.29,0,0,1-.12-1.63V41.77a11.36,11.36,0,0,1,.19-2.28,5,5,0,0,1,.54-1.48,2.14,2.14,0,0,1,.76-.81,1.84,1.84,0,0,1,.9-.24,1.26,1.26,0,0,1,.46.08.67.67,0,0,1,.31.33,2.22,2.22,0,0,1,.18.65,7.63,7.63,0,0,1,.06,1v9.16a4.93,4.93,0,0,0,.4,2.2,2.56,2.56,0,0,0,1.28,1.16,6.33,6.33,0,0,0,2.23.44c.91,0,2,.07,3.28.07h5.9l1.76,0V50.69a14.37,14.37,0,0,1-1.62-.07A4.52,4.52,0,0,1,283.88,50.34Z"/><path class="cls-1" d="M302,36.71a4.05,4.05,0,0,0-1.85-.75,16.34,16.34,0,0,0-2.73-.19c-.56,0-1.19,0-1.89,0s-1.44,0-2.24.1V36a3,3,0,0,1,1.09,1.13,5.73,5.73,0,0,1,.56,1.5,8.26,8.26,0,0,1,.2,1.64c0,.56,0,1.07,0,1.54V49.9a1.24,1.24,0,0,1-.22.75c-.15.19-.47.28-1,.28a1.06,1.06,0,0,1-.81-.23,1.13,1.13,0,0,1-.22-.8V40.76a7,7,0,0,0-.37-2.46,3.84,3.84,0,0,0-1.06-1.6,4.19,4.19,0,0,0-1.71-.86,9.17,9.17,0,0,0-2.26-.26,6.31,6.31,0,0,0-2.3.36,3.05,3.05,0,0,0-1.48,1.26h-.1a3.87,3.87,0,0,0-1.3-1.18,4.08,4.08,0,0,0-2-.44,4.77,4.77,0,0,0-1.8.3,3.3,3.3,0,0,0-1.18.79,3.06,3.06,0,0,0-.64,1.1,3.8,3.8,0,0,0-.2,1.18,4.07,4.07,0,0,0,.1.9,5.61,5.61,0,0,0,.28,1,4.59,4.59,0,0,0,1.36-.43A3.88,3.88,0,0,1,278,39a2.53,2.53,0,0,1,.1-.71,1.75,1.75,0,0,1,.36-.67,1.8,1.8,0,0,1,.71-.49,3,3,0,0,1,1.16-.19,2.29,2.29,0,0,1,2,.87,5,5,0,0,1,.61,2.75h1.37a4.57,4.57,0,0,1,.66-2.8A2.52,2.52,0,0,1,287,37a2.44,2.44,0,0,1,2.11.85,4.62,4.62,0,0,1,.63,2.72v9.29A3.45,3.45,0,0,0,290,51a1.54,1.54,0,0,0,.59.76,2.72,2.72,0,0,0,1.1.41,10.17,10.17,0,0,0,1.7.12,9.44,9.44,0,0,0,1.39-.09,2.42,2.42,0,0,0,1-.35,1.79,1.79,0,0,0,.63-.75,3.2,3.2,0,0,0,.21-1.27V41.74c0-.38,0-.77,0-1.17a9.39,9.39,0,0,0-.08-1.19,8.07,8.07,0,0,0-.2-1.13,4.17,4.17,0,0,0-.4-1v0c.22,0,.44,0,.67,0h.66a6.67,6.67,0,0,1,1.38.12,1.65,1.65,0,0,1,.91.51,2.58,2.58,0,0,1,.51,1.13,10,10,0,0,1,.15,1.93V52.07h3.15V41a9.1,9.1,0,0,0-.33-2.7A3.13,3.13,0,0,0,302,36.71Z"/><path class="cls-1" d="M328.51,83.9a4.62,4.62,0,0,1-.36-1,8.87,8.87,0,0,1-.22-1.31c-.06-.52-.1-1.13-.12-1.85s0-1.57,0-2.57V40a7.91,7.91,0,0,0-.25-2.21,2.86,2.86,0,0,0-.78-1.33,2.93,2.93,0,0,0-1.37-.66,10.58,10.58,0,0,0-2-.17,9.56,9.56,0,0,0-1.74.14,2.67,2.67,0,0,0-1.22.53,2.33,2.33,0,0,0-.73,1.14,6.81,6.81,0,0,0-.23,1.94V47c0,.3,0,.62,0,1a8.76,8.76,0,0,0,.09,1,6.74,6.74,0,0,0,.23,1,1.76,1.76,0,0,0,.42.73l0,.06h-.5a6.59,6.59,0,0,1-1.33-.1,1,1,0,0,1-.69-.43,1.87,1.87,0,0,1-.26-1c0-.42,0-1,0-1.72V40.36a5.3,5.3,0,0,0-.23-1.72,2.61,2.61,0,0,0-.66-1.1,2.46,2.46,0,0,0-1-.58,5,5,0,0,0-1.41-.17,5.7,5.7,0,0,0-1.82.26,3.75,3.75,0,0,0-1.27.73,3.67,3.67,0,0,0-.83,1.09,6.64,6.64,0,0,0-.47,1.34,8.56,8.56,0,0,0-.21,1.46c0,.5-.06,1-.06,1.49v4.09a9.17,9.17,0,0,0,.15,1.76,4.42,4.42,0,0,0,.49,1.35,4.1,4.1,0,0,0,.9,1.06,7.05,7.05,0,0,0,1.37.89,1.8,1.8,0,0,0,.5-.49,2.23,2.23,0,0,0,.27-.61,8.1,8.1,0,0,1-1-.71,2.94,2.94,0,0,1-.68-.81,3.85,3.85,0,0,1-.37-1.13,9.29,9.29,0,0,1-.12-1.63V43A11.19,11.19,0,0,1,311,40.7a4.76,4.76,0,0,1,.54-1.49,2.07,2.07,0,0,1,.76-.81,1.8,1.8,0,0,1,.89-.24,1.09,1.09,0,0,1,.47.09.61.61,0,0,1,.31.32,2.21,2.21,0,0,1,.18.66,7.43,7.43,0,0,1,.06,1.05v8.47a5.43,5.43,0,0,0,.25,1.87,1.84,1.84,0,0,0,.84,1,3.86,3.86,0,0,0,1.56.41c.65.05,1.45.08,2.4.08l1.82,0,1.67-.05V50.69a1.55,1.55,0,0,1-1-.29,1.89,1.89,0,0,1-.56-.78A4.1,4.1,0,0,1,321,48.5c0-.42,0-.86,0-1.31v-8A5.4,5.4,0,0,1,321,38a1.51,1.51,0,0,1,.35-.68A1,1,0,0,1,322,37a5.15,5.15,0,0,1,1.75,0,1,1,0,0,1,.58.38,2.06,2.06,0,0,1,.3.84,9.63,9.63,0,0,1,.09,1.48V78.26A16.56,16.56,0,0,0,325,81.5a8.27,8.27,0,0,0,.81,2.27,6.5,6.5,0,0,0,1.31,1.66,12.16,12.16,0,0,0,1.78,1.34,3,3,0,0,0,.52-.5,3,3,0,0,0,.41-.58c-.28-.34-.53-.65-.74-.93A5.85,5.85,0,0,1,328.51,83.9Z"/><path class="cls-1" d="M346.16,52.31a1.67,1.67,0,0,0,.5-.49,2,2,0,0,0,.28-.61,8.1,8.1,0,0,1-1-.71,2.77,2.77,0,0,1-.68-.81,3.85,3.85,0,0,1-.38-1.13,9.29,9.29,0,0,1-.12-1.63V41.77a11.28,11.28,0,0,1,.2-2.28,5,5,0,0,1,.53-1.48,2.08,2.08,0,0,1,.77-.81,1.78,1.78,0,0,1,.89-.24,1.22,1.22,0,0,1,.46.08.67.67,0,0,1,.31.33,2.22,2.22,0,0,1,.18.65,7.63,7.63,0,0,1,.06,1v9.16a4.78,4.78,0,0,0,.41,2.2,2.53,2.53,0,0,0,1.27,1.16A6.38,6.38,0,0,0,352,52c.92,0,2,.07,3.28.07h5.9l1.77,0V50.69a14.44,14.44,0,0,1-1.63-.07,4.44,4.44,0,0,1-1.09-.28,3.59,3.59,0,0,1-.89-.54q-.44-.34-1.05-.9c-.24-.21-.51-.43-.79-.65a5.71,5.71,0,0,0-1-.59,6.21,6.21,0,0,0-1.34-.43,8.69,8.69,0,0,0-1.81-.16v1.37a6.72,6.72,0,0,1,1.67.18,4.44,4.44,0,0,1,2.12,1.2c.26.26.51.53.76.82l0,.07-1.47,0h-1.59a13.5,13.5,0,0,1-1.7-.09,2.64,2.64,0,0,1-1.1-.35,1.5,1.5,0,0,1-.59-.76,3.83,3.83,0,0,1-.18-1.3V39.16a5.59,5.59,0,0,0-.23-1.72,2.76,2.76,0,0,0-.66-1.1,2.48,2.48,0,0,0-1.05-.59,5.5,5.5,0,0,0-1.41-.17,5.41,5.41,0,0,0-1.82.27,3.8,3.8,0,0,0-1.28.73,3.68,3.68,0,0,0-.82,1.09,5.53,5.53,0,0,0-.47,1.33,8.71,8.71,0,0,0-.22,1.46c0,.51-.05,1-.05,1.5v5.29a9.17,9.17,0,0,0,.15,1.76,4.18,4.18,0,0,0,.49,1.35,3.74,3.74,0,0,0,.9,1.06A7,7,0,0,0,346.16,52.31Z"/><path class="cls-1" d="M373,50.3a8.26,8.26,0,0,1-.46.94A4.23,4.23,0,0,1,372,52a3.65,3.65,0,0,1-.68.61,7.05,7.05,0,0,1-.88.53V40.76a7.65,7.65,0,0,0-.35-2.49A3.76,3.76,0,0,0,369,36.68a4.15,4.15,0,0,0-1.72-.85,10.33,10.33,0,0,0-2.35-.25,6.67,6.67,0,0,0-2.4.36,3.14,3.14,0,0,0-1.48,1.26H361A3.87,3.87,0,0,0,359.63,36a4.27,4.27,0,0,0-2.05-.44,4.94,4.94,0,0,0-1.83.3,3.35,3.35,0,0,0-1.21.79,2.87,2.87,0,0,0-.67,1.1,3.78,3.78,0,0,0-.19,1.18,4.73,4.73,0,0,0,.09.9,6.64,6.64,0,0,0,.28,1,4.42,4.42,0,0,0,1.36-.43,4.11,4.11,0,0,1-.29-1.38,2.56,2.56,0,0,1,.11-.71,1.79,1.79,0,0,1,.38-.67,1.88,1.88,0,0,1,.73-.49,3.09,3.09,0,0,1,1.19-.19,2.41,2.41,0,0,1,2.08.87,4.79,4.79,0,0,1,.63,2.75h1.38a4.42,4.42,0,0,1,.69-2.8,2.7,2.7,0,0,1,2.21-.82,3.67,3.67,0,0,1,1.33.21,1.93,1.93,0,0,1,.85.66,2.68,2.68,0,0,1,.44,1.1,8.27,8.27,0,0,1,.13,1.6V54a20.57,20.57,0,0,1-2.38.52c-.85.14-1.74.27-2.67.4l-2.89.37c-1,.13-2,.28-3,.47s-2,.38-2.92.62a23.24,23.24,0,0,0-2.71.86,14.32,14.32,0,0,0-2.38,1.2,8.3,8.3,0,0,0-1.86,1.61,7.17,7.17,0,0,0-1.23,2.14,7.74,7.74,0,0,0-.45,2.73,8,8,0,0,0,.47,2.8,6,6,0,0,0,1.34,2.16,6.13,6.13,0,0,0,2.18,1.39,9.21,9.21,0,0,0,5,.26,12.22,12.22,0,0,0,1.49-.52l1.24-.52a3.45,3.45,0,0,1,1.34-.24,4.11,4.11,0,0,1,1.39.24l1.4.52a15.5,15.5,0,0,0,1.62.52,8.27,8.27,0,0,0,2.05.23,7.85,7.85,0,0,0,2.41-.36,5.06,5.06,0,0,0,1.94-1.14,5.51,5.51,0,0,0,1.3-2,8.41,8.41,0,0,0,.47-3V55.56a8.42,8.42,0,0,0,2.45-1.93,7,7,0,0,0,1.43-2.94,2.61,2.61,0,0,0-.63-.28A2.16,2.16,0,0,0,373,50.3Zm-5.71,15a10.32,10.32,0,0,1-.22,2.32,4.34,4.34,0,0,1-.68,1.58,2.63,2.63,0,0,1-1.12.9,4,4,0,0,1-1.55.29,5.81,5.81,0,0,1-1.67-.23c-.5-.16-1-.33-1.45-.52s-.92-.36-1.37-.52a4.11,4.11,0,0,0-1.39-.24,3.58,3.58,0,0,0-1.33.24l-1.29.52a14.52,14.52,0,0,1-1.5.52,7.29,7.29,0,0,1-1.93.23,6.9,6.9,0,0,1-2.25-.35,4.93,4.93,0,0,1-1.75-1,4.43,4.43,0,0,1-1.13-1.61,5.52,5.52,0,0,1-.41-2.17,5.21,5.21,0,0,1,.85-3,7,7,0,0,1,2.3-2,13.6,13.6,0,0,1,3.33-1.3,40.24,40.24,0,0,1,3.94-.82c1-.15,1.93-.28,2.9-.4l2.84-.36c.92-.12,1.79-.25,2.62-.38a19.24,19.24,0,0,0,2.26-.49Z"/><path class="cls-1" d="M388.2,38.05a5.91,5.91,0,0,0-1.95-1.81,5.46,5.46,0,0,0-2.73-.66,6,6,0,0,0-2.87.69,6.79,6.79,0,0,0-2.2,1.86A8.56,8.56,0,0,0,377,40.85a10.53,10.53,0,0,0-.5,3.29,10.93,10.93,0,0,0,.46,3.21A8.64,8.64,0,0,0,378.34,50a6.62,6.62,0,0,0,2.14,1.84,6.06,6.06,0,0,0,2.88.68,5.52,5.52,0,0,0,2.84-.71,6,6,0,0,0,2-1.89,8.61,8.61,0,0,0,1.18-2.74,13.35,13.35,0,0,0,.39-3.26,13.07,13.07,0,0,0-.39-3.24A8.37,8.37,0,0,0,388.2,38.05ZM388,46.57a9,9,0,0,1-.89,2.33,5.22,5.22,0,0,1-1.42,1.65,3.14,3.14,0,0,1-1.91.62,3,3,0,0,1-1.66-.48,4,4,0,0,1-1.3-1.38,7.58,7.58,0,0,1-.84-2.19,12.59,12.59,0,0,1-.3-2.87A13.64,13.64,0,0,1,380,41.4a8.22,8.22,0,0,1,.83-2.32,4.35,4.35,0,0,1,1.34-1.55A3.06,3.06,0,0,1,384,37a3.1,3.1,0,0,1,1.88.6,5,5,0,0,1,1.37,1.58,8.11,8.11,0,0,1,.82,2.22,11.79,11.79,0,0,1,.28,2.52A12,12,0,0,1,388,46.57Z"/><path class="cls-1" d="M398.58,52.31a1.76,1.76,0,0,0,.49-.49,2,2,0,0,0,.28-.61,8.1,8.1,0,0,1-1-.71,2.77,2.77,0,0,1-.68-.81,3.85,3.85,0,0,1-.38-1.13,9.29,9.29,0,0,1-.12-1.63V41.77a11.28,11.28,0,0,1,.2-2.28,5,5,0,0,1,.53-1.48,2.08,2.08,0,0,1,.77-.81,1.78,1.78,0,0,1,.89-.24A1.32,1.32,0,0,1,400,37a.7.7,0,0,1,.3.33,2.22,2.22,0,0,1,.18.65,7.44,7.44,0,0,1,.07,1v9.16a4.8,4.8,0,0,0,.4,2.2,2.53,2.53,0,0,0,1.27,1.16,6.39,6.39,0,0,0,2.24.44c.91,0,2,.07,3.27.07h5.9l1.77,0V50.69a14.44,14.44,0,0,1-1.63-.07,4.44,4.44,0,0,1-1.09-.28,3.59,3.59,0,0,1-.89-.54q-.43-.34-1-.9c-.24-.21-.51-.43-.79-.65a5.37,5.37,0,0,0-1-.59,6.21,6.21,0,0,0-1.34-.43,8.69,8.69,0,0,0-1.81-.16v1.37a6.72,6.72,0,0,1,1.67.18,4.32,4.32,0,0,1,2.12,1.2c.26.26.51.53.76.82v.07l-1.47,0h-1.59a13.56,13.56,0,0,1-1.71-.09,2.69,2.69,0,0,1-1.1-.35,1.5,1.5,0,0,1-.59-.76,3.83,3.83,0,0,1-.18-1.3V39.16a5.59,5.59,0,0,0-.23-1.72,2.76,2.76,0,0,0-.66-1.1,2.48,2.48,0,0,0-1.05-.59,6.12,6.12,0,0,0-3.23.1,3.8,3.8,0,0,0-1.28.73,3.68,3.68,0,0,0-.82,1.09,6,6,0,0,0-.47,1.33,9.87,9.87,0,0,0-.22,1.46c0,.51-.05,1-.05,1.5v5.29a9.17,9.17,0,0,0,.15,1.76,4.18,4.18,0,0,0,.49,1.35,4.1,4.1,0,0,0,.9,1.06A7.05,7.05,0,0,0,398.58,52.31Z"/><path class="cls-1" d="M425.39,50.3a8.26,8.26,0,0,1-.46.94,4.23,4.23,0,0,1-.54.75,3.65,3.65,0,0,1-.68.61,7.05,7.05,0,0,1-.88.53V40.76a7.65,7.65,0,0,0-.35-2.49,3.76,3.76,0,0,0-1.05-1.59,4.15,4.15,0,0,0-1.72-.85,10.26,10.26,0,0,0-2.35-.25,6.57,6.57,0,0,0-2.39.36,3.12,3.12,0,0,0-1.49,1.26h-.1A4,4,0,0,0,412,36a4.24,4.24,0,0,0-2.05-.44,4.94,4.94,0,0,0-1.83.3,3.44,3.44,0,0,0-1.21.79,2.84,2.84,0,0,0-.66,1.1,3.53,3.53,0,0,0-.2,1.18,4.73,4.73,0,0,0,.09.9,5.67,5.67,0,0,0,.29,1,4.44,4.44,0,0,0,1.35-.43,4.11,4.11,0,0,1-.29-1.38,2.56,2.56,0,0,1,.11-.71,1.79,1.79,0,0,1,.38-.67,1.88,1.88,0,0,1,.73-.49,3.12,3.12,0,0,1,1.19-.19,2.41,2.41,0,0,1,2.08.87,4.79,4.79,0,0,1,.63,2.75H414a4.42,4.42,0,0,1,.69-2.8,2.7,2.7,0,0,1,2.21-.82,3.67,3.67,0,0,1,1.33.21,1.93,1.93,0,0,1,.85.66,2.83,2.83,0,0,1,.45,1.1,9.24,9.24,0,0,1,.12,1.6V54a20.57,20.57,0,0,1-2.38.52c-.85.14-1.74.27-2.67.4l-2.89.37c-1,.13-2,.28-3,.47s-2,.38-2.92.62a23.86,23.86,0,0,0-2.71.86,14.32,14.32,0,0,0-2.38,1.2,8.3,8.3,0,0,0-1.86,1.61,7.17,7.17,0,0,0-1.23,2.14,7.74,7.74,0,0,0-.45,2.73,8,8,0,0,0,.47,2.8,5.84,5.84,0,0,0,3.52,3.55,8.17,8.17,0,0,0,2.94.49,8,8,0,0,0,2.07-.23,12.22,12.22,0,0,0,1.49-.52l1.24-.52a3.48,3.48,0,0,1,1.34-.24,4.11,4.11,0,0,1,1.39.24l1.4.52a16.31,16.31,0,0,0,1.62.52,8.33,8.33,0,0,0,2,.23,7.85,7.85,0,0,0,2.41-.36,5.06,5.06,0,0,0,1.94-1.14,5.51,5.51,0,0,0,1.3-2,8.41,8.41,0,0,0,.47-3V55.56a8.42,8.42,0,0,0,2.45-1.93,7,7,0,0,0,1.43-2.94,2.61,2.61,0,0,0-.63-.28A2.16,2.16,0,0,0,425.39,50.3Zm-5.71,15a10.32,10.32,0,0,1-.22,2.32,4.34,4.34,0,0,1-.68,1.58,2.63,2.63,0,0,1-1.12.9,4,4,0,0,1-1.55.29,5.86,5.86,0,0,1-1.67-.23c-.5-.16-1-.33-1.45-.52s-.92-.36-1.37-.52a4.06,4.06,0,0,0-1.39-.24,3.58,3.58,0,0,0-1.33.24l-1.29.52a13.74,13.74,0,0,1-1.5.52,7.29,7.29,0,0,1-1.93.23,6.9,6.9,0,0,1-2.25-.35,4.93,4.93,0,0,1-1.75-1,4.55,4.55,0,0,1-1.13-1.61,5.52,5.52,0,0,1-.41-2.17,5.14,5.14,0,0,1,.86-3,6.89,6.89,0,0,1,2.29-2,13.6,13.6,0,0,1,3.33-1.3c1.25-.33,2.57-.6,3.94-.82,1-.15,1.93-.28,2.91-.4l2.83-.36c.92-.12,1.79-.25,2.62-.38a19.24,19.24,0,0,0,2.26-.49Z"/><path class="cls-1" d="M438.28,43.18V43a3.86,3.86,0,0,0,1.79-1.39,3.61,3.61,0,0,0,.6-2.06,4.33,4.33,0,0,0-.27-1.51,3.69,3.69,0,0,0-2.15-2.16,4.71,4.71,0,0,0-1.86-.34,4.09,4.09,0,0,0-2.29.64,4,4,0,0,0-1.52,2.22l1.34.46a3.11,3.11,0,0,1,.87-1.44,1.7,1.7,0,0,1,1.1-.42,1.36,1.36,0,0,1,1.25.72,3.82,3.82,0,0,1,.42,2,4.32,4.32,0,0,1-.14,1.19,2.06,2.06,0,0,1-.47.89,2.16,2.16,0,0,1-.91.55,4.83,4.83,0,0,1-1.44.19V43.9a3,3,0,0,1,2.47.94,3.85,3.85,0,0,1,.78,2.55,5.27,5.27,0,0,1-.17,1.42,3.29,3.29,0,0,1-.51,1.12,2.45,2.45,0,0,1-.83.74,2.5,2.5,0,0,1-1.15.26,3.24,3.24,0,0,1-1.79-.55,4.82,4.82,0,0,1-1.5-1.62,9.42,9.42,0,0,1-1-2.67,15.47,15.47,0,0,1-.39-3.67,21.52,21.52,0,0,1,.41-4.14,17.78,17.78,0,0,1,1.24-3.86,13.16,13.16,0,0,1,2.05-3.2,8.57,8.57,0,0,1,2.87-2.15,3.69,3.69,0,0,0-.69-1.24,10.4,10.4,0,0,0-3.29,2.51,14.24,14.24,0,0,0-2.29,3.54,18.13,18.13,0,0,0-1.33,4.17,22.73,22.73,0,0,0-.43,4.41,17.79,17.79,0,0,0,.45,4.18,10,10,0,0,0,1.32,3.18,6.09,6.09,0,0,0,2.09,2,5.46,5.46,0,0,0,2.77.71,5.94,5.94,0,0,0,2.08-.36,5,5,0,0,0,1.7-1,4.83,4.83,0,0,0,1.15-1.62,5.13,5.13,0,0,0,.42-2.11A4.37,4.37,0,0,0,438.28,43.18Z"/><path class="cls-1" d="M12.68,11.24h-.41a7.08,7.08,0,0,1-.34,2.29A2.87,2.87,0,0,1,10.77,15a4.18,4.18,0,0,1-2.26.52H5.16V8H6.41a2.47,2.47,0,0,1,1.07.23,1.78,1.78,0,0,1,.74.7,2.24,2.24,0,0,1,.27,1.16H8.9V5.61H8.49a2.14,2.14,0,0,1-.27,1.14,1.61,1.61,0,0,1-.74.65,2.62,2.62,0,0,1-1.07.21H5.16v-7H8.73a3.45,3.45,0,0,1,2,.5,2.89,2.89,0,0,1,1.05,1.39,6,6,0,0,1,.32,2h.41V.21H1.26V.62H3.15V15.55H1.26V16H12.68Z"/><path class="cls-1" d="M21.23,15.57a4.93,4.93,0,0,0,2.42.6,4.21,4.21,0,0,0,2.74-.84,4.36,4.36,0,0,0,1.44-2.11h-.47A3.92,3.92,0,0,1,26.07,15a3.64,3.64,0,0,1-2.31.71,2.33,2.33,0,0,1-1.34-.37,2.47,2.47,0,0,1-.83-1,5.27,5.27,0,0,1-.42-1.47A12,12,0,0,1,21,11.13c0-.24,0-.47.05-.7h6.58a5.58,5.58,0,0,0-.4-2.14A3.51,3.51,0,0,0,26,6.7a4.33,4.33,0,0,0-2.43-.6,4.74,4.74,0,0,0-2.39.6,4.3,4.3,0,0,0-1.65,1.73,5.67,5.67,0,0,0-.6,2.7,5.34,5.34,0,0,0,.64,2.7A4.4,4.4,0,0,0,21.23,15.57ZM21.16,9.4a6.25,6.25,0,0,1,.37-1.49,2.44,2.44,0,0,1,.75-1,1.93,1.93,0,0,1,1.24-.38,1.53,1.53,0,0,1,1.05.35,2.09,2.09,0,0,1,.58.88,5.33,5.33,0,0,1,.24,1.15c0,.41.05.79.05,1.14H21.12A6.06,6.06,0,0,1,21.16,9.4Z"/><path class="cls-1" d="M38.33,15.55H37v-4.3a6.38,6.38,0,0,1,.2-1.49,6.32,6.32,0,0,1,.59-1.51,3.78,3.78,0,0,1,1-1.18,2.37,2.37,0,0,1,1.47-.47A1,1,0,0,1,41.1,7a2.16,2.16,0,0,1,.35,1,13.87,13.87,0,0,1,.08,1.55v6H40.17V16h4.58v-.41H43.38V9.25a5.81,5.81,0,0,0-.21-1.63,2,2,0,0,0-.82-1.12,3.45,3.45,0,0,0-1.83-.4,3,3,0,0,0-1.85.54A4,4,0,0,0,37.51,8,6.88,6.88,0,0,0,37,9.44V6.3H33.76v.41h1.38v8.84H33.76V16h4.57Z"/><path class="cls-1" d="M64.48,15.55H63.13v-4.3a6.34,6.34,0,0,1,.19-1.49,6,6,0,0,1,.6-1.51,3.62,3.62,0,0,1,1-1.18A2.41,2.41,0,0,1,66.4,6.6a1,1,0,0,1,.85.38,2.16,2.16,0,0,1,.36,1,14.09,14.09,0,0,1,.07,1.55v6H66.32V16h4.59v-.41H69.53V9.25a5.81,5.81,0,0,0-.21-1.63A2,2,0,0,0,68.5,6.5a3.39,3.39,0,0,0-1.82-.4,3,3,0,0,0-1.85.54A4,4,0,0,0,63.66,8a6.33,6.33,0,0,0-.53,1.43V6.3H59.92v.41h1.37v8.84H59.92V16h4.56Z"/><path class="cls-1" d="M79.05,2.58a1.2,1.2,0,0,0,.89-.37,1.28,1.28,0,0,0,.37-.9,1.24,1.24,0,0,0-.37-.89,1.26,1.26,0,0,0-1.78,0,1.2,1.2,0,0,0-.37.89,1.24,1.24,0,0,0,.37.9A1.2,1.2,0,0,0,79.05,2.58Z"/><polygon class="cls-1" points="79.98 6.3 76.72 6.3 76.72 6.71 78.09 6.71 78.09 15.55 76.72 15.55 76.72 15.96 81.36 15.96 81.36 15.55 79.98 15.55 79.98 6.3"/><path class="cls-1" d="M92.27,16.17A4.21,4.21,0,0,0,95,15.33a4.41,4.41,0,0,0,1.43-2.11H96A4,4,0,0,1,94.69,15a3.64,3.64,0,0,1-2.31.71A2.34,2.34,0,0,1,91,15.35a2.55,2.55,0,0,1-.83-1,5.27,5.27,0,0,1-.42-1.47,12,12,0,0,1-.12-1.73c0-.24,0-.47,0-.7h6.58a5.59,5.59,0,0,0-.41-2.14A3.49,3.49,0,0,0,94.57,6.7a4.37,4.37,0,0,0-2.43-.6,4.71,4.71,0,0,0-2.39.6A4.3,4.3,0,0,0,88.1,8.43a5.67,5.67,0,0,0-.6,2.7,5.44,5.44,0,0,0,.63,2.7,4.5,4.5,0,0,0,1.72,1.74A4.91,4.91,0,0,0,92.27,16.17ZM89.77,9.4a6.24,6.24,0,0,1,.38-1.49,2.44,2.44,0,0,1,.75-1,1.91,1.91,0,0,1,1.24-.38,1.53,1.53,0,0,1,1,.35,2,2,0,0,1,.57.88A5.33,5.33,0,0,1,94,8.88q.06.61.06,1.14H89.73C89.75,9.81,89.75,9.59,89.77,9.4Z"/><path class="cls-1" d="M103.75,13a5.45,5.45,0,0,0,.22,1.63,2,2,0,0,0,.84,1.12,3.29,3.29,0,0,0,1.84.42,3.07,3.07,0,0,0,1.87-.54,3.7,3.7,0,0,0,1.14-1.37,7.05,7.05,0,0,0,.49-1.4V16h3.26v-.41h-1.36V6.3h-3.37v.41h1.47V11a6.32,6.32,0,0,1-.19,1.48,5.8,5.8,0,0,1-.57,1.52,3.5,3.5,0,0,1-1,1.18,2.37,2.37,0,0,1-1.47.47,1,1,0,0,1-.84-.38,2.06,2.06,0,0,1-.36-1,11.67,11.67,0,0,1-.09-1.55V6.3h-3.25v.41h1.37Z"/><polygon class="cls-1" points="123.29 16.17 126.35 8.79 128.85 16.17 129.26 16.17 132.43 6.71 133.91 6.71 133.91 6.3 130.1 6.3 130.1 6.71 131.95 6.71 129.74 13.32 127.45 6.1 126.99 6.1 123.87 13.65 121.71 6.71 123.28 6.71 123.28 6.3 118.71 6.3 118.71 6.71 119.9 6.71 122.85 16.17 123.29 16.17"/><path class="cls-1" d="M158.39,9.25a5.45,5.45,0,0,0-.22-1.63,2,2,0,0,0-.84-1.12,3.43,3.43,0,0,0-1.82-.4,2.92,2.92,0,0,0-1.8.54A3.92,3.92,0,0,0,152.56,8,6.85,6.85,0,0,0,152,9.44V.21h-3.25V.62h1.37V15.55h-1.37V16h4.62v-.41H152v-4.3a6.52,6.52,0,0,1,.77-3,3.6,3.6,0,0,1,1-1.18,2.36,2.36,0,0,1,1.46-.47,1,1,0,0,1,.86.38,2.27,2.27,0,0,1,.35,1,14.09,14.09,0,0,1,.07,1.55v6h-1.36V16h4.59v-.41h-1.38Z"/><path class="cls-1" d="M168.05,15.48a5.09,5.09,0,0,0,5.12,0,4.74,4.74,0,0,0,1.66-1.84,5.42,5.42,0,0,0,.58-2.51,5.42,5.42,0,0,0-.58-2.51,4.89,4.89,0,0,0-6.78-1.83,4.75,4.75,0,0,0-1.67,1.83,5.63,5.63,0,0,0,0,5A4.85,4.85,0,0,0,168.05,15.48Zm0-5.9a5.77,5.77,0,0,1,.38-1.51,2.74,2.74,0,0,1,.8-1.13,2.37,2.37,0,0,1,2.75,0,2.74,2.74,0,0,1,.8,1.13,5.77,5.77,0,0,1,.38,1.51,12,12,0,0,1,0,3.09,5.74,5.74,0,0,1-.38,1.52,2.84,2.84,0,0,1-.8,1.14,2.41,2.41,0,0,1-2.75,0,2.84,2.84,0,0,1-.8-1.14,5.74,5.74,0,0,1-.38-1.52,12,12,0,0,1,0-3.09Z"/><path class="cls-1" d="M189.15,6.79a4.61,4.61,0,0,0-2.55-.69,4.55,4.55,0,0,0-4.23,2.52,5.31,5.31,0,0,0-.59,2.51,5.31,5.31,0,0,0,.59,2.51A4.74,4.74,0,0,0,184,15.48a4.68,4.68,0,0,0,2.57.69,4.61,4.61,0,0,0,2.55-.69,4.74,4.74,0,0,0,1.66-1.84,5.42,5.42,0,0,0,.58-2.51,5.42,5.42,0,0,0-.58-2.51A4.65,4.65,0,0,0,189.15,6.79Zm0,5.88a6.15,6.15,0,0,1-.37,1.52,3,3,0,0,1-.81,1.14,2.41,2.41,0,0,1-2.75,0,2.84,2.84,0,0,1-.8-1.14,6.16,6.16,0,0,1-.38-1.52,12,12,0,0,1,0-3.09,6.19,6.19,0,0,1,.38-1.51,2.74,2.74,0,0,1,.8-1.13,2.37,2.37,0,0,1,2.75,0,2.85,2.85,0,0,1,.81,1.13,6.18,6.18,0,0,1,.37,1.51,12,12,0,0,1,0,3.09Z"/><path class="cls-1" d="M201,16h2.42v-.41H201V6.71h2.84V6.3H201V4.62a10.5,10.5,0,0,1,.21-2.27,2.87,2.87,0,0,1,.71-1.44,1.8,1.8,0,0,1,1.33-.5,2.58,2.58,0,0,1,1.14.24,1.88,1.88,0,0,1,.64.49,1.4,1.4,0,0,0-.4-.07,1.23,1.23,0,0,0-.78.31,1,1,0,0,0-.39.86,1.13,1.13,0,0,0,.18.67,1.06,1.06,0,0,0,.46.36,1.4,1.4,0,0,0,.53.11,1.2,1.2,0,0,0,.84-.33,1.25,1.25,0,0,0,.36-1,1.88,1.88,0,0,0-.29-1,2.31,2.31,0,0,0-.87-.79A2.79,2.79,0,0,0,203.27,0,3.52,3.52,0,0,0,201,.73a4.46,4.46,0,0,0-1.39,1.92,7,7,0,0,0-.47,2.57V6.3h-1.78v.41h1.78v8.84h-1.78V16H201Z"/><path class="cls-1" d="M221.26,16v-.41h-1.37V.21h-3.27V.62H218V9.37A4.79,4.79,0,0,0,216.79,7a2.88,2.88,0,0,0-2.15-.88,4,4,0,0,0-2.09.6,4.6,4.6,0,0,0-1.61,1.74,5.44,5.44,0,0,0-.63,2.7,5.44,5.44,0,0,0,.63,2.7,4.54,4.54,0,0,0,1.61,1.72,4,4,0,0,0,2.09.6,2.88,2.88,0,0,0,2.15-.88,4.69,4.69,0,0,0,1.2-2.36v3Zm-3.69-2.41a3.72,3.72,0,0,1-1.1,1.52,2.33,2.33,0,0,1-1.46.52,1.93,1.93,0,0,1-1.38-.52,3.31,3.31,0,0,1-.86-1.53,8.75,8.75,0,0,1-.29-2.4,8.88,8.88,0,0,1,.29-2.41,3.31,3.31,0,0,1,.86-1.53A1.89,1.89,0,0,1,215,6.67a2.33,2.33,0,0,1,1.46.52,3.69,3.69,0,0,1,1.1,1.53,6.28,6.28,0,0,1,.42,2.42A6.16,6.16,0,0,1,217.57,13.55Z"/><path class="cls-1" d="M228.4,15.24a4.11,4.11,0,0,0,1.15.68,3.72,3.72,0,0,0,1.38.25,3.89,3.89,0,0,0,1.76-.39,3,3,0,0,0,1.23-1.09,2.91,2.91,0,0,0,.46-1.64,2.31,2.31,0,0,0-.42-1.43,3.31,3.31,0,0,0-1.09-.93,9,9,0,0,0-1.41-.61c-.5-.18-1-.35-1.41-.53A3.76,3.76,0,0,1,229,8.93a1.17,1.17,0,0,1-.42-.94,1.23,1.23,0,0,1,.25-.78,1.64,1.64,0,0,1,.67-.5,2.46,2.46,0,0,1,.91-.17,3.08,3.08,0,0,1,1.54.37,3.17,3.17,0,0,1,1.08.93A2.45,2.45,0,0,1,233.45,9h.42V6.1h-.37l-.79.86a3.56,3.56,0,0,0-2.36-.85,3,3,0,0,0-1.62.41,2.48,2.48,0,0,0-.94,1,2.86,2.86,0,0,0-.31,1.3,2.49,2.49,0,0,0,.41,1.48,3,3,0,0,0,1,.89,8.47,8.47,0,0,0,1.34.58q.72.23,1.35.48a3.16,3.16,0,0,1,1,.63,1.39,1.39,0,0,1,.41,1,1.53,1.53,0,0,1-.33,1,2,2,0,0,1-.85.58,3.16,3.16,0,0,1-1.11.19,3,3,0,0,1-1.45-.36,3.46,3.46,0,0,1-1.13-.95,3,3,0,0,1-.57-1.32h-.42v3.07h.36Z"/><path class="cls-1" d="M241.38,13.62a4.56,4.56,0,0,0,.16,1.15,1.84,1.84,0,0,0,.58,1,1.92,1.92,0,0,0,1.3.39,2.5,2.5,0,0,0,1.64-.53,4,4,0,0,0,1.07-1.37l-.35-.22a3.56,3.56,0,0,1-.74,1,1.33,1.33,0,0,1-.95.44.73.73,0,0,1-.64-.26,2,2,0,0,1-.19-1.05V6.71h2.25V6.3h-2.25V3.57a3.42,3.42,0,0,1-.86.43,3,3,0,0,1-1,.2V6.3H240v.41h1.4Z"/><path class="cls-1" d="M252.7,13a5.79,5.79,0,0,0,.22,1.63,2,2,0,0,0,.84,1.12,3.29,3.29,0,0,0,1.84.42,3.07,3.07,0,0,0,1.87-.54,3.7,3.7,0,0,0,1.14-1.37,7.05,7.05,0,0,0,.49-1.4V16h3.26v-.41H261V6.3h-3.37v.41h1.47V11a6.32,6.32,0,0,1-.19,1.48,5.8,5.8,0,0,1-.57,1.52,3.5,3.5,0,0,1-1,1.18,2.36,2.36,0,0,1-1.46.47,1,1,0,0,1-.85-.38,2.06,2.06,0,0,1-.36-1,11.67,11.67,0,0,1-.09-1.55V6.3h-3.25v.41h1.37Z"/><polygon class="cls-1" points="273.23 15.55 271.76 15.55 271.76 10.56 276.01 15.55 274.57 15.55 274.57 15.96 279.46 15.96 279.46 15.55 278.31 15.55 273.27 9.65 276.94 6.71 278.73 6.71 278.73 6.3 274.26 6.3 274.26 6.71 276.37 6.71 271.76 10.35 271.76 0.21 268.08 0.21 268.08 0.62 269.88 0.62 269.88 15.55 268.08 15.55 268.08 15.96 273.23 15.96 273.23 15.55"/><polygon class="cls-1" points="300.99 6.71 302.87 6.71 299.98 13.81 297.25 6.71 299.03 6.71 299.03 6.3 294 6.3 294 6.71 295.18 6.71 299.06 16.17 299.51 16.17 303.37 6.71 304.58 6.71 304.58 6.3 300.99 6.3 300.99 6.71"/><path class="cls-1" d="M313.19,16.17a3.09,3.09,0,0,0,1.81-.51,3.28,3.28,0,0,0,1.12-1.43c.06-.15.09-.33.14-.49v.59a2,2,0,0,0,.25,1.09,1.45,1.45,0,0,0,.67.58,2.42,2.42,0,0,0,.91.17,2.26,2.26,0,0,0,2-1l-.2-.38a1.55,1.55,0,0,1-.51.57,1,1,0,0,1-.6.23.51.51,0,0,1-.51-.24,1.32,1.32,0,0,1-.12-.59V9.57a5.26,5.26,0,0,0-.25-1.64,2.36,2.36,0,0,0-1-1.29,3.72,3.72,0,0,0-2.16-.51,6.53,6.53,0,0,0-1.4.15,5.73,5.73,0,0,0-1.21.43,2.6,2.6,0,0,0-.86.68,1.33,1.33,0,0,0-.32.88,1.08,1.08,0,0,0,.33.86,1.16,1.16,0,0,0,.81.3,1.37,1.37,0,0,0,.81-.28,1.07,1.07,0,0,0,.39-.92,1,1,0,0,0-.38-.82,1.28,1.28,0,0,0-.74-.28l.27-.16a3.67,3.67,0,0,1,.95-.32,4.82,4.82,0,0,1,1-.11A1.61,1.61,0,0,1,315.6,7a2.2,2.2,0,0,1,.53,1.14,7.52,7.52,0,0,1,.13,1.45v1h-1.41a6.14,6.14,0,0,0-3.44.81,2.5,2.5,0,0,0-1.21,2.21,2.37,2.37,0,0,0,.81,1.89A3.23,3.23,0,0,0,313.19,16.17Zm-.66-3.9a2.38,2.38,0,0,1,.83-1,2.6,2.6,0,0,1,1.49-.39h1.41v1.2A4.49,4.49,0,0,1,315.9,14a2.74,2.74,0,0,1-.92,1.14,2,2,0,0,1-1.14.38,1.27,1.27,0,0,1-.89-.31,1.77,1.77,0,0,1-.52-.8,3.1,3.1,0,0,1-.16-1A2.87,2.87,0,0,1,312.53,12.27Z"/><path class="cls-1" d="M334.8,9.25a5.81,5.81,0,0,0-.21-1.63,2,2,0,0,0-.82-1.12A3.39,3.39,0,0,0,332,6.1a3,3,0,0,0-1.85.54A4,4,0,0,0,328.93,8a6.33,6.33,0,0,0-.53,1.43V6.3h-3.22v.41h1.38v4l-9.7,22.46a3.6,3.6,0,0,0,1.73.57L325.86,16h3.89v-.41H328.4v-4.3a6.37,6.37,0,0,1,.78-3,3.78,3.78,0,0,1,1-1.18,2.41,2.41,0,0,1,1.47-.47,1,1,0,0,1,.85.38,2.16,2.16,0,0,1,.36,1A14.09,14.09,0,0,1,333,9.57v6h-1.36V16h4.59v-.41H334.8ZM326,15.55l.54-1.31v1.31Z"/><path class="cls-1" d="M353.89,15.56a4,4,0,0,0,2.09.6,2.9,2.9,0,0,0,2.15-.88,4.85,4.85,0,0,0,1.2-2.36v3h3.26v-.41h-1.36V.21H358V.62h1.38V9.37A5,5,0,0,0,358.13,7,2.9,2.9,0,0,0,356,6.1a4,4,0,0,0-2.09.6,4.52,4.52,0,0,0-1.61,1.74,5.44,5.44,0,0,0-.63,2.7,5.44,5.44,0,0,0,.63,2.7A4.46,4.46,0,0,0,353.89,15.56Zm.22-6.83A3.31,3.31,0,0,1,355,7.2a1.89,1.89,0,0,1,1.38-.53,2.33,2.33,0,0,1,1.46.52,3.69,3.69,0,0,1,1.1,1.53,6.28,6.28,0,0,1,.42,2.42,6.16,6.16,0,0,1-.42,2.41,3.72,3.72,0,0,1-1.1,1.52,2.33,2.33,0,0,1-1.46.52,1.93,1.93,0,0,1-1.38-.52,3.31,3.31,0,0,1-.86-1.53,8.38,8.38,0,0,1-.29-2.4A8.5,8.5,0,0,1,354.11,8.73Z"/><path class="cls-1" d="M377.58,13.22h-.48A3.83,3.83,0,0,1,375.82,15a3.64,3.64,0,0,1-2.31.71,2.33,2.33,0,0,1-1.34-.37,2.49,2.49,0,0,1-.84-1,5.63,5.63,0,0,1-.41-1.47,10.74,10.74,0,0,1-.13-1.73c0-.24,0-.47,0-.7h6.58a5.58,5.58,0,0,0-.4-2.14A3.51,3.51,0,0,0,375.7,6.7a4.33,4.33,0,0,0-2.43-.6,4.74,4.74,0,0,0-2.39.6,4.3,4.3,0,0,0-1.65,1.73,5.67,5.67,0,0,0-.6,2.7,5.34,5.34,0,0,0,.64,2.7A4.4,4.4,0,0,0,371,15.57a4.91,4.91,0,0,0,2.42.6,4.21,4.21,0,0,0,2.74-.84A4.43,4.43,0,0,0,377.58,13.22ZM370.9,9.4a6.24,6.24,0,0,1,.38-1.49,2.44,2.44,0,0,1,.75-1,1.93,1.93,0,0,1,1.24-.38,1.53,1.53,0,0,1,1.05.35,2,2,0,0,1,.57.88,4.8,4.8,0,0,1,.25,1.15c0,.41.05.79.05,1.14h-4.33C370.88,9.81,370.88,9.59,370.9,9.4Z"/><path class="cls-1" d="M397.66,15.55h-1.49V11.46a7.06,7.06,0,0,1,.22-1.78,6.55,6.55,0,0,1,.6-1.59A3.53,3.53,0,0,1,397.9,7a1.78,1.78,0,0,1,1.16-.43,1.64,1.64,0,0,1,.71.15s0,0,0,0h-.07a1.35,1.35,0,0,0-.83.29,1,1,0,0,0-.39.88,1,1,0,0,0,.33.79,1.28,1.28,0,0,0,.89.31,1.11,1.11,0,0,0,.88-.38,1.34,1.34,0,0,0,.32-.9,1.49,1.49,0,0,0-.21-.77,1.58,1.58,0,0,0-.62-.58,2,2,0,0,0-1-.22,2.14,2.14,0,0,0-1.39.48,3.94,3.94,0,0,0-1,1.28,7.55,7.55,0,0,0-.54,1.56V6.3H393v.41h1.37v8.84H393V16h4.7Z"/><path class="cls-1" d="M409.11,15.57a4.87,4.87,0,0,0,2.41.6,4.19,4.19,0,0,0,2.74-.84,4.36,4.36,0,0,0,1.44-2.11h-.47A3.92,3.92,0,0,1,413.94,15a3.61,3.61,0,0,1-2.3.71,2.34,2.34,0,0,1-1.35-.37,2.47,2.47,0,0,1-.83-1,5.27,5.27,0,0,1-.42-1.47,12,12,0,0,1-.12-1.73c0-.24,0-.47,0-.7h6.58a5.58,5.58,0,0,0-.4-2.14,3.55,3.55,0,0,0-1.31-1.59,4.37,4.37,0,0,0-2.43-.6,4.75,4.75,0,0,0-2.4.6,4.3,4.3,0,0,0-1.65,1.73,5.79,5.79,0,0,0-.6,2.7,5.45,5.45,0,0,0,.64,2.7A4.43,4.43,0,0,0,409.11,15.57ZM409,9.4a5.8,5.8,0,0,1,.38-1.49,2.29,2.29,0,0,1,.75-1,1.89,1.89,0,0,1,1.24-.38,1.53,1.53,0,0,1,1.05.35,2,2,0,0,1,.57.88,5.33,5.33,0,0,1,.24,1.15q.06.61.06,1.14H409C409,9.81,409,9.59,409,9.4Z"/><path class="cls-1" d="M424.06,2.58a1.19,1.19,0,0,0,.89-.37,1.24,1.24,0,0,0,.37-.9A1.2,1.2,0,0,0,425,.42a1.19,1.19,0,0,0-.89-.37,1.22,1.22,0,0,0-.89.37,1.2,1.2,0,0,0-.37.89,1.24,1.24,0,0,0,.37.9A1.22,1.22,0,0,0,424.06,2.58Z"/><polygon class="cls-1" points="426.37 15.55 424.99 15.55 424.99 6.3 421.74 6.3 421.74 6.71 423.1 6.71 423.1 15.55 421.74 15.55 421.74 15.96 426.37 15.96 426.37 15.55"/><path class="cls-1" d="M433.61,15.24a4.32,4.32,0,0,0,1.16.68,3.72,3.72,0,0,0,1.38.25,3.89,3.89,0,0,0,1.76-.39,3,3,0,0,0,1.23-1.09,2.91,2.91,0,0,0,.46-1.64,2.31,2.31,0,0,0-.42-1.43,3.31,3.31,0,0,0-1.09-.93,9,9,0,0,0-1.41-.61c-.5-.18-1-.35-1.41-.53a3.63,3.63,0,0,1-1.09-.62,1.17,1.17,0,0,1-.42-.94,1.23,1.23,0,0,1,.25-.78,1.68,1.68,0,0,1,.66-.5,2.55,2.55,0,0,1,.92-.17,3.11,3.11,0,0,1,1.54.37,3.17,3.17,0,0,1,1.08.93A2.45,2.45,0,0,1,438.67,9h.41V6.1h-.36l-.79.86a3.64,3.64,0,0,0-1.05-.62,3.72,3.72,0,0,0-1.31-.23,3,3,0,0,0-1.62.41,2.48,2.48,0,0,0-.94,1,2.86,2.86,0,0,0-.31,1.3,2.49,2.49,0,0,0,.41,1.48,3,3,0,0,0,1,.89,8.47,8.47,0,0,0,1.34.58q.72.23,1.35.48a3.16,3.16,0,0,1,1,.63,1.39,1.39,0,0,1,.41,1,1.53,1.53,0,0,1-.33,1,2,2,0,0,1-.85.58,3.16,3.16,0,0,1-1.11.19,3,3,0,0,1-1.45-.36,3.36,3.36,0,0,1-1.13-.95,2.78,2.78,0,0,1-.57-1.32h-.42v3.07h.35Z"/></g></g></svg>