<svg xmlns="http://www.w3.org/2000/svg" viewBox="0 0 698.61 444.67"><defs><style>.cls-1{fill:#f3f1e7;stroke:#231f20;stroke-miterlimit:10;}</style></defs><g id="Layer_2" data-name="Layer 2"><g id="Layer_5" data-name="Layer 5"><path class="cls-1" d="M182.3.5q-29.15,0-66.75,15.12Q70.93,33.7,70.93,59.13q0,13.27,15.49,22.13a99.09,99.09,0,0,0,10,4.61q5.9,2.4,15.11,5.34c5.66,1.73,10.08,3,13.28,3.69s7.5,2,12.91,3.69q61.57,18.43,61.58,41.67,0,5.9-4.06,12.17-14,21.39-64.16,35.77-42,12.17-76.33,12.16-45,0-45-19.91,0-21.37,28.76-40.19,26.18-17.34,48.68-17.33c2,0,3,.61,3,1.84a12.79,12.79,0,0,1-.93,2.58q-.92,2.22-1.65,3.69Q79,146.16,58.39,158q-7.74,4.42-7.74,7c0,1,1,1.48,3,1.48A14,14,0,0,0,59,164.78q3.49-1.67,8.29-4.24,36.87-21,36.88-42,0-7.74-11.8-7.74-28,0-58.63,22.49Q.5,157.59.5,184.14.5,214.37,54,214.38q35.4,0,75.59-14,42.78-15.11,66.38-37.61Q211.8,148,211.8,132.88q0-22.48-34.3-36.14-1.84-.73-17.88-5.53T114.08,77.94Q80.15,68,80.15,56.55q0-12.9,29.13-26.18a242.68,242.68,0,0,1,40.2-13.65,146.21,146.21,0,0,1,17.33-3.13,135.26,135.26,0,0,1,15.12-.92q25.8,0,25.81,14.75a16.56,16.56,0,0,1-1.29,5.9,31.41,31.41,0,0,1-5.35,8.11q-6.27,7.38-6.27,8.11c0,1.73,1.11,2.59,3.32,2.59Q207,52.13,214,40q6.63-11.07,6.64-20.28Q220.65.51,182.3.5Z"/><path class="cls-1" d="M174.89,243.16a309.59,309.59,0,0,0-66.31-7q-48.4,0-84.87,11.94a22,22,0,0,0-9.29,6q-5.62,5-5.63,8.95c0,1.32.77,2,2.32,2a7.73,7.73,0,0,0,1.49-.17c.55-.11,1.27-.27,2.16-.5A324,324,0,0,1,68.3,250a311.17,311.17,0,0,1,54.54-4.81,238.41,238.41,0,0,1,45.75,4q29.17,5.31,29.18,27.52a40.22,40.22,0,0,1-.33,5,22.83,22.83,0,0,1-1.33,5.31q-4,10.94-14.09,20.39t-26.69,16.74A175.07,175.07,0,0,1,128.64,333a163.2,163.2,0,0,1-29,4.65L88.69,318.09q7.62-13.92,16.41-27.35t18.4-26.69a5.63,5.63,0,0,0,1-2.32c0-1.54-1.55-2.32-4.64-2.32q-11.61,0-17.24,7-7.31,12.27-12.77,22.05t-9.12,16.41q-6-7.95-13.92-7.95-7,0-12.6,6a18.71,18.71,0,0,0-5.3,13.27q0,12.93,15.91,20.55Q34,401.66,34,425.18q0,9,5.31,9,3.32,0,3.31-4.65v-2.32a8.65,8.65,0,0,1-.33-2.65q0-20.22,33.82-84.21,3,.66,6.3,1.32a63.67,63.67,0,0,0,7,1q9.29,14.6,19.9,28.35t21.88,26.69q33.81,37.45,53.05,37.46a16.15,16.15,0,0,0,12.26-5.3,18.57,18.57,0,0,0,5-12.6q0-13.26-5.64-13.26c-1.77,0-2.65,1-2.65,3a23.33,23.33,0,0,0,1,5c.22,1.11.39,2.16.5,3.15a25.93,25.93,0,0,1,.17,2.82q0,8.61-8,8.62-14.6,0-45.75-34.48-12.27-13.59-21.89-25.86A265.5,265.5,0,0,1,103,343.29a64.63,64.63,0,0,0,8.29.17q4.64-.16,8-.5,28.51-2,50.4-12.27a93.76,93.76,0,0,0,23-14.42,60.41,60.41,0,0,0,15.09-19.39q4.64-10,4.64-17.91Q212.36,251.79,174.89,243.16ZM66.81,332.35q-7.31-5-7.3-12.6,0-9.62,7.3-9.61,4.64,0,8,6.3Zm15.08,5c-1.44-.21-2.71-.44-3.81-.66L81.73,330l4.64,8C84.82,337.77,83.33,337.55,81.89,337.32Z"/><path class="cls-1" d="M229.93,178.3a46.23,46.23,0,0,0,1.78,13.41,16.51,16.51,0,0,0,6.92,9.29q5.15,3.42,15.18,3.42,9.33,0,15.39-4.45a30.31,30.31,0,0,0,9.39-11.25,54.64,54.64,0,0,0,4-11.17v25.14h26.9v-3.37H298.26v-76.2H270.5v3.37h12.11V162a54.78,54.78,0,0,1-1.52,12.15,49.58,49.58,0,0,1-4.71,12.55,29.57,29.57,0,0,1-8.26,9.73,19.53,19.53,0,0,1-12.07,3.8q-4.67,0-7-3.07a17.91,17.91,0,0,1-3-8.56,103.69,103.69,0,0,1-.69-12.76V123.12H218.6v3.37h11.33Z"/><path class="cls-1" d="M696.25,100a14.5,14.5,0,0,0-12.58-6.79A21.83,21.83,0,0,0,675.75,95a22.86,22.86,0,0,0-8.34,6.06,16.79,16.79,0,0,0-1.07,1.3,23.27,23.27,0,0,0-4.12-3.81,30.78,30.78,0,0,0-9.74-4.63,39.54,39.54,0,0,0-10.59-1.47,41.12,41.12,0,0,0-10.73,1.47,32.63,32.63,0,0,0-10,4.63,24,24,0,0,0-7.39,8.17,24.56,24.56,0,0,0-2.81,12.2,24.56,24.56,0,0,0,2.81,12.2,23.92,23.92,0,0,0,7.39,8.17,32.33,32.33,0,0,0,9.66,4.51,38.23,38.23,0,0,0-8.88,3.27,21.2,21.2,0,0,0-7.14,5.88,13.88,13.88,0,0,0-1.26,2.08c-.18-.5-.47-.77-.89-.77q-1.11,0-8.85,10.69-4.42,5.91-8.3,10.88a52.54,52.54,0,0,1-9,9q-12.54,10.69-22.13,10.69-13.27,0-13.27-14,0-19.92,20.65-53.84a9.33,9.33,0,0,0,1.47-4.43q0-8.48-8.48-8.48a8.16,8.16,0,0,0-5.9,2.58l-22.86,25.08Q524.49,155,517.48,162.93t-9.22,10.88q8.47-26.17,12.91-40.19t4.42-15.86c0-1.47-.86-2.21-2.58-2.21a12.84,12.84,0,0,0-7.37,2.58c-2.95,2-4.68,3.69-5.17,5.16q-1.47,5.91-2.21,9.59l-1.47,7.38q-3.44,14.91-6.84,26.55-3.52,4.33-7.54,9a85.48,85.48,0,0,1-17,15.3,35.19,35.19,0,0,1-20.28,6.27q-8.85,0-12.9-7a30.29,30.29,0,0,1-4.06-15.49,37.39,37.39,0,0,1,1.48-11.06,61.46,61.46,0,0,0,13.82-7.38,117.08,117.08,0,0,0,14.57-11.8Q485.4,128.47,485.4,117c0-3.44-.92-6-2.77-7.75a9.19,9.19,0,0,0-6.45-2.58q-9.58,0-18.8,6.64a75.51,75.51,0,0,0-16.78,17,93.37,93.37,0,0,0-12,21.94,60.94,60.94,0,0,0-4.42,21.57q0,16.6,9.22,23.6a34.29,34.29,0,0,0,21.38,7,40.13,40.13,0,0,0,24-7.37,89.32,89.32,0,0,0,16.4-15.28c-1.54,4.43-3.07,8.57-4.6,12.32a6.64,6.64,0,0,0-.74,3q0,6.63,3.32,6.63c.74,0,1.85-1.1,3.32-3.32a396.22,396.22,0,0,1,27.84-37.43,274.39,274.39,0,0,1,27.11-28.2,126.62,126.62,0,0,0-9,20.28,68.69,68.69,0,0,0-3.87,22.86q0,26.55,21,26.55,26.91,0,52-41.67c.25-.45.45-.86.65-1.28a11.14,11.14,0,0,0,7,10.57,34.52,34.52,0,0,0,9.38,2.57,35.13,35.13,0,0,0-4.71.89,28.63,28.63,0,0,0-8,3.46,20.91,20.91,0,0,0-6.57,6.44,17.65,17.65,0,0,0-2.64,9.9,18.21,18.21,0,0,0,3,10.56,23.09,23.09,0,0,0,8.34,7.26,43.36,43.36,0,0,0,12.29,4.2A78.13,78.13,0,0,0,645,218.66a58.8,58.8,0,0,0,14.49-1.78,41.76,41.76,0,0,0,12.72-5.45,27.24,27.24,0,0,0,9-9.55,28,28,0,0,0,3.33-14q0-8.84-2.59-14.06a19,19,0,0,0-6.84-7.91,25.08,25.08,0,0,0-9.3-3.55,58.31,58.31,0,0,0-9.9-.87c-1.61,0-3.21,0-4.8.05l-4.89.08c-1.67,0-3.51,0-5.53,0a63.57,63.57,0,0,1-11.81-.91q-4.71-.92-4.71-5.41a6.27,6.27,0,0,1,1.94-4.49,16.36,16.36,0,0,1,5-3.38,30.74,30.74,0,0,1,6.45-2.07c.34-.07.66-.1,1-.16,1.11.09,2.22.16,3.32.16a39.54,39.54,0,0,0,10.59-1.47,30.78,30.78,0,0,0,9.74-4.63,23.51,23.51,0,0,0,7.09-8.17,25.69,25.69,0,0,0,2.68-12.2,25.69,25.69,0,0,0-2.68-12.2c-.33-.61-.7-1.18-1.06-1.75a15.8,15.8,0,0,1,1.14-1.49A19.13,19.13,0,0,1,676.83,98a20.24,20.24,0,0,1,7.1-1.51,10.16,10.16,0,0,1,7.68,2.87,10.42,10.42,0,0,0-2.67-.36A10.55,10.55,0,0,0,683,100.9c-1.88,1.24-2.81,3.3-2.81,6.18a7.92,7.92,0,0,0,2.72,6.49,9.23,9.23,0,0,0,6,2.25,11.08,11.08,0,0,0,6.19-2q3-2,3-7.53A11.68,11.68,0,0,0,696.25,100ZM453.69,134q10.32-17,16.22-17,4.43,0,4.43,4.42,0,8.85-12.17,20.65-10.34,10.34-19.91,14.38Q444.47,148,453.69,134Zm178.65,41c1.73.13,3.56.2,5.48.2H658a26.73,26.73,0,0,1,10.25,1.9,17.37,17.37,0,0,1,7.35,5.45,13.81,13.81,0,0,1,2.72,8.65,20.73,20.73,0,0,1-2.38,10,21.84,21.84,0,0,1-6.57,7.44,31.28,31.28,0,0,1-9.82,4.63,44.3,44.3,0,0,1-12.1,1.6,28.61,28.61,0,0,1-13.84-3.07,21.07,21.07,0,0,1-8.44-8,20.71,20.71,0,0,1-2.81-10.38,23.47,23.47,0,0,1,2.6-11.25A18.36,18.36,0,0,1,632.34,175Zm22.91-44.48a18.55,18.55,0,0,1-4.93,8.35,11.84,11.84,0,0,1-8.43,3.11q-6.84,0-10-3.11a15,15,0,0,1-4.07-8.35,68.86,68.86,0,0,1-.9-11.63,39.54,39.54,0,0,1,1.6-11.63A18.55,18.55,0,0,1,633.46,99a13,13,0,0,1,16.86,0,18.55,18.55,0,0,1,4.93,8.35,43.07,43.07,0,0,1,0,23.26Z"/><path class="cls-1" d="M623.78,312.71q18.56-23.81,18.59-38.53,0-14.51-12.74-14.51-23.1,0-58.93,57.16c-1.55,2.38-3.05,4.81-4.56,7.24-31.32,9.62-58.31,4.08-82.29-16.85-22.3-19.47-37.81-49-49.14-70.57-8.5-16.2-14.64-27.9-21-31.59-.51-.3-1-.56-1.55-.82q-3.14-2.85-11.08-3.6a57,57,0,0,0-7.76-.78q4-18.5,7.45-32.5,3.51-14.19,5.35-23.42l4.06-18.8a7.09,7.09,0,0,1,4.42-3.32c2.21-.74,3.32-1.6,3.32-2.58a6.13,6.13,0,0,0-2.21-4.61,22.61,22.61,0,0,0-5.16-3.5A28.07,28.07,0,0,0,398,107.81a25.24,25.24,0,0,0-5.72.73c-2.09.5-4.24,1.11-6.45,1.85q-17.7,6.27-35.77,33.19-18.45,27.28-18.44,46.09,0,12.54,11.43,12.54,18.81,0,43.89-43.88-3,14-5,24.7t-3.51,17.7q-44.61,7-92.18,37.61-56.05,36.15-56,75.6,0,16.95,12.16,27.66,11.45,10.32,29.5,10.32,45,0,84.82-58.26Q367,278.52,375.88,257a368.64,368.64,0,0,0,15.86-49.23,18.4,18.4,0,0,1,3.69-.37h3.68q7.75,0,10.7,1.84l2.95,1.85h0c4.74,4.4,10.56,15.47,17.19,28.08C449.43,276.2,479.77,334,537.64,334a99.12,99.12,0,0,0,24.44-3.23q-7.12,11.89-13.74,24.42-10.53,20-20,41.61c-.25.56-.48,1.1-.72,1.65l-.61.72c-1.48,1.77-3.31,4-5.48,6.81a126.63,126.63,0,0,1-16,17.77q-10.95,9.48-19,9.47-9.78,0-9.77-10.36,0-11.25,10.66-31.1,4.72-8.88,7.55-14.51a49,49,0,0,1,2.81-5.33,7.37,7.37,0,0,0-2.37-5.33,6.52,6.52,0,0,0-4.73-2.07q-2.08,0-4.45,2.37l-6.22,11.55Q468.24,400.35,459.34,411T446,421.67q-5.64,0-5.63-9.48,0-6.81,7.7-20.44,4.44-7.69,5.92-10.36a17.24,17.24,0,0,0,1.48-3q0-2.37-4.44-2.37-7.71,0-14.81,15.4a82.22,82.22,0,0,0-4.09,10.45c-.26.35-.51.7-.79,1.1a36.77,36.77,0,0,1-5.93,6.51,11.21,11.21,0,0,1-7.55,3q-9.76,0-13.62-17.17a27.4,27.4,0,0,0,2.66-11.26,20.23,20.23,0,0,0-3-10.36q-3-5.34-7.7-5.33-3.86,0-3.85,4.44,0,2.37,6.22,22.8a83.1,83.1,0,0,1-3.55,9.33c-1.39,3.07-3,6.18-4.74,9.33Q382.93,427,376.42,427q-8.6,0-8.59-10.07,0-15.1,10.66-32c0-2.56-1.58-3.85-4.74-3.85a7.44,7.44,0,0,0-3.85.89q-3,3.86-5,7.11l-4.15,6.51q-27.54,42.66-43.83,42.65c-1.58,0-2.37-1-2.37-3q0-8.3,13.33-31.39Q339.7,384.06,348,374.58a2.47,2.47,0,0,0,.89-1.48c0-1.38-1.09-2.08-3.26-2.08q-5.62,0-12.29,5.78t-13.48,18.8a114.36,114.36,0,0,0-9,21.92,65.7,65.7,0,0,0-2.8,16.12l-.86-1.62a12.55,12.55,0,0,1-4.19,4.71,9,9,0,0,1-5,1.86q-3.21,0-4.2-2a10.84,10.84,0,0,1-1-4.85V389.21a46,46,0,0,0-2-13.5,19.93,19.93,0,0,0-7.92-10.64Q277,360.93,265,360.92a51.87,51.87,0,0,0-11.46,1.26,42,42,0,0,0-10,3.54,21.82,21.82,0,0,0-7.09,5.54,11.27,11.27,0,0,0-2.64,7.31c0,3.11.91,5.48,2.72,7.09a9.76,9.76,0,0,0,6.71,2.42,11.13,11.13,0,0,0,6.7-2.33c2.1-1.56,3.16-4.07,3.16-7.53a8.11,8.11,0,0,0-3.07-6.79,10.89,10.89,0,0,0-6.14-2.32,20.25,20.25,0,0,1,2.24-1.31,32.49,32.49,0,0,1,7.79-2.64,40.44,40.44,0,0,1,8.09-.86q6.92,0,10.24,3.63a18.28,18.28,0,0,1,4.37,9.34,66.82,66.82,0,0,1,1,11.94v8.21H266.08q-18.42,0-28.37,6.62t-10,18.21q0,9.86,6.71,15.61t17.94,5.75q8.84,0,14.88-4.24a26.31,26.31,0,0,0,9.21-11.76,35,35,0,0,0,1.17-3.31v4.17q0,5.63,2.08,9a11.63,11.63,0,0,0,5.49,4.75,19.07,19.07,0,0,0,7.48,1.43,18.58,18.58,0,0,0,9.73-2.46,19.35,19.35,0,0,0,5.66-5.06c.48,5.37,3,8.08,7.6,8.08q8.28,0,22.8-13.32a121.83,121.83,0,0,0,19-20.44q-.9,9.48,3,16.29,4.44,8.3,13.32,8.29,9.18,0,17.18-11.55a68.52,68.52,0,0,0,5.48-9.18,43.85,43.85,0,0,0,3.7-10.66q2.37,7.71,7.26,11.11t9.33,3.4q6.27,0,13.53-7.22a33.12,33.12,0,0,0-.21,3.37q0,16.59,9.78,16.59,7.69,0,17.47-11.55,3.25-3.56,13.33-18.66-4.44,13.62-4.44,18.66,0,20.73,16.58,20.73,12.13,0,26.65-13A103.18,103.18,0,0,0,521,414.34c-.79,2-1.5,3.85-2.12,5.55q-3.27,8.88-3.26,12.14,0,3.86,8,3.85a12.76,12.76,0,0,0,7.7-2.37,220.22,220.22,0,0,1,17.77-24.58,162.67,162.67,0,0,1,12.14-13.62q6.21-6.22,10.36-10.07A93.17,93.17,0,0,0,565.22,402a59.35,59.35,0,0,0-2.52,15.55q0,19.26,16,19.25,11.25,0,21.92-9.63a112.77,112.77,0,0,0,9.08-9.27l.2.24c14-11.87,45-69.12,30-94.38C636.49,317.94,631.08,314.29,623.78,312.71ZM349.7,288.86q-14,24-31.34,38.72-21.75,19.17-45,19.18-14,0-23.6-8.85-8.85-8.49-8.85-22.86,0-26.19,27.66-52.74a152.53,152.53,0,0,1,21.75-17,293.67,293.67,0,0,1,29.87-17q33.93-17.34,57.9-21Q369.25,255.3,349.7,288.86ZM387,149.11a261,261,0,0,1-16.6,25.07,75.82,75.82,0,0,1-11.43,12.36q-5.54,4.61-9.59,4.6-5.16,0-5.16-7.74,0-17.7,22.49-44.62Q382.16,120,397.27,120a11.44,11.44,0,0,1,3.32.36A194.86,194.86,0,0,1,387,149.11ZM277.67,410.22q0,9.43-3,15.75a22.88,22.88,0,0,1-7.53,9.42,16.35,16.35,0,0,1-9.38,3.12,10.79,10.79,0,0,1-7.4-2.55,14.88,14.88,0,0,1-4.24-6.58A26.29,26.29,0,0,1,244.8,421a22.73,22.73,0,0,1,2.17-9.52,19.2,19.2,0,0,1,6.83-8q4.67-3.19,12.28-3.2h11.59Zm302.5-94.28q29.33-49.17,45.32-49.17,6.51,0,6.51,9.78,0,11.9-17.25,35.3-14.84,0-37,8.13C578.59,318.63,579.37,317.27,580.17,315.94Zm-19.69,34.65q6.43-11.89,13.08-23.38c1-.36,2-.7,3-1.1,13.39-5.14,24.75-8,34-8.73-3.89,5-8.27,10.33-13.21,16a361.15,361.15,0,0,1-29.17,30.8A303.64,303.64,0,0,1,544,384.65,376.09,376.09,0,0,1,560.48,350.59ZM606.43,414l.41.49a68.61,68.61,0,0,1-6.53,6.56q-9.48,8.6-17.77,8.59-10.06,0-10.07-10.36,0-8.9,7.11-24.29l7.11-15.4q0-6.23-5.93-6.22a8.79,8.79,0,0,0-4.73,1.78,66.63,66.63,0,0,0-9.78,8.88q-6.21,6.52-13,13.92-7.41,8.29-13.77,15.25t-9.62,11.11a1.26,1.26,0,0,0-.3-.89q0-3,4.74-14.51,2.37-5.62,3.85-9.18a24.92,24.92,0,0,1,2.37-4.74q7.39-7.39,14.66-13.62t11.1-9.78q16.59-15.11,27.69-26.2t17.63-18.22c3-3.32,5.76-6.52,8.32-9.63,7.23.94,12.45,3.88,15.42,8.9C648.44,348.62,618.84,403.52,606.43,414Z"/></g></g></svg>