<?xml version="1.0" encoding="utf-8"?>
<!-- Generator: Adobe Illustrator 25.4.1, SVG Export Plug-In . SVG Version: 6.00 Build 0)  -->
<svg version="1.1" id="Layer_1" xmlns="http://www.w3.org/2000/svg" xmlns:xlink="http://www.w3.org/1999/xlink" x="0px" y="0px"
	 viewBox="0 0 602.1 164.4" style="enable-background:new 0 0 602.1 164.4;" xml:space="preserve">
<style type="text/css">
	.st0{fill:#F3F1E7;}
	.st1{enable-background:new    ;}
</style>
<path class="st0" d="M310.5,161.4c-11.3-6.7-19.8,0-19.8,0S299.2,168.1,310.5,161.4z"/>
<polygon class="st0" points="0,161.4 287.5,159.1 287.3,159.4 286.2,161.4 287.5,163.7 "/>
<polygon class="st0" points="601.5,161.4 314.1,159.1 314.2,159.4 315.4,161.4 314,163.7 "/>
<polygon class="st0" points="300.8,65.4 479,66.3 300.8,67.1 300.8,67.1 300.6,67.1 300.6,67.1 300.2,67.1 300.2,67.1 122.2,66.3 
	300.6,65.4 300.6,65.4 300.6,65.4 300.8,65.4 "/>
<g class="st1">
	<path class="st0" d="M285.3,19.9v-0.6h2.1v-6.8l-4.6-7.8h-1.7V4.1h6.4v0.6h-2l4,6.9l3.7-6.9h-2.4V4.1h4.9v0.6h-1.8l-4.1,7.8v6.8
		h2.1v0.6H285.3z"/>
	<path class="st0" d="M297.6,18.2v-7h-1.3v-0.5h1.3V7.8c0.1,0,0.2,0,0.2,0s0.2,0,0.4,0c0.2,0,0.4,0,0.6,0s0.4,0,0.5-0.1v3h2.1v0.5
		h-2.1V18c0,0.5,0.1,0.9,0.2,1.1s0.4,0.3,0.7,0.3c0.2,0,0.4-0.1,0.7-0.2s0.4-0.4,0.7-0.7l0.4,0.3c-0.4,0.5-0.7,0.9-1.1,1.1
		s-0.8,0.3-1.4,0.3c-0.6,0-1.1-0.2-1.4-0.5S297.6,18.9,297.6,18.2z"/>
	<path class="st0" d="M302.9,19.9v-0.6h1.3V4.6h-1.2V4.1c0.5,0,1,0,1.5-0.1s1-0.1,1.6-0.2v9.2c0.4-0.9,0.8-1.5,1.4-2
		c0.6-0.4,1.3-0.7,2.1-0.7c0.8,0,1.5,0.2,2,0.7s0.7,1.1,0.7,1.9v6.3h1.2v0.6H309v-0.6h1.4V13c0-0.6-0.1-1-0.4-1.3s-0.6-0.4-1.1-0.4
		c-0.8,0-1.4,0.4-2,1.2c-0.6,0.8-0.9,1.7-0.9,2.8v4.1h1.3v0.6H302.9z"/>
	<path class="st0" d="M315.7,18.8c0-0.4,0.1-0.8,0.4-1s0.6-0.4,1-0.4c0.5,0,0.8,0.1,1.1,0.4s0.4,0.6,0.4,1c0,0.4-0.1,0.7-0.4,1
		s-0.6,0.4-1,0.4c-0.4,0-0.7-0.1-1-0.4S315.7,19.2,315.7,18.8z"/>
</g>
<g class="st1">
	<path class="st0" d="M184.6,48.7v-0.6h1.7V33.5h-1.7v-0.6h6c1.8,0,3.2,0.3,4.2,0.9s1.4,1.5,1.4,2.7c0,1-0.3,1.8-1,2.4
		s-1.6,1.1-2.8,1.3v0.1c1.3,0.2,2.4,0.7,3.2,1.4s1.2,1.6,1.2,2.6c0,1.4-0.5,2.4-1.6,3.2s-2.6,1.1-4.6,1.1H184.6z M188.7,40.1h1.8
		c1.3,0,2.2-0.2,2.7-0.7s0.7-1.4,0.7-2.7c0-1.2-0.2-2-0.7-2.4s-1.4-0.7-2.7-0.7h-1.7V40.1z M188.7,40.7v7.4h2.1
		c1.3,0,2.2-0.3,2.7-0.8s0.7-1.5,0.7-2.8s-0.3-2.4-0.8-2.9s-1.5-0.9-2.8-0.9H188.7z"/>
	<path class="st0" d="M204.9,47.4c-0.3,0.5-0.8,0.9-1.4,1.1s-1.3,0.4-2,0.4c-0.8,0-1.5-0.2-1.9-0.6s-0.7-0.9-0.7-1.6
		c0-1.1,0.5-1.9,1.6-2.5s2.5-0.9,4.4-0.9v-2.2c0-0.5-0.2-0.8-0.5-1s-0.8-0.3-1.4-0.3c-0.5,0-1,0.1-1.3,0.3s-0.6,0.4-0.6,0.6
		c0,0,0.1,0.2,0.3,0.4s0.3,0.5,0.3,0.7c0,0.3-0.1,0.5-0.3,0.7s-0.4,0.3-0.7,0.3c-0.3,0-0.6-0.1-0.7-0.3s-0.3-0.5-0.3-0.8
		c0-0.6,0.4-1.2,1.1-1.6s1.6-0.6,2.7-0.6c1.2,0,2,0.2,2.5,0.6s0.7,1,0.7,2v5.2c0,0.4,0,0.6,0.1,0.7s0.2,0.2,0.4,0.2
		c0.2,0,0.4-0.1,0.5-0.2s0.3-0.4,0.3-0.6h0.4c0,0.5-0.3,1-0.6,1.3s-0.8,0.5-1.4,0.5c-0.5,0-0.8-0.1-1.1-0.4S204.9,47.9,204.9,47.4z
		 M204.8,43.9c-1.3,0-2.4,0.2-3.1,0.6s-1.1,1-1.1,1.8c0,0.5,0.2,1,0.5,1.3s0.8,0.5,1.3,0.5c0.7,0,1.2-0.2,1.7-0.5s0.7-0.8,0.7-1.4
		V43.9z"/>
	<path class="st0" d="M210.5,53.4V40h-1.3v-0.5c0.5,0,1,0,1.5-0.1s1-0.1,1.6-0.1v2.1c0.2-0.7,0.6-1.2,1.2-1.6s1.2-0.6,1.9-0.6
		c1.2,0,2.2,0.5,3.1,1.4s1.3,2.1,1.3,3.5c0,1.4-0.4,2.5-1.3,3.4s-1.9,1.4-3.1,1.4c-0.7,0-1.3-0.1-1.8-0.4s-0.9-0.7-1.2-1.3v6.1h1.6
		v0.6h-4.8v-0.6H210.5z M212.3,43.3v1.9c0,0.9,0.3,1.7,0.8,2.3s1.2,0.9,1.9,0.9c0.9,0,1.5-0.3,1.9-1s0.6-1.8,0.6-3.3
		c0-1.5-0.2-2.5-0.6-3.2s-1-1-1.8-1c-0.8,0-1.5,0.3-2,1S212.3,42.3,212.3,43.3z"/>
	<path class="st0" d="M227.3,47.4c-0.3,0.5-0.8,0.9-1.4,1.1s-1.3,0.4-2,0.4c-0.8,0-1.5-0.2-1.9-0.6s-0.7-0.9-0.7-1.6
		c0-1.1,0.5-1.9,1.6-2.5s2.5-0.9,4.4-0.9v-2.2c0-0.5-0.2-0.8-0.5-1s-0.8-0.3-1.4-0.3c-0.5,0-1,0.1-1.3,0.3s-0.6,0.4-0.6,0.6
		c0,0,0.1,0.2,0.3,0.4s0.3,0.5,0.3,0.7c0,0.3-0.1,0.5-0.3,0.7s-0.4,0.3-0.7,0.3c-0.3,0-0.6-0.1-0.7-0.3s-0.3-0.5-0.3-0.8
		c0-0.6,0.4-1.2,1.1-1.6s1.6-0.6,2.7-0.6c1.2,0,2,0.2,2.5,0.6s0.7,1,0.7,2v5.2c0,0.4,0,0.6,0.1,0.7s0.2,0.2,0.4,0.2
		c0.2,0,0.4-0.1,0.5-0.2s0.3-0.4,0.3-0.6h0.4c0,0.5-0.3,1-0.6,1.3s-0.8,0.5-1.4,0.5c-0.5,0-0.8-0.1-1.1-0.4S227.3,47.9,227.3,47.4z
		 M227.2,43.9c-1.3,0-2.4,0.2-3.1,0.6s-1.1,1-1.1,1.8c0,0.5,0.2,1,0.5,1.3s0.8,0.5,1.3,0.5c0.7,0,1.2-0.2,1.7-0.5s0.7-0.8,0.7-1.4
		V43.9z"/>
	<path class="st0" d="M233,48.1V33.4h-1.3l0-0.5c0.4,0,0.9-0.1,1.3-0.1s1-0.1,1.8-0.1v15.5h1.3v0.6h-4.5v-0.6H233z M234.9,43.4
		L239,40h-1.6v-0.5h3.9V40h-1.5l-3.3,2.7l4.5,5.4h1v0.6h-4.5v-0.6h1.2L234.9,43.4z"/>
	<path class="st0" d="M248.4,50.9l5.7-18.3h0.9l-5.7,18.3H248.4z"/>
	<path class="st0" d="M262.1,48.7v-0.6h2V33.5h-2v-0.6h6.4v0.6h-2v14.6h2v0.6H262.1z"/>
	<path class="st0" d="M269.9,48.7v-0.5h1.4V33.4h-1.3v-0.4c0.5,0,1-0.1,1.5-0.1s1-0.1,1.6-0.2v8.4c0.3-0.6,0.7-1.1,1.2-1.3
		s1.1-0.4,1.8-0.4c1.2,0,2.2,0.5,3,1.4s1.3,2.1,1.3,3.4c0,1.4-0.4,2.5-1.3,3.4s-1.9,1.4-3.1,1.4c-0.7,0-1.3-0.1-1.8-0.4
		s-0.9-0.7-1.2-1.3v1.8c-0.5-0.1-0.9-0.1-1.4-0.2S270.4,48.7,269.9,48.7z M273,42.9v2.7c0,0.8,0.3,1.5,0.8,2s1.2,0.8,1.9,0.8
		c0.9,0,1.5-0.3,1.8-1s0.5-1.8,0.5-3.4c0-1.6-0.2-2.7-0.5-3.3s-1-0.9-1.9-0.9c-0.8,0-1.4,0.3-1.9,0.9S273,42.1,273,42.9z"/>
	<path class="st0" d="M283,40h-1.4v-0.5h0.5c0.6,0,1,0,1.5-0.1s0.8-0.1,1.1-0.2v6.9c0,0.8,0.1,1.3,0.4,1.6s0.7,0.4,1.3,0.4
		c0.8,0,1.4-0.3,1.9-0.9s0.8-1.4,0.8-2.3V40h-1.4v-0.5h0.4c0.5,0,0.9,0,1.4-0.1s0.9-0.1,1.4-0.2l0,8.8h1.3v0.6h-0.5
		c-0.5,0-1,0-1.4,0.1s-0.8,0.1-1.2,0.2v-2c-0.3,0.6-0.8,1.1-1.4,1.5s-1.3,0.5-2,0.5c-1,0-1.7-0.2-2.1-0.6s-0.6-1.1-0.6-2V40z"/>
	<path class="st0" d="M298.6,50.9l5.7-18.3h0.9l-5.7,18.3H298.6z"/>
	<path class="st0" d="M312.8,48.8h-0.4v-4.1h0.5c0.4,1.2,1,2.1,1.8,2.8s1.7,1,2.7,1c1.1,0,2.1-0.4,2.9-1.1s1.2-1.6,1.2-2.6
		c0-1.2-1.2-2.2-3.5-2.9c-0.2-0.1-0.3-0.1-0.4-0.1c-2-0.6-3.4-1.3-4-2s-1-1.6-1-2.7c0-1.3,0.4-2.4,1.3-3.2s2-1.2,3.3-1.2
		c1,0,2,0.3,2.8,0.8c0.2,0.1,0.3,0.2,0.3,0.2c0,0,0.1,0,0.1,0c0,0,0.1,0,0.1-0.1l0.5-0.6h0.5v3.6h-0.4c-0.4-1.1-0.9-1.9-1.6-2.5
		s-1.5-0.8-2.5-0.8c-0.9,0-1.7,0.3-2.3,0.8s-0.9,1.2-0.9,2c0,0.6,0.2,1.2,0.7,1.6c0.5,0.4,1.3,0.8,2.3,1c0.2,0,0.4,0.1,0.7,0.2
		c1.8,0.5,3,0.9,3.6,1.4c0.5,0.4,0.9,0.9,1.2,1.5s0.4,1.3,0.4,2c0,1.6-0.5,2.9-1.4,3.9s-2.3,1.5-3.9,1.5c-1.1,0-2.2-0.3-3.2-0.9
		c-0.2-0.1-0.2-0.2-0.3-0.2s-0.1,0-0.1,0s-0.1,0.1-0.1,0.1L312.8,48.8z"/>
	<path class="st0" d="M330.1,47.4c-0.3,0.5-0.8,0.9-1.4,1.1s-1.3,0.4-2,0.4c-0.8,0-1.5-0.2-1.9-0.6s-0.7-0.9-0.7-1.6
		c0-1.1,0.5-1.9,1.6-2.5s2.5-0.9,4.4-0.9v-2.2c0-0.5-0.2-0.8-0.5-1s-0.8-0.3-1.4-0.3c-0.5,0-1,0.1-1.3,0.3s-0.6,0.4-0.6,0.6
		c0,0,0.1,0.2,0.3,0.4s0.3,0.5,0.3,0.7c0,0.3-0.1,0.5-0.3,0.7s-0.4,0.3-0.7,0.3c-0.3,0-0.6-0.1-0.7-0.3s-0.3-0.5-0.3-0.8
		c0-0.6,0.4-1.2,1.1-1.6s1.6-0.6,2.7-0.6c1.2,0,2,0.2,2.5,0.6s0.7,1,0.7,2v5.2c0,0.4,0,0.6,0.1,0.7s0.2,0.2,0.4,0.2
		c0.2,0,0.4-0.1,0.5-0.2s0.3-0.4,0.3-0.6h0.4c0,0.5-0.3,1-0.6,1.3s-0.8,0.5-1.4,0.5c-0.5,0-0.8-0.1-1.1-0.4S330.1,47.9,330.1,47.4z
		 M330,43.9c-1.3,0-2.4,0.2-3.1,0.6s-1.1,1-1.1,1.8c0,0.5,0.2,1,0.5,1.3s0.8,0.5,1.3,0.5c0.7,0,1.2-0.2,1.7-0.5s0.7-0.8,0.7-1.4
		V43.9z"/>
	<path class="st0" d="M335.7,40h-1.4v-0.5h0.5c0.6,0,1,0,1.5-0.1s0.8-0.1,1.1-0.2v6.9c0,0.8,0.1,1.3,0.4,1.6s0.7,0.4,1.3,0.4
		c0.8,0,1.4-0.3,1.9-0.9s0.8-1.4,0.8-2.3V40h-1.4v-0.5h0.4c0.5,0,0.9,0,1.4-0.1s0.9-0.1,1.4-0.2l0,8.8h1.3v0.6h-0.5
		c-0.5,0-1,0-1.4,0.1s-0.8,0.1-1.2,0.2v-2c-0.3,0.6-0.8,1.1-1.4,1.5s-1.3,0.5-2,0.5c-1,0-1.7-0.2-2.1-0.6s-0.6-1.1-0.6-2V40z"/>
	<path class="st0" d="M355.6,32.7v15.5h1.3v0.6c-0.7,0-1.3,0-1.8,0.1s-0.9,0.1-1.3,0.2v-1.7c-0.3,0.6-0.7,1-1.3,1.3
		s-1.1,0.5-1.8,0.5c-1.2,0-2.3-0.5-3.1-1.4s-1.3-2.1-1.3-3.5c0-1.4,0.4-2.5,1.3-3.4s1.9-1.4,3.1-1.4c0.7,0,1.3,0.2,1.8,0.5
		s0.9,0.7,1.2,1.3v-7.7h-1.6v-0.5h0.4c0.5,0,1,0,1.5-0.1S355.1,32.8,355.6,32.7z M353.8,45.9v-3.2c0-0.8-0.3-1.4-0.8-2
		s-1.2-0.8-2-0.8c-0.9,0-1.5,0.3-1.8,1s-0.5,1.7-0.5,3.3c0,1.6,0.2,2.7,0.6,3.4s1,1,1.9,1c0.7,0,1.3-0.3,1.9-0.8
		S353.8,46.5,353.8,45.9z"/>
	<path class="st0" d="M364.3,47.4c-0.3,0.5-0.8,0.9-1.4,1.1s-1.3,0.4-2,0.4c-0.8,0-1.5-0.2-1.9-0.6s-0.7-0.9-0.7-1.6
		c0-1.1,0.5-1.9,1.6-2.5s2.5-0.9,4.4-0.9v-2.2c0-0.5-0.2-0.8-0.5-1s-0.8-0.3-1.4-0.3c-0.5,0-1,0.1-1.3,0.3s-0.6,0.4-0.6,0.6
		c0,0,0.1,0.2,0.3,0.4s0.3,0.5,0.3,0.7c0,0.3-0.1,0.5-0.3,0.7s-0.4,0.3-0.7,0.3c-0.3,0-0.6-0.1-0.7-0.3s-0.3-0.5-0.3-0.8
		c0-0.6,0.4-1.2,1.1-1.6s1.6-0.6,2.7-0.6c1.2,0,2,0.2,2.5,0.6s0.7,1,0.7,2v5.2c0,0.4,0,0.6,0.1,0.7s0.2,0.2,0.4,0.2
		c0.2,0,0.4-0.1,0.5-0.2s0.3-0.4,0.3-0.6h0.4c0,0.5-0.3,1-0.6,1.3s-0.8,0.5-1.4,0.5c-0.5,0-0.8-0.1-1.1-0.4S364.4,47.9,364.3,47.4z
		 M364.3,43.9c-1.3,0-2.4,0.2-3.1,0.6s-1.1,1-1.1,1.8c0,0.5,0.2,1,0.5,1.3s0.8,0.5,1.3,0.5c0.7,0,1.2-0.2,1.7-0.5s0.7-0.8,0.7-1.4
		V43.9z"/>
	<path class="st0" d="M368.6,48.7v-0.6h1.6V40h-1.5v-0.5c0.6,0,1.2,0,1.8-0.1s1.1-0.1,1.6-0.2v2.3c0.4-0.8,0.8-1.3,1.3-1.7
		s1-0.6,1.5-0.6c0.4,0,0.8,0.1,1,0.3s0.4,0.5,0.4,0.9c0,0.3-0.1,0.5-0.3,0.7s-0.4,0.3-0.7,0.3c-0.3,0-0.5-0.1-0.7-0.3
		s-0.3-0.4-0.3-0.7c0-0.1,0-0.1,0-0.2s0-0.1,0-0.2c0-0.1,0-0.1,0-0.1s0,0-0.1,0c-0.4,0-0.9,0.4-1.4,1.1s-0.7,1.5-0.7,2.3v4.7h1.7
		v0.6H368.6z"/>
	<path class="st0" d="M382.8,47.4c-0.3,0.5-0.8,0.9-1.4,1.1s-1.3,0.4-2,0.4c-0.8,0-1.5-0.2-1.9-0.6s-0.7-0.9-0.7-1.6
		c0-1.1,0.5-1.9,1.6-2.5s2.5-0.9,4.4-0.9v-2.2c0-0.5-0.2-0.8-0.5-1s-0.8-0.3-1.4-0.3c-0.5,0-1,0.1-1.3,0.3s-0.6,0.4-0.6,0.6
		c0,0,0.1,0.2,0.3,0.4s0.3,0.5,0.3,0.7c0,0.3-0.1,0.5-0.3,0.7s-0.4,0.3-0.7,0.3c-0.3,0-0.6-0.1-0.7-0.3s-0.3-0.5-0.3-0.8
		c0-0.6,0.4-1.2,1.1-1.6s1.6-0.6,2.7-0.6c1.2,0,2,0.2,2.5,0.6s0.7,1,0.7,2v5.2c0,0.4,0,0.6,0.1,0.7s0.2,0.2,0.4,0.2
		c0.2,0,0.4-0.1,0.5-0.2s0.3-0.4,0.3-0.6h0.4c0,0.5-0.3,1-0.6,1.3s-0.8,0.5-1.4,0.5c-0.5,0-0.8-0.1-1.1-0.4S382.8,47.9,382.8,47.4z
		 M382.7,43.9c-1.3,0-2.4,0.2-3.1,0.6s-1.1,1-1.1,1.8c0,0.5,0.2,1,0.5,1.3s0.8,0.5,1.3,0.5c0.7,0,1.2-0.2,1.7-0.5s0.7-0.8,0.7-1.4
		V43.9z"/>
	<path class="st0" d="M392.1,50.9l5.7-18.3h0.9L393,50.9H392.1z"/>
	<path class="st0" d="M405.8,48.7v-0.6h1.6V40h-1.5v-0.5h0.5c0.5,0,1,0,1.5-0.1s1-0.1,1.4-0.2v8.8h1.4v0.6H405.8z M407.2,34.6
		c0-0.3,0.1-0.6,0.3-0.8s0.5-0.3,0.8-0.3c0.3,0,0.6,0.1,0.8,0.3s0.3,0.5,0.3,0.8c0,0.3-0.1,0.6-0.3,0.8s-0.5,0.4-0.8,0.4
		c-0.3,0-0.6-0.1-0.8-0.4S407.2,34.9,407.2,34.6z"/>
</g>
</svg>
