<?xml version="1.0" encoding="utf-8"?>
<!-- Generator: Adobe Illustrator 25.4.1, SVG Export Plug-In . SVG Version: 6.00 Build 0)  -->
<svg version="1.1" id="Layer_1" xmlns="http://www.w3.org/2000/svg" xmlns:xlink="http://www.w3.org/1999/xlink" x="0px" y="0px"
	 viewBox="0 0 612.9 164.4" style="enable-background:new 0 0 612.9 164.4;" xml:space="preserve">
<style type="text/css">
	.st0{fill:#F3F1E7;}
	.st1{font-family:'BodoniBT-Book';}
	.st2{font-size:24px;}
</style>
<g id="Layer_2_00000131341911462549306110000004570442665735312809_">
	<g id="Layer_3">
		<path class="st0" d="M310.5,161.4c-11.3-6.7-19.8,0-19.8,0S299.2,168.1,310.5,161.4z"/>
		<polygon class="st0" points="0,161.4 287.5,159.1 287.3,159.4 286.2,161.4 287.5,163.7 		"/>
		<polygon class="st0" points="601.5,161.4 314.1,159.1 314.2,159.4 315.4,161.4 314,163.7 		"/>
		<polygon class="st0" points="300.8,65.4 479,66.3 300.8,67.1 300.8,67.1 300.6,67.1 300.6,67.1 300.2,67.1 300.2,67.1 122.2,66.3 
			300.6,65.4 300.6,65.4 300.6,65.4 300.8,65.4 300.8,65.4 		"/>
		<text transform="matrix(1 0 0 1 281.07 19.88)" class="st0 st1 st2">Yth.</text>
		<text transform="matrix(1 0 0 1 183.57 48.6801)" class="st0 st1 st2">Bapak / Ibu / Saudara / i</text>
	</g>
</g>
</svg>
