<svg xmlns="http://www.w3.org/2000/svg" viewBox="0 0 385.86 25.56"><defs><style>.cls-1{fill:#f3f1e7;}</style></defs><g id="Layer_2" data-name="Layer 2"><g id="Layer_5" data-name="Layer 5"><path class="cls-1" d="M1.33,29.05V26.89L8.9,19.8A13.26,13.26,0,0,0,12,15.5a11.41,11.41,0,0,0,1.06-4.71,7.21,7.21,0,0,0-.65-3.15,5.37,5.37,0,0,0-1.76-2.15,4.37,4.37,0,0,0-2.55-.78A6,6,0,0,0,5,5.51,5.11,5.11,0,0,0,3,7.79a6.86,6.86,0,0,0-.53,3.51H1.81a1.19,1.19,0,0,1,.3-.77A2.21,2.21,0,0,1,2.89,10a2.38,2.38,0,0,1,1-.22,2.06,2.06,0,0,1,.94.22,1.91,1.91,0,0,1,.74.64,1.66,1.66,0,0,1,.29,1,2.22,2.22,0,0,1-.27,1.13,1.82,1.82,0,0,1-.75.73,2,2,0,0,1-1.05.26,1.88,1.88,0,0,1-1-.29,1.91,1.91,0,0,1-.71-.84,3.49,3.49,0,0,1-.3-1.28,7.38,7.38,0,0,1,.65-3.87A6,6,0,0,1,5,4.78a8.35,8.35,0,0,1,4.17-1,8.12,8.12,0,0,1,4,.89A6.2,6.2,0,0,1,15.56,7a6,6,0,0,1,.84,3.1,7.62,7.62,0,0,1-.31,2.26,7.71,7.71,0,0,1-.83,1.87,10.58,10.58,0,0,1-1.17,1.56c-.43.48-.87.92-1.32,1.34l-9.55,8.9H16.43V23.57h.65v5.48Z" transform="translate(-1.33 -3.82)"/><path class="cls-1" d="M32.55,29.38a9.21,9.21,0,0,1-3.87-.7,5.26,5.26,0,0,1-2.24-1.79,4.11,4.11,0,0,1-.73-2.29A2.11,2.11,0,0,1,26.28,23a2,2,0,0,1,1.43-.54,1.68,1.68,0,0,1,1.77,1.84,1.65,1.65,0,0,1-.26.92,1.93,1.93,0,0,1-.69.61,2.07,2.07,0,0,1-.92.21,2.12,2.12,0,0,1-.91-.19,1.91,1.91,0,0,1-.69-.52,1.14,1.14,0,0,1-.26-.75h.63a3.5,3.5,0,0,0,.65,2,4.59,4.59,0,0,0,1.9,1.49,7,7,0,0,0,3,.56,5.44,5.44,0,0,0,3.21-.86,5.06,5.06,0,0,0,1.82-2.3,8.12,8.12,0,0,0,.58-3.11,10.32,10.32,0,0,0-.24-2.14,6.08,6.08,0,0,0-.92-2.13,4.87,4.87,0,0,0-2-1.61A7.82,7.82,0,0,0,31,15.9v-.4a18.31,18.31,0,0,1,4.94.56,7.65,7.65,0,0,1,3,1.52,5.25,5.25,0,0,1,1.51,2.21,7.87,7.87,0,0,1,.43,2.62,6.53,6.53,0,0,1-.63,2.9,6.29,6.29,0,0,1-1.76,2.2,7.92,7.92,0,0,1-2.64,1.39A10.68,10.68,0,0,1,32.55,29.38ZM31,15.67v-.4a7.11,7.11,0,0,0,3.1-.55,3.65,3.65,0,0,0,1.65-1.42,5,5,0,0,0,.66-1.9,15.14,15.14,0,0,0,.13-2,6.75,6.75,0,0,0-.27-2,4.49,4.49,0,0,0-.81-1.55,3.57,3.57,0,0,0-1.29-1,4,4,0,0,0-1.74-.36,6.34,6.34,0,0,0-1.86.28,5.41,5.41,0,0,0-1.61.81,4.12,4.12,0,0,0-1.14,1.22,2.92,2.92,0,0,0-.42,1.54h-.63A1.28,1.28,0,0,1,27,7.54,1.87,1.87,0,0,1,27.76,7a2.48,2.48,0,0,1,.86-.17,2.17,2.17,0,0,1,.92.2,1.71,1.71,0,0,1,.69.59,1.65,1.65,0,0,1,.26,1,1.83,1.83,0,0,1-.29,1.07,1.75,1.75,0,0,1-.74.59,2.12,2.12,0,0,1-.84.18,2,2,0,0,1-.94-.23A1.88,1.88,0,0,1,27,9.52a2.09,2.09,0,0,1-.28-1.14,3.33,3.33,0,0,1,.48-1.71,4.9,4.9,0,0,1,1.35-1.46,6.93,6.93,0,0,1,2-1,7.46,7.46,0,0,1,2.38-.37,9.53,9.53,0,0,1,2.65.36,7.28,7.28,0,0,1,2.23,1A5.21,5.21,0,0,1,39.29,7a5,5,0,0,1,.57,2.43,8.26,8.26,0,0,1-.33,2.36,4.38,4.38,0,0,1-1.24,2,6.29,6.29,0,0,1-2.69,1.38A17.73,17.73,0,0,1,31,15.67Z" transform="translate(-1.33 -3.82)"/><path class="cls-1" d="M68.86,4.15V28.4h3.91v.65h-8V28.4h3.41V4.8H64.77V4.15Zm19.55,0V4.8h-3.5V29.38H84L68.38,4.15h3.81l12,19.77V4.8H80.41V4.15Z" transform="translate(-1.33 -3.82)"/><path class="cls-1" d="M105.39,29.38a7.21,7.21,0,0,1-6.69-4,8.92,8.92,0,0,1,0-7.93,7.31,7.31,0,0,1,2.64-2.9,8.07,8.07,0,0,1,8.1,0,7.33,7.33,0,0,1,2.62,2.9,9,9,0,0,1,0,7.93,7.43,7.43,0,0,1-2.62,2.91A7.35,7.35,0,0,1,105.39,29.38Zm0-.65a3.36,3.36,0,0,0,2.18-.68,4.46,4.46,0,0,0,1.27-1.81,10,10,0,0,0,.6-2.39,20,20,0,0,0,0-4.89,10.25,10.25,0,0,0-.6-2.38,4.49,4.49,0,0,0-1.27-1.8,3.77,3.77,0,0,0-4.35,0,4.39,4.39,0,0,0-1.27,1.8,10.25,10.25,0,0,0-.6,2.38,21.11,21.11,0,0,0-.16,2.45,20.94,20.94,0,0,0,.16,2.44,10,10,0,0,0,.6,2.39,4.36,4.36,0,0,0,1.27,1.81A3.33,3.33,0,0,0,105.39,28.73Z" transform="translate(-1.33 -3.82)"/><path class="cls-1" d="M138.1,13.78v.64h-1.93l-6.09,15h-.72l-6.14-15h-1.86v-.64h8v.64h-2.8l4.31,11.23,4.57-11.23h-3v-.64Z" transform="translate(-1.33 -3.82)"/><path class="cls-1" d="M153.7,29.38a7.76,7.76,0,0,1-3.82-.95,7,7,0,0,1-2.71-2.74,8.6,8.6,0,0,1-1-4.28,8.93,8.93,0,0,1,1-4.26,6.66,6.66,0,0,1,2.6-2.73,7.44,7.44,0,0,1,3.79-1,6.8,6.8,0,0,1,3.84,1,5.41,5.41,0,0,1,2.08,2.51,8.94,8.94,0,0,1,.64,3.37H148.4v-.65h8.14c0-.55,0-1.15-.09-1.79a7.65,7.65,0,0,0-.39-1.82,3.2,3.2,0,0,0-.9-1.4,2.43,2.43,0,0,0-1.66-.55,3.07,3.07,0,0,0-2,.6,3.92,3.92,0,0,0-1.19,1.64,9.32,9.32,0,0,0-.59,2.34,20.23,20.23,0,0,0-.18,2.74,19.72,19.72,0,0,0,.19,2.73,8.36,8.36,0,0,0,.67,2.33,3.88,3.88,0,0,0,1.31,1.61,3.64,3.64,0,0,0,2.13.59,5.73,5.73,0,0,0,3.64-1.12,6.22,6.22,0,0,0,2-2.83h.75A7,7,0,0,1,158,28.05,6.61,6.61,0,0,1,153.7,29.38Z" transform="translate(-1.33 -3.82)"/><path class="cls-1" d="M174.76,13.78V28.4h2.15v.65h-7.23V28.4h2.18v-14h-2.18v-.64Zm9.47,4.66v10h2.15v.65h-7.22V28.4h2.14V18.82c0-.93,0-1.73-.1-2.42a3.3,3.3,0,0,0-.51-1.58,1.45,1.45,0,0,0-1.28-.56,3.14,3.14,0,0,0-2.06.74,5.94,5.94,0,0,0-1.45,1.87,10.09,10.09,0,0,0-.85,2.38,10,10,0,0,0-.29,2.23l-.36.08a13.16,13.16,0,0,1,.27-2.48,10.83,10.83,0,0,1,.92-2.67,6.13,6.13,0,0,1,1.74-2.12,4.35,4.35,0,0,1,2.71-.83,4.47,4.47,0,0,1,2.57.64,3.37,3.37,0,0,1,1.26,1.77A8.44,8.44,0,0,1,184.23,18.44Zm9.44,0v10h2.18v.65h-7.24V28.4h2.16V18.82a17,17,0,0,0-.15-2.42,3.29,3.29,0,0,0-.59-1.58,1.57,1.57,0,0,0-1.32-.56,3.07,3.07,0,0,0-2.07.74,5.49,5.49,0,0,0-1.38,1.87,9.91,9.91,0,0,0-.78,2.38,11.1,11.1,0,0,0-.25,2.23l-.42.08a13.86,13.86,0,0,1,.25-2.48,10.67,10.67,0,0,1,.86-2.67,5.66,5.66,0,0,1,1.68-2.12,4.38,4.38,0,0,1,2.74-.83,4.63,4.63,0,0,1,2.6.64,3.49,3.49,0,0,1,1.33,1.77A7.58,7.58,0,0,1,193.67,18.44Z" transform="translate(-1.33 -3.82)"/><path class="cls-1" d="M215.37,29.38A4.63,4.63,0,0,1,212,28,7.7,7.7,0,0,1,210,24.22v4.83h-5.15V28.4h2.18V4.8h-2.18V4.15H210V18.62A7.54,7.54,0,0,1,212,14.87a4.62,4.62,0,0,1,3.4-1.39,6.26,6.26,0,0,1,3.3.94,7.14,7.14,0,0,1,2.54,2.73,8.71,8.71,0,0,1,1,4.26,8.82,8.82,0,0,1-1,4.28,7.17,7.17,0,0,1-2.54,2.74A6.27,6.27,0,0,1,215.37,29.38Zm-.6-.89a3.09,3.09,0,0,0,2.19-.84,5.26,5.26,0,0,0,1.36-2.43,13.57,13.57,0,0,0,.47-3.81,13.55,13.55,0,0,0-.47-3.8,5.15,5.15,0,0,0-1.36-2.4,3.08,3.08,0,0,0-2.19-.83,3.74,3.74,0,0,0-2.32.82,5.75,5.75,0,0,0-1.75,2.4,9.85,9.85,0,0,0-.66,3.81,10,10,0,0,0,.66,3.83,5.88,5.88,0,0,0,1.75,2.42A3.75,3.75,0,0,0,214.77,28.49Z" transform="translate(-1.33 -3.82)"/><path class="cls-1" d="M239.77,29.38a7.76,7.76,0,0,1-3.82-.95,7,7,0,0,1-2.71-2.74,8.6,8.6,0,0,1-1-4.28,8.93,8.93,0,0,1,1-4.26,6.62,6.62,0,0,1,2.61-2.73,7.38,7.38,0,0,1,3.78-1,6.8,6.8,0,0,1,3.84,1,5.41,5.41,0,0,1,2.08,2.51,8.94,8.94,0,0,1,.64,3.37H234.47v-.65h8.14c0-.55,0-1.15-.09-1.79a7.65,7.65,0,0,0-.39-1.82,3.2,3.2,0,0,0-.9-1.4,2.43,2.43,0,0,0-1.66-.55,3.07,3.07,0,0,0-2,.6,3.92,3.92,0,0,0-1.19,1.64,9.32,9.32,0,0,0-.59,2.34,20.23,20.23,0,0,0-.18,2.74,19.72,19.72,0,0,0,.19,2.73,8.36,8.36,0,0,0,.67,2.33,3.88,3.88,0,0,0,1.31,1.61,3.64,3.64,0,0,0,2.13.59,5.78,5.78,0,0,0,3.65-1.12,6.27,6.27,0,0,0,2-2.83h.75a7,7,0,0,1-2.28,3.33A6.61,6.61,0,0,1,239.77,29.38Z" transform="translate(-1.33 -3.82)"/><path class="cls-1" d="M260.83,13.78V28.4h2.36v.65h-7.44V28.4h2.18v-14h-2.18v-.64Zm-.38,8.15a14.22,14.22,0,0,1,.31-2.95,10.92,10.92,0,0,1,.93-2.74,5.92,5.92,0,0,1,1.57-2,3.4,3.4,0,0,1,2.21-.77,3.21,3.21,0,0,1,1.56.35,2.54,2.54,0,0,1,1,.91,2.38,2.38,0,0,1,.33,1.22,2.11,2.11,0,0,1-.51,1.43,1.74,1.74,0,0,1-1.38.59,2,2,0,0,1-1.41-.49,1.82,1.82,0,0,1,.09-2.63,2.1,2.1,0,0,1,1.32-.46,2.18,2.18,0,0,1,.93.19,1.71,1.71,0,0,1,.68.56,1.43,1.43,0,0,1,.24.81h-.64a1.55,1.55,0,0,0-.31-.93,2.12,2.12,0,0,0-.82-.64,2.63,2.63,0,0,0-1.13-.24,2.88,2.88,0,0,0-1.84.67,5.79,5.79,0,0,0-1.44,1.81,11.17,11.17,0,0,0-.95,2.51,12.07,12.07,0,0,0-.34,2.81Z" transform="translate(-1.33 -3.82)"/><path class="cls-1" d="M292.12,29.05V26.89l7.57-7.09a13.15,13.15,0,0,0,3.13-4.3,11.57,11.57,0,0,0,1.06-4.71,7.36,7.36,0,0,0-.65-3.15,5.31,5.31,0,0,0-1.77-2.15,4.32,4.32,0,0,0-2.55-.78,6,6,0,0,0-3.12.8,5.15,5.15,0,0,0-2,2.28,6.86,6.86,0,0,0-.53,3.51h-.61a1.19,1.19,0,0,1,.3-.77,2,2,0,0,1,.78-.58,2.37,2.37,0,0,1,1-.22,2.07,2.07,0,0,1,1,.22,1.91,1.91,0,0,1,.74.64,1.73,1.73,0,0,1,.29,1,2.22,2.22,0,0,1-.27,1.13,2,2,0,0,1-.75.73,2.11,2.11,0,0,1-1.06.26,1.85,1.85,0,0,1-1-.29,1.91,1.91,0,0,1-.71-.84,3.7,3.7,0,0,1-.31-1.28,7.38,7.38,0,0,1,.66-3.87,6.08,6.08,0,0,1,2.52-2.65,8.42,8.42,0,0,1,4.18-1,8.05,8.05,0,0,1,4,.89A6.16,6.16,0,0,1,306.36,7a6,6,0,0,1,.84,3.1,7.62,7.62,0,0,1-.31,2.26,7.71,7.71,0,0,1-.83,1.87,11.34,11.34,0,0,1-1.17,1.56,18.7,18.7,0,0,1-1.33,1.34L294,26.06h13.21V23.57h.65v5.48Z" transform="translate(-1.33 -3.82)"/><path class="cls-1" d="M326,29.38a7,7,0,0,1-3.67-1,8.81,8.81,0,0,1-2.84-2.74,13.94,13.94,0,0,1-1.81-4.08,18.43,18.43,0,0,1-.64-5,17.31,17.31,0,0,1,.68-5,14.05,14.05,0,0,1,1.89-4.08,9.26,9.26,0,0,1,2.85-2.74,6.84,6.84,0,0,1,7.09,0,9.12,9.12,0,0,1,2.84,2.74,14.34,14.34,0,0,1,1.9,4.08,17.66,17.66,0,0,1,.68,5,18.84,18.84,0,0,1-.64,5,14,14,0,0,1-1.82,4.08,8.88,8.88,0,0,1-2.83,2.74A7,7,0,0,1,326,29.38Zm0-.6a3.58,3.58,0,0,0,2.69-1A6.69,6.69,0,0,0,330.21,25a19.22,19.22,0,0,0,.73-3.93c.12-1.45.18-2.93.18-4.43a42.92,42.92,0,0,0-.23-4.43,20.5,20.5,0,0,0-.8-3.93,7.06,7.06,0,0,0-1.57-2.79,3.66,3.66,0,0,0-5.09,0,7.31,7.31,0,0,0-1.57,2.79,19.1,19.1,0,0,0-.79,3.93,42.92,42.92,0,0,0-.23,4.43c0,1.5.06,3,.19,4.43a18.61,18.61,0,0,0,.71,3.93,6.58,6.58,0,0,0,1.55,2.79A3.6,3.6,0,0,0,326,28.78Z" transform="translate(-1.33 -3.82)"/><path class="cls-1" d="M344.22,29.05V26.89l7.56-7.09a13.15,13.15,0,0,0,3.13-4.3A11.57,11.57,0,0,0,356,10.79a7.36,7.36,0,0,0-.65-3.15,5.31,5.31,0,0,0-1.77-2.15A4.32,4.32,0,0,0,351,4.71a6,6,0,0,0-3.12.8,5.15,5.15,0,0,0-2,2.28,6.86,6.86,0,0,0-.53,3.51h-.61a1.19,1.19,0,0,1,.3-.77,2,2,0,0,1,.78-.58,2.37,2.37,0,0,1,1-.22,2.07,2.07,0,0,1,.95.22,1.91,1.91,0,0,1,.74.64,1.73,1.73,0,0,1,.29,1,2.22,2.22,0,0,1-.27,1.13,2,2,0,0,1-.75.73,2.1,2.1,0,0,1-1.05.26,1.86,1.86,0,0,1-1-.29,1.91,1.91,0,0,1-.71-.84,3.7,3.7,0,0,1-.31-1.28,7.38,7.38,0,0,1,.66-3.87,6.08,6.08,0,0,1,2.52-2.65,8.42,8.42,0,0,1,4.18-1,8.05,8.05,0,0,1,4,.89A6.16,6.16,0,0,1,358.45,7a6,6,0,0,1,.84,3.1,7.62,7.62,0,0,1-.31,2.26,7.71,7.71,0,0,1-.83,1.87A11.34,11.34,0,0,1,357,15.82a18.7,18.7,0,0,1-1.33,1.34l-9.54,8.9h13.21V23.57H360v5.48Z" transform="translate(-1.33 -3.82)"/><path class="cls-1" d="M377.23,29.05V28.4h3.16V6.14L370.06,21.58h17.13v.65H368.83L380.88,4.15h2.66V28.4H386v.65Z" transform="translate(-1.33 -3.82)"/></g></g></svg>