<?xml version="1.0" encoding="utf-8"?>
<!-- Generator: Adobe Illustrator 25.4.1, SVG Export Plug-In . SVG Version: 6.00 Build 0)  -->
<svg version="1.1" id="Layer_1" xmlns="http://www.w3.org/2000/svg" xmlns:xlink="http://www.w3.org/1999/xlink" x="0px" y="0px"
	 viewBox="0 0 582 365" style="enable-background:new 0 0 582 365;" xml:space="preserve">
<style type="text/css">
	.st0{enable-background:new    ;}
	.st1{fill:#F3F1E7;}
</style>
<g>
	<g id="Layer_2_00000069391436143882212430000016440591314590594233_">
		<g id="Layer_1-2">
			<image style="overflow:visible;opacity:0.5;enable-background:new    ;" width="582" height="365" xlink:href="5CE02217.png" >
			</image>
			<g class="st0">
				<path class="st1" d="M191.1,47.9c-1.6,0-2.4-1-2.4-3c0-2.4,1.1-6,3.3-10.9c0.8-1.8,1.6-3.6,2.5-5.3c0.9-1.7,1.8-3.4,2.8-5.1
					l-7.2,2.1c-1.4,0.4-2.8,0.7-3.9,0.9c-1.2,0.2-2.3,0.2-3.3,0.2c-2.9,0-4.4-0.8-4.4-2.3c0-0.4,0.2-0.9,0.5-1.4
					c0.9-1.4,2.6-2.5,4.9-3.2c1.9-0.6,3.9-0.9,6-0.9c1.9,0,3.3,0.1,4.1,0.4c0.4,0.1,0.6,0.3,0.6,0.6c0,0.3-0.1,0.4-0.4,0.4h-0.1
					c-1.3,0-2.3-0.1-3-0.2c-0.7-0.1-1-0.2-1.1-0.2c-1.6,0-3.3,0.2-5,0.7c-2.2,0.6-3.6,1.3-4.4,2.3c-0.3,0.4-0.5,0.7-0.5,1
					c0,0.8,1,1.2,2.9,1.2c0.9,0,2-0.1,3.3-0.3c1.3-0.2,2.7-0.5,4.3-0.9c1.2-0.3,2.1-0.6,3-0.8c0.8-0.2,1.6-0.4,2.3-0.6
					c0.7-0.2,1.6-0.4,2.4-0.7c0-0.1,0.1-0.2,0.3-0.6c0.2-0.3,0.4-0.6,0.6-0.8c0.4-0.5,1.2-0.7,2.3-0.7c0.4,0,0.6,0.1,0.6,0.2
					c0,0.1-0.3,0.5-0.8,1.2c1-0.2,1.9-0.3,2.9-0.4c0.9-0.1,1.8-0.1,2.6-0.1c1.8,0,3.5,0.5,5.3,1.4c2.1,1.1,3.1,2.4,3.1,4
					c0,0.5-0.2,0.8-0.5,0.8c-0.2,0-0.3-0.1-0.3-0.4c-0.1-0.5-0.2-0.9-0.4-1.2c-0.3-0.5-0.7-0.9-1.2-1.3c-0.5-0.4-1.2-0.7-1.9-1
					c-1.3-0.5-2.6-0.7-3.9-0.7c-2,0-4.4,0.3-7.1,0.9c-2.3,3.2-4.4,6.8-6.2,10.6c-2.3,4.7-3.5,8.6-3.5,11.6c0,1.2,0.2,1.9,0.6,1.9
					c0.3,0,0.7-0.2,1.2-0.5l0.9-0.6c0.3,0,0.4,0.1,0.4,0.4c0,0.4-0.3,0.7-1,1.1C192,47.8,191.5,47.9,191.1,47.9z"/>
				<path class="st1" d="M210.9,45.9c-1.7,0-2.6-1-2.6-3.1c0-0.7,0.1-1.5,0.4-2.5c0.3-1,0.6-1.9,1-2.7c-0.4,0.4-1,1-1.7,1.6
					c-0.7,0.7-1.3,1.4-2,2.2c-1.2,1.5-2.2,2.9-2.9,4c-0.4,0.3-0.8,0.4-1.2,0.4c-0.9,0-1.3-0.2-1.3-0.6c0-0.4,0.2-1,0.5-2
					c0.4-1,0.9-2.2,1.5-3.7c1-2.3,2.1-4.6,3.2-6.7c1.1-2.2,2.3-4.2,3.6-6.2c3.9-6.2,7.1-9.3,9.6-9.3c1.4,0,2.1,0.8,2.1,2.4
					c0,2-1.7,4.9-5,8.6c-0.7,0.8-1.7,1.8-2.9,3c-1.2,1.2-2.7,2.6-4.5,4.2c-0.4,0.4-1,0.9-1.8,1.6c-0.8,0.7-1.6,1.4-2.4,2.2
					c-0.1,0.1-0.2,0.4-0.4,0.8c-0.2,0.4-0.4,0.9-0.6,1.5c-0.5,1.2-0.8,2-0.8,2.4c0,0,0,0.1,0,0.1c0.4-0.4,0.9-1,1.6-1.8
					c0.7-0.8,1.4-1.6,2.2-2.5c0.7-0.8,1.4-1.6,2.1-2.3s1.2-1.2,1.6-1.4c0.3-0.2,0.5-0.3,0.8-0.3c0.6,0,1,0.3,1,1l-1.2,2.5
					c-0.8,1.7-1.2,3-1.2,3.9c0,1.1,0.5,1.7,1.6,1.7c0.9,0,1.9-0.5,2.9-1.4c0.7-0.6,1.5-1.5,2.3-2.6l1.1-1.5c0.1-0.1,0.1-0.1,0.2-0.1
					c0.1,0,0.2,0,0.3,0.1c0.1,0.1,0.1,0.2,0,0.3c-0.1,0.2-0.2,0.4-0.4,0.8c-1.1,1.6-2.2,2.9-3.4,4C213.3,45.4,212.1,45.9,210.9,45.9
					z M205.3,37.5c1.1-0.8,2.4-1.9,3.9-3.3c1.5-1.4,3.1-3,4.7-5c3.7-4.3,5.6-7.4,5.6-9.2c0-1.1-0.4-1.6-1.1-1.6
					c-1.7,0-4.2,2.7-7.3,8c-1.1,1.8-2.2,3.7-3.2,5.6C206.9,33.9,206,35.7,205.3,37.5z"/>
				<path class="st1" d="M220.2,45.9c-1.1,0-2-0.3-2.8-0.9c-0.8-0.6-1.2-1.6-1.2-3.1c0-0.9,0.2-1.8,0.6-2.8c0.4-1,0.9-2,1.6-2.9
					c0.7-0.9,1.4-1.6,2.2-2.2c0.8-0.6,1.6-0.9,2.4-0.9c0.3,0,0.6,0.1,0.8,0.3s0.4,0.6,0.4,1c0,1-0.8,2.2-2.3,3.6
					c-0.6,0.6-1.2,1.1-1.9,1.5c-0.7,0.4-1.3,0.8-1.8,1c-0.1,0.4-0.2,0.9-0.2,1.4c0,0.7,0.2,1.4,0.5,2c0.4,0.6,0.9,0.9,1.7,0.9
					c1,0,1.8-0.3,2.6-0.8c0.8-0.5,1.5-1.2,2.2-2s1.3-1.5,1.8-2.2c0.2-0.3,0.4-0.5,0.7-0.5c0.1,0,0.2,0.1,0.2,0.2c0,0.1,0,0.1,0,0.2
					c0,0.1-0.1,0.2-0.1,0.2c-0.5,0.8-1.2,1.6-1.9,2.5c-0.7,0.9-1.5,1.7-2.4,2.3C222.4,45.6,221.4,45.9,220.2,45.9z M218.6,39.7
					c0.8-0.4,1.7-1,2.6-1.9c1.1-1,1.6-1.9,1.6-2.7c0-0.4-0.2-0.6-0.6-0.6c-0.5,0-1.2,0.7-2.1,2.2C219.3,38,218.8,39,218.6,39.7z"/>
				<path class="st1" d="M248.3,46.9c-1.8,0-2.7-0.8-2.7-2.4c0-1.5,0.8-3.7,2.3-6.5c0.2-0.3,0.4-0.6,0.6-1c0.2-0.4,0.6-1,1.1-1.8
					c0.5-0.8,1.2-1.9,2.1-3.4c2.9-4.9,4.4-8.6,4.4-11.3c0-2.2-1.2-3.4-3.5-3.4c-2.7,0-6,1.6-10.1,4.7c-3.6,2.7-6.3,5.4-8.1,8.1
					c-1.2,1.8-1.8,3.3-1.8,4.5c0,1,0.6,1.5,1.7,1.5c0.3,0,0.9-0.1,1.6-0.4c0.8-0.3,1.2-0.4,1.4-0.4c0.4,0,0.5,0.1,0.5,0.3
					c0,0.4-0.6,0.9-1.7,1.2c-0.9,0.3-1.7,0.5-2.3,0.5c-1.8,0-2.6-0.9-2.6-2.8c0-2.5,1.3-5.2,4-8.3c1.2-1.3,2.5-2.6,4-3.8
					c1.5-1.2,3.1-2.3,4.9-3.4c3.5-2,6.4-3.1,8.9-3.1c3.6,0,5.5,1.6,5.5,4.7c0,1.4-0.4,3-1.2,4.8c-0.4,1-1,2.1-1.6,3.2
					c-0.6,1.2-1.3,2.4-2.2,3.8c-0.7,1.2-1.4,2.3-2.1,3.4c-0.7,1.1-1.4,2.3-2.1,3.4c-1.2,2-1.8,3.6-1.8,4.9c0,1.1,0.4,1.6,1.3,1.6
					c1.1,0,2.6-0.7,4.5-2c5-3.4,10.1-8.4,15.4-14.9c0-0.1,0.2-0.3,0.5-0.6c0.3-0.3,0.6-0.7,1-1.1c0.4-0.4,0.9-0.5,1.4-0.5
					c0.4,0,0.5,0.1,0.5,0.4c0,0.2-0.1,0.5-0.3,0.9c-3.1,5.4-4.7,9.9-4.7,13.4c0,2.4,0.6,3.6,1.9,3.6c1.1,0,2.5-0.9,4.3-2.8
					c1.5-1.6,2.6-3,3.3-4.3c2.1-3.9,3.2-6.8,3.2-8.9c0-0.2,0-0.4-0.1-0.6c-0.1-0.3-0.1-0.6-0.2-0.9c-0.1-0.3-0.2-0.6-0.3-0.8
					c-0.1-0.2-0.1-0.5-0.1-0.7c0-1.1,0.4-1.6,1.1-1.6c0.4,0,0.7,0.4,1,1.2c0.2,0.6,0.3,1.2,0.3,1.7c0,0.2,0,0.3,0,0.5
					c0,0.2,0,0.4,0,0.6c0.2,0.3,0.4,0.6,0.9,0.7c0.4,0.1,0.6,0.3,0.6,0.5c0,0.3-0.2,0.4-0.5,0.4c-0.4,0-0.8-0.1-1.2-0.3
					c-0.4,1.5-0.8,3-1.4,4.4c-0.6,1.4-1.3,2.9-2.1,4.3c-0.9,1.6-1.9,2.9-2.9,4.1c-1.1,1.2-2.1,2.1-3.3,2.8c-0.9,0.6-1.8,0.9-2.8,0.9
					c-2.2,0-3.4-1.4-3.4-4.2c0-1.8,0.7-4.9,2.1-9.5c-2,2-3.8,3.8-5.3,5.3c-1.5,1.5-2.5,2.5-3,2.9c-2,1.9-3.9,3.3-5.4,4.3
					c-1.6,1-2.9,1.6-3.9,1.8c-0.3,0-0.5,0.1-0.8,0.1C248.8,46.9,248.6,46.9,248.3,46.9z"/>
				<path class="st1" d="M285.3,45.9c-1.1,0-2-0.3-2.8-0.9c-0.8-0.6-1.2-1.6-1.2-3.1c0-0.9,0.2-1.8,0.6-2.8c0.4-1,0.9-2,1.6-2.9
					c0.7-0.9,1.4-1.6,2.2-2.2c0.8-0.6,1.6-0.9,2.4-0.9c0.3,0,0.6,0.1,0.8,0.3s0.4,0.6,0.4,1c0,1-0.8,2.2-2.3,3.6
					c-0.6,0.6-1.2,1.1-1.9,1.5c-0.7,0.4-1.3,0.8-1.8,1c-0.1,0.4-0.2,0.9-0.2,1.4c0,0.7,0.2,1.4,0.5,2c0.4,0.6,0.9,0.9,1.7,0.9
					c1,0,1.8-0.3,2.6-0.8c0.8-0.5,1.5-1.2,2.2-2s1.3-1.5,1.8-2.2c0.2-0.3,0.4-0.5,0.7-0.5c0.1,0,0.2,0.1,0.2,0.2c0,0.1,0,0.1,0,0.2
					c0,0.1-0.1,0.2-0.1,0.2c-0.5,0.8-1.2,1.6-1.9,2.5c-0.7,0.9-1.5,1.7-2.4,2.3C287.5,45.6,286.5,45.9,285.3,45.9z M283.7,39.7
					c0.8-0.4,1.7-1,2.6-1.9c1.1-1,1.6-1.9,1.6-2.7c0-0.4-0.2-0.6-0.6-0.6c-0.5,0-1.2,0.7-2.1,2.2C284.4,38,283.9,39,283.7,39.7z"/>
				<path class="st1" d="M291.8,45.6c-1,0-1.5-0.5-1.5-1.6c0-2,1-4.3,3-6.9c1.1-1.4,2.1-2.4,3.1-3.1c1-0.7,2-1,3-0.9
					c0.5-1.9,1.1-3.6,1.7-5.2c0.6-1.6,1.2-3.1,1.9-4.5c2.2-4.5,4.3-6.7,6.4-6.7c1.3,0,2,0.8,2,2.3c0,3.4-3.8,9.5-11.5,18.5
					c-0.2,1.1-0.3,2.1-0.3,3.2c0,2.4,0.5,3.6,1.5,3.6c0.7,0,1.6-0.8,2.9-2.3c1.3-1.6,2-2.4,2.1-2.4c0.1,0,0.1,0.1,0.1,0.2
					c0,0.2-0.1,0.4-0.2,0.7c-2,3.2-3.9,4.8-5.9,4.8c-1.7,0-2.5-1.3-2.5-3.8c0-0.8,0.1-1.7,0.3-2.8C295.6,43.4,293.5,45.6,291.8,45.6
					z M292.6,44.2c0.7,0,1.6-0.7,2.7-2.2c0.2-0.3,0.5-0.7,0.8-1.2c0.3-0.6,0.7-1.3,1.2-2.1c0.5-0.9,0.9-1.7,1.2-2.2
					c0.2-0.5,0.4-0.9,0.4-1.1c0-0.1,0-0.1,0-0.1c0,0,0,0-0.1,0c0-0.1-0.2-0.1-0.5-0.1c-1.3,0-2.7,1-4.2,3c-1.5,2-2.3,3.6-2.3,5
					C291.9,43.8,292.1,44.2,292.6,44.2z M300.2,36.2c6.2-8.4,9.3-14.1,9.3-17c0-0.7-0.3-1.1-0.9-1.1c-1.6,0-3.4,2.6-5.3,7.8
					C302,29.4,301,32.8,300.2,36.2z"/>
				<path class="st1" d="M305.6,45.6c-1,0-1.5-0.5-1.5-1.6c0-2,1-4.3,3-6.9c1.1-1.4,2.1-2.4,3.1-3.1c1-0.7,2-1,3-0.9
					c0.5-1.9,1.1-3.6,1.7-5.2c0.6-1.6,1.2-3.1,1.9-4.5c2.2-4.5,4.3-6.7,6.4-6.7c1.3,0,2,0.8,2,2.3c0,3.4-3.8,9.5-11.5,18.5
					c-0.2,1.1-0.3,2.1-0.3,3.2c0,2.4,0.5,3.6,1.5,3.6c0.7,0,1.6-0.8,2.9-2.3c1.3-1.6,2-2.4,2.1-2.4c0.1,0,0.1,0.1,0.1,0.2
					c0,0.2-0.1,0.4-0.2,0.7c-2,3.2-3.9,4.8-5.9,4.8c-1.7,0-2.5-1.3-2.5-3.8c0-0.8,0.1-1.7,0.3-2.8C309.4,43.4,307.3,45.6,305.6,45.6
					z M306.4,44.2c0.7,0,1.6-0.7,2.7-2.2c0.2-0.3,0.5-0.7,0.8-1.2c0.3-0.6,0.7-1.3,1.2-2.1c0.5-0.9,0.9-1.7,1.2-2.2
					c0.2-0.5,0.4-0.9,0.4-1.1c0-0.1,0-0.1,0-0.1c0,0,0,0-0.1,0c0-0.1-0.2-0.1-0.5-0.1c-1.3,0-2.7,1-4.2,3c-1.5,2-2.3,3.6-2.3,5
					C305.7,43.8,305.9,44.2,306.4,44.2z M314.1,36.2c6.2-8.4,9.3-14.1,9.3-17c0-0.7-0.3-1.1-0.9-1.1c-1.6,0-3.4,2.6-5.3,7.8
					C315.9,29.4,314.8,32.8,314.1,36.2z"/>
				<path class="st1" d="M321.1,46.5c-1.8,0-2.6-0.9-2.6-2.8c0-0.9,0.3-2.2,1-3.9c0.3-0.8,0.6-1.5,0.9-2c0.3-0.6,0.6-1.1,0.9-1.6
					c0.2-0.3,0.4-0.4,0.7-0.4c0.3,0,0.5,0.1,0.8,0.4c0.2,0.2,0.2,0.4,0.2,0.6c0,0.2-0.1,0.4-0.2,0.7c-0.7,1.1-1.3,2.2-1.7,3.3
					c-0.4,1.1-0.7,2.1-0.7,3c0,1.2,0.4,1.7,1.2,1.7c0.4,0,1-0.1,1.5-0.4c0.6-0.2,1.2-0.6,1.7-1.1c0.4-0.4,0.8-0.8,1.2-1.2
					c0.4-0.4,0.9-1,1.3-1.6l1.2-1.5c0.2,0,0.2,0.1,0.2,0.4s-0.1,0.5-0.3,0.8C325.6,44.5,323.1,46.5,321.1,46.5z M323.8,33.4
					c-0.8,0-1.2-0.4-1.2-1.2c0-0.4,0.1-0.7,0.4-1c0.3-0.3,0.7-0.5,1.1-0.5c0.8,0,1.2,0.4,1.2,1.2c0,0.4-0.1,0.7-0.4,1
					C324.6,33.2,324.3,33.4,323.8,33.4z"/>
				<path class="st1" d="M335.2,45.9c-1.8,0-2.7-1.2-2.7-3.5c0-1,0.2-2,0.5-3s0.7-1.8,1.2-2.6c-1.1,1-2.3,2.2-3.5,3.7
					c-1.2,1.5-2.4,3.1-3.6,4.9c-0.2,0.3-0.3,0.4-0.4,0.4c-0.3,0-0.4-0.3-0.4-0.9c0-0.1,0-0.3,0.1-0.4c0.4-0.9,0.7-1.9,1.1-3
					c0.4-1.1,0.7-2.5,1.1-4c0.1-0.3,0.1-0.6,0.2-1c0.1-0.3,0.2-0.7,0.3-1.2c0.1-0.2,0.3-0.4,0.7-0.7c0.3-0.2,0.6-0.3,1-0.3
					c0.2,0,0.3,0.1,0.3,0.3c0,0.2-0.2,0.8-0.6,2.1s-0.9,3-1.7,5.2c0.2-0.3,0.6-0.7,1.2-1.4c0.6-0.7,1.4-1.6,2.4-2.7l3-3.3
					c0.2-0.2,0.5-0.3,0.8-0.3c0.7,0,1.1,0.4,1.1,1.1c0,0.2-0.1,0.4-0.2,0.6c-1.8,2.9-2.7,5.3-2.7,7c0,1.2,0.6,1.8,1.7,1.8
					c0.8,0,1.8-0.5,2.9-1.4c0.4-0.4,0.8-0.7,1.2-1.2c0.3-0.4,0.7-0.9,1.1-1.4c0.7-0.9,1.1-1.4,1.2-1.4c0.1,0,0.1,0.1,0.1,0.3
					c0,0.2-0.1,0.5-0.3,0.8C339.8,44.1,337.5,45.9,335.2,45.9z"/>
				<path class="st1" d="M332.3,65.1c-1.6,0-2.8-0.4-3.8-1.3c-1.1-0.9-1.6-2.1-1.6-3.6c0-3.4,2.4-6.7,7.3-9.8
					c4.1-2.7,8.1-4.3,12-4.9c0.1-0.6,0.3-1.4,0.5-2.3c0.2-0.9,0.4-2,0.6-3.2c-2.2,3.8-4.1,5.7-5.7,5.7c-1,0-1.5-0.5-1.5-1.6
					c0-1.6,0.8-3.6,2.4-6c1.6-2.3,3.1-3.8,4.7-4.3c0.3-0.1,0.6-0.2,0.8-0.2c0.3-0.1,0.5-0.1,0.7-0.1c0.5,0,1.1,0.1,1.6,0.4
					c0.3,0.1,0.5,0.3,0.7,0.5c0.2,0.2,0.3,0.4,0.3,0.6c0,0.1-0.1,0.2-0.4,0.3s-0.5,0.2-0.6,0.4l-0.5,2.4c-0.2,0.8-0.4,1.8-0.7,3
					c-0.3,1.2-0.6,2.7-1,4.3h0.2c1.7,0,2.5,0.4,2.5,1.1c0,0.2-0.1,0.3-0.2,0.3l-0.4-0.2c-0.3-0.2-0.7-0.2-1.4-0.2
					c-0.2,0-0.3,0-0.5,0c-0.2,0-0.3,0-0.5,0c-0.6,2.4-1.3,4.5-2.1,6.4c-0.8,1.9-1.6,3.5-2.5,4.8C339.9,62.6,336.2,65.1,332.3,65.1z
					 M332.5,64.5c2,0,4-0.8,5.9-2.5c1.5-1.3,2.9-3,4.1-5c1.7-2.9,2.9-6.4,3.7-10.6c-2.1,0.3-4.6,1.2-7.5,2.7
					c-1.5,0.7-2.8,1.5-3.9,2.2c-1.1,0.7-2.1,1.5-2.8,2.2c-2.4,2.3-3.6,4.6-3.6,6.9c0,1.2,0.4,2.2,1.2,3
					C330.3,64.1,331.3,64.5,332.5,64.5z M342.4,44.2c0.4,0,0.8-0.2,1.2-0.6c0.5-0.4,1-0.9,1.5-1.6c0.8-1,1.5-2.1,2.2-3.3
					s1.3-2.4,1.8-3.7c-0.1,0-0.2,0-0.4,0c-1.3,0-2.6,0.8-4,2.4c-2,2.3-2.9,4.3-2.9,5.8C341.7,43.9,342,44.2,342.4,44.2z"/>
				<path class="st1" d="M366.3,46.9c-4.2,0-6.3-1.7-6.3-5c0-1.1,0.2-2.2,0.7-3.4c-2.1-1-3.2-2.6-3.2-4.7c0-2.8,1.3-5.3,4-7.6
					c2.1-1.9,4.8-3.3,7.8-4.4c3.4-1.2,6.7-1.8,10-1.8c3.1,0,5.7,0.6,7.8,1.7c2.7,1.5,4,3.7,4,6.5c0,2.3-0.9,4.7-2.7,7.2
					c-2.3,3.4-5.6,6.1-9.8,8.2C374.5,45.8,370.3,46.9,366.3,46.9z M366.7,45.9c3.8,0,7.7-1.2,11.5-3.5c3.6-2.1,6.5-4.9,8.8-8.2
					c1.7-2.5,2.6-4.8,2.6-6.8c0-2.3-1-4-3.1-5c-1.6-0.9-3.6-1.3-6.1-1.3c-3.2,0-6.6,0.7-10.3,2.2c-2.8,1.1-5.2,2.4-7.2,4
					c-2.8,2.2-4.3,4.4-4.3,6.6c0,1.9,0.8,3.1,2.5,3.7c0.7-1.3,1.7-2.6,2.8-4c1.1-1.3,2.4-2.7,3.8-4c3-2.7,5.8-4.6,8.4-5.8
					c0.7-0.3,1.3-0.5,1.9-0.6c0.6-0.2,1.1-0.3,1.6-0.3h0.1c0.4,0,0.6,0.1,0.6,0.4c0,0.3-0.2,0.5-0.7,0.6c-1.1,0.2-2.2,0.6-3.3,1.1
					c-1.1,0.6-2.4,1.5-4,2.7c-0.8,0.6-1.6,1.3-2.5,2.1c-0.9,0.8-1.8,1.7-2.7,2.6c-1.2,1.2-2.2,2.3-2.8,3.3c-0.7,0.9-1.1,1.7-1.2,2.3
					c0.5,0.1,1.1,0.2,1.8,0.2c2.8,0,5.7-1.3,8.6-4c0.6-0.6,1.1-1,1.3-1.2c0.3-0.2,0.4-0.3,0.3-0.3c0.2,0,0.3,0.1,0.3,0.4
					c-0.7,1-1.4,1.8-2.2,2.5s-1.6,1.3-2.6,1.9c-2.1,1.2-4.1,1.8-6.2,1.8c-0.3,0-0.6,0-0.9-0.1c-0.3,0-0.6-0.1-0.8-0.2
					c-0.5,1.1-0.8,2.1-0.8,3c0,1.2,0.5,2.2,1.4,3C364.2,45.5,365.4,45.9,366.7,45.9z"/>
				<path class="st1" d="M389.2,62.7c-1.2,0-2-0.5-2.4-1.4c-0.4-0.9-0.6-2.1-0.6-3.3c0-1.1,0.2-2.5,0.6-4.1c0.4-1.6,0.9-3.3,1.5-5.1
					s1.3-3.6,2.1-5.4c0.8-1.8,1.5-3.4,2.2-4.9c0.8-1.7,1.5-3.1,2.1-4.2c0.6-1.2,1.1-2.2,1.6-3.1c0.5-0.9,1-1.8,1.4-2.6
					c0.5-0.8,1-1.8,1.5-2.8c0.6-1.2,1.2-2.1,1.7-3c0.5-0.8,0.9-1.4,1.1-1.6c0.2-0.2,0.4-0.3,0.7-0.6c0.3-0.2,0.6-0.3,0.9-0.3
					c0.4,0,0.7,0.3,0.7,0.8c0,0.2-0.2,0.7-0.6,1.4c-0.4,0.7-1,1.6-1.6,2.6s-1.4,2.1-2.1,3.1c-0.9,1.4-1.9,2.9-2.9,4.5
					c-1,1.6-1.9,3.2-2.9,4.9c0.3-0.2,0.5-0.3,0.7-0.3c1.1,0,2,1.7,2.6,5.2c0.4,0.4,0.7,0.6,1.1,0.6s0.7,0.1,1,0.1
					c0.8,0,1.7-0.5,2.7-1.5c0.5-0.5,0.9-1,1.3-1.5c0.4-0.5,0.6-0.9,0.8-1.1c0.1-0.1,0.2-0.1,0.3-0.1c0.2,0,0.3,0.1,0.3,0.3
					c0,0.2-0.1,0.4-0.3,0.7c-0.9,1.2-1.7,2.2-2.5,3c-0.8,0.8-1.7,1.1-2.5,1.2c-0.5,0-0.9-0.1-1.3-0.2c-0.4-0.1-0.7-0.2-0.8-0.4
					c0.3,1.9,0.3,3.7,0.1,5.4c-0.2,1.7-0.7,3.5-1.4,5.4c-0.5,1.4-1.1,2.7-1.8,4c-0.7,1.3-1.5,2.3-2.4,3.1S390.4,62.7,389.2,62.7z
					 M389.9,61.4c0.8,0,1.6-0.4,2.3-1.2c0.7-0.8,1.4-1.7,1.9-2.8c0.6-1.1,1.1-2.1,1.4-3.1c0.7-1.8,1.2-3.7,1.4-5.6
					c0.2-1.9,0.1-3.8-0.3-5.5c-0.7-0.5-1.4-1.2-1.9-2.1c-0.6-0.8-0.8-1.7-0.8-2.5c-1.9,4.3-3.4,8.1-4.5,11.5
					c-1.1,3.4-1.6,6.2-1.6,8.4c0,1.1,0.2,1.8,0.6,2.2C388.9,61.2,389.4,61.4,389.9,61.4z"/>
			</g>
			<path class="st1" d="M36.9,148.3v-3.1h17.3V33.6H38.5c-4.6,0-8.3,0.7-11.2,2.2c-2.8,1.4-5.1,3.7-6.5,6.4
				c-1.6,3.2-2.7,6.6-3.1,10.2c-0.6,4.4-0.9,8.9-0.9,13.4h-3.1V30.5h96.1v35.3h-3.1c0-4.5-0.3-9-0.9-13.4c-0.4-3.6-1.5-7-3.2-10.2
				c-1.5-2.8-3.8-5-6.6-6.4c-2.9-1.5-6.6-2.2-11.2-2.2H69.1v111.6h17.3v3.1H36.9z"/>
			<path class="st1" d="M145.3,76.1v69.2h10.3v3.1H121v-3.1h10.2V79.1H121v-3.1H145.3z M138.3,48.3c-2.5,0-4.9-1-6.6-2.8
				c-1.8-1.7-2.8-4.2-2.8-6.7c0-2.5,1-4.9,2.8-6.7c3.7-3.6,9.6-3.6,13.3,0.1c1.7,1.8,2.7,4.1,2.7,6.6c0,2.5-0.9,4.9-2.7,6.7
				C143.3,47.3,140.9,48.3,138.3,48.3L138.3,48.3z"/>
			<path class="st1" d="M165.4,79.1v-3.1h41.4v3.1H165.4z M191.2,149.4c-4.3,0-7.5-1-9.7-2.9c-2.2-1.9-3.7-4.4-4.4-7.1
				c-0.8-2.8-1.1-5.7-1.1-8.6V60.4c2.6,0,5.2-0.6,7.6-1.5c2.3-0.8,4.5-1.9,6.4-3.2v78.8c0,3.9,0.5,6.5,1.4,7.9s2.5,2,4.8,2
				c2.7-0.1,5.3-1.3,7.1-3.3c2.2-2.2,4.1-4.7,5.5-7.5l2.6,1.6c-1.9,4-4.6,7.5-8,10.3C200.2,148.1,196.1,149.4,191.2,149.4z"/>
			<path class="st1" d="M244.3,149.9c-6.8,0-12.2-1.7-16.3-5.2c-4.1-3.5-6.1-8.2-6.1-14.2c0-7,3-12.5,9-16.5s14.6-6,25.8-6h17.8v2.7
				h-17.8c-4.6,0-8.3,1-11.1,2.9c-2.7,1.8-4.8,4.3-6.2,7.2c-1.3,2.7-2,5.6-2,8.6c0,2.6,0.4,5.1,1.2,7.6c0.7,2.3,2,4.4,3.9,6
				c1.9,1.6,4.3,2.4,6.7,2.3c3.1,0,6-1,8.5-2.8c3-2.2,5.4-5.2,6.8-8.6c1.8-3.8,2.7-8.6,2.7-14.3h1.8c0.1,5.4-0.9,10.8-2.9,15.8
				c-1.7,4.3-4.6,8-8.3,10.6C253.8,148.7,249.1,150,244.3,149.9z M280.9,149.9c-2.3,0-4.6-0.4-6.8-1.3c-2.1-0.9-3.8-2.4-5-4.3
				c-1.4-2.5-2-5.3-1.9-8.1v-35.6c0-3.6-0.3-7.3-0.9-10.8c-0.5-3.2-1.9-6.1-4-8.5c-2-2.2-5.1-3.3-9.3-3.3c-2.5,0-4.9,0.3-7.3,0.8
				c-2.4,0.5-4.8,1.3-7.1,2.4c-2,1-3.8,2.3-5.3,4c-1.3,1.6-2,3.6-2,5.7h-3.7c-0.1-2.4,0.9-4.7,2.6-6.3c1.6-1.5,3.6-2.3,5.8-2.3
				c2.2,0,4.4,0.8,6.2,2.2c1.9,1.5,2.9,3.8,2.8,6.2c0,3.1-1,5.4-2.9,6.8c-1.7,1.4-3.9,2.1-6.1,2.1c-2.2,0.1-4.4-0.7-6.1-2.2
				c-1.6-1.5-2.5-3.6-2.5-6.4c0-2.4,0.8-4.8,2.4-6.6c1.8-2.1,4-3.8,6.4-5c2.9-1.5,5.9-2.5,9.1-3.2c3.4-0.8,6.9-1.1,10.4-1.1
				c7.2,0,12.6,1.3,16.2,3.8c3.4,2.3,6,5.7,7.2,9.7c1.2,4,1.8,8.1,1.8,12.2v38.6c0,1.5,0.3,3,0.9,4.4c0.6,1.2,1.9,1.8,3.8,1.8
				c1.6-0.1,3.2-0.7,4.5-1.7c1.6-1.1,2.9-2.6,3.8-4.3l1.5,2.8C292.3,147.1,286.8,150,280.9,149.9L280.9,149.9z"/>
			<path class="st1" d="M326.6,76.1v69.2h10.1v3.1h-34.1v-3.1h10.3V79.1h-10.3v-3.1H326.6z M374.5,98.1v47.1h10.3v3.1h-34.3v-3.1
				h10.2v-44.7c0-3.9-0.2-7.7-0.6-11.6c-0.2-2.8-1.1-5.4-2.6-7.8c-1.3-1.9-3.5-2.8-6.4-2.8c-3.9-0.1-7.8,1.1-11,3.5
				c-3.1,2.4-5.7,5.4-7.6,8.8c-2,3.6-3.5,7.4-4.5,11.4c-0.9,3.6-1.4,7.3-1.4,11l-2,0.4c0.1-4,0.6-7.9,1.4-11.8
				c0.9-4.5,2.5-8.8,4.6-12.8c2.1-4,5.1-7.5,8.7-10.2c3.7-2.7,8.3-4,13.8-4c6.1,0,10.6,1,13.7,3c3,2,5.2,4.9,6.1,8.4
				C374,89.9,374.5,94,374.5,98.1L374.5,98.1z"/>
			<path class="st1" d="M421.2,76.1v69.2h10.3v3.1h-34.6v-3.1H407V79.1h-10.2v-3.1H421.2z M414.2,48.3c-2.5,0-4.9-1-6.6-2.8
				c-1.8-1.7-2.8-4.2-2.8-6.7c0-2.5,1-4.9,2.8-6.7c3.7-3.7,9.6-3.7,13.3,0c1.8,1.8,2.8,4.2,2.8,6.7c0,2.5-1,4.9-2.7,6.7
				C419.1,47.3,416.7,48.3,414.2,48.3L414.2,48.3z"/>
			<path class="st1" d="M466.7,149.9c-6.8,0-12.2-1.7-16.3-5.2c-4.1-3.5-6.1-8.2-6.1-14.2c0-7,3-12.5,9-16.5c6-4,14.6-6,25.7-6h17.8
				v2.7h-17.8c-4.6,0-8.3,1-11.1,2.9c-2.7,1.8-4.8,4.3-6.2,7.2c-1.3,2.7-2,5.6-2,8.6c0,2.6,0.4,5.1,1.2,7.6c0.7,2.3,2,4.4,3.9,6
				c1.9,1.6,4.3,2.4,6.7,2.3c3.1,0,6-1,8.5-2.8c3-2.2,5.4-5.2,6.8-8.6c1.8-3.8,2.7-8.6,2.7-14.3h1.8c0.1,5.4-0.9,10.8-2.9,15.8
				c-1.7,4.3-4.6,8-8.3,10.6C476.2,148.7,471.5,150,466.7,149.9z M503.3,149.9c-2.3,0-4.6-0.4-6.8-1.3c-2.1-0.9-3.8-2.4-5-4.3
				c-1.4-2.5-2-5.3-1.9-8.1v-35.6c0-3.6-0.3-7.3-0.9-10.8c-0.5-3.2-1.9-6.1-4-8.5c-2-2.2-5.1-3.3-9.3-3.3c-2.5,0-4.9,0.3-7.3,0.8
				c-2.4,0.5-4.8,1.3-7,2.4c-2,1-3.8,2.3-5.3,4c-1.3,1.6-2,3.6-2,5.7H450c-0.1-2.4,0.9-4.7,2.6-6.3c1.6-1.5,3.6-2.3,5.8-2.3
				c2.2,0,4.4,0.8,6.2,2.2c1.9,1.5,2.9,3.8,2.8,6.2c0,3.1-1,5.4-2.9,6.8c-1.7,1.4-3.9,2.1-6.1,2.1c-2.2,0.1-4.4-0.7-6.1-2.2
				c-1.6-1.5-2.5-3.6-2.5-6.4c0-2.4,0.8-4.8,2.4-6.6c1.8-2.1,4-3.8,6.4-5c2.9-1.5,5.9-2.5,9.1-3.2c3.4-0.8,6.9-1.1,10.4-1.1
				c7.2,0,12.6,1.3,16.2,3.8c3.4,2.3,6,5.7,7.2,9.7c1.2,4,1.8,8.1,1.8,12.2v38.6c0,1.5,0.3,3,0.9,4.4c0.6,1.2,1.9,1.8,3.8,1.8
				c1.6-0.1,3.2-0.7,4.5-1.7c1.6-1.1,2.9-2.6,3.8-4.3l1.5,2.8C514.7,147.1,509.2,150,503.3,149.9L503.3,149.9z"/>
			<path class="st1" d="M62.4,175.4v114.7H81v3.1H43.1v-3.1h16.1V178.4H43.1v-3.1H62.4z M154.9,175.4v3.1h-16.6v116.3h-4.2
				l-74-119.3h18.1l57,93.5v-90.4h-18.1v-3.1H154.9z"/>
			<path class="st1" d="M188.5,294.7c-6.8,0-12.2-1.7-16.3-5.2c-4.1-3.5-6.1-8.2-6.1-14.2c0-7,3-12.5,9-16.5c6-4,14.6-6,25.7-6h17.8
				v2.7h-17.8c-4.6,0-8.3,1-11.1,2.9c-2.7,1.8-4.8,4.3-6.2,7.2c-1.3,2.7-2,5.6-2,8.6c0,2.6,0.4,5.1,1.2,7.6c0.7,2.3,2,4.4,3.9,6
				c1.9,1.6,4.3,2.4,6.7,2.3c3.1,0,6-1,8.5-2.8c3-2.2,5.4-5.2,6.8-8.6c1.8-3.8,2.7-8.6,2.7-14.3h1.8c0.1,5.4-0.9,10.8-2.9,15.8
				c-1.7,4.3-4.6,8-8.3,10.6C198,293.5,193.3,294.8,188.5,294.7z M225.1,294.7c-2.3,0-4.6-0.4-6.8-1.3c-2.1-0.9-3.8-2.4-5-4.3
				c-1.4-2.5-2-5.3-1.9-8.1v-35.6c0-3.6-0.3-7.3-0.9-10.8c-0.5-3.2-1.9-6.1-4-8.5c-2-2.2-5.1-3.3-9.3-3.3c-2.5,0-4.9,0.3-7.3,0.8
				c-2.4,0.5-4.8,1.3-7.1,2.4c-2,1-3.8,2.3-5.3,4c-1.3,1.6-2,3.6-2,5.7h-3.7c-0.1-2.4,0.9-4.7,2.6-6.3c1.6-1.5,3.6-2.3,5.8-2.3
				c2.2,0,4.4,0.8,6.2,2.2c1.9,1.5,2.9,3.8,2.8,6.2c0,3.1-1,5.4-2.9,6.8c-1.7,1.4-3.9,2.1-6.1,2.1c-2.2,0.1-4.4-0.7-6.1-2.2
				c-1.6-1.5-2.5-3.6-2.5-6.4c0-2.4,0.8-4.8,2.4-6.6c1.8-2.1,4-3.8,6.4-5c2.9-1.5,5.9-2.5,9.1-3.2c3.4-0.8,6.9-1.1,10.4-1.1
				c7.2,0,12.6,1.3,16.2,3.8c3.4,2.3,6,5.7,7.2,9.6c1.2,4,1.8,8.1,1.8,12.2v38.6c0,1.5,0.3,3,0.9,4.4c0.6,1.2,1.9,1.8,3.8,1.8
				c1.6-0.1,3.2-0.7,4.5-1.7c1.6-1.1,2.9-2.6,3.8-4.3l1.5,2.8C236.5,291.9,230.9,294.8,225.1,294.7L225.1,294.7z"/>
			<path class="st1" d="M270.8,220.9v69.2h10.1v3.1h-34.1v-3.1H257V224h-10.2v-3.1H270.8z M318.6,243v47.1h10.3v3.1h-34.3v-3.1h10.2
				v-44.8c0-3.9-0.2-7.7-0.6-11.6c-0.2-2.8-1.1-5.4-2.6-7.8c-1.3-1.9-3.5-2.8-6.4-2.8c-3.9-0.1-7.8,1.1-11,3.5
				c-3.1,2.4-5.7,5.4-7.6,8.8c-2,3.6-3.5,7.4-4.4,11.3c-0.9,3.6-1.4,7.3-1.5,11.1l-2,0.4c0.1-4,0.5-7.9,1.4-11.8
				c0.9-4.5,2.5-8.8,4.6-12.8c2.1-4,5.1-7.5,8.7-10.2c3.7-2.7,8.3-4,13.8-4c6.1,0,10.6,1,13.7,3c3,1.9,5.2,4.9,6.1,8.4
				C318.2,234.8,318.7,238.9,318.6,243z"/>
			<path class="st1" d="M374.9,294.6c-5.5,0-10.9-1.6-15.6-4.5c-5.1-3.2-9.2-7.6-12-12.9c-3.1-5.6-4.7-12.3-4.7-20.2
				c0-7.8,1.6-14.6,4.7-20.2c2.8-5.3,7-9.8,12-13c4.7-2.9,10.1-4.5,15.6-4.5c6-0.1,11.9,2.3,16.1,6.6c4.3,4.4,7.3,10.3,9,17.8v-65.4
				h-10.3v-3.1h24.5v114.7h10.2v3.1H400v-22.8c-1.7,7.4-4.7,13.3-9,17.7C386.8,292.4,381,294.8,374.9,294.6z M377.7,290.4
				c4,0,7.9-1.4,11-3.9c3.7-3,6.5-6.9,8.2-11.3c2.1-4.9,3.1-10.9,3.1-18c0-7.1-1.1-13.1-3.2-18.1c-1.7-4.5-4.5-8.4-8.2-11.4
				c-3.1-2.5-7-3.9-11-3.9c-3.8-0.1-7.5,1.4-10.3,4c-2.8,2.7-4.9,6.5-6.4,11.5c-2.9,11.8-2.9,24.2,0,36c1.5,5,3.6,8.8,6.4,11.4
				C370.1,289.1,373.9,290.5,377.7,290.4z"/>
			<path class="st1" d="M474.2,294.7c-13.3,0.4-25.7-7-31.6-18.9c-5.9-11.8-5.9-25.7,0-37.5c2.8-5.6,7.2-10.3,12.5-13.7
				c5.4-3.4,11.8-5.1,19.1-5.1s13.8,1.7,19.1,5.1c5.3,3.4,9.6,8.1,12.4,13.7c5.8,11.8,5.8,25.7,0,37.5c-2.8,5.6-7.1,10.4-12.4,13.7
				C487.9,293,481.5,294.7,474.2,294.7z M474.2,291.6c4.2,0,7.7-1.1,10.3-3.3c2.7-2.3,4.8-5.2,6-8.5c1.4-3.6,2.4-7.4,2.8-11.3
				c1-7.7,1-15.4,0-23.1c-0.5-3.9-1.4-7.6-2.8-11.3c-1.2-3.3-3.3-6.2-6-8.5c-2.6-2.2-6-3.3-10.3-3.3s-7.7,1.1-10.3,3.3
				c-2.7,2.3-4.8,5.2-6,8.5c-1.4,3.6-2.4,7.4-2.9,11.3c-1,7.7-1,15.4,0,23.1c0.5,3.9,1.4,7.7,2.8,11.3c1.2,3.3,3.3,6.2,6,8.5
				C466.5,290.5,469.9,291.6,474.2,291.6z"/>
			<path class="st1" d="M549.5,191.6c-0.5,0.5-1.5,1.7-3.7,4.3c-2.7,3.3-4.8,4.9-6.4,4.9c-2.4,0-3.6-2.6-3.6-7.9
				c0-2.2,0.2-4.4,0.6-6.5v-0.1l0.1-0.1c15.4-18.1,23.3-30.7,23.3-37.4c0-2.9-1.2-4.2-3.6-4.2c-4,0-8.2,4.5-12.6,13.4
				c-1.4,2.9-2.7,5.9-3.8,9c-1.2,3.2-2.3,6.8-3.4,10.5l-0.1,0.4h-0.4c-2.1-0.1-4.2,0.5-5.8,1.7c-2.4,1.7-4.5,3.8-6.2,6.2
				c-2.2,2.7-3.9,5.7-5.2,8.9l-0.1,0.1c-0.3,0.4-0.7,0.9-1,1.2c-0.7,0.9-1.6,1.8-2.5,2.5c-2.3,1.9-4.4,2.9-6.2,2.9
				c-2.6,0-4-1.5-4-4.2c0-3.6,1.9-8.5,5.5-14.5c0.2-0.3,0.3-0.6,0.3-0.9c0-1.2-0.5-1.8-1.8-1.8c-0.5,0-0.9,0.2-1.2,0.5l-6,6.6
				c-2,2.2-3.6,4-4.9,5.4s-2,2.4-2.4,2.9l-1.8,2.4l2.4-7.5c0.2-0.2,0.3-0.5,0.3-0.8v-0.2v-0.1c0.6-1.9,1.1-3.6,1.6-4.9
				c0.5-1.3,0.9-2.7,1.1-4.1c0-0.1-0.1-0.1-0.2-0.1c-0.6,0-1.2,0.2-1.7,0.6c-0.9,0.6-1.1,1-1.2,1.1c-0.2,1-0.5,1.8-0.6,2.5l-0.4,2
				c-0.6,2.8-1.3,5.4-2,7.6l-0.1,0.1l-0.3,0.4c-0.5,0.7-1.1,1.4-1.7,2.1c-2.7,3-4.8,4.4-6.3,4.4c-3.5,0-3.5-5.7-3.5-7.6
				c0-5.1,0.8-9.1,2.4-11.7c0.3-0.5,0.8-0.8,1.3-0.9h0.2c0-0.1-0.1-0.1-0.1-0.2c-1-1.6-2.8-2.4-4.7-2.2c-0.5,0-1,0.1-1.5,0.2
				c-0.5,0.1-1,0.3-1.6,0.5c-3,1.1-6.1,4-9.2,8.6s-4.8,8.7-4.8,11.9c0,2,0.8,2.8,2.5,2.8c3.1,0,6.9-3.8,11.2-11.4l1.2-2.2l-0.3,2.5
				c-0.1,0.5-0.1,1-0.1,1.5s0,0.9,0,1.4c0,5.3,1.8,7.9,5.5,7.9c1.1,0,2.3-0.3,3.3-0.8c1.8-1.1,3.3-2.5,4.5-4.1l1.7-2l-0.8,2.5
				c-0.4,1.1-0.8,2.1-1.1,3c-0.1,0.2-0.2,0.4-0.2,0.6c0,0.3,0,1.2,0.4,1.3c0,0,0.2-0.2,0.5-0.7c2.3-3.5,4.8-6.8,7.4-10
				c2.2-2.7,4.6-5.2,7.2-7.5l2.2-2L506,185c-0.9,1.7-1.7,3.5-2.4,5.3c-0.7,1.9-1,3.9-1,5.9c0,4.4,1.7,6.5,5.1,6.5
				c3.1,0,6.3-1.7,9.3-5.1l1-1.2l-0.2,1.6c-0.1,0.4-0.1,0.9-0.1,1.4c0,2,0.8,2.8,2.5,2.8c3.2,0,7.4-4.5,12.4-13.3l1.5-2.6l-0.5,2.9
				c-0.4,1.8-0.5,3.7-0.6,5.6c0,4.9,1.5,7.2,4.6,7.2c3.7,0,7.6-3.2,11.5-9.6C549.3,192.1,549.4,191.8,549.5,191.6z M537.1,183.4
				c1.6-7.1,3.8-14.2,6.4-21c4.1-10.9,7.8-16.3,11.3-16.3c0.8,0,2.3,0.3,2.3,2.6c0,6.2-6.2,17.6-19.1,35l-1.4,1.9L537.1,183.4z
				 M477,189.1c-1.3,2.3-2.8,4.6-4.4,6.7c-0.9,1.2-1.9,2.4-3.1,3.4c-0.8,0.8-1.8,1.2-2.9,1.3c-0.7,0-1.9-0.3-1.9-2.6
				c0-3.2,2-7.3,6.1-12.1c2.8-3.4,5.7-5.2,8.5-5.2c0.3,0,0.7,0,1,0.1l0.5,0.2l-0.2,0.5C479.6,184.1,478.4,186.7,477,189.1z
				 M534.7,184.2c-0.7,1.6-1.5,3.1-2.4,4.6c-1,1.7-1.8,3.1-2.5,4.3c-0.5,0.9-1.1,1.8-1.8,2.6c-2.3,3.1-4.3,4.6-6,4.6
				c-0.7,0-2-0.4-2-2.7c0-2.8,1.6-6.4,4.7-10.5s6.1-6.3,8.9-6.3c0.5,0,1.2,0.1,1.5,0.4c0.2,0.1,0.4,0.4,0.3,0.6
				C535.3,182.7,535,183.5,534.7,184.2L534.7,184.2z"/>
		</g>
	</g>
</g>
</svg>
