<svg xmlns="http://www.w3.org/2000/svg" viewBox="0 0 299.88 26.23"><defs><style>.cls-1{fill:#f3f1e7;}</style></defs><g id="Layer_2" data-name="Layer 2"><g id="Layer_9" data-name="Layer 9"><path class="cls-1" d="M0,8H.68A19.88,19.88,0,0,1,.87,5.09a6.47,6.47,0,0,1,.68-2.2A3.31,3.31,0,0,1,3,1.49,5.3,5.3,0,0,1,5.4,1H8.81V25.23H5.06v.66H15.79v-.66H12V1h3.41a5.3,5.3,0,0,1,2.43.48,3.39,3.39,0,0,1,1.43,1.4A6.7,6.7,0,0,1,20,5.09,21.37,21.37,0,0,1,20.19,8h.66V.34H0Z"/><polygon class="cls-1" points="37.09 1.01 40.49 1.01 40.49 12.95 29.27 12.95 29.27 1.01 32.66 1.01 32.66 0.34 22.95 0.34 22.95 1.01 26.01 1.01 26.01 25.23 22.95 25.23 22.95 25.89 32.66 25.89 32.66 25.23 29.27 25.23 29.27 13.63 40.49 13.63 40.49 25.23 37.09 25.23 37.09 25.89 46.8 25.89 46.8 25.23 43.73 25.23 43.73 1.01 46.8 1.01 46.8 0.34 37.09 0.34 37.09 1.01"/><path class="cls-1" d="M66.21,22a4.63,4.63,0,0,1-1.89,2.42,6.7,6.7,0,0,1-3.66.85H55.23V13h2a3.9,3.9,0,0,1,1.74.38,2.76,2.76,0,0,1,1.2,1.12,3.74,3.74,0,0,1,.44,1.9h.66V9.1h-.66A3.49,3.49,0,0,1,60.19,11,2.63,2.63,0,0,1,59,12a4.19,4.19,0,0,1-1.74.34h-2V1H61a5.55,5.55,0,0,1,3.18.81,4.65,4.65,0,0,1,1.7,2.25,9.45,9.45,0,0,1,.52,3.26h.66v-7H48.91V1H52V25.23H48.91v.66H67.42V18.23h-.66A11.5,11.5,0,0,1,66.21,22Z"/><path class="cls-1" d="M104.22,1h3.19l-7,20.08L96.76,9.34,99.55,1h3V.34H78.24V1h3.24l7.83,25.22h.74L94.63,13.4l4,12.83h.73L108.15,1h2.73V.34h-6.66ZM98.77,1,96.39,8.16,94.19,1ZM91.12,21.09,84.88,1h5.9l3.49,11.24Z"/><path class="cls-1" d="M130,22a4.66,4.66,0,0,1-1.88,2.42,6.76,6.76,0,0,1-3.67.85H119V13h2a3.89,3.89,0,0,1,1.73.38,2.71,2.71,0,0,1,1.2,1.12,3.74,3.74,0,0,1,.44,1.9h.66V9.1h-.66A3.49,3.49,0,0,1,124,11,2.58,2.58,0,0,1,122.8,12a4.17,4.17,0,0,1-1.73.34h-2V1h5.79a5.55,5.55,0,0,1,3.18.81,4.53,4.53,0,0,1,1.7,2.25,9.45,9.45,0,0,1,.52,3.26h.67v-7H112.72V1h3.07V25.23h-3.07v.66h18.52V18.23h-.67A11.23,11.23,0,0,1,130,22Z"/><path class="cls-1" d="M149.87,2A12.29,12.29,0,0,0,143.33.34h-9.54V1h3.07V25.23h-3.07v.66h9.54a12.56,12.56,0,0,0,5-1,11.49,11.49,0,0,0,3.88-2.7,12.19,12.19,0,0,0,2.52-4.06,14.11,14.11,0,0,0,.89-5.05,14.11,14.11,0,0,0-1.49-6.53A11.39,11.39,0,0,0,149.87,2Zm1.38,15.59a13.1,13.1,0,0,1-1.39,3.89,7.5,7.5,0,0,1-2.58,2.72,7.27,7.27,0,0,1-3.95,1h-3.22V1h3.22a7,7,0,0,1,3.82,1,7.87,7.87,0,0,1,2.58,2.73,13.55,13.55,0,0,1,1.47,3.89,20.73,20.73,0,0,1,.48,4.49A22.87,22.87,0,0,1,151.25,17.61Z"/><path class="cls-1" d="M174.61,2A12.29,12.29,0,0,0,168.07.34h-9.54V1h3.06V25.23h-3.06v.66h9.54a12.55,12.55,0,0,0,5-1,11.39,11.39,0,0,0,3.88-2.7,12.38,12.38,0,0,0,2.53-4.06,14.11,14.11,0,0,0,.88-5.05,14.11,14.11,0,0,0-1.49-6.53A11.3,11.3,0,0,0,174.61,2ZM176,17.61a13.11,13.11,0,0,1-1.4,3.89A7.55,7.55,0,0,1,172,24.22a7.31,7.31,0,0,1-4,1h-3.22V1h3.22a7,7,0,0,1,3.81,1,7.7,7.7,0,0,1,2.58,2.73,13.27,13.27,0,0,1,1.48,3.89,21.37,21.37,0,0,1,.47,4.49A23.66,23.66,0,0,1,176,17.61Z"/><polygon class="cls-1" points="183.26 1.01 187.01 1.01 187.01 25.23 183.26 25.23 183.26 25.89 194.33 25.89 194.33 25.23 190.24 25.23 190.24 1.01 194.33 1.01 194.33 0.34 183.26 0.34 183.26 1.01"/><polygon class="cls-1" points="212.49 1.01 216.43 1.01 216.43 20.63 204.06 0.34 200.64 0.34 200.14 0.34 196.44 0.34 196.44 1.01 199.94 1.01 199.94 25.23 196.44 25.23 196.44 25.89 204.66 25.89 204.66 25.23 200.64 25.23 200.64 1.14 216.19 26.23 217.11 26.23 217.11 1.01 220.7 1.01 220.7 0.34 212.49 0.34 212.49 1.01"/><path class="cls-1" d="M236.9,16.56h3.6v5.07c-.08.19-.24.49-.46.92a7,7,0,0,1-1,1.33,5.61,5.61,0,0,1-1.71,1.18,6.25,6.25,0,0,1-2.64.49,5.74,5.74,0,0,1-3.56-1.05A7,7,0,0,1,229,21.65a15,15,0,0,1-1.11-4,32.21,32.21,0,0,1-.32-4.53A24.05,24.05,0,0,1,228,8.6a14.55,14.55,0,0,1,1.35-4,7.64,7.64,0,0,1,2.47-2.8,6.6,6.6,0,0,1,3.76-1,8,8,0,0,1,2.67.45,7.28,7.28,0,0,1,2.3,1.31,6.3,6.3,0,0,1,1.64,2.05,6.43,6.43,0,0,1,.68,2.72h.68v-7h-.59l-1.79,1.87a8.52,8.52,0,0,0-2.7-1.62A9.06,9.06,0,0,0,235.2,0a11.19,11.19,0,0,0-4.72,1,10.62,10.62,0,0,0-3.66,2.74,12.64,12.64,0,0,0-2.36,4.17,16,16,0,0,0-.83,5.24,16.54,16.54,0,0,0,1.3,6.74,10.71,10.71,0,0,0,3.76,4.67,10.31,10.31,0,0,0,6,1.7,10.1,10.1,0,0,0,3.66-.61,9.63,9.63,0,0,0,2.71-1.56,10.4,10.4,0,0,0,1.87-2,11.42,11.42,0,0,0,1.11-1.82V16.56h2.06v-.75H236.9Z"/><path class="cls-1" d="M276.14,3.83A10.38,10.38,0,0,0,272.7,1a10.42,10.42,0,0,0-8.95,0,10.28,10.28,0,0,0-3.44,2.82A13.51,13.51,0,0,0,258.1,8a16.51,16.51,0,0,0-.77,5.1,17.56,17.56,0,0,0,.72,5.1,13.09,13.09,0,0,0,2.13,4.18,9.94,9.94,0,0,0,3.43,2.82,11.07,11.07,0,0,0,9.24,0,9.81,9.81,0,0,0,3.42-2.82,12.88,12.88,0,0,0,2.12-4.18,17.23,17.23,0,0,0,.73-5.1,16.51,16.51,0,0,0-.77-5.1A13.1,13.1,0,0,0,276.14,3.83ZM275,17.67a15.47,15.47,0,0,1-1,4,6.86,6.86,0,0,1-2.12,2.87,6.64,6.64,0,0,1-7.2,0,6.69,6.69,0,0,1-2.12-2.87,15.47,15.47,0,0,1-1-4,38,38,0,0,1-.27-4.55,32.5,32.5,0,0,1,.31-4.55,16,16,0,0,1,1.09-4,7.13,7.13,0,0,1,2.14-2.86,6.13,6.13,0,0,1,6.92,0,7,7,0,0,1,2.13,2.86,16,16,0,0,1,1.08,4,32.5,32.5,0,0,1,.31,4.55A38,38,0,0,1,275,17.67Z"/><path class="cls-1" d="M282.05.34V1h3.06V25.23h-3.06v.66h9.71v-.66h-3.39V13.51h1.53a7,7,0,0,1,2.41.34,2.49,2.49,0,0,1,1.35,1.06,3.5,3.5,0,0,1,.43,1.85h.68v-7h-.68a3.3,3.3,0,0,1-.43,1.81,2.31,2.31,0,0,1-1.35,1,8,8,0,0,1-2.41.29h-1.53V1h5.43a5.55,5.55,0,0,1,3.18.81,4.6,4.6,0,0,1,1.71,2.25,9.44,9.44,0,0,1,.53,3.26h.66v-7Z"/></g></g></svg>