<svg xmlns="http://www.w3.org/2000/svg" viewBox="0 0 891.79 160.59"><defs><style>.cls-1{fill:#f3f1e7;}</style></defs><g id="Layer_2" data-name="Layer 2"><g id="Layer_9" data-name="Layer 9"><path class="cls-1" d="M0,49.66H4.15A124.59,124.59,0,0,1,5.29,31.93,40.14,40.14,0,0,1,9.43,18.51,20.38,20.38,0,0,1,18.09,10q5.65-2.94,14.77-2.95H53.6V154.47H30.79v4.05H96.11v-4.05H73.3V7.05H94q9.12,0,14.77,3a20.66,20.66,0,0,1,8.71,8.51,39.24,39.24,0,0,1,4.2,13.42,124.59,124.59,0,0,1,1.14,17.73h4.05V3H0Z"/><polygon class="cls-1" points="139.65 7.05 162.46 7.05 162.46 154.47 139.65 154.47 139.65 158.52 207.03 158.52 207.03 154.47 182.15 154.47 182.15 7.05 207.03 7.05 207.03 3.01 139.65 3.01 139.65 7.05"/><path class="cls-1" d="M348.86,49.66V3H222V49.66h4.15a124.59,124.59,0,0,1,1.14-17.73,39.91,39.91,0,0,1,4.15-13.42A20.3,20.3,0,0,1,240.05,10q5.65-2.94,14.78-2.95h20.73V154.47H252.75v4.05h65.32v-4.05H295.26V7.05H316q9.12,0,14.78,3a20.64,20.64,0,0,1,8.7,8.51,39.24,39.24,0,0,1,4.2,13.42,124.59,124.59,0,0,1,1.14,17.73Z"/><path class="cls-1" d="M421.43,0h-4.25L362.85,154.47h-19v4.05H389.5v-4.05h-22l15.53-44.58h54.77l14.4,44.58H431v4.05H491.1v-4.05H474.92Zm-37,105.85,27-77.55,25,77.55Z"/><polygon class="cls-1" points="601.61 7.05 625.56 7.05 625.56 126.48 550.29 3.01 529.45 3.01 526.45 3.01 503.95 3.01 503.95 7.05 525.2 7.05 525.2 154.47 503.95 154.47 503.95 158.52 553.92 158.52 553.92 154.47 529.45 154.47 529.45 7.86 624.11 160.59 629.71 160.59 629.71 7.05 651.58 7.05 651.58 3.01 601.61 3.01 601.61 7.05"/><polygon class="cls-1" points="664.33 7.05 687.14 7.05 687.14 154.47 664.33 154.47 664.33 158.52 731.72 158.52 731.72 154.47 706.84 154.47 706.84 7.05 731.72 7.05 731.72 3.01 664.33 3.01 664.33 7.05"/><path class="cls-1" d="M875.62,154.47,822.12,0h-4.25L763.55,154.47h-19v4.05h45.62v-4.05h-22l15.53-44.58h54.78l14.39,44.58H831.66v4.05h60.13v-4.05Zm-90.47-48.62,27-77.55,25,77.55Z"/></g></g></svg>