<svg xmlns="http://www.w3.org/2000/svg" viewBox="0 0 767.42 66.99"><defs><style>.cls-1{fill:#f3f1e7;}</style></defs><g id="Layer_2" data-name="Layer 2"><g id="Layer_5" data-name="Layer 5"><path class="cls-1" d="M14.7,76.12V74.43h9.57V12.57H17.62a12.58,12.58,0,0,0-6.09,1.35,10.62,10.62,0,0,0-4,3.85,20.25,20.25,0,0,0-2.37,5.92A46.43,46.43,0,0,0,4,31.23H2.26V10.88H57.68V31.23H56a42.53,42.53,0,0,0-1.1-7.54,20.56,20.56,0,0,0-2.42-5.92,10.82,10.82,0,0,0-4-3.85,12.58,12.58,0,0,0-6.11-1.35H35.67V74.43h9.57v1.69Z" transform="translate(-2.26 -10)"/><path class="cls-1" d="M85.65,36.11V74.43h5.79v1.69h-22V74.43h5.78V37.8H69.43V36.11ZM80.43,23.23a6.52,6.52,0,0,1-6.52-6.53,6.23,6.23,0,0,1,1.91-4.65A6.51,6.51,0,0,1,87,16.7a6.41,6.41,0,0,1-1.87,4.62A6.27,6.27,0,0,1,80.43,23.23Z" transform="translate(-2.26 -10)"/><path class="cls-1" d="M101.79,37.8V36.11h25.66V37.8Zm15.57,38.93a10.23,10.23,0,0,1-6-1.48,7.38,7.38,0,0,1-2.83-3.89,17.11,17.11,0,0,1-.76-5.2V27.41a23.18,23.18,0,0,0,5.54-.74,17.73,17.73,0,0,0,4.86-1.88v43a9.15,9.15,0,0,0,.78,4.5,2.87,2.87,0,0,0,2.65,1.24,5.84,5.84,0,0,0,3.87-1.7,12.89,12.89,0,0,0,3.13-4.3l1.48.82a15.46,15.46,0,0,1-4.76,6A12.77,12.77,0,0,1,117.36,76.73Z" transform="translate(-2.26 -10)"/><path class="cls-1" d="M154,77q-5.66,0-9-2.9a9.8,9.8,0,0,1-3.38-7.85,10.43,10.43,0,0,1,5-9.16q5-3.31,14.29-3.32h10.13v1.48H162.6A9.34,9.34,0,0,0,157,56.79a9.05,9.05,0,0,0-3.11,3.85,11.68,11.68,0,0,0-1,4.57,12.75,12.75,0,0,0,.59,3.91,6.55,6.55,0,0,0,1.85,3,4.59,4.59,0,0,0,3.17,1.13,6.87,6.87,0,0,0,4.05-1.41,10.22,10.22,0,0,0,3.22-4.29A18.11,18.11,0,0,0,167,60.25h1a21.64,21.64,0,0,1-1.67,8.81A12.78,12.78,0,0,1,154,77Zm21.88,0a12.65,12.65,0,0,1-4.5-.77,6.6,6.6,0,0,1-3.2-2.45A7.69,7.69,0,0,1,167,69.34V49.63a30.77,30.77,0,0,0-.57-6,9.32,9.32,0,0,0-2.28-4.7,6.81,6.81,0,0,0-5.2-1.82,20.47,20.47,0,0,0-4,.41,15.39,15.39,0,0,0-4,1.33,9.21,9.21,0,0,0-3,2.3,5.1,5.1,0,0,0-1.17,3.39h-2a5,5,0,0,1,1.8-4A6.23,6.23,0,0,1,150.73,39a7.21,7.21,0,0,1,4.35,1.39,4.66,4.66,0,0,1,1.91,4,5,5,0,0,1-2,4.33,7.19,7.19,0,0,1-4.3,1.41,6.41,6.41,0,0,1-4.33-1.46,5.08,5.08,0,0,1-1.72-4.11,6.15,6.15,0,0,1,1.39-4,10.89,10.89,0,0,1,3.72-2.85A21.89,21.89,0,0,1,155,36a28.41,28.41,0,0,1,5.83-.59q6.39,0,10,2a11.24,11.24,0,0,1,5.07,5.19,17,17,0,0,1,1.48,7.07v21.1a5.09,5.09,0,0,0,.54,2.44,2.23,2.23,0,0,0,2.15,1,5.16,5.16,0,0,0,2.55-.87,6,6,0,0,0,2.28-2.48l.92,1.26A8.6,8.6,0,0,1,182,75.65,13.14,13.14,0,0,1,175.91,77Z" transform="translate(-2.26 -10)"/><path class="cls-1" d="M211.62,36.11V74.43h5v1.69H195.49V74.43h5.83V37.8h-5.83V36.11Zm26.54,12.22v26.1H244v1.69h-21.1V74.43h5V49.5a47.2,47.2,0,0,0-.33-6.11,7.53,7.53,0,0,0-1.3-3.7,3.63,3.63,0,0,0-3-1.24,7.9,7.9,0,0,0-5.07,1.72,14,14,0,0,0-3.61,4.46,23.79,23.79,0,0,0-2.18,5.92,27.44,27.44,0,0,0-.72,6.09l-1.21.17a33.77,33.77,0,0,1,.74-6.72A27,27,0,0,1,213.63,43a15.39,15.39,0,0,1,4.76-5.57,12.8,12.8,0,0,1,7.68-2.17c3.3,0,5.83.56,7.57,1.67a8.43,8.43,0,0,1,3.56,4.64A21.8,21.8,0,0,1,238.16,48.33Z" transform="translate(-2.26 -10)"/><path class="cls-1" d="M272.18,36.11V74.43H278v1.69H256V74.43h5.79V37.8H256V36.11ZM267,23.23a6.52,6.52,0,0,1-6.53-6.53,6.27,6.27,0,0,1,1.91-4.65,6.51,6.51,0,0,1,11.14,4.65,6.37,6.37,0,0,1-1.87,4.62A6.27,6.27,0,0,1,267,23.23Z" transform="translate(-2.26 -10)"/><path class="cls-1" d="M302.67,77q-5.66,0-9-2.9a9.79,9.79,0,0,1-3.37-7.85,10.43,10.43,0,0,1,5-9.16q5-3.31,14.28-3.32h10.14v1.48h-8.48a9.34,9.34,0,0,0-5.61,1.54,9.05,9.05,0,0,0-3.11,3.85,11.51,11.51,0,0,0-1,4.57,12.75,12.75,0,0,0,.58,3.91,6.64,6.64,0,0,0,1.85,3,4.6,4.6,0,0,0,3.18,1.13,6.82,6.82,0,0,0,4-1.41,10.14,10.14,0,0,0,3.22-4.29,18.1,18.1,0,0,0,1.27-7.26h1A21.47,21.47,0,0,1,315,69.06,12.75,12.75,0,0,1,302.67,77Zm21.88,0a12.65,12.65,0,0,1-4.5-.77,6.55,6.55,0,0,1-3.2-2.45,7.69,7.69,0,0,1-1.17-4.44V49.63a30.77,30.77,0,0,0-.57-6,9.4,9.4,0,0,0-2.28-4.7,6.81,6.81,0,0,0-5.2-1.82,20.64,20.64,0,0,0-4,.41,15.45,15.45,0,0,0-4,1.33,9.11,9.11,0,0,0-3,2.3,5.1,5.1,0,0,0-1.17,3.39H293.4a5,5,0,0,1,1.81-4A6.22,6.22,0,0,1,299.36,39a7.17,7.17,0,0,1,4.35,1.39,4.64,4.64,0,0,1,1.92,4,5,5,0,0,1-2,4.33,7.22,7.22,0,0,1-4.31,1.41A6.43,6.43,0,0,1,295,48.65a5.1,5.1,0,0,1-1.71-4.11,6.15,6.15,0,0,1,1.39-4,10.89,10.89,0,0,1,3.72-2.85,21.89,21.89,0,0,1,5.2-1.71,28.31,28.31,0,0,1,5.82-.59q6.41,0,10,2a11.24,11.24,0,0,1,5.07,5.19A17,17,0,0,1,326,49.63v21.1a5.09,5.09,0,0,0,.55,2.44,2.23,2.23,0,0,0,2.15,1,5.19,5.19,0,0,0,2.55-.87,6,6,0,0,0,2.28-2.48l.91,1.26a8.53,8.53,0,0,1-3.76,3.57A13.14,13.14,0,0,1,324.55,77Z" transform="translate(-2.26 -10)"/><path class="cls-1" d="M393.28,77A26.37,26.37,0,0,1,383,75.1a16.18,16.18,0,0,1-7.07-5.46,14.26,14.26,0,0,1-2.56-8.57,13.18,13.18,0,0,1,1.76-6.8,20.22,20.22,0,0,1,4.48-5.33A35.59,35.59,0,0,1,385.23,45a56.63,56.63,0,0,1,5.29-2.65c1.58-.68,2.7-1.18,3.37-1.5l.65,1.26a29.29,29.29,0,0,0-6.31,4.48,16.3,16.3,0,0,0-4,5.87,22.46,22.46,0,0,0-1.34,8.22,13,13,0,0,0,1,5,13.7,13.7,0,0,0,7.24,7.35,13.84,13.84,0,0,0,5.59,1.11A21.09,21.09,0,0,0,406.11,72a30.44,30.44,0,0,0,8.2-5.89,42.64,42.64,0,0,0,6.63-8.57,52.23,52.23,0,0,0,4.68-10.22A49,49,0,0,0,428,36.54h1.74A53.65,53.65,0,0,1,427,48.18a54.35,54.35,0,0,1-5.26,11,45.71,45.71,0,0,1-7.55,9.2,33.9,33.9,0,0,1-9.57,6.33A27.92,27.92,0,0,1,393.28,77Zm23.14-.88L387.62,33.5A26.87,26.87,0,0,1,384.77,28a15.15,15.15,0,0,1-1.15-5.26A10.71,10.71,0,0,1,385.88,16a14.36,14.36,0,0,1,6.22-4.41,24.63,24.63,0,0,1,9-1.55,23,23,0,0,1,8.37,1.44,14,14,0,0,1,5.87,4,9.19,9.19,0,0,1,2.16,6.07,12.44,12.44,0,0,1-1.37,6,14.31,14.31,0,0,1-3.76,4.37,35.39,35.39,0,0,1-5.49,3.48l-6.52,3.39-1-1.17a29.1,29.1,0,0,0,4.35-3.42,17.69,17.69,0,0,0,3.81-5.28,17.28,17.28,0,0,0,1.54-7.61,15.77,15.77,0,0,0-.65-4.38,8.36,8.36,0,0,0-2.37-3.87,7.09,7.09,0,0,0-5-1.59,9.57,9.57,0,0,0-5.31,1.29,7.17,7.17,0,0,0-2.8,3.35,11.27,11.27,0,0,0-.85,4.37A13.51,13.51,0,0,0,393.71,26a64.42,64.42,0,0,0,4.35,7.46l27.1,40.93h11.62v1.69Zm.78-38.32V36.11h20.88V37.8Z" transform="translate(-2.26 -10)"/><path class="cls-1" d="M487.54,10.88V74.43h10.14v1.69H476.84V74.43h8.92V12.57h-8.92V10.88Zm52.55,0v1.69H531V77h-2.4L486.28,10.88h13.66l29.23,46.54V12.57H519.3V10.88Z" transform="translate(-2.26 -10)"/><path class="cls-1" d="M564.49,77c-3.77,0-6.77-1-9-2.9a9.79,9.79,0,0,1-3.37-7.85,10.42,10.42,0,0,1,5-9.16q5-3.31,14.29-3.32h10.14v1.48h-8.49a9.34,9.34,0,0,0-5.61,1.54,9.05,9.05,0,0,0-3.11,3.85,11.68,11.68,0,0,0-1,4.57,12.75,12.75,0,0,0,.59,3.91,6.55,6.55,0,0,0,1.85,3A4.6,4.6,0,0,0,569,73.21a6.82,6.82,0,0,0,4-1.41,10.14,10.14,0,0,0,3.22-4.29,18.11,18.11,0,0,0,1.26-7.26h1a21.47,21.47,0,0,1-1.67,8.81A12.78,12.78,0,0,1,564.49,77Zm21.89,0a12.66,12.66,0,0,1-4.51-.77,6.53,6.53,0,0,1-3.19-2.45,7.61,7.61,0,0,1-1.18-4.44V49.63a31.57,31.57,0,0,0-.56-6,9.33,9.33,0,0,0-2.29-4.7,6.8,6.8,0,0,0-5.2-1.82,20.62,20.62,0,0,0-4,.41,15.39,15.39,0,0,0-4,1.33,9.07,9.07,0,0,0-3,2.3,5.11,5.11,0,0,0-1.18,3.39h-2a5,5,0,0,1,1.8-4A6.25,6.25,0,0,1,561.19,39a7.21,7.21,0,0,1,4.35,1.39,4.66,4.66,0,0,1,1.91,4,5,5,0,0,1-2,4.33,7.19,7.19,0,0,1-4.3,1.41,6.43,6.43,0,0,1-4.33-1.46,5.08,5.08,0,0,1-1.72-4.11,6.21,6.21,0,0,1,1.39-4,10.89,10.89,0,0,1,3.72-2.85,22,22,0,0,1,5.2-1.71,28.48,28.48,0,0,1,5.83-.59q6.39,0,10,2a11.14,11.14,0,0,1,5.07,5.19,16.8,16.8,0,0,1,1.48,7.07v21.1a5.09,5.09,0,0,0,.54,2.44,2.25,2.25,0,0,0,2.16,1,5.16,5.16,0,0,0,2.54-.87,6.11,6.11,0,0,0,2.29-2.48l.91,1.26a8.58,8.58,0,0,1-3.76,3.57A13.2,13.2,0,0,1,586.38,77Z" transform="translate(-2.26 -10)"/><path class="cls-1" d="M622.09,36.11V74.43h5v1.69H606V74.43h5.83V37.8H606V36.11Zm26.53,12.22v26.1h5.79v1.69h-21.1V74.43h5V49.5a49.3,49.3,0,0,0-.32-6.11,7.62,7.62,0,0,0-1.31-3.7,3.63,3.63,0,0,0-3-1.24,7.93,7.93,0,0,0-5.07,1.72A14.11,14.11,0,0,0,625,44.63a23.38,23.38,0,0,0-2.17,5.92,27.44,27.44,0,0,0-.72,6.09l-1.22.17a34.53,34.53,0,0,1,.74-6.72A27,27,0,0,1,624.09,43a15.48,15.48,0,0,1,4.76-5.57,12.84,12.84,0,0,1,7.68-2.17q5,0,7.57,1.67a8.44,8.44,0,0,1,3.57,4.64A22.12,22.12,0,0,1,648.62,48.33Z" transform="translate(-2.26 -10)"/><path class="cls-1" d="M685.34,77a16.77,16.77,0,0,1-8.75-2.48,18.74,18.74,0,0,1-6.72-7.13,22.73,22.73,0,0,1-2.59-11.18A22.86,22.86,0,0,1,669.87,45a18.89,18.89,0,0,1,6.72-7.18,16.61,16.61,0,0,1,8.75-2.5,12.06,12.06,0,0,1,8.85,3.52,19.23,19.23,0,0,1,4.93,9.66V12.57H693.3V10.88h16.31V74.43h5.78v1.69H699.12V63.86a18.93,18.93,0,0,1-4.93,9.61A12.15,12.15,0,0,1,685.34,77Zm2.43-2.61a8.53,8.53,0,0,0,5.44-2.11,15,15,0,0,0,4.26-6.15,26.35,26.35,0,0,0,1.65-9.92,26.61,26.61,0,0,0-1.65-10,15,15,0,0,0-4.26-6.2,8.53,8.53,0,0,0-5.44-2.11,6.25,6.25,0,0,0-4.74,2A13.4,13.4,0,0,0,680.14,46a43.78,43.78,0,0,0-1,10.12,43.38,43.38,0,0,0,1,10.09A13.18,13.18,0,0,0,683,72.32,6.27,6.27,0,0,0,687.77,74.34Z" transform="translate(-2.26 -10)"/><path class="cls-1" d="M749,77a20.46,20.46,0,0,1-11-2.88,19.67,19.67,0,0,1-7.16-7.61,22.7,22.7,0,0,1,0-20.79A19.55,19.55,0,0,1,738,38.13a22.75,22.75,0,0,1,22,0,19.55,19.55,0,0,1,7.16,7.59,22.7,22.7,0,0,1,0,20.79A19.67,19.67,0,0,1,760,74.12,20.45,20.45,0,0,1,749,77Zm0-1.7a6.8,6.8,0,0,0,4.69-1.63,10.71,10.71,0,0,0,2.85-4.4A27.44,27.44,0,0,0,758,63.08a59.53,59.53,0,0,0,0-13.95A27.51,27.51,0,0,0,756.52,43a10.78,10.78,0,0,0-2.85-4.4,7.52,7.52,0,0,0-9.35,0,11,11,0,0,0-2.87,4.4A26,26,0,0,0,740,49.13a62.57,62.57,0,0,0,0,13.95,25.91,25.91,0,0,0,1.44,6.19,11,11,0,0,0,2.87,4.4A6.77,6.77,0,0,0,749,75.3Z" transform="translate(-2.26 -10)"/></g></g></svg>