<?xml version="1.0" encoding="utf-8"?>
<!-- Generator: Adobe Illustrator 25.4.1, SVG Export Plug-In . SVG Version: 6.00 Build 0)  -->
<svg version="1.1" id="Layer_1" xmlns="http://www.w3.org/2000/svg" xmlns:xlink="http://www.w3.org/1999/xlink" x="0px" y="0px"
	 viewBox="0 0 767.4 67" style="enable-background:new 0 0 767.4 67;" xml:space="preserve">
<style type="text/css">
	.st0{fill:#F3F1E7;}
</style>
<g>
	
		<image style="overflow:visible;opacity:0.5;" width="733" height="71" xlink:href="8AA6633E.png"  transform="matrix(1 0 0 1 19 -1.000214e-02)">
	</image>
	<g>
		<g>
			<path class="st0" d="M20.7,21.9h1.6c0.2-2.4,0.5-4.8,1.1-7.1c0.4-2,1.2-3.9,2.2-5.6c0.9-1.5,2.2-2.8,3.8-3.6
				c1.8-0.9,3.8-1.3,5.8-1.3h6.3v58.5h-9.1v1.6h28.9v-1.6h-9.1V4.2h6.3c2-0.1,4,0.4,5.8,1.3c1.6,0.9,2.9,2.1,3.8,3.6
				c1.1,1.7,1.8,3.6,2.3,5.6c0.6,2.3,0.9,4.7,1,7.1h1.6V2.6H20.7V21.9z"/>
			<polygon class="st0" points="99.6,26.5 84.2,26.5 84.2,28.1 89.7,28.1 89.7,62.8 84.2,62.8 84.2,64.4 105.1,64.4 105.1,62.8 
				99.6,62.8 			"/>
			<path class="st0" d="M94.6,14.3c1.7,0.1,3.3-0.6,4.4-1.8c1.2-1.2,1.8-2.7,1.8-4.4c0-1.7-0.6-3.3-1.9-4.5
				c-2.4-2.4-6.3-2.3-8.7,0.1c-1.2,1.1-1.8,2.7-1.8,4.4c0,0,0,0,0,0C88.5,11.6,91.2,14.3,94.6,14.3z"/>
			<path class="st0" d="M137.2,60.3c-1,1-2.3,1.5-3.7,1.6c-1,0.1-1.9-0.4-2.5-1.2c-0.6-1.3-0.9-2.8-0.7-4.3V28.1h8.8v-1.6h-8.8V15.8
				c-1.4,0.8-3,1.4-4.6,1.8c-1.7,0.4-3.5,0.7-5.2,0.7v8.2h-5.7v1.6h5.7v26.8c0,1.7,0.2,3.3,0.7,4.9c0.5,1.5,1.4,2.8,2.7,3.7
				c1.7,1,3.7,1.5,5.7,1.4c2.7,0.1,5.3-0.7,7.5-2.3c2-1.5,3.5-3.4,4.5-5.7l-1.4-0.8C139.5,57.8,138.5,59.2,137.2,60.3z"/>
			<path class="st0" d="M191.3,61.7c-0.7,0.5-1.5,0.8-2.4,0.8c-0.8,0.1-1.6-0.3-2-0.9c-0.4-0.7-0.5-1.5-0.5-2.3v-20
				c0-2.3-0.5-4.6-1.4-6.7c-1-2.1-2.7-3.8-4.8-4.9c-2.3-1.3-5.4-1.9-9.5-1.9c-1.9,0-3.7,0.2-5.5,0.6c-1.7,0.3-3.4,0.9-5,1.6
				c-1.4,0.6-2.6,1.6-3.5,2.7c-0.9,1.1-1.3,2.4-1.3,3.8c-0.1,1.5,0.5,2.9,1.6,3.9c1.1,0.9,2.6,1.4,4.1,1.4c1.5,0,2.9-0.5,4.1-1.3
				c1.3-1,2-2.5,1.9-4.1c0.1-1.5-0.6-2.9-1.8-3.8c-1.2-0.9-2.6-1.3-4.1-1.3c0,0,0,0-0.1,0c0.1,0,0.2-0.1,0.3-0.1
				c1.2-0.6,2.5-1,3.8-1.3c1.2-0.3,2.5-0.4,3.8-0.4c1.8-0.1,3.6,0.5,4.9,1.7c1.1,1.2,1.9,2.8,2.2,4.4c0.4,1.9,0.5,3.8,0.5,5.7v3.9
				h-5.8c-5.9,0-10.4,1.1-13.5,3.1c-3,1.8-4.8,5.1-4.7,8.7c-0.1,2.8,1.1,5.6,3.2,7.4c2.1,1.8,4.9,2.7,8.5,2.7
				c5.1,0.2,9.7-2.8,11.7-7.5c0.2-0.6,0.4-1.2,0.6-1.8v2c-0.1,1.5,0.3,2.9,1.1,4.2c0.7,1.1,1.8,1.9,3,2.3c1.4,0.5,2.8,0.7,4.3,0.7h0
				c2,0,4-0.4,5.8-1.3c1.5-0.7,2.8-1.9,3.6-3.3l-0.9-1.2C193,60.4,192.2,61.2,191.3,61.7z M175.4,56.3c-0.6,1.6-1.7,3-3,4.1
				c-1.1,0.8-2.4,1.3-3.8,1.3c-1.1,0-2.2-0.3-3-1.1c-0.8-0.8-1.4-1.8-1.8-2.8c-0.4-1.2-0.6-2.4-0.6-3.7c0-1.5,0.3-3,0.9-4.3
				c0.6-1.5,1.6-2.7,2.9-3.6c1.6-1,3.4-1.5,5.3-1.5h4.2v4.7C176.6,51.7,176.2,54.1,175.4,56.3z"/>
			<path class="st0" d="M243.9,38.1c0-2.2-0.3-4.3-0.9-6.4c-0.6-1.8-1.8-3.4-3.4-4.4c-1.6-1.1-4-1.6-7.2-1.6
				c-2.6-0.1-5.1,0.6-7.3,2.1c-1.9,1.4-3.4,3.2-4.5,5.3c-0.8,1.6-1.4,3.3-1.9,5V26.5h-15.3v1.6h5.5v34.7h-5.5v1.6h20v-1.6h-4.7V45.9
				l0.1,0c0-1.9,0.2-3.9,0.7-5.8c0.4-2,1.1-3.8,2.1-5.6c0.8-1.6,2-3.1,3.4-4.2c1.4-1.1,3.1-1.7,4.8-1.6c1.1-0.1,2.1,0.4,2.8,1.2
				c0.7,1,1.1,2.2,1.2,3.5c0.2,1.9,0.3,3.8,0.3,5.8v23.6h-4.7v1.6h20v-1.6h-5.5V38.1z"/>
			<polygon class="st0" points="276.1,26.5 260.7,26.5 260.7,28.1 266.2,28.1 266.2,62.8 260.7,62.8 260.7,64.4 281.6,64.4 
				281.6,62.8 276.1,62.8 			"/>
			<path class="st0" d="M271.2,14.3c1.7,0,3.2-0.6,4.4-1.8c1.2-1.2,1.8-2.7,1.8-4.4c0-1.7-0.6-3.3-1.8-4.5c-2.4-2.4-6.3-2.4-8.7,0.1
				c-1.2,1.2-1.8,2.7-1.8,4.4c0,0,0,0,0,0C265,11.6,267.7,14.3,271.2,14.3z"/>
			<path class="st0" d="M331.9,61.7c-0.7,0.5-1.5,0.8-2.4,0.8c-0.8,0.1-1.6-0.3-2-0.9c-0.4-0.7-0.5-1.5-0.5-2.3v-20
				c0-2.3-0.5-4.6-1.4-6.7c-1-2.1-2.7-3.8-4.8-4.9c-2.3-1.3-5.4-1.9-9.5-1.9c-1.8,0-3.7,0.2-5.5,0.6c-1.7,0.3-3.4,0.9-4.9,1.6
				c-1.4,0.6-2.6,1.6-3.5,2.7c-0.9,1.1-1.3,2.4-1.3,3.8c-0.1,1.5,0.5,2.9,1.6,3.9c1.1,1,2.6,1.4,4.1,1.4c1.5,0,2.9-0.5,4.1-1.3
				c1.3-1,2-2.5,1.9-4.1c0.1-1.5-0.6-2.9-1.8-3.8c-1.2-0.9-2.6-1.3-4.1-1.3c0,0,0,0,0,0c0.1,0,0.2-0.1,0.3-0.1
				c1.2-0.6,2.5-1,3.8-1.3c1.2-0.3,2.5-0.4,3.8-0.4c1.8-0.1,3.6,0.5,4.9,1.7c1.1,1.2,1.9,2.8,2.2,4.4c0.4,1.9,0.5,3.8,0.5,5.7v3.9
				h-5.8c-5.9,0-10.4,1.1-13.5,3.1c-3,1.8-4.8,5.1-4.7,8.7c-0.1,2.8,1,5.6,3.2,7.4c2.1,1.8,4.9,2.7,8.5,2.7
				c5.1,0.2,9.8-2.8,11.7-7.5c0.2-0.6,0.5-1.2,0.6-1.8v2.1c-0.1,1.5,0.3,2.9,1.1,4.2c0.7,1.1,1.8,1.9,3,2.3c1.4,0.5,2.8,0.7,4.3,0.7
				c2,0,4-0.4,5.8-1.3c1.5-0.7,2.8-1.9,3.6-3.4l-0.9-1.2C333.6,60.3,332.9,61.1,331.9,61.7z M317.2,49.4c0.1,2.3-0.3,4.7-1.2,6.9
				c-0.6,1.6-1.7,3-3,4.1c-1.1,0.8-2.4,1.3-3.8,1.3c-1.1,0-2.2-0.3-3-1.1c-0.8-0.8-1.4-1.8-1.8-2.8c-0.4-1.2-0.6-2.4-0.5-3.7
				c0-1.5,0.3-3,0.9-4.3c0.6-1.5,1.6-2.7,2.9-3.6c1.6-1,3.4-1.5,5.3-1.5h4.2L317.2,49.4L317.2,49.4z"/>
			<path class="st0" d="M413.3,28.1h10.1c-0.4,3.1-1.1,6.1-2.1,9c-1.1,3.4-2.6,6.6-4.4,9.7c-1,1.7-2.1,3.3-3.4,4.8l-15.2-23l5.3-2.8
				c1.8-0.9,3.6-2,5.2-3.3c1.5-1.1,2.7-2.5,3.6-4.1c0.9-1.8,1.3-3.7,1.3-5.7c0-2.1-0.7-4.1-2-5.7c-1.5-1.7-3.4-3-5.6-3.8
				c-2.5-0.9-5.2-1.4-7.9-1.4c-2.9,0-5.8,0.5-8.5,1.5c-2.3,0.8-4.3,2.3-5.9,4.2c-1.4,1.8-2.2,4.1-2.1,6.4c0.1,1.7,0.4,3.4,1.1,5
				c0.7,1.8,1.6,3.6,2.7,5.2l5,7.4c-0.6,0.3-1.3,0.6-2.2,1c-1.7,0.7-3.4,1.6-5,2.5c-1.9,1.1-3.7,2.3-5.3,3.7c-1.7,1.4-3.1,3.1-4.2,5
				c-1.1,2-1.7,4.2-1.7,6.4c-0.1,2.9,0.8,5.7,2.4,8.1c1.7,2.3,4,4.1,6.7,5.2c3.1,1.2,6.4,1.9,9.7,1.8c3.7,0,7.3-0.7,10.7-2.2
				c2.6-1.1,5-2.7,7.3-4.4l3.9,5.8l19.3,0v-1.6h-11l-6.5-9.8c1.2-1.4,2.3-3,3.3-4.6c2-3.3,3.7-6.8,5-10.4c1.1-3.2,1.9-6.5,2.4-9.8
				h8.1v-1.6h-19.8V28.1z M390.3,7.6c0.5-1.3,1.5-2.4,2.6-3.2c1.5-0.9,3.3-1.3,5-1.2c1.7-0.1,3.4,0.4,4.7,1.5c1.1,1,1.8,2.3,2.2,3.7
				c0.4,1.3,0.6,2.7,0.6,4.1c0.1,2.5-0.4,4.9-1.5,7.2c-0.9,1.9-2.1,3.6-3.6,5c-1,0.9-2.1,1.8-3.2,2.6l-2.2-3.3
				c-1.5-2.3-2.9-4.6-4.1-7.1c-0.9-1.6-1.4-3.4-1.5-5.2C389.5,10.3,389.8,8.9,390.3,7.6z M402.8,60.5c-2.8,1.4-5.8,2-8.9,2
				c-1.8,0-3.6-0.3-5.3-1.1c-3.1-1.3-5.6-3.8-6.8-7c-0.6-1.5-0.9-3.1-0.9-4.7c-0.1-2.6,0.4-5.3,1.3-7.8c0.8-2.1,2.1-4,3.8-5.6
				c1.6-1.5,3.3-2.7,5.2-3.8l16.7,24.7C406.2,58.5,404.5,59.6,402.8,60.5z"/>
			<polygon class="st0" points="509.9,4.2 519.2,4.2 519.2,46.7 491.5,2.6 479.8,2.6 478.6,2.6 469.7,2.6 469.7,4.2 478.1,4.2 
				478.1,62.8 469.7,62.8 469.7,64.4 489.4,64.4 489.4,62.8 479.8,62.8 479.8,4.5 518.7,65.2 520.9,65.2 520.9,4.2 529.5,4.2 
				529.5,2.6 509.9,2.6 			"/>
			<path class="st0" d="M579.6,61.7c-0.7,0.5-1.5,0.8-2.4,0.8c-0.8,0.1-1.6-0.3-2-0.9c-0.4-0.7-0.5-1.5-0.5-2.3v-20
				c0-2.3-0.5-4.6-1.4-6.7c-1-2.1-2.7-3.9-4.8-4.9c-2.3-1.3-5.4-1.9-9.5-1.9c-1.9,0-3.7,0.2-5.5,0.6c-1.7,0.3-3.4,0.9-4.9,1.6
				c-1.4,0.6-2.6,1.6-3.5,2.7c-0.9,1.1-1.3,2.4-1.3,3.8c-0.1,1.5,0.5,2.9,1.6,3.9c1.2,0.9,2.6,1.4,4.1,1.4c1.5,0,2.9-0.5,4.1-1.3
				c1.3-1,2-2.5,1.9-4.1c0.1-1.5-0.6-2.9-1.8-3.8c-1.2-0.9-2.6-1.3-4.1-1.3c0,0,0,0,0,0c0.1,0,0.2-0.1,0.3-0.1
				c1.2-0.6,2.5-1,3.8-1.3c1.2-0.3,2.5-0.4,3.8-0.4c1.8-0.1,3.6,0.5,4.9,1.7c1.1,1.2,1.9,2.8,2.2,4.4c0.4,1.9,0.5,3.8,0.5,5.7v3.9
				h-5.8c-5.9,0-10.4,1.1-13.5,3.1c-3,1.8-4.8,5.1-4.7,8.7c-0.1,2.8,1,5.6,3.2,7.4c2.1,1.8,4.9,2.7,8.5,2.7
				c5.1,0.2,9.7-2.8,11.7-7.5c0.2-0.6,0.5-1.2,0.7-1.8v2.1c-0.1,1.5,0.3,2.9,1.1,4.2c0.7,1.1,1.8,1.9,3,2.3c1.4,0.5,2.8,0.7,4.3,0.7
				c2,0.1,4-0.4,5.8-1.2c1.5-0.7,2.7-1.9,3.6-3.4l-0.9-1.2C581.3,60.4,580.5,61.2,579.6,61.7z M564.9,49.3c0.1,2.3-0.3,4.7-1.2,6.9
				c-0.6,1.6-1.7,3-3,4.1c-1.1,0.8-2.4,1.3-3.8,1.3c-1.1,0.1-2.2-0.3-3-1c-0.8-0.8-1.4-1.8-1.8-2.8c-0.4-1.2-0.6-2.4-0.6-3.7
				c0-1.5,0.3-3,0.9-4.3c0.6-1.5,1.6-2.7,2.9-3.6c1.6-1,3.4-1.5,5.3-1.5h4.2L564.9,49.3L564.9,49.3z"/>
			<path class="st0" d="M632.2,38.1c0-2.2-0.3-4.3-0.9-6.4c-0.6-1.8-1.8-3.4-3.4-4.4c-1.6-1.1-4-1.6-7.2-1.6
				c-2.6-0.1-5.1,0.6-7.3,2.1c-1.9,1.4-3.4,3.2-4.5,5.3c-0.8,1.6-1.4,3.2-1.9,4.9V26.5h-15.2v1.6h5.5v34.7h-5.5v1.6h20v-1.6h-4.7
				V45.9l0,0c0-1.9,0.2-3.9,0.7-5.8c0.4-2,1.1-3.8,2.1-5.6c0.8-1.6,2-3.1,3.4-4.2c1.4-1.1,3.1-1.7,4.8-1.6c1.1-0.1,2.1,0.4,2.8,1.2
				c0.7,1,1.1,2.2,1.2,3.5c0.2,1.9,0.3,3.8,0.3,5.8v23.6h-4.7v1.6h20v-1.6h-5.5V38.1z"/>
			<path class="st0" d="M689.9,2.6h-15.4v1.6h5.5v34c-0.6-3.4-2.3-6.6-4.7-9.1c-2.2-2.2-5.2-3.4-8.4-3.3c-2.9,0-5.8,0.8-8.3,2.4
				c-2.7,1.7-4.9,4-6.4,6.8c-1.7,3.3-2.6,6.9-2.5,10.6c-0.1,3.7,0.7,7.3,2.5,10.6c1.5,2.8,3.7,5.1,6.4,6.7c2.5,1.5,5.4,2.3,8.3,2.3
				c3.1,0.1,6.2-1.1,8.4-3.3c2.4-2.5,4-5.7,4.7-9.1v11.6h15.4v-1.6h-5.5V2.6z M678.4,54.9c-0.8,2.2-2.2,4.3-4,5.8
				c-1.4,1.2-3.2,2-5.1,2v0c-1.7,0-3.4-0.7-4.5-1.9c-1.4-1.7-2.3-3.7-2.7-5.8c-0.7-3.1-1-6.3-0.9-9.5c-0.1-3.2,0.3-6.4,0.9-9.6
				c0.4-2.1,1.3-4.1,2.7-5.8c1.2-1.2,2.8-1.9,4.5-1.9c1.9,0,3.7,0.7,5.1,2c1.8,1.6,3.2,3.6,4,5.9c1.1,3,1.7,6.2,1.6,9.5
				C680.1,48.7,679.5,51.9,678.4,54.9z"/>
			<path class="st0" d="M744.4,35.6c-1.6-3-3.9-5.4-6.8-7.2c-6.5-3.6-14.3-3.6-20.8,0c-2.9,1.7-5.2,4.2-6.8,7.2
				c-3.2,6.2-3.2,13.5,0,19.7c1.6,3,3.9,5.5,6.8,7.2c3.1,1.9,6.8,2.8,10.4,2.7c3.7,0.1,7.3-0.9,10.4-2.7c2.9-1.7,5.2-4.2,6.8-7.2
				C747.5,49.1,747.5,41.8,744.4,35.6z M735.7,52c-0.2,2-0.7,4-1.4,5.9c-0.5,1.6-1.5,3-2.7,4.2c-1.2,1.1-2.8,1.6-4.4,1.5
				c-1.6,0.1-3.2-0.5-4.4-1.5c-1.2-1.1-2.2-2.6-2.7-4.2c-0.7-1.9-1.2-3.9-1.4-5.9c-0.5-4.4-0.5-8.8,0-13.2c0.2-2,0.7-3.9,1.4-5.8
				c0.6-1.6,1.5-3,2.7-4.2c2.6-2.1,6.3-2.1,8.8,0c1.2,1.1,2.2,2.6,2.7,4.2c0.7,1.9,1.2,3.8,1.4,5.8C736.2,43.2,736.2,47.6,735.7,52z
				"/>
		</g>
	</g>
</g>
</svg>
