<svg xmlns="http://www.w3.org/2000/svg" viewBox="0 0 450.39 88.33"><defs><style>.cls-1{fill:#f3f1e7;}</style></defs><g id="Layer_2" data-name="Layer 2"><g id="Layer_8" data-name="Layer 8"><path class="cls-1" d="M71.15,19.4q3.34-6.7,8.15-15a.59.59,0,0,0,.2-.4c0-.33-.3-.5-.9-.5a8.82,8.82,0,0,0-2.8.6,4.9,4.9,0,0,0-2.3,1.4c-1.27,2.27-2.33,4.27-3.2,6s-1.57,3.23-2.1,4.5c-1,1.87-1.87,3.43-2.6,4.7s-1.27,2.13-1.6,2.6q-3.6,5.81-7,10.85T50.2,43.3q-9,11.3-14.3,11.3c-1.4,0-2.1-1-2.1-2.9a17.69,17.69,0,0,1,.55-4A34.09,34.09,0,0,1,36.2,42.3Q39.5,34.61,41.9,30t3.9-7.75q2.81-5.7,2.8-9.8,0-8-9.8-8T17.3,11.5q-12,7.31-16,16A11.74,11.74,0,0,0,0,32.6q0,5.2,6.3,5.2a17.39,17.39,0,0,0,1.8-.1,10.9,10.9,0,0,0,2-.4c1.86-.47,2.8-1.13,2.8-2,0-.33-.27-.5-.8-.5a16.27,16.27,0,0,0-2.3.3,12.74,12.74,0,0,1-2.3.3Q4,35.4,4,32.3A16.09,16.09,0,0,1,5.8,26Q9,18.8,19.2,12.7,29.3,6.81,37.5,6.8q7.39,0,7.4,5.9a18.64,18.64,0,0,1-2.1,7.5c-1.07,2.33-2.28,4.75-3.65,7.25s-2.72,5.18-4,8.05a59,59,0,0,0-3.65,9.2,24.81,24.81,0,0,0-1.15,6.6q0,6.2,6.4,6.2,2.59,0,6.2-2.75A47.29,47.29,0,0,0,51,46.2q2.89-3.6,5.9-7.9t6-8.3a154.63,154.63,0,0,0-4.6,15.8,52.47,52.47,0,0,0-1.5,11q0,7.5,4.7,7.5a8.68,8.68,0,0,0,4.1-1.6c1.73-1,2.6-1.93,2.6-2.8a.8.8,0,0,0-.9-.9,9.27,9.27,0,0,0-1.9,1.4,4.58,4.58,0,0,1-2.5,1.4q-2.59,0-2.6-6,0-9.11,5.6-24.5A118.22,118.22,0,0,1,71.15,19.4Z"/><path class="cls-1" d="M217.09,45.9a4,4,0,0,0,.6-1.7q0-.6-.3-.6c-.2,0-1,1-2.4,2.9-.8,1.07-1.55,2-2.25,3a13.86,13.86,0,0,1-2.45,2.45q-3.39,2.9-6,2.9-3.6,0-3.6-3.8,0-5.4,5.6-14.6a2.52,2.52,0,0,0,.4-1.2,2,2,0,0,0-2.3-2.3,2.2,2.2,0,0,0-1.6.7l-6.2,6.8q-3.09,3.41-5,5.55c-1.26,1.43-2.1,2.42-2.5,2.95.55-1.67,1-3.2,1.49-4.6a2.39,2.39,0,0,0,.42-1.1.68.68,0,0,0,0-.15c.65-2,1.19-3.69,1.61-5a31.42,31.42,0,0,0,1.2-4.3c0-.4-.23-.6-.7-.6a3.47,3.47,0,0,0-2,.7,3.41,3.41,0,0,0-1.4,1.4c-.26,1.07-.46,1.93-.6,2.6s-.26,1.33-.4,2c-.67,2.92-1.33,5.47-2,7.69l-.29.41a20.74,20.74,0,0,1-1.7,2.1q-4,4.39-6.1,4.4-3.1,0-3.1-7.2,0-7.8,2.4-11.7a1.48,1.48,0,0,1,1-.7c.46-.07.7-.17.7-.3a1.24,1.24,0,0,0-.3-.7,5.7,5.7,0,0,0-5.2-2.5,6.68,6.68,0,0,0-1.6.2c-.54.13-1.1.3-1.7.5q-4.8,1.7-9.7,9a38.72,38.72,0,0,0-3.43,6.08,29,29,0,0,1-7.77,7.42,19.37,19.37,0,0,1-9.4,3.1,20.47,20.47,0,0,0,5.1-4.75,38.55,38.55,0,0,0,4-6.15q4.1-7.91,4.1-13.7,0-4.69-3.2-4.7-3.6,0-8.7,6.4a54,54,0,0,0-3.75,5.35Q136,43.31,134.6,45.9c.26-1.8.43-3.45.5-4.95s.1-2.78.1-3.85c0-2.27-.22-3.73-.65-4.4a2.76,2.76,0,0,0-2.05-1.2,5.12,5.12,0,0,0-2.35.1c-.5.2-.75.43-.75.7l.6.7a2.71,2.71,0,0,1,.5,1.6,16.37,16.37,0,0,1-1.35,5.2,30,30,0,0,1-3.65,6.7,1.86,1.86,0,0,0-.31.57c-.2.28-.39.56-.59.83a20.74,20.74,0,0,1-1.7,2.1q-4,4.39-6.1,4.4-3.1,0-3.1-7.2,0-7.8,2.4-11.7a1.48,1.48,0,0,1,1-.7c.46-.07.7-.17.7-.3a1.24,1.24,0,0,0-.3-.7,5.7,5.7,0,0,0-5.2-2.5,6.68,6.68,0,0,0-1.6.2c-.54.13-1.1.3-1.7.5q-4.8,1.7-9.7,9a38.72,38.72,0,0,0-3.5,6.25,19.63,19.63,0,0,1-2.25,2.2,25.45,25.45,0,0,1-5.1,3.35,11.13,11.13,0,0,1-4.85,1.3q-5.2,0-5.2-6.1A15.48,15.48,0,0,1,81,40.1a10.87,10.87,0,0,1,3.1-3.45,5.41,5.41,0,0,1,2.8-1.15c1.73,0,2.6.7,2.6,2.1a3.31,3.31,0,0,1-.4,1.4,4.73,4.73,0,0,0-.3,1.3c0,.33.13.5.4.5.6,0,1.4-.83,2.4-2.5A9.31,9.31,0,0,0,93,34.9c0-1.67-1.07-2.5-3.2-2.5q-4.69,0-10.3,5.9A27.49,27.49,0,0,0,75.3,44a11.45,11.45,0,0,0-1.5,5.4q0,8,7.5,8a12.87,12.87,0,0,0,4.25-.75,17.51,17.51,0,0,0,4-1.95,31.86,31.86,0,0,0,5.17-4.13,13,13,0,0,0-.37,2.93q0,3.41,3.1,3.4,5.1,0,11.9-11.9c-.07.53-.12,1-.15,1.55s-.05,1-.05,1.45q0,8.59,6.1,8.6a8,8,0,0,0,3.6-.9,17.43,17.43,0,0,0,4.8-4.3q1.7-2,3.16-4.07c1-1.21,1.78-2.32,2.44-3.33.86-1.33,1.53-2.33,2-3,.06.87.1,1.83.1,2.9v4q-3.21,4.4-6.5,8.8t-6.4,8.9a84.32,84.32,0,0,0-6.8,11.15q-2.2,4.55-2.2,7,0,3.7,2.5,3.7,4.8,0,12.2-12.2,2.79-4.5,4.8-8.6t3.6-8.2a23.54,23.54,0,0,0,3.05.85,16.82,16.82,0,0,0,3.45.35,20.4,20.4,0,0,0,6.1-1,21.55,21.55,0,0,0,6.4-3.4c1.2-.93,2.21-1.78,3.05-2.55.61-.57,1.23-1.21,1.85-1.89a12.58,12.58,0,0,0-.3,2.64q0,3.41,3.1,3.4,5.1,0,11.9-11.9c-.07.53-.12,1-.15,1.55s0,1,0,1.45q0,8.59,6.1,8.6a8,8,0,0,0,3.6-.9,17.43,17.43,0,0,0,4.8-4.3l0-.06c-.38,1.1-.76,2.12-1.15,3.06a1.82,1.82,0,0,0-.2.8q0,1.8.9,1.8.3,0,.9-.9A108.85,108.85,0,0,1,193.44,46a76.05,76.05,0,0,1,7.35-7.65,35.13,35.13,0,0,0-2.45,5.5,18.65,18.65,0,0,0-1.05,6.2q0,7.2,5.7,7.2Q210.3,57.2,217.09,45.9ZM109.3,42.5a70.24,70.24,0,0,1-4.5,6.8,20.62,20.62,0,0,1-3.1,3.35,4.41,4.41,0,0,1-2.6,1.25c-.94,0-1.4-.7-1.4-2.1q0-4.8,6.1-12.1,4.2-5.1,8.3-5.1a2.93,2.93,0,0,1,.9.1A53,53,0,0,1,109.3,42.5Zm20.6,14q-1.11,4.61-2.2,7.9a37.76,37.76,0,0,1-2.1,5.2Q118,84,113.5,84q-.6,0-.6-.9,0-2.2,3.7-9.2c1.06-2.07,2.05-3.85,3-5.35s1.68-2.75,2.35-3.75l7.2-10.6c.46-.67.83-1,1.1-1a.29.29,0,0,1,.2.1,4.2,4.2,0,0,0-.6,2.2V56A1.06,1.06,0,0,0,129.9,56.5Zm7.9.9a5.52,5.52,0,0,0-1.75-2.35,4,4,0,0,0-2.45-1.15,50.06,50.06,0,0,1,2.4-6.3q1.5-3.3,3-6.1a38.26,38.26,0,0,1,3.85-6,10.71,10.71,0,0,1,3.75-3.25,3.38,3.38,0,0,1,1-.2c1.13,0,1.7,1,1.7,3.1q0,5.1-3.5,12.4a34.56,34.56,0,0,1-3.75,6.25A11.8,11.8,0,0,1,137.8,57.4Zm33.3-14.9a70.24,70.24,0,0,1-4.5,6.8,20.62,20.62,0,0,1-3.1,3.35,4.41,4.41,0,0,1-2.6,1.25c-.94,0-1.4-.7-1.4-2.1q0-4.8,6.1-12.1,4.2-5.1,8.3-5.1a2.93,2.93,0,0,1,.9.1A53,53,0,0,1,171.1,42.5Z"/><path class="cls-1" d="M261.89,54.8q11.81-5.5,11.8-14.5a15.57,15.57,0,0,0-1.2-5.8q8-2.4,8-6.3a4.33,4.33,0,0,0-.9-2.4,2,2,0,0,0-1.8-1.2c-.26,0-.4.17-.4.5s.3.5.9.9a1.4,1.4,0,0,1,.8,1.2,2.47,2.47,0,0,1-.9,1.6,11.25,11.25,0,0,1-4.7,2.3,65.4,65.4,0,0,1-7.5,1.7q-9.5,1.5-12.1,2.8a6.73,6.73,0,0,0-3.65,4.25,25.11,25.11,0,0,0-.75,6.55.71.71,0,0,0,.8.8c.27,0,.4-.2.4-.6a7.91,7.91,0,0,1,3.7-6.9q2.61-1.91,8.2-3.1l3.65-.75c1.5-.3,3.09-.58,4.75-.85a12.23,12.23,0,0,1,.7,4.1q0,8.3-11,13.7a42.11,42.11,0,0,1-18.5,4.4q-5.9,0-8.55-2.15A6.65,6.65,0,0,1,231,49.7a15,15,0,0,1,2.9-8.1,33.28,33.28,0,0,1,7.9-8.15A36.35,36.35,0,0,1,253,27.8l5.9-1.8c1.27-.33,1.9-.73,1.9-1.2s-.46-.8-1.4-.8c-.26,0-.8.05-1.6.15a27.79,27.79,0,0,0-2.9.55,27.53,27.53,0,0,1-5,.6q-6,0-6-3.3a7.46,7.46,0,0,1,2.25-5.4,18.78,18.78,0,0,1,5.6-3.85,32.87,32.87,0,0,1,6.85-2.3,29.73,29.73,0,0,1,6.1-.75,19.56,19.56,0,0,1,6.2.9c2.54.93,3.8,2.27,3.8,4a6.09,6.09,0,0,1-.5,2.1,4.56,4.56,0,0,1-.35.85.92.92,0,0,0-.15.45c0,.33.14.5.4.5a2.6,2.6,0,0,0,2.6-1.5,3,3,0,0,0,.4-1.15,8.41,8.41,0,0,0,.1-1.35q0-3.4-4.2-5.2a18.31,18.31,0,0,0-7.2-1.4,44.29,44.29,0,0,0-8.9.95,40.17,40.17,0,0,0-8.55,2.75,18,18,0,0,0-6.15,4.3,8,8,0,0,0-2.4,5.2,5,5,0,0,0,2.5,4.2c1.67,1.13,4.17,1.67,7.5,1.6q-10.09,3.9-15.1,7.5-8.1,5.81-8.1,13.7a9.26,9.26,0,0,0,5.2,8.7,20.7,20.7,0,0,0,10.4,2.4A46.84,46.84,0,0,0,261.89,54.8Z"/><path class="cls-1" d="M370.49,13.8a27,27,0,0,0-9.3-7.75A49.6,49.6,0,0,0,348.14,1.5,72.59,72.59,0,0,0,333.39,0,92,92,0,0,0,324,.55a86.76,86.76,0,0,0-10.4,1.7,33.94,33.94,0,0,0-8.25,2.85q-3.11,1.61-3.1,3.9c0,1,.43,1.5,1.3,1.5a2.62,2.62,0,0,0,1.3-.4q13.1-7.39,30-7.4A64.12,64.12,0,0,1,347.44,4a43,43,0,0,1,11.4,3.9,23,23,0,0,1,8.2,6.8,16.2,16.2,0,0,1,3,9.85,21.55,21.55,0,0,1-2.1,9.2,33.41,33.41,0,0,1-5.65,8.4,48.85,48.85,0,0,1-7.95,7q-9.7-12.9-36.7-13.5,4-8,8.1-14.9A148.76,148.76,0,0,1,334.19,8a4,4,0,0,0,1.1-1.8c0-.53-.47-.8-1.4-.8q-3.6,0-5.1,2.2c-.87,1.27-1.93,3-3.2,5.25s-2.6,4.7-4,7.4-2.73,5.38-4,8.05-2.37,5.1-3.3,7.3a28.23,28.23,0,0,0-9.05,2.1,18.5,18.5,0,0,0-7.1,5,11.71,11.71,0,0,0-2.75,7.9,7.39,7.39,0,0,0,2.3,5.4,17.24,17.24,0,0,0,6.05,3.75,40.67,40.67,0,0,0,8.15,2.15c1.33.2,2.67.33,4,.4s2.63.1,3.9.1q19.5,0,34.5-9c.67,1.07,1.13,1.6,1.4,1.6.67,0,1-.47,1-1.4a3.17,3.17,0,0,0-.4-1.4,50.71,50.71,0,0,0,8.8-7.45,37,37,0,0,0,6.45-9.3A23.73,23.73,0,0,0,374,25,18.25,18.25,0,0,0,370.49,13.8Zm-52.1,46.3c-.87,0-1.73,0-2.6-.05s-1.77-.09-2.7-.15a27.64,27.64,0,0,1-9.3-3q-4-2.2-4-6.1,0-10.09,13.3-12.3Q308,50.91,308,55.4c0,1.8.53,2.7,1.6,2.7.8,0,1.2-.43,1.2-1.3a2.26,2.26,0,0,0-.15-.8,2.26,2.26,0,0,1-.15-.8q0-4.39,6-17.1a8.79,8.79,0,0,1,1.3-.1h1.3a48.75,48.75,0,0,1,8.7.85,65.09,65.09,0,0,1,9.4,2.45,45.6,45.6,0,0,1,8.65,4,23.29,23.29,0,0,1,6.35,5.35A61.54,61.54,0,0,1,318.39,60.1Z"/><path class="cls-1" d="M403.09,45.7a.86.86,0,0,0,.15-1c-.17-.33-.38-.5-.65-.5a.59.59,0,0,0-.4.2,8.6,8.6,0,0,1-.65.9,21.93,21.93,0,0,1-2.05,2.3,6.67,6.67,0,0,1-2.8,1.75,11.1,11.1,0,0,1-3.2.45,6.47,6.47,0,0,1-3.4-.9,55.85,55.85,0,0,0,2.5-5.5,36.19,36.19,0,0,0,1.5-4.7,17.38,17.38,0,0,0,.5-4.2,10.37,10.37,0,0,0-1-4.7q-1.05-2.1-4.05-2.1a7,7,0,0,0-5.9,3.4,12,12,0,0,0-2.4,7c0,.33,0,.7.05,1.1a8.36,8.36,0,0,0,.15,1.1q-5,7.7-5,13.4,0,4.09,3.5,4.1,4.91,0,9.5-7.3a7.71,7.71,0,0,0,4,1,9.59,9.59,0,0,0,5.55-1.75A16.19,16.19,0,0,0,403.09,45.7Zm-16.2,5.4a21.12,21.12,0,0,1-1.7,1.9q-2.4,2.4-3.7,2.4c-1,0-1.5-.67-1.5-2q0-2.8,3-9.1a15.68,15.68,0,0,0,5,5.1A10.51,10.51,0,0,1,386.89,51.1Zm1.9-3.1a12.7,12.7,0,0,1-4.6-6.2q2-3.79,3.8-3.8,1.2,0,1.2-.6a1.24,1.24,0,0,0-.3-.7,2.49,2.49,0,0,0-2.2-1,4.37,4.37,0,0,0-3.2,1.9V37a9.71,9.71,0,0,1,.9-4.2Q385.7,30,388,30c1.13,0,2,.78,2.6,2.35a14,14,0,0,1,.9,5v.8a14.7,14.7,0,0,1-.7,4.3C390.32,44,389.66,45.87,388.79,48Z"/><path class="cls-1" d="M413.09,24.9c0-1.67-.67-2.5-2-2.5q-3.4,0-3.4,2.7c0,1.47.6,2.2,1.8,2.2q-1.9,2.81-3.15,4.45c-.84,1.1-1.42,1.88-1.75,2.35a5.69,5.69,0,0,0-.6.8.85.85,0,0,0-.1.4.18.18,0,0,0,.2.2q1.8,0,5.4-4.3T413.09,24.9Z"/><path class="cls-1" d="M450,42.5a.83.83,0,0,0-.5.3c-.27.33-.77,1-1.5,2.05s-1.47,2-2.2,3a20.74,20.74,0,0,1-1.7,2.1q-4,4.39-6.1,4.4-3.11,0-3.1-7.2,0-7.8,2.4-11.7a1.48,1.48,0,0,1,1-.7c.46-.07.7-.17.7-.3a1.24,1.24,0,0,0-.3-.7,5.7,5.7,0,0,0-5.2-2.5,6.74,6.74,0,0,0-1.6.2c-.53.13-1.1.3-1.7.5q-4.8,1.7-9.7,9t-5,12.5q0,3.41,3.1,3.4,5.1,0,11.9-11.9c-.07.53-.12,1-.15,1.55s0,1,0,1.45q0,8.59,6.1,8.6a8,8,0,0,0,3.6-.9,17.43,17.43,0,0,0,4.8-4.3,59.54,59.54,0,0,0,5-6.8,2.89,2.89,0,0,0,.6-1.4C450.39,42.73,450.25,42.5,450,42.5Zm-19.5,0a70.24,70.24,0,0,1-4.5,6.8,20.62,20.62,0,0,1-3.1,3.35,4.41,4.41,0,0,1-2.6,1.25c-.93,0-1.4-.7-1.4-2.1q0-4.8,6.1-12.1,4.2-5.1,8.3-5.1a2.93,2.93,0,0,1,.9.1A53,53,0,0,1,430.49,42.5Z"/><path class="cls-1" d="M145.37,80.85h1.48v2.09c0,.07-.1.19-.19.37a2.62,2.62,0,0,1-.4.55,2.33,2.33,0,0,1-.7.48,2.52,2.52,0,0,1-1.09.21,2.35,2.35,0,0,1-1.46-.44,2.88,2.88,0,0,1-.9-1.17,6.27,6.27,0,0,1-.46-1.64,14.29,14.29,0,0,1-.13-1.86,9.46,9.46,0,0,1,.18-1.86,6.25,6.25,0,0,1,.55-1.63,3.25,3.25,0,0,1,1-1.15,2.73,2.73,0,0,1,1.54-.42,3.34,3.34,0,0,1,1.1.18,2.89,2.89,0,0,1,1,.54,2.62,2.62,0,0,1,.67.84,2.68,2.68,0,0,1,.28,1.12h.28V74.19h-.25l-.73.77a3.47,3.47,0,0,0-1.11-.67,3.69,3.69,0,0,0-1.33-.24,4.74,4.74,0,0,0-1.94.39,4.5,4.5,0,0,0-1.5,1.13,5.32,5.32,0,0,0-1,1.71,6.52,6.52,0,0,0-.34,2.16,7,7,0,0,0,.53,2.77A4.47,4.47,0,0,0,142,84.13a4.3,4.3,0,0,0,2.47.7,4.15,4.15,0,0,0,1.51-.26,3.76,3.76,0,0,0,1.11-.64,4.46,4.46,0,0,0,.77-.81,5.06,5.06,0,0,0,.45-.74V80.85h.85v-.31h-3.79Z"/><path class="cls-1" d="M156.4,84.05a2.37,2.37,0,0,1-1.53.47,1.54,1.54,0,0,1-.9-.24,1.79,1.79,0,0,1-.56-.68,4,4,0,0,1-.28-1,8.53,8.53,0,0,1-.08-1.15c0-.17,0-.32,0-.47h4.39a3.67,3.67,0,0,0-.27-1.42,2.33,2.33,0,0,0-.87-1.07,3,3,0,0,0-1.62-.4,3.25,3.25,0,0,0-1.6.4,2.86,2.86,0,0,0-1.1,1.16,3.74,3.74,0,0,0-.4,1.8,3.63,3.63,0,0,0,.42,1.8,3,3,0,0,0,1.15,1.15,3.24,3.24,0,0,0,1.61.41,2.83,2.83,0,0,0,1.83-.56,3,3,0,0,0,.95-1.41h-.31A2.57,2.57,0,0,1,156.4,84.05Zm-3.27-3.74a3.59,3.59,0,0,1,.25-1,1.63,1.63,0,0,1,.5-.69,1.28,1.28,0,0,1,.83-.25,1,1,0,0,1,.69.23,1.36,1.36,0,0,1,.39.59A3.75,3.75,0,0,1,156,80c0,.27,0,.52,0,.75H153.1C153.11,80.59,153.11,80.44,153.13,80.31Z"/><path class="cls-1" d="M165.13,84.05a2.38,2.38,0,0,1-1.54.47,1.59,1.59,0,0,1-.9-.24,1.76,1.76,0,0,1-.55-.68,4,4,0,0,1-.28-1,8.53,8.53,0,0,1-.08-1.15c0-.17,0-.32,0-.47h4.39a3.67,3.67,0,0,0-.27-1.42,2.29,2.29,0,0,0-.88-1.07,2.94,2.94,0,0,0-1.62-.4,3.21,3.21,0,0,0-1.59.4,2.8,2.8,0,0,0-1.1,1.16,3.74,3.74,0,0,0-.4,1.8,3.63,3.63,0,0,0,.42,1.8,3,3,0,0,0,1.15,1.15,3.21,3.21,0,0,0,1.61.41,2.79,2.79,0,0,0,1.82-.56,3,3,0,0,0,1-1.41H166A2.57,2.57,0,0,1,165.13,84.05Zm-3.28-3.74a4,4,0,0,1,.26-1,1.63,1.63,0,0,1,.5-.69,1.27,1.27,0,0,1,.82-.25,1,1,0,0,1,.7.23,1.26,1.26,0,0,1,.38.59,3.2,3.2,0,0,1,.17.77q0,.41,0,.75h-2.88C161.84,80.59,161.84,80.44,161.85,80.31Z"/><path class="cls-1" d="M173.69,74.26a1.94,1.94,0,0,0-.95-.21,2.4,2.4,0,0,0-1.52.48,2.94,2.94,0,0,0-.92,1.28,4.6,4.6,0,0,0-.31,1.71v.73H168.8v.27H170v5.89H168.8v.28h4.06v-.28h-1.61V78.52h1.89v-.27h-1.89V77.13a6.67,6.67,0,0,1,.14-1.52,1.88,1.88,0,0,1,.46-1,1.21,1.21,0,0,1,.89-.33,1.64,1.64,0,0,1,.76.16,1.18,1.18,0,0,1,.44.34.88.88,0,0,0-.28-.06.9.9,0,0,0-.52.2.71.71,0,0,0-.26.58A.68.68,0,0,0,173,76a.65.65,0,0,0,.3.25.87.87,0,0,0,.35.07.78.78,0,0,0,.56-.22.84.84,0,0,0,.25-.65,1.26,1.26,0,0,0-.2-.65A1.48,1.48,0,0,0,173.69,74.26Z"/><path class="cls-1" d="M191.22,74.46h1.31l-2.88,8.25-1.49-4.83,1.15-3.42h1.21v-.27h-10v.27h1.33l3.22,10.37h.3l1.88-5.28,1.64,5.28h.3l3.62-10.37H194v-.27h-2.74Zm-2.23,0-1,2.94-.91-2.94Zm-3.15,8.25-2.56-8.25h2.42l1.44,4.62Z"/><path class="cls-1" d="M201.32,78.57a3.39,3.39,0,0,0-3.41,0,3.11,3.11,0,0,0-1.11,1.22,3.71,3.71,0,0,0,0,3.35,3,3,0,0,0,1.11,1.22,3.33,3.33,0,0,0,3.41,0,3,3,0,0,0,1.11-1.22,3.79,3.79,0,0,0,0-3.35A3.11,3.11,0,0,0,201.32,78.57Zm0,3.92a4,4,0,0,1-.25,1,1.7,1.7,0,0,1-.54.76,1.59,1.59,0,0,1-1.83,0,1.87,1.87,0,0,1-.54-.76,4.53,4.53,0,0,1-.25-1,8.87,8.87,0,0,1,0-2.06,4.58,4.58,0,0,1,.25-1,1.94,1.94,0,0,1,.54-.76,1.59,1.59,0,0,1,1.83,0,1.76,1.76,0,0,1,.54.76,4.07,4.07,0,0,1,.25,1,7.47,7.47,0,0,1,.07,1A7.39,7.39,0,0,1,201.32,82.49Z"/><path class="cls-1" d="M210.57,78.57a3.11,3.11,0,0,0-1.7-.46,3.16,3.16,0,0,0-1.71.46,3.11,3.11,0,0,0-1.11,1.22,3.79,3.79,0,0,0,0,3.35,3,3,0,0,0,1.11,1.22,3.09,3.09,0,0,0,1.71.47,3.07,3.07,0,0,0,2.81-1.69,3.79,3.79,0,0,0,0-3.35A3.11,3.11,0,0,0,210.57,78.57Zm0,3.92a3.65,3.65,0,0,1-.25,1,1.77,1.77,0,0,1-.53.76,1.6,1.6,0,0,1-1.84,0,1.77,1.77,0,0,1-.53-.76,3.65,3.65,0,0,1-.25-1,7.39,7.39,0,0,1-.07-1,7.47,7.47,0,0,1,.07-1,3.67,3.67,0,0,1,.25-1,1.83,1.83,0,0,1,.53-.76,1.6,1.6,0,0,1,1.84,0,1.83,1.83,0,0,1,.53.76,3.67,3.67,0,0,1,.25,1,7.47,7.47,0,0,1,.07,1A7.39,7.39,0,0,1,210.57,82.49Z"/><path class="cls-1" d="M219.46,78.26a1.34,1.34,0,0,0-.66-.15,1.49,1.49,0,0,0-.94.32,2.66,2.66,0,0,0-.66.86,5.2,5.2,0,0,0-.36,1V78.25H214.7v.27h.92v5.89h-.92v.28h3.14v-.28h-1V81.68A4.71,4.71,0,0,1,217,80.5a4.3,4.3,0,0,1,.39-1.06,2.65,2.65,0,0,1,.61-.76,1.24,1.24,0,0,1,.78-.29,1.2,1.2,0,0,1,.47.1l0,0h0a.9.9,0,0,0-.56.19.7.7,0,0,0-.25.59.66.66,0,0,0,.22.52.8.8,0,0,0,.59.21.7.7,0,0,0,.58-.25.86.86,0,0,0,.22-.6,1,1,0,0,0-.14-.52A1.16,1.16,0,0,0,219.46,78.26Z"/><path class="cls-1" d="M228.88,74.19H226.7v.27h.91v5.83a3.16,3.16,0,0,0-.8-1.59,1.92,1.92,0,0,0-1.43-.59,2.69,2.69,0,0,0-1.39.4,3.11,3.11,0,0,0-1.08,1.16,4.16,4.16,0,0,0,0,3.6A3.08,3.08,0,0,0,224,84.42a2.6,2.6,0,0,0,1.39.4,1.92,1.92,0,0,0,1.43-.59,3.13,3.13,0,0,0,.8-1.57v2h2.18v-.28h-.91Zm-1.55,8.89a2.38,2.38,0,0,1-.73,1,1.56,1.56,0,0,1-1,.35,1.3,1.3,0,0,1-.92-.35,2.18,2.18,0,0,1-.57-1,5.45,5.45,0,0,1-.2-1.61,5.38,5.38,0,0,1,.2-1.6,2.26,2.26,0,0,1,.57-1,1.3,1.3,0,0,1,.92-.35,1.56,1.56,0,0,1,1,.35,2.36,2.36,0,0,1,.73,1,4.77,4.77,0,0,1,0,3.22Z"/><path class="cls-1" d="M237.21,84.05a2.38,2.38,0,0,1-1.54.47,1.59,1.59,0,0,1-.9-.24,1.76,1.76,0,0,1-.55-.68,3.62,3.62,0,0,1-.28-1,7.16,7.16,0,0,1-.08-1.15c0-.17,0-.32,0-.47h4.39a3.67,3.67,0,0,0-.27-1.42,2.35,2.35,0,0,0-.88-1.07,2.94,2.94,0,0,0-1.62-.4,3.25,3.25,0,0,0-1.6.4,2.84,2.84,0,0,0-1.09,1.16,3.74,3.74,0,0,0-.4,1.8,3.63,3.63,0,0,0,.42,1.8A2.93,2.93,0,0,0,234,84.42a3.24,3.24,0,0,0,1.61.41,2.83,2.83,0,0,0,1.83-.56,3,3,0,0,0,1-1.41h-.31A2.64,2.64,0,0,1,237.21,84.05Zm-3.28-3.74a4,4,0,0,1,.25-1,1.71,1.71,0,0,1,.5-.69,1.3,1.3,0,0,1,.83-.25,1,1,0,0,1,.7.23,1.34,1.34,0,0,1,.38.59,3.19,3.19,0,0,1,.16.77,6.75,6.75,0,0,1,0,.75h-2.88C233.92,80.59,233.91,80.44,233.93,80.31Z"/><path class="cls-1" d="M247.35,80.21a4,4,0,0,0-.14-1.08,1.35,1.35,0,0,0-.55-.75,2.21,2.21,0,0,0-1.22-.27,2,2,0,0,0-1.23.36,2.74,2.74,0,0,0-.78.91,4.26,4.26,0,0,0-.35,1V78.25h-2.14v.27h.91v5.89h-.91v.28h3v-.28h-.9V81.54a4,4,0,0,1,.13-1,4.06,4.06,0,0,1,.39-1,2.46,2.46,0,0,1,.68-.78,1.57,1.57,0,0,1,1-.31.65.65,0,0,1,.57.25,1.37,1.37,0,0,1,.23.69,7.83,7.83,0,0,1,.06,1v4h-.91v.28h3v-.28h-.91Z"/><polygon class="cls-1" points="259.95 78.52 261.21 78.52 259.28 83.25 257.46 78.52 258.65 78.52 258.65 78.25 255.29 78.25 255.29 78.52 256.08 78.52 258.67 84.83 258.97 84.83 261.54 78.52 262.35 78.52 262.35 78.25 259.95 78.25 259.95 78.52"/><path class="cls-1" d="M270.78,84.27a.74.74,0,0,1-.4.15c-.18,0-.29,0-.34-.16a.8.8,0,0,1-.08-.39V80.42a3.94,3.94,0,0,0-.16-1.09,1.65,1.65,0,0,0-.64-.86,2.59,2.59,0,0,0-1.45-.34,4.08,4.08,0,0,0-.93.11,3.22,3.22,0,0,0-.81.28,1.75,1.75,0,0,0-.57.45.88.88,0,0,0-.22.59.78.78,0,0,0,.22.58.8.8,0,0,0,.55.19.87.87,0,0,0,.54-.19.7.7,0,0,0,.25-.61.68.68,0,0,0-.24-.55.84.84,0,0,0-.47-.17.88.88,0,0,1,.15-.12,2.13,2.13,0,0,1,.63-.21,3,3,0,0,1,.65-.07,1,1,0,0,1,.83.29,1.54,1.54,0,0,1,.36.76,5.92,5.92,0,0,1,.08,1v.67h-.94a4.17,4.17,0,0,0-2.29.53,1.69,1.69,0,0,0-.81,1.48,1.55,1.55,0,0,0,.55,1.26,2.14,2.14,0,0,0,1.45.47,2,2,0,0,0,1.2-.35,2.1,2.1,0,0,0,.75-1,3,3,0,0,0,.09-.32v.39a1.41,1.41,0,0,0,.17.73,1,1,0,0,0,.44.38,1.64,1.64,0,0,0,1.4-.08,1.6,1.6,0,0,0,.51-.49l-.13-.25A1,1,0,0,1,270.78,84.27Zm-2.29-.87a1.82,1.82,0,0,1-.61.76,1.3,1.3,0,0,1-.76.25.92.92,0,0,1-.6-.2,1.25,1.25,0,0,1-.34-.54,2.14,2.14,0,0,1-.11-.67,1.8,1.8,0,0,1,.18-.77,1.55,1.55,0,0,1,.55-.65,1.73,1.73,0,0,1,1-.25h.94v.79A3,3,0,0,1,268.49,83.4Z"/><path class="cls-1" d="M279.69,80.21a3.62,3.62,0,0,0-.14-1.08,1.29,1.29,0,0,0-.54-.75,2.23,2.23,0,0,0-1.22-.27,2,2,0,0,0-1.23.36,2.63,2.63,0,0,0-.78.91,4.84,4.84,0,0,0-.36,1V78.25h-2.14v.27h.92v5.89h-.92v.28h3.05v-.28h-.91V81.54a4.48,4.48,0,0,1,.13-1,4.09,4.09,0,0,1,.4-1,2.34,2.34,0,0,1,.68-.78,1.55,1.55,0,0,1,1-.31.66.66,0,0,1,.57.25,1.37,1.37,0,0,1,.23.69,8,8,0,0,1,0,1v4h-.91v.28h3.06v-.28h-.92Z"/><path class="cls-1" d="M287.84,74.46h1.26v10h-1.26v.28h4v-.28h-1.39V79.6h.63a2.74,2.74,0,0,1,1,.14,1,1,0,0,1,.56.43,1.55,1.55,0,0,1,.17.76h.28V78.07h-.28a1.49,1.49,0,0,1-.17.75,1,1,0,0,1-.56.39,3.34,3.34,0,0,1-1,.12h-.63V74.46h2.23a2.31,2.31,0,0,1,1.31.33,1.93,1.93,0,0,1,.7.93,3.73,3.73,0,0,1,.22,1.34h.27V74.19h-7.33Z"/><path class="cls-1" d="M302.7,84.05a2.38,2.38,0,0,1-1.54.47,1.59,1.59,0,0,1-.9-.24,1.76,1.76,0,0,1-.55-.68,3.62,3.62,0,0,1-.28-1,8.53,8.53,0,0,1-.08-1.15c0-.17,0-.32,0-.47h4.39a3.67,3.67,0,0,0-.27-1.42,2.29,2.29,0,0,0-.88-1.07,2.94,2.94,0,0,0-1.62-.4,3.21,3.21,0,0,0-1.59.4,2.8,2.8,0,0,0-1.1,1.16,3.74,3.74,0,0,0-.4,1.8,3.63,3.63,0,0,0,.42,1.8,3,3,0,0,0,1.15,1.15,3.21,3.21,0,0,0,1.61.41,2.79,2.79,0,0,0,1.82-.56,3,3,0,0,0,1-1.41h-.31A2.64,2.64,0,0,1,302.7,84.05Zm-3.28-3.74a4,4,0,0,1,.26-1,1.55,1.55,0,0,1,.5-.69,1.27,1.27,0,0,1,.82-.25,1,1,0,0,1,.7.23,1.26,1.26,0,0,1,.38.59,3.2,3.2,0,0,1,.17.77q0,.41,0,.75H299.4C299.41,80.59,299.41,80.44,299.42,80.31Z"/><polygon class="cls-1" points="308.88 74.19 306.43 74.19 306.43 74.46 307.62 74.46 307.62 84.41 306.43 84.41 306.43 84.69 310.07 84.69 310.07 84.41 308.88 84.41 308.88 74.19"/><path class="cls-1" d="M314.7,75.52a.82.82,0,0,0,.25-.6.85.85,0,0,0-.84-.84.82.82,0,0,0-.6.25.81.81,0,0,0-.24.59.85.85,0,0,0,.24.6.86.86,0,0,0,.6.25A.82.82,0,0,0,314.7,75.52Z"/><polygon class="cls-1" points="314.73 78.25 312.56 78.25 312.56 78.52 313.47 78.52 313.47 84.41 312.56 84.41 312.56 84.69 315.65 84.69 315.65 84.41 314.73 84.41 314.73 78.25"/><path class="cls-1" d="M323.29,83.71a2,2,0,0,1-.68.58,2.12,2.12,0,0,1-1,.21,1.48,1.48,0,0,1-.89-.25,1.62,1.62,0,0,1-.56-.67,3.35,3.35,0,0,1-.28-1,6.93,6.93,0,0,1-.09-1.14,7.51,7.51,0,0,1,.08-1,3.91,3.91,0,0,1,.28-1,1.93,1.93,0,0,1,.59-.76,1.58,1.58,0,0,1,1-.29,2.22,2.22,0,0,1,.67.1,2.43,2.43,0,0,1,.61.28,1.84,1.84,0,0,1,.35.33.78.78,0,0,0-.22,0,.87.87,0,0,0-.56.2.67.67,0,0,0-.24.56.75.75,0,0,0,.13.45.68.68,0,0,0,.31.25.78.78,0,0,0,.36.08.75.75,0,0,0,.54-.21.78.78,0,0,0,.22-.58,1.45,1.45,0,0,0-.28-.83,2,2,0,0,0-.8-.63,2.93,2.93,0,0,0-1.23-.24,3.21,3.21,0,0,0-1.78.46,2.94,2.94,0,0,0-1.1,1.22,3.77,3.77,0,0,0-.38,1.68,3.63,3.63,0,0,0,.42,1.8,2.93,2.93,0,0,0,1.14,1.15,3.26,3.26,0,0,0,1.63.41,2.35,2.35,0,0,0,1.66-.56,3.38,3.38,0,0,0,.86-1.41h-.29A3.65,3.65,0,0,1,323.29,83.71Z"/><polygon class="cls-1" points="328.9 78.25 326.73 78.25 326.73 78.52 327.64 78.52 327.64 84.41 326.73 84.41 326.73 84.69 329.82 84.69 329.82 84.41 328.9 84.41 328.9 78.25"/><path class="cls-1" d="M328.88,75.52a.85.85,0,0,0,.24-.6.81.81,0,0,0-.24-.59.82.82,0,0,0-.6-.25.79.79,0,0,0-.59.25.78.78,0,0,0-.25.59.82.82,0,0,0,.25.6.83.83,0,0,0,.59.25A.86.86,0,0,0,328.88,75.52Z"/><path class="cls-1" d="M335.47,84a.89.89,0,0,1-.63.3.5.5,0,0,1-.43-.18,1.35,1.35,0,0,1-.12-.7V78.52h1.5v-.27h-1.5V76.43a2.41,2.41,0,0,1-.58.28,2,2,0,0,1-.68.14v1.4h-.93v.27H333v4.6a2.87,2.87,0,0,0,.11.77,1.16,1.16,0,0,0,.39.64,1.26,1.26,0,0,0,.86.25,1.65,1.65,0,0,0,1.1-.35,2.72,2.72,0,0,0,.71-.91l-.23-.15A2.3,2.3,0,0,1,335.47,84Z"/><path class="cls-1" d="M344.62,84.27a.71.71,0,0,1-.4.15c-.17,0-.29,0-.34-.16a.93.93,0,0,1-.08-.39V80.42a3.6,3.6,0,0,0-.16-1.09,1.6,1.6,0,0,0-.64-.86,2.56,2.56,0,0,0-1.45-.34,4.06,4.06,0,0,0-.92.11,3.3,3.3,0,0,0-.82.28,1.75,1.75,0,0,0-.57.45.93.93,0,0,0-.21.59.75.75,0,0,0,.22.58.78.78,0,0,0,.54.19.87.87,0,0,0,.54-.19.71.71,0,0,0,.26-.61.69.69,0,0,0-.25-.55.82.82,0,0,0-.47-.17c.06,0,.09-.09.15-.12a2.34,2.34,0,0,1,.63-.21,3.09,3.09,0,0,1,.66-.07,1.06,1.06,0,0,1,.83.29,1.45,1.45,0,0,1,.35.76,5,5,0,0,1,.09,1v.67h-.94a4.21,4.21,0,0,0-2.3.53,1.68,1.68,0,0,0-.8,1.48,1.58,1.58,0,0,0,.54,1.26,2.14,2.14,0,0,0,1.45.47,2.06,2.06,0,0,0,1.21-.35,2.15,2.15,0,0,0,.74-1c0-.1.06-.21.1-.32v.39a1.41,1.41,0,0,0,.16.73,1,1,0,0,0,.45.38,1.46,1.46,0,0,0,.6.12,1.52,1.52,0,0,0,.79-.2,1.75,1.75,0,0,0,.52-.49l-.14-.25A1,1,0,0,1,344.62,84.27Zm-2.29-.87a1.82,1.82,0,0,1-.61.76,1.27,1.27,0,0,1-.75.25.89.89,0,0,1-.6-.2,1.27,1.27,0,0,1-.35-.54,2.13,2.13,0,0,1-.1-.67,1.79,1.79,0,0,1,.17-.77,1.63,1.63,0,0,1,.55-.65,1.79,1.79,0,0,1,1-.25h.94v.79A2.86,2.86,0,0,1,342.33,83.4Z"/><path class="cls-1" d="M350.36,84a.89.89,0,0,1-.63.3.5.5,0,0,1-.43-.18,1.35,1.35,0,0,1-.12-.7V78.52h1.49v-.27h-1.49V76.43a2.41,2.41,0,0,1-.58.28,2,2,0,0,1-.68.14v1.4H347v.27h.93v4.6a2.87,2.87,0,0,0,.11.77,1.16,1.16,0,0,0,.39.64,1.26,1.26,0,0,0,.86.25,1.65,1.65,0,0,0,1.1-.35,2.72,2.72,0,0,0,.71-.91l-.23-.15A2.3,2.3,0,0,1,350.36,84Z"/><path class="cls-1" d="M355.44,75.52a.85.85,0,0,0,.24-.6.81.81,0,0,0-.24-.59.82.82,0,0,0-.6-.25.79.79,0,0,0-.59.25.78.78,0,0,0-.25.59.82.82,0,0,0,.25.6.83.83,0,0,0,.59.25A.86.86,0,0,0,355.44,75.52Z"/><polygon class="cls-1" points="355.46 78.25 353.29 78.25 353.29 78.52 354.2 78.52 354.2 84.41 353.29 84.41 353.29 84.69 356.38 84.69 356.38 84.41 355.46 84.41 355.46 78.25"/><path class="cls-1" d="M363.87,84.05a2.38,2.38,0,0,1-1.54.47,1.59,1.59,0,0,1-.9-.24,1.76,1.76,0,0,1-.55-.68,3.62,3.62,0,0,1-.28-1,7.16,7.16,0,0,1-.08-1.15c0-.17,0-.32,0-.47h4.38a3.86,3.86,0,0,0-.26-1.42,2.35,2.35,0,0,0-.88-1.07,2.94,2.94,0,0,0-1.62-.4,3.25,3.25,0,0,0-1.6.4,2.93,2.93,0,0,0-1.1,1.16,3.86,3.86,0,0,0-.39,1.8,3.63,3.63,0,0,0,.42,1.8,2.93,2.93,0,0,0,1.14,1.15,3.24,3.24,0,0,0,1.61.41,2.83,2.83,0,0,0,1.83-.56,3,3,0,0,0,1-1.41h-.32A2.55,2.55,0,0,1,363.87,84.05Zm-3.28-3.74a4,4,0,0,1,.25-1,1.71,1.71,0,0,1,.5-.69,1.3,1.3,0,0,1,.83-.25,1,1,0,0,1,.7.23,1.34,1.34,0,0,1,.38.59,3.19,3.19,0,0,1,.16.77,6.75,6.75,0,0,1,0,.75h-2.89C360.58,80.59,360.57,80.44,360.59,80.31Z"/><path class="cls-1" d="M379.6,78.52h1.7a8.44,8.44,0,0,1-.35,1.53,8.19,8.19,0,0,1-.75,1.65,8,8,0,0,1-.57.82L377,78.6l.9-.47a5.32,5.32,0,0,0,.88-.56,2.25,2.25,0,0,0,.61-.7,2,2,0,0,0,.22-1,1.51,1.51,0,0,0-.35-1,2.24,2.24,0,0,0-.94-.64,3.61,3.61,0,0,0-1.35-.23,4.12,4.12,0,0,0-1.45.24,2.42,2.42,0,0,0-1,.71,1.75,1.75,0,0,0-.36,1.1,2.45,2.45,0,0,0,.18.84,4.15,4.15,0,0,0,.46.89l.85,1.25-.39.17c-.25.11-.53.25-.85.43a5.24,5.24,0,0,0-.9.63,3.3,3.3,0,0,0-.72.86,2.11,2.11,0,0,0-.29,1.09,2.26,2.26,0,0,0,.42,1.38,2.5,2.5,0,0,0,1.13.88,4.35,4.35,0,0,0,1.66.31,4.51,4.51,0,0,0,1.83-.38,5.53,5.53,0,0,0,1.22-.76l.67,1h3.28v-.28h-1.87l-1.11-1.67a8.54,8.54,0,0,0,.56-.78,9,9,0,0,0,.85-1.77,8.41,8.41,0,0,0,.39-1.67H383v-.27H379.6ZM375.7,75a1.2,1.2,0,0,1,.46-.54,1.51,1.51,0,0,1,.85-.21,1.13,1.13,0,0,1,.8.26,1.3,1.3,0,0,1,.38.62,2.61,2.61,0,0,1,.11.71,2.85,2.85,0,0,1-.25,1.22,3,3,0,0,1-.61.85,4.07,4.07,0,0,1-.55.44l-.37-.55a9.61,9.61,0,0,1-.7-1.21,2.08,2.08,0,0,1-.25-.89A1.85,1.85,0,0,1,375.7,75Zm2.11,9a3.37,3.37,0,0,1-1.5.35,2.19,2.19,0,0,1-.9-.18,2.34,2.34,0,0,1-.71-.48,2.3,2.3,0,0,1-.46-.7,2.25,2.25,0,0,1-.16-.81,3.64,3.64,0,0,1,.22-1.32,2.7,2.7,0,0,1,.64-.95,4.72,4.72,0,0,1,.89-.64l2.83,4.19A4.51,4.51,0,0,1,377.81,84Z"/><path class="cls-1" d="M396.48,83.44a1.27,1.27,0,0,1-.7.74,3.58,3.58,0,0,1-1.47.23h-3l5.53-10v-.27h-6.67v2.38h.27a3.2,3.2,0,0,1,.2-1.22,1.23,1.23,0,0,1,.7-.68,4.09,4.09,0,0,1,1.47-.21h2.56l-5.53,10v.28H397V82h-.28A4.17,4.17,0,0,1,396.48,83.44Z"/><path class="cls-1" d="M404.52,84.05a2.37,2.37,0,0,1-1.53.47,1.54,1.54,0,0,1-.9-.24,1.79,1.79,0,0,1-.56-.68,4,4,0,0,1-.28-1,8.53,8.53,0,0,1-.08-1.15c0-.17,0-.32,0-.47h4.39a3.67,3.67,0,0,0-.27-1.42,2.33,2.33,0,0,0-.87-1.07,3,3,0,0,0-1.62-.4,3.25,3.25,0,0,0-1.6.4,2.86,2.86,0,0,0-1.1,1.16,3.74,3.74,0,0,0-.4,1.8,3.53,3.53,0,0,0,.43,1.8,2.93,2.93,0,0,0,1.14,1.15,3.24,3.24,0,0,0,1.61.41,2.83,2.83,0,0,0,1.83-.56,3.13,3.13,0,0,0,1-1.41h-.32A2.57,2.57,0,0,1,404.52,84.05Zm-3.27-3.74a4,4,0,0,1,.25-1,1.71,1.71,0,0,1,.5-.69,1.28,1.28,0,0,1,.83-.25,1.05,1.05,0,0,1,.7.23,1.34,1.34,0,0,1,.38.59,3.75,3.75,0,0,1,.16.77c0,.27,0,.52,0,.75h-2.89C401.23,80.59,401.23,80.44,401.25,80.31Z"/><path class="cls-1" d="M415.09,78.33a1.23,1.23,0,0,0-.61-.15,1.65,1.65,0,0,0-.64.14,1.89,1.89,0,0,0-.67.49.32.32,0,0,0-.08.12,2.05,2.05,0,0,0-.34-.32,2.51,2.51,0,0,0-.79-.38,3.24,3.24,0,0,0-.86-.12,3.37,3.37,0,0,0-.87.12,2.73,2.73,0,0,0-.81.38,1.9,1.9,0,0,0-.6.66,2.22,2.22,0,0,0,0,2,1.9,1.9,0,0,0,.6.66,2.54,2.54,0,0,0,.8.37,3.78,3.78,0,0,0-.74.26,1.7,1.7,0,0,0-.57.48,1,1,0,0,0-.22.65.9.9,0,0,0,.57.89,2.85,2.85,0,0,0,.86.21,3.27,3.27,0,0,0-.48.07,2.46,2.46,0,0,0-.65.28,1.75,1.75,0,0,0-.53.52,1.58,1.58,0,0,0,0,1.66,1.88,1.88,0,0,0,.68.59,3.71,3.71,0,0,0,1,.34,6.42,6.42,0,0,0,1.19.11,4.58,4.58,0,0,0,1.17-.15,3.09,3.09,0,0,0,1-.44,2.15,2.15,0,0,0,.73-.77,2.29,2.29,0,0,0,.27-1.14,2.56,2.56,0,0,0-.21-1.13,1.46,1.46,0,0,0-.55-.64,2,2,0,0,0-.75-.29,4.51,4.51,0,0,0-.81-.07H411a5.05,5.05,0,0,1-.95-.07.41.41,0,0,1-.38-.44.53.53,0,0,1,.15-.36,1.41,1.41,0,0,1,.41-.28,2.24,2.24,0,0,1,.52-.16l.13,0,.22,0a3.24,3.24,0,0,0,.86-.12,2.51,2.51,0,0,0,.79-.38,2,2,0,0,0,.57-.66,2.32,2.32,0,0,0,0-2,1.25,1.25,0,0,0-.08-.12.75.75,0,0,1,.09-.15,1.55,1.55,0,0,1,.6-.44,1.62,1.62,0,0,1,.57-.12.8.8,0,0,1,.62.24.78.78,0,0,0-.21,0,.85.85,0,0,0-.48.15.58.58,0,0,0-.23.51.63.63,0,0,0,.22.52.76.76,0,0,0,.49.18.87.87,0,0,0,.5-.16.69.69,0,0,0,.24-.61,1,1,0,0,0-.15-.51A1.18,1.18,0,0,0,415.09,78.33Zm-3.83,6.48h1.14a2,2,0,0,1,.83.16,1.35,1.35,0,0,1,.6.44,1.15,1.15,0,0,1,.22.7,1.68,1.68,0,0,1-.2.81,1.6,1.6,0,0,1-.53.6,2.64,2.64,0,0,1-.79.38,3.87,3.87,0,0,1-1,.12,2.35,2.35,0,0,1-1.12-.24,1.71,1.71,0,0,1-.68-.65,1.61,1.61,0,0,1-.23-.84,1.88,1.88,0,0,1,.21-.91,1.53,1.53,0,0,1,.63-.6c.14,0,.26,0,.41,0Zm.92-3.61a1.45,1.45,0,0,1-.4.67.94.94,0,0,1-.68.25,1.11,1.11,0,0,1-.81-.25,1.22,1.22,0,0,1-.33-.67,5.57,5.57,0,0,1-.07-1,3.14,3.14,0,0,1,.13-.94,1.54,1.54,0,0,1,.4-.67,1,1,0,0,1,.68-.25.94.94,0,0,1,.68.25,1.45,1.45,0,0,1,.4.67,3.5,3.5,0,0,1,0,1.89Z"/><path class="cls-1" d="M423,84.05a2.38,2.38,0,0,1-1.54.47,1.59,1.59,0,0,1-.9-.24,1.76,1.76,0,0,1-.55-.68,3.62,3.62,0,0,1-.28-1,8.53,8.53,0,0,1-.08-1.15c0-.17,0-.32,0-.47h4.39a3.67,3.67,0,0,0-.27-1.42,2.29,2.29,0,0,0-.88-1.07,2.94,2.94,0,0,0-1.62-.4,3.18,3.18,0,0,0-1.59.4,2.8,2.8,0,0,0-1.1,1.16,3.74,3.74,0,0,0-.4,1.8,3.63,3.63,0,0,0,.42,1.8,3,3,0,0,0,1.15,1.15,3.21,3.21,0,0,0,1.61.41,2.79,2.79,0,0,0,1.82-.56,3,3,0,0,0,1-1.41h-.31A2.64,2.64,0,0,1,423,84.05Zm-3.28-3.74a4.47,4.47,0,0,1,.25-1,1.64,1.64,0,0,1,.51-.69,1.27,1.27,0,0,1,.82-.25,1,1,0,0,1,.7.23,1.34,1.34,0,0,1,.38.59,2.78,2.78,0,0,1,.16.77,6.75,6.75,0,0,1,0,.75h-2.88C419.7,80.59,419.7,80.44,419.71,80.31Z"/><path class="cls-1" d="M433.13,80.21a4,4,0,0,0-.14-1.08,1.31,1.31,0,0,0-.55-.75,2.21,2.21,0,0,0-1.22-.27,2,2,0,0,0-1.23.36,2.71,2.71,0,0,0-.77.91,4.29,4.29,0,0,0-.36,1V78.25h-2.14v.27h.91v5.89h-.91v.28h3v-.28h-.9V81.54a4,4,0,0,1,.13-1,4.48,4.48,0,0,1,.39-1,2.46,2.46,0,0,1,.68-.78,1.59,1.59,0,0,1,1-.31.65.65,0,0,1,.57.25,1.37,1.37,0,0,1,.23.69,7.83,7.83,0,0,1,.06,1v4H431v.28h3.06v-.28h-.92Z"/></g></g></svg>