<?xml version="1.0" encoding="utf-8"?>
<!-- Generator: Adobe Illustrator 25.4.1, SVG Export Plug-In . SVG Version: 6.00 Build 0)  -->
<svg version="1.1" id="Layer_1" xmlns="http://www.w3.org/2000/svg" xmlns:xlink="http://www.w3.org/1999/xlink" x="0px" y="0px"
	 viewBox="0 0 255 63.8" style="enable-background:new 0 0 255 63.8;" xml:space="preserve">
<style type="text/css">
	.st0{enable-background:new    ;}
	.st1{fill:#F3F1E7;}
</style>
<g class="st0">
	<path class="st1" d="M15.3,43.8c-1.8,0-2.6-1.1-2.6-3.3c0-2.7,1.2-6.8,3.7-12.2c0.9-2,1.8-4,2.8-5.9c1-1.9,2.1-3.8,3.2-5.7
		l-8.1,2.3c-1.6,0.5-3.1,0.8-4.4,1c-1.3,0.2-2.6,0.3-3.7,0.3c-3.3,0-4.9-0.8-4.9-2.5c0-0.5,0.2-1,0.5-1.6c1-1.6,2.9-2.8,5.5-3.6
		c2.1-0.7,4.4-1,6.7-1c2.1,0,3.7,0.1,4.6,0.4c0.5,0.1,0.7,0.4,0.7,0.7c0,0.3-0.1,0.4-0.4,0.4h-0.2c-1.5,0-2.6-0.1-3.3-0.2
		c-0.8-0.1-1.2-0.2-1.2-0.2c-1.8,0-3.7,0.3-5.6,0.8c-2.4,0.6-4.1,1.5-4.9,2.6c-0.4,0.4-0.5,0.8-0.5,1.1c0,0.9,1.1,1.3,3.3,1.3
		c1,0,2.3-0.1,3.7-0.3c1.4-0.2,3.1-0.6,4.9-1c1.3-0.4,2.4-0.7,3.3-0.9c0.9-0.2,1.8-0.5,2.6-0.7c0.8-0.2,1.7-0.5,2.7-0.8
		c0-0.1,0.2-0.3,0.4-0.6c0.2-0.3,0.4-0.6,0.6-0.9c0.5-0.5,1.4-0.8,2.6-0.8c0.5,0,0.7,0.1,0.7,0.3c0,0.1-0.3,0.5-0.9,1.3
		c1.1-0.2,2.2-0.3,3.2-0.4c1-0.1,2-0.2,2.9-0.2c2,0,4,0.5,6,1.6c2.3,1.3,3.5,2.7,3.5,4.5c0,0.6-0.2,0.9-0.5,0.9
		c-0.2,0-0.3-0.2-0.4-0.5c-0.1-0.6-0.3-1-0.4-1.4c-0.3-0.5-0.7-1-1.3-1.5c-0.6-0.4-1.3-0.8-2.1-1.1c-1.4-0.5-2.9-0.8-4.3-0.8
		c-2.3,0-4.9,0.3-7.9,1c-2.5,3.6-4.9,7.6-7,11.8c-2.6,5.3-3.9,9.6-3.9,13c0,1.4,0.2,2.1,0.7,2.1c0.3,0,0.7-0.2,1.3-0.6l1-0.6
		c0.3,0,0.5,0.2,0.5,0.5c0,0.4-0.4,0.8-1.1,1.2C16.4,43.6,15.8,43.8,15.3,43.8z"/>
	<path class="st1" d="M37.5,41.5c-1.9,0-2.9-1.2-2.9-3.5c0-0.8,0.2-1.7,0.5-2.8c0.3-1.1,0.7-2.1,1.2-3c-0.5,0.5-1.1,1.1-1.9,1.8
		c-0.8,0.8-1.5,1.6-2.2,2.5c-1.4,1.7-2.5,3.2-3.2,4.5c-0.4,0.3-0.9,0.4-1.4,0.4c-1,0-1.4-0.2-1.4-0.7c0-0.4,0.2-1.1,0.6-2.2
		c0.4-1.1,1-2.5,1.7-4.2c1.1-2.6,2.4-5.1,3.6-7.5c1.3-2.4,2.6-4.7,4.1-7c4.3-6.9,7.9-10.4,10.7-10.4c1.5,0,2.3,0.9,2.3,2.6
		c0,2.3-1.9,5.5-5.6,9.6c-0.8,0.9-1.9,2-3.2,3.3c-1.3,1.3-3,2.9-5,4.8c-0.5,0.4-1.1,1-2,1.8c-0.9,0.8-1.8,1.6-2.7,2.5
		c-0.1,0.1-0.3,0.4-0.4,0.9c-0.2,0.4-0.4,1-0.7,1.7c-0.6,1.4-0.9,2.3-0.9,2.6c0,0,0.1,0.1,0.1,0.2c0.4-0.5,1-1.2,1.7-2
		c0.8-0.8,1.6-1.8,2.5-2.8c0.8-0.9,1.6-1.7,2.4-2.5c0.8-0.8,1.3-1.3,1.8-1.6c0.3-0.2,0.6-0.3,0.9-0.3c0.7,0,1.1,0.4,1.1,1.1L37.6,34
		c-0.9,1.9-1.3,3.3-1.3,4.4c0,1.3,0.6,1.9,1.8,1.9c1,0,2.1-0.5,3.2-1.6c0.8-0.7,1.7-1.7,2.5-2.9l1.2-1.7c0.1-0.1,0.2-0.2,0.3-0.2
		s0.2,0.1,0.3,0.2c0.1,0.1,0.1,0.2,0,0.4c-0.1,0.2-0.2,0.5-0.5,0.9c-1.2,1.8-2.5,3.3-3.8,4.4C40.2,41,38.8,41.5,37.5,41.5z
		 M31.2,32.1c1.3-0.9,2.7-2.2,4.4-3.7c1.7-1.5,3.4-3.4,5.3-5.6c4.2-4.8,6.3-8.3,6.3-10.3c0-1.2-0.4-1.8-1.2-1.8
		c-1.9,0-4.7,3-8.2,8.9c-1.2,2-2.4,4.1-3.6,6.3C33,28.1,32,30.1,31.2,32.1z"/>
	<path class="st1" d="M47.9,41.5c-1.2,0-2.2-0.3-3.1-1c-0.9-0.7-1.3-1.8-1.3-3.4c0-1,0.2-2,0.6-3.1s1-2.2,1.7-3.2
		c0.7-1,1.5-1.8,2.4-2.5c0.9-0.6,1.8-1,2.7-1c0.4,0,0.7,0.1,0.9,0.4c0.3,0.3,0.4,0.6,0.4,1.1c0,1.1-0.8,2.5-2.5,4
		c-0.7,0.6-1.4,1.2-2.1,1.7c-0.7,0.5-1.4,0.9-2,1.1c-0.1,0.5-0.2,1-0.2,1.6c0,0.8,0.2,1.6,0.6,2.3c0.4,0.7,1,1,1.9,1
		c1.1,0,2.1-0.3,3-0.9c0.9-0.6,1.7-1.4,2.5-2.2c0.8-0.9,1.4-1.7,2-2.4c0.2-0.4,0.5-0.5,0.8-0.5c0.1,0,0.2,0.1,0.2,0.2
		c0,0.1,0,0.2-0.1,0.2c0,0.1-0.1,0.2-0.1,0.2c-0.6,0.9-1.3,1.8-2.1,2.8c-0.8,1-1.7,1.9-2.7,2.6C50.4,41.2,49.2,41.5,47.9,41.5z
		 M46.1,34.6c0.9-0.4,1.9-1.1,2.9-2.1c1.2-1.1,1.8-2.1,1.8-3c0-0.4-0.2-0.6-0.6-0.6c-0.6,0-1.4,0.8-2.4,2.5
		C46.8,32.6,46.3,33.7,46.1,34.6z"/>
	<path class="st1" d="M79.3,42.6c-2,0-3-0.9-3-2.7c0-1.7,0.8-4.1,2.5-7.2c0.2-0.3,0.4-0.7,0.6-1.1c0.2-0.4,0.6-1.1,1.2-2
		c0.5-0.9,1.3-2.1,2.3-3.8c3.3-5.4,4.9-9.7,4.9-12.7c0-2.5-1.3-3.8-3.9-3.8c-3,0-6.7,1.7-11.3,5.2c-4,3-7,6.1-9.1,9.1
		c-1.4,2-2,3.7-2,5c0,1.1,0.6,1.7,1.9,1.7c0.4,0,1-0.1,1.8-0.4c0.9-0.3,1.4-0.4,1.6-0.4c0.4,0,0.6,0.1,0.6,0.3c0,0.5-0.6,1-1.9,1.4
		c-1,0.4-1.9,0.5-2.5,0.5c-2,0-3-1-3-3.1c0-2.8,1.5-5.9,4.5-9.2c1.3-1.5,2.8-2.9,4.4-4.2c1.6-1.3,3.5-2.6,5.5-3.8
		c3.9-2.3,7.2-3.4,9.9-3.4c4.1,0,6.1,1.8,6.1,5.3c0,1.6-0.5,3.4-1.4,5.4c-0.5,1.1-1.1,2.3-1.8,3.6c-0.7,1.3-1.5,2.7-2.4,4.3
		c-0.8,1.3-1.5,2.6-2.3,3.8c-0.8,1.3-1.6,2.6-2.3,3.8c-1.3,2.2-2,4-2,5.5c0,1.2,0.5,1.8,1.5,1.8c1.2,0,2.9-0.8,5-2.3
		c5.5-3.8,11.3-9.4,17.2-16.6c0-0.1,0.2-0.3,0.5-0.7c0.3-0.4,0.7-0.8,1.1-1.3c0.5-0.4,1-0.6,1.6-0.6c0.4,0,0.6,0.2,0.6,0.5
		c0,0.3-0.1,0.6-0.4,1c-3.5,6.1-5.2,11-5.2,15c0,2.6,0.7,4,2.1,4c1.2,0,2.8-1.1,4.8-3.2c1.7-1.8,2.9-3.4,3.7-4.8
		c2.4-4.3,3.6-7.6,3.6-9.9c0-0.2,0-0.4-0.1-0.7s-0.2-0.6-0.3-1c-0.1-0.4-0.2-0.7-0.3-0.9c-0.1-0.3-0.1-0.5-0.1-0.8
		c0-1.2,0.4-1.8,1.2-1.8c0.4,0,0.8,0.5,1.1,1.4c0.2,0.6,0.4,1.3,0.4,1.9c0,0.2,0,0.4,0,0.6c0,0.2,0,0.4-0.1,0.7
		c0.2,0.4,0.5,0.6,1,0.8c0.5,0.1,0.7,0.3,0.7,0.6c0,0.3-0.2,0.4-0.6,0.4c-0.4,0-0.9-0.1-1.4-0.3c-0.4,1.7-0.9,3.3-1.5,4.9
		c-0.6,1.6-1.4,3.2-2.3,4.8c-1,1.8-2.1,3.3-3.3,4.6c-1.2,1.3-2.4,2.3-3.7,3.2c-1,0.6-2,1-3.1,1c-2.5,0-3.8-1.6-3.8-4.7
		c0-2,0.8-5.5,2.4-10.6c-2.3,2.3-4.3,4.3-6,6c-1.7,1.7-2.8,2.8-3.4,3.3c-2.3,2.1-4.3,3.7-6.1,4.8c-1.8,1.1-3.2,1.8-4.4,2
		c-0.3,0-0.6,0.1-0.9,0.1C79.9,42.6,79.6,42.6,79.3,42.6z"/>
	<path class="st1" d="M120.7,41.5c-1.2,0-2.2-0.3-3.1-1c-0.9-0.7-1.3-1.8-1.3-3.4c0-1,0.2-2,0.6-3.1s1-2.2,1.7-3.2
		c0.7-1,1.5-1.8,2.4-2.5c0.9-0.6,1.8-1,2.7-1c0.4,0,0.7,0.1,0.9,0.4c0.3,0.3,0.4,0.6,0.4,1.1c0,1.1-0.8,2.5-2.5,4
		c-0.7,0.6-1.4,1.2-2.1,1.7c-0.7,0.5-1.4,0.9-2,1.1c-0.1,0.5-0.2,1-0.2,1.6c0,0.8,0.2,1.6,0.6,2.3c0.4,0.7,1,1,1.9,1
		c1.1,0,2.1-0.3,3-0.9c0.9-0.6,1.7-1.4,2.5-2.2c0.8-0.9,1.4-1.7,2-2.4c0.2-0.4,0.5-0.5,0.8-0.5c0.1,0,0.2,0.1,0.2,0.2
		c0,0.1,0,0.2-0.1,0.2c0,0.1-0.1,0.2-0.1,0.2c-0.6,0.9-1.3,1.8-2.1,2.8c-0.8,1-1.7,1.9-2.7,2.6C123.2,41.2,122,41.5,120.7,41.5z
		 M118.9,34.6c0.9-0.4,1.9-1.1,2.9-2.1c1.2-1.1,1.8-2.1,1.8-3c0-0.4-0.2-0.6-0.6-0.6c-0.6,0-1.4,0.8-2.4,2.5
		C119.7,32.6,119.1,33.7,118.9,34.6z"/>
	<path class="st1" d="M128,41.2c-1.1,0-1.7-0.6-1.7-1.8c0-2.2,1.1-4.8,3.4-7.7c1.2-1.5,2.3-2.7,3.5-3.5c1.1-0.8,2.3-1.1,3.4-1
		c0.6-2.1,1.2-4,1.9-5.8c0.6-1.8,1.3-3.5,2.1-5c2.4-5,4.8-7.5,7.1-7.5c1.5,0,2.3,0.9,2.3,2.6c0,3.8-4.3,10.7-12.8,20.7
		c-0.2,1.2-0.3,2.4-0.3,3.5c0,2.7,0.6,4.1,1.7,4.1c0.8,0,1.8-0.9,3.3-2.6c1.4-1.8,2.2-2.6,2.4-2.6c0.1,0,0.2,0.1,0.2,0.3
		c0,0.2-0.1,0.5-0.3,0.8c-2.2,3.6-4.4,5.4-6.6,5.4c-1.9,0-2.8-1.4-2.8-4.2c0-0.9,0.1-1.9,0.3-3.1C132.2,38.7,129.9,41.2,128,41.2z
		 M128.9,39.5c0.8,0,1.8-0.8,3.1-2.4c0.2-0.3,0.6-0.7,0.9-1.4s0.8-1.4,1.4-2.3c0.6-1,1-1.9,1.3-2.5c0.3-0.6,0.4-1,0.4-1.2
		c0-0.1,0-0.1,0-0.1c0,0,0,0-0.1-0.1c0-0.1-0.2-0.2-0.6-0.2c-1.4,0-3,1.1-4.7,3.3c-1.7,2.2-2.5,4.1-2.5,5.6
		C128.1,39.2,128.3,39.5,128.9,39.5z M137.4,30.7c6.9-9.4,10.4-15.8,10.4-19.1c0-0.8-0.3-1.2-1-1.2c-1.8,0-3.8,2.9-6,8.8
		C139.4,23.1,138.3,26.9,137.4,30.7z"/>
	<path class="st1" d="M143.4,41.2c-1.1,0-1.7-0.6-1.7-1.8c0-2.2,1.1-4.8,3.4-7.7c1.2-1.5,2.3-2.7,3.5-3.5c1.1-0.8,2.3-1.1,3.4-1
		c0.6-2.1,1.2-4,1.9-5.8c0.6-1.8,1.3-3.5,2.1-5c2.4-5,4.8-7.5,7.1-7.5c1.5,0,2.3,0.9,2.3,2.6c0,3.8-4.3,10.7-12.8,20.7
		c-0.2,1.2-0.3,2.4-0.3,3.5c0,2.7,0.6,4.1,1.7,4.1c0.8,0,1.8-0.9,3.3-2.6c1.4-1.8,2.2-2.6,2.4-2.6c0.1,0,0.2,0.1,0.2,0.3
		c0,0.2-0.1,0.5-0.3,0.8c-2.2,3.6-4.4,5.4-6.6,5.4c-1.9,0-2.8-1.4-2.8-4.2c0-0.9,0.1-1.9,0.3-3.1C147.7,38.7,145.3,41.2,143.4,41.2z
		 M144.3,39.5c0.8,0,1.8-0.8,3.1-2.4c0.2-0.3,0.6-0.7,0.9-1.4c0.4-0.6,0.8-1.4,1.4-2.3c0.6-1,1-1.9,1.3-2.5c0.3-0.6,0.4-1,0.4-1.2
		c0-0.1,0-0.1,0-0.1c0,0,0,0-0.1-0.1c0-0.1-0.2-0.2-0.6-0.2c-1.4,0-3,1.1-4.7,3.3s-2.5,4.1-2.5,5.6
		C143.5,39.2,143.8,39.5,144.3,39.5z M152.9,30.7c6.9-9.4,10.4-15.8,10.4-19.1c0-0.8-0.3-1.2-1-1.2c-1.8,0-3.8,2.9-6,8.8
		C154.9,23.1,153.7,26.9,152.9,30.7z"/>
	<path class="st1" d="M160.7,42.1c-2,0-3-1.1-3-3.2c0-1,0.4-2.5,1.1-4.4c0.3-0.9,0.7-1.7,1-2.3c0.3-0.6,0.7-1.2,1-1.7
		c0.2-0.3,0.5-0.5,0.8-0.5c0.3,0,0.6,0.1,0.9,0.4c0.2,0.2,0.3,0.4,0.3,0.7c0,0.3-0.1,0.5-0.2,0.8c-0.8,1.2-1.4,2.4-1.9,3.7
		c-0.5,1.2-0.8,2.3-0.8,3.3c0,1.3,0.5,1.9,1.4,1.9c0.5,0,1.1-0.1,1.7-0.4s1.3-0.7,1.9-1.3c0.4-0.4,0.9-0.8,1.4-1.3
		c0.5-0.5,1-1.1,1.5-1.8l1.4-1.7c0.2,0,0.3,0.1,0.3,0.4c0,0.3-0.1,0.6-0.4,0.9C165.8,40,163,42.1,160.7,42.1z M163.8,27.5
		c-0.9,0-1.3-0.4-1.3-1.3c0-0.4,0.2-0.8,0.5-1.1c0.4-0.4,0.8-0.5,1.2-0.5c0.9,0,1.3,0.4,1.3,1.3c0,0.4-0.2,0.8-0.5,1.1
		C164.7,27.3,164.3,27.5,163.8,27.5z"/>
	<path class="st1" d="M176.5,41.5c-2,0-3.1-1.3-3.1-3.9c0-1.1,0.2-2.3,0.6-3.3c0.4-1.1,0.8-2.1,1.3-3c-1.3,1.1-2.6,2.5-3.9,4.1
		c-1.4,1.6-2.7,3.4-4.1,5.5c-0.2,0.3-0.4,0.5-0.5,0.5c-0.3,0-0.5-0.3-0.5-1c0-0.1,0-0.3,0.1-0.4c0.4-1,0.8-2.1,1.2-3.4
		c0.4-1.3,0.8-2.8,1.2-4.5c0.1-0.4,0.1-0.7,0.2-1.1c0.1-0.4,0.2-0.8,0.3-1.4c0.1-0.2,0.3-0.5,0.8-0.8c0.4-0.2,0.7-0.4,1.1-0.4
		c0.2,0,0.4,0.1,0.4,0.3c0,0.2-0.2,0.9-0.6,2.3c-0.4,1.4-1.1,3.3-1.9,5.9c0.2-0.3,0.7-0.8,1.3-1.6c0.7-0.8,1.6-1.8,2.7-3l3.3-3.7
		c0.2-0.2,0.5-0.4,0.9-0.4c0.8,0,1.2,0.4,1.2,1.2c0,0.2-0.1,0.4-0.2,0.6c-2,3.3-3,5.9-3,7.8c0,1.4,0.6,2,1.9,2c0.9,0,2-0.5,3.2-1.6
		c0.5-0.4,0.9-0.8,1.3-1.3c0.4-0.5,0.8-1,1.2-1.6c0.8-1,1.2-1.6,1.3-1.6s0.2,0.1,0.2,0.3s-0.1,0.5-0.3,0.9
		C181.6,39.5,179.1,41.5,176.5,41.5z"/>
	<path class="st1" d="M173.3,63c-1.8,0-3.2-0.5-4.3-1.5c-1.2-1-1.8-2.4-1.8-4c0-3.8,2.7-7.5,8.2-11c4.6-3,9.1-4.8,13.4-5.5
		c0.1-0.7,0.3-1.5,0.5-2.6c0.2-1,0.4-2.2,0.7-3.6c-2.4,4.3-4.6,6.4-6.4,6.4c-1.1,0-1.7-0.6-1.7-1.8c0-1.8,0.9-4.1,2.7-6.7
		c1.8-2.6,3.5-4.2,5.2-4.8c0.3-0.1,0.6-0.2,0.9-0.3c0.3-0.1,0.6-0.1,0.8-0.1c0.6,0,1.2,0.2,1.8,0.5c0.3,0.1,0.5,0.3,0.8,0.5
		c0.2,0.2,0.3,0.4,0.3,0.7c0,0.1-0.2,0.3-0.5,0.4s-0.5,0.3-0.6,0.5l-0.6,2.7c-0.2,0.9-0.4,2-0.8,3.4s-0.7,3-1.1,4.8h0.2
		c1.9,0,2.8,0.4,2.8,1.2c0,0.2-0.1,0.3-0.2,0.3l-0.4-0.3c-0.3-0.2-0.8-0.3-1.6-0.3c-0.2,0-0.4,0-0.5,0c-0.2,0-0.4,0-0.5,0.1
		c-0.7,2.7-1.5,5.1-2.3,7.2c-0.9,2.1-1.8,3.9-2.8,5.3C181.8,60.2,177.7,63,173.3,63z M173.6,62.3c2.3,0,4.4-0.9,6.6-2.8
		c1.7-1.4,3.2-3.3,4.6-5.6c1.9-3.3,3.3-7.2,4.1-11.9c-2.3,0.4-5.1,1.4-8.4,3.1c-1.6,0.8-3.1,1.6-4.3,2.5c-1.3,0.8-2.3,1.6-3.2,2.5
		c-2.7,2.6-4,5.1-4,7.7c0,1.4,0.4,2.5,1.3,3.3C171,61.8,172.2,62.3,173.6,62.3z M184.6,39.6c0.4,0,0.9-0.2,1.4-0.7
		c0.5-0.4,1.1-1,1.7-1.8c0.9-1.1,1.7-2.4,2.4-3.7c0.8-1.3,1.4-2.7,2-4.2c-0.1,0-0.3-0.1-0.5-0.1c-1.5,0-3,0.9-4.5,2.7
		c-2.2,2.6-3.3,4.8-3.3,6.5C183.9,39.2,184.1,39.6,184.6,39.6z"/>
	<path class="st1" d="M211.4,42.6c-4.7,0-7-1.9-7-5.6c0-1.2,0.3-2.4,0.8-3.8c-2.4-1.1-3.5-2.9-3.5-5.2c0-3.1,1.5-5.9,4.5-8.5
		c2.4-2.1,5.3-3.7,8.8-4.9c3.8-1.4,7.5-2,11.2-2c3.5,0,6.4,0.6,8.8,1.9c3,1.7,4.5,4.1,4.5,7.2c0,2.5-1,5.2-3,8.1
		c-2.6,3.8-6.3,6.8-11,9.2C220.5,41.4,215.8,42.6,211.4,42.6z M211.8,41.5c4.3,0,8.6-1.3,12.9-3.9c4-2.4,7.3-5.5,9.9-9.2
		c1.9-2.8,2.9-5.3,2.9-7.6c0-2.5-1.1-4.4-3.4-5.6c-1.8-1-4.1-1.5-6.9-1.5c-3.6,0-7.4,0.8-11.5,2.4c-3.1,1.3-5.8,2.7-8.1,4.5
		c-3.2,2.4-4.8,4.9-4.8,7.4c0,2.1,0.9,3.5,2.8,4.1c0.8-1.5,1.9-3,3.1-4.5c1.3-1.5,2.7-3,4.3-4.5c3.3-3,6.5-5.2,9.5-6.4
		c0.8-0.3,1.4-0.5,2.1-0.7c0.6-0.2,1.2-0.3,1.8-0.3h0.1c0.4,0,0.6,0.2,0.6,0.5c0,0.4-0.3,0.6-0.8,0.7c-1.3,0.2-2.5,0.6-3.7,1.2
		c-1.2,0.6-2.7,1.6-4.5,3c-0.9,0.7-1.8,1.5-2.8,2.3c-1,0.9-2,1.9-3,2.9c-1.4,1.4-2.4,2.6-3.2,3.7c-0.8,1-1.2,1.9-1.4,2.6
		c0.6,0.1,1.3,0.2,2,0.2c3.2,0,6.4-1.5,9.6-4.5c0.7-0.7,1.2-1.1,1.5-1.4c0.3-0.2,0.4-0.4,0.4-0.4c0.2,0,0.4,0.1,0.4,0.4
		c-0.8,1.1-1.6,2-2.4,2.8c-0.9,0.8-1.8,1.5-2.9,2.1c-2.3,1.4-4.6,2-6.9,2c-0.4,0-0.7,0-1-0.1s-0.7-0.1-0.9-0.2
		c-0.6,1.2-0.9,2.3-0.9,3.3c0,1.4,0.5,2.5,1.6,3.3C209,41.1,210.3,41.5,211.8,41.5z"/>
	<path class="st1" d="M237,60.3c-1.3,0-2.2-0.5-2.6-1.6c-0.4-1.1-0.6-2.3-0.6-3.7c0-1.3,0.2-2.8,0.7-4.6c0.4-1.8,1-3.7,1.7-5.7
		c0.7-2,1.5-4,2.3-6s1.7-3.8,2.4-5.5c0.9-1.9,1.7-3.4,2.3-4.8c0.7-1.3,1.3-2.5,1.8-3.5c0.6-1,1.1-2,1.6-2.9c0.5-0.9,1.1-2,1.7-3.1
		c0.7-1.3,1.4-2.4,1.9-3.3c0.6-0.9,1-1.5,1.2-1.8c0.2-0.2,0.5-0.4,0.8-0.6c0.4-0.2,0.7-0.3,1-0.3c0.5,0,0.8,0.3,0.8,0.9
		c0,0.3-0.2,0.8-0.7,1.6c-0.5,0.8-1.1,1.8-1.8,2.9c-0.8,1.1-1.5,2.3-2.4,3.5c-1,1.5-2.1,3.2-3.2,5c-1.1,1.8-2.2,3.6-3.2,5.5
		c0.3-0.2,0.6-0.3,0.8-0.3c1.2,0,2.2,1.9,3,5.8c0.4,0.4,0.8,0.6,1.2,0.7c0.4,0.1,0.8,0.1,1.1,0.1c0.9,0,2-0.6,3.1-1.7
		c0.6-0.6,1.1-1.1,1.4-1.7c0.4-0.6,0.7-1,0.9-1.2c0.1-0.1,0.2-0.2,0.3-0.2c0.2,0,0.4,0.1,0.4,0.3c0,0.2-0.1,0.4-0.4,0.8
		c-1,1.4-1.9,2.5-2.8,3.3c-0.9,0.8-1.9,1.3-2.8,1.3c-0.5,0-1-0.1-1.5-0.2c-0.4-0.1-0.7-0.3-0.9-0.5c0.3,2.1,0.3,4.1,0.1,6
		c-0.3,2-0.8,4-1.5,6c-0.6,1.5-1.2,3-2,4.4c-0.8,1.4-1.7,2.6-2.7,3.5S238.3,60.3,237,60.3z M237.7,58.9c0.9,0,1.8-0.4,2.6-1.3
		c0.8-0.9,1.5-1.9,2.2-3.1s1.2-2.4,1.6-3.5c0.8-2,1.3-4.1,1.5-6.3c0.2-2.1,0.1-4.2-0.3-6.2c-0.8-0.6-1.5-1.4-2.2-2.3
		s-0.9-1.9-0.9-2.8c-2.1,4.8-3.8,9-5,12.8c-1.2,3.8-1.8,6.9-1.8,9.5c0,1.2,0.2,2,0.7,2.5C236.6,58.7,237.2,58.9,237.7,58.9z"/>
</g>
</svg>
